%TF.GenerationSoftware,KiCad,Pcbnew,9.0.0*%
%TF.CreationDate,2025-08-25T22:35:37-05:00*%
%TF.ProjectId,CellSimulatorPCB,43656c6c-5369-46d7-956c-61746f725043,rev?*%
%TF.SameCoordinates,Original*%
%TF.FileFunction,Copper,L2,Bot*%
%TF.FilePolarity,Positive*%
%FSLAX46Y46*%
G04 Gerber Fmt 4.6, Leading zero omitted, Abs format (unit mm)*
G04 Created by KiCad (PCBNEW 9.0.0) date 2025-08-25 22:35:37*
%MOMM*%
%LPD*%
G01*
G04 APERTURE LIST*
%TA.AperFunction,ComponentPad*%
%ADD10C,2.800000*%
%TD*%
%TA.AperFunction,ComponentPad*%
%ADD11C,8.115000*%
%TD*%
%TA.AperFunction,ComponentPad*%
%ADD12C,1.752600*%
%TD*%
G04 APERTURE END LIST*
D10*
%TO.P,TP11,1,1*%
%TO.N,/3&4COM_ext*%
X90250000Y-64500000D03*
%TD*%
%TO.P,TP9,1,1*%
%TO.N,/1&2COM_ext*%
X90250000Y-73000000D03*
%TD*%
%TO.P,TP13,1,1*%
%TO.N,GND*%
X95250000Y-76500000D03*
%TD*%
D11*
%TO.P,J2,1,Pin_1*%
%TO.N,GND*%
X108250000Y-73500000D03*
%TD*%
D10*
%TO.P,TP14,1,1*%
%TO.N,/VBAT*%
X96000000Y-58000000D03*
%TD*%
D12*
%TO.P,J11,1,Pin_1*%
%TO.N,GND*%
X86000000Y-75250000D03*
%TO.P,J11,2,Pin_2*%
%TO.N,unconnected-(J11-Pin_2-Pad2)*%
X86000000Y-72750000D03*
%TO.P,J11,3,Pin_3*%
%TO.N,/1&2COM_ext*%
X86000000Y-70250000D03*
%TO.P,J11,4,Pin_4*%
%TO.N,/2&3COM_ext*%
X86000000Y-67750000D03*
%TO.P,J11,5,Pin_5*%
%TO.N,/3&4COM_ext*%
X86000000Y-65250000D03*
%TO.P,J11,6,Pin_6*%
%TO.N,/4&5COM_ext*%
X86000000Y-62750000D03*
%TO.P,J11,7,Pin_7*%
%TO.N,/last_cell_ext*%
X86000000Y-60250000D03*
%TD*%
D10*
%TO.P,TP12,1,1*%
%TO.N,/4&5COM_ext*%
X90250000Y-60250000D03*
%TD*%
D11*
%TO.P,J1,1,Pin_1*%
%TO.N,/VBAT*%
X108250000Y-61835000D03*
%TD*%
D10*
%TO.P,TP10,1,1*%
%TO.N,/2&3COM_ext*%
X90250000Y-68750000D03*
%TD*%
%TA.AperFunction,Conductor*%
%TO.N,GND*%
G36*
X94859826Y-56270185D02*
G01*
X94905581Y-56322989D01*
X94915525Y-56392147D01*
X94886500Y-56455703D01*
X94868273Y-56472876D01*
X94744225Y-56568060D01*
X94744218Y-56568066D01*
X94568066Y-56744218D01*
X94568060Y-56744225D01*
X94416400Y-56941873D01*
X94291837Y-57157623D01*
X94291830Y-57157638D01*
X94196498Y-57387792D01*
X94132017Y-57628438D01*
X94099501Y-57875424D01*
X94099500Y-57875441D01*
X94099500Y-58124558D01*
X94099501Y-58124575D01*
X94111465Y-58215455D01*
X94132018Y-58371565D01*
X94177642Y-58541836D01*
X94196498Y-58612207D01*
X94291830Y-58842361D01*
X94291837Y-58842376D01*
X94416400Y-59058126D01*
X94568060Y-59255774D01*
X94568066Y-59255781D01*
X94744218Y-59431933D01*
X94744225Y-59431939D01*
X94941873Y-59583599D01*
X95157623Y-59708162D01*
X95157638Y-59708169D01*
X95189808Y-59721494D01*
X95387793Y-59803502D01*
X95628435Y-59867982D01*
X95875435Y-59900500D01*
X95875442Y-59900500D01*
X96124558Y-59900500D01*
X96124565Y-59900500D01*
X96371565Y-59867982D01*
X96612207Y-59803502D01*
X96842373Y-59708164D01*
X97058127Y-59583599D01*
X97255776Y-59431938D01*
X97431938Y-59255776D01*
X97583599Y-59058127D01*
X97708164Y-58842373D01*
X97803502Y-58612207D01*
X97867982Y-58371565D01*
X97900500Y-58124565D01*
X97900500Y-57875435D01*
X97867982Y-57628435D01*
X97803502Y-57387793D01*
X97708164Y-57157627D01*
X97583599Y-56941873D01*
X97431938Y-56744224D01*
X97431933Y-56744218D01*
X97255781Y-56568066D01*
X97255774Y-56568060D01*
X97131727Y-56472876D01*
X97090524Y-56416448D01*
X97086369Y-56346702D01*
X97120581Y-56285782D01*
X97182298Y-56253029D01*
X97207213Y-56250500D01*
X113375500Y-56250500D01*
X113442539Y-56270185D01*
X113488294Y-56322989D01*
X113499500Y-56374500D01*
X113499500Y-78375500D01*
X113479815Y-78442539D01*
X113427011Y-78488294D01*
X113375500Y-78499500D01*
X96011111Y-78499500D01*
X95944072Y-78479815D01*
X95898317Y-78427011D01*
X95888373Y-78357853D01*
X95917398Y-78294297D01*
X95963658Y-78260939D01*
X96092148Y-78207716D01*
X96092159Y-78207711D01*
X96307855Y-78083178D01*
X96405045Y-78008600D01*
X96405045Y-78008597D01*
X95612294Y-77215846D01*
X95628942Y-77208951D01*
X95759970Y-77121401D01*
X95871401Y-77009970D01*
X95958951Y-76878942D01*
X95965846Y-76862294D01*
X96758597Y-77655045D01*
X96758600Y-77655045D01*
X96833178Y-77557855D01*
X96957711Y-77342159D01*
X96957716Y-77342148D01*
X97053026Y-77112049D01*
X97117491Y-76871464D01*
X97122822Y-76830973D01*
X97122822Y-76830972D01*
X97150000Y-76624533D01*
X97150000Y-76375466D01*
X97117491Y-76128536D01*
X97053026Y-75887950D01*
X96957716Y-75657851D01*
X96957711Y-75657840D01*
X96833186Y-75442158D01*
X96833180Y-75442150D01*
X96758598Y-75344953D01*
X95965846Y-76137705D01*
X95958951Y-76121058D01*
X95871401Y-75990030D01*
X95759970Y-75878599D01*
X95628942Y-75791049D01*
X95612292Y-75784152D01*
X96405045Y-74991400D01*
X96307849Y-74916819D01*
X96307841Y-74916813D01*
X96092159Y-74792288D01*
X96092148Y-74792283D01*
X95862049Y-74696973D01*
X95621463Y-74632508D01*
X95374534Y-74600000D01*
X95125466Y-74600000D01*
X94878536Y-74632508D01*
X94637950Y-74696973D01*
X94407851Y-74792283D01*
X94407847Y-74792285D01*
X94192143Y-74916823D01*
X94094953Y-74991399D01*
X94094953Y-74991400D01*
X94887706Y-75784153D01*
X94871058Y-75791049D01*
X94740030Y-75878599D01*
X94628599Y-75990030D01*
X94541049Y-76121058D01*
X94534153Y-76137706D01*
X93741400Y-75344953D01*
X93741399Y-75344953D01*
X93666823Y-75442143D01*
X93542285Y-75657847D01*
X93542283Y-75657851D01*
X93446973Y-75887950D01*
X93382508Y-76128536D01*
X93350000Y-76375466D01*
X93350000Y-76624533D01*
X93382508Y-76871463D01*
X93446973Y-77112049D01*
X93542283Y-77342148D01*
X93542288Y-77342159D01*
X93666813Y-77557841D01*
X93666819Y-77557849D01*
X93741400Y-77655045D01*
X94534152Y-76862292D01*
X94541049Y-76878942D01*
X94628599Y-77009970D01*
X94740030Y-77121401D01*
X94871058Y-77208951D01*
X94887705Y-77215846D01*
X94094953Y-78008598D01*
X94192150Y-78083180D01*
X94192158Y-78083186D01*
X94407840Y-78207711D01*
X94407851Y-78207716D01*
X94536342Y-78260939D01*
X94590745Y-78304780D01*
X94612810Y-78371074D01*
X94595531Y-78438773D01*
X94544394Y-78486384D01*
X94488889Y-78499500D01*
X77874500Y-78499500D01*
X77807461Y-78479815D01*
X77761706Y-78427011D01*
X77750500Y-78375500D01*
X77750500Y-76145241D01*
X77770185Y-76078202D01*
X77822989Y-76032447D01*
X77892147Y-76022503D01*
X77955703Y-76051528D01*
X77962181Y-76057560D01*
X78052844Y-76148223D01*
X78202802Y-76257174D01*
X78367958Y-76341324D01*
X78367960Y-76341325D01*
X78429688Y-76361381D01*
X78544244Y-76398603D01*
X78727320Y-76427600D01*
X78727321Y-76427600D01*
X78912677Y-76427600D01*
X78912678Y-76427600D01*
X79095754Y-76398603D01*
X79272040Y-76341324D01*
X79437196Y-76257174D01*
X79587154Y-76148223D01*
X79718222Y-76017155D01*
X79827173Y-75867197D01*
X79911323Y-75702041D01*
X79968602Y-75525755D01*
X79997599Y-75342679D01*
X79997599Y-75157321D01*
X79995121Y-75141678D01*
X79983528Y-75068482D01*
X79968602Y-74974245D01*
X79911323Y-74797959D01*
X79827173Y-74632803D01*
X79718222Y-74482845D01*
X79587154Y-74351777D01*
X79437196Y-74242826D01*
X79424851Y-74236536D01*
X79272037Y-74158674D01*
X79095751Y-74101396D01*
X78955117Y-74079121D01*
X78912678Y-74072400D01*
X78727320Y-74072400D01*
X78684880Y-74079121D01*
X78544247Y-74101396D01*
X78544246Y-74101396D01*
X78367960Y-74158674D01*
X78202805Y-74242824D01*
X78202797Y-74242829D01*
X78122365Y-74301266D01*
X78052844Y-74351777D01*
X78052842Y-74351779D01*
X78052841Y-74351779D01*
X77962181Y-74442440D01*
X77900858Y-74475925D01*
X77831166Y-74470941D01*
X77775233Y-74429069D01*
X77750816Y-74363605D01*
X77750500Y-74354759D01*
X77750500Y-61145241D01*
X77770185Y-61078202D01*
X77822989Y-61032447D01*
X77892147Y-61022503D01*
X77955703Y-61051528D01*
X77962181Y-61057560D01*
X78052844Y-61148223D01*
X78202802Y-61257174D01*
X78367958Y-61341324D01*
X78367960Y-61341325D01*
X78429688Y-61361381D01*
X78544244Y-61398603D01*
X78727320Y-61427600D01*
X78727321Y-61427600D01*
X78912677Y-61427600D01*
X78912678Y-61427600D01*
X79095754Y-61398603D01*
X79272040Y-61341324D01*
X79437196Y-61257174D01*
X79587154Y-61148223D01*
X79718222Y-61017155D01*
X79827173Y-60867197D01*
X79911323Y-60702041D01*
X79968602Y-60525755D01*
X79997599Y-60342679D01*
X79997599Y-60157321D01*
X79995116Y-60141644D01*
X84623200Y-60141644D01*
X84623200Y-60358355D01*
X84657102Y-60572402D01*
X84657102Y-60572405D01*
X84724068Y-60778505D01*
X84769257Y-60867193D01*
X84822455Y-60971600D01*
X84949836Y-61146925D01*
X85103075Y-61300164D01*
X85238565Y-61398603D01*
X85240050Y-61399682D01*
X85282715Y-61455012D01*
X85288694Y-61524626D01*
X85256088Y-61586420D01*
X85240050Y-61600317D01*
X85103075Y-61699836D01*
X85103073Y-61699838D01*
X85103072Y-61699838D01*
X84949838Y-61853072D01*
X84822455Y-62028399D01*
X84724068Y-62221494D01*
X84657102Y-62427594D01*
X84657102Y-62427597D01*
X84656641Y-62430507D01*
X84623200Y-62641644D01*
X84623200Y-62858356D01*
X84632394Y-62916401D01*
X84657102Y-63072402D01*
X84657102Y-63072405D01*
X84724068Y-63278505D01*
X84724070Y-63278508D01*
X84822455Y-63471600D01*
X84949836Y-63646925D01*
X85103075Y-63800164D01*
X85223685Y-63887792D01*
X85240050Y-63899682D01*
X85282715Y-63955012D01*
X85288694Y-64024626D01*
X85256088Y-64086420D01*
X85240050Y-64100317D01*
X85103075Y-64199836D01*
X85103073Y-64199838D01*
X85103072Y-64199838D01*
X84949838Y-64353072D01*
X84822455Y-64528399D01*
X84724068Y-64721494D01*
X84657102Y-64927594D01*
X84657102Y-64927597D01*
X84623200Y-65141644D01*
X84623200Y-65358355D01*
X84657102Y-65572402D01*
X84657102Y-65572405D01*
X84724068Y-65778505D01*
X84776728Y-65881856D01*
X84822455Y-65971600D01*
X84949836Y-66146925D01*
X85103075Y-66300164D01*
X85230853Y-66393000D01*
X85240050Y-66399682D01*
X85282715Y-66455012D01*
X85288694Y-66524626D01*
X85256088Y-66586420D01*
X85240050Y-66600317D01*
X85103075Y-66699836D01*
X85103073Y-66699838D01*
X85103072Y-66699838D01*
X84949838Y-66853072D01*
X84822455Y-67028399D01*
X84724068Y-67221494D01*
X84657102Y-67427594D01*
X84657102Y-67427597D01*
X84623200Y-67641644D01*
X84623200Y-67858355D01*
X84657102Y-68072402D01*
X84657102Y-68072405D01*
X84724068Y-68278505D01*
X84724070Y-68278508D01*
X84822455Y-68471600D01*
X84949836Y-68646925D01*
X85103075Y-68800164D01*
X85205493Y-68874575D01*
X85240050Y-68899682D01*
X85282715Y-68955012D01*
X85288694Y-69024626D01*
X85256088Y-69086420D01*
X85240050Y-69100317D01*
X85103075Y-69199836D01*
X85103073Y-69199838D01*
X85103072Y-69199838D01*
X84949838Y-69353072D01*
X84822455Y-69528399D01*
X84724068Y-69721494D01*
X84657102Y-69927594D01*
X84657102Y-69927597D01*
X84623200Y-70141644D01*
X84623200Y-70358355D01*
X84657102Y-70572402D01*
X84657102Y-70572405D01*
X84724068Y-70778505D01*
X84784252Y-70896623D01*
X84822455Y-70971600D01*
X84949836Y-71146925D01*
X85103075Y-71300164D01*
X85231636Y-71393569D01*
X85240050Y-71399682D01*
X85282715Y-71455012D01*
X85288694Y-71524626D01*
X85256088Y-71586420D01*
X85240050Y-71600317D01*
X85103075Y-71699836D01*
X85103073Y-71699838D01*
X85103072Y-71699838D01*
X84949838Y-71853072D01*
X84822455Y-72028399D01*
X84724068Y-72221494D01*
X84657102Y-72427594D01*
X84657102Y-72427597D01*
X84623200Y-72641644D01*
X84623200Y-72858355D01*
X84657102Y-73072402D01*
X84657102Y-73072405D01*
X84724068Y-73278505D01*
X84771485Y-73371565D01*
X84822455Y-73471600D01*
X84949836Y-73646925D01*
X85103075Y-73800164D01*
X85240474Y-73899990D01*
X85283139Y-73955320D01*
X85289118Y-74024933D01*
X85256512Y-74086728D01*
X85240473Y-74100626D01*
X85219453Y-74115897D01*
X85219453Y-74115899D01*
X85773712Y-74670158D01*
X85705230Y-74698525D01*
X85603307Y-74766628D01*
X85516628Y-74853307D01*
X85448525Y-74955230D01*
X85420158Y-75023712D01*
X84865899Y-74469453D01*
X84865898Y-74469453D01*
X84822884Y-74528659D01*
X84724534Y-74721679D01*
X84657588Y-74927715D01*
X84623700Y-75141677D01*
X84623700Y-75358322D01*
X84657588Y-75572284D01*
X84724534Y-75778320D01*
X84822885Y-75971342D01*
X84865898Y-76030545D01*
X84865899Y-76030545D01*
X85420158Y-75476286D01*
X85448525Y-75544770D01*
X85516628Y-75646693D01*
X85603307Y-75733372D01*
X85705230Y-75801475D01*
X85773712Y-75829840D01*
X85219452Y-76384099D01*
X85219453Y-76384100D01*
X85278657Y-76427114D01*
X85471679Y-76525465D01*
X85677715Y-76592411D01*
X85891678Y-76626300D01*
X86108322Y-76626300D01*
X86322284Y-76592411D01*
X86528320Y-76525465D01*
X86721331Y-76427120D01*
X86721344Y-76427112D01*
X86780545Y-76384100D01*
X86780545Y-76384098D01*
X86226287Y-75829841D01*
X86294770Y-75801475D01*
X86396693Y-75733372D01*
X86483372Y-75646693D01*
X86551475Y-75544770D01*
X86579841Y-75476287D01*
X87134099Y-76030546D01*
X87134100Y-76030545D01*
X87177112Y-75971344D01*
X87177120Y-75971331D01*
X87275465Y-75778320D01*
X87342411Y-75572284D01*
X87376300Y-75358322D01*
X87376300Y-75141678D01*
X87363165Y-75058752D01*
X87363165Y-75058751D01*
X87342410Y-74927715D01*
X87275465Y-74721679D01*
X87177114Y-74528657D01*
X87134100Y-74469453D01*
X87134099Y-74469452D01*
X86579840Y-75023711D01*
X86551475Y-74955230D01*
X86483372Y-74853307D01*
X86396693Y-74766628D01*
X86294770Y-74698525D01*
X86226287Y-74670158D01*
X86780545Y-74115899D01*
X86780545Y-74115898D01*
X86759525Y-74100626D01*
X86716859Y-74045296D01*
X86710880Y-73975683D01*
X86743486Y-73913888D01*
X86759518Y-73899995D01*
X86896925Y-73800164D01*
X87050164Y-73646925D01*
X87177545Y-73471600D01*
X87275930Y-73278508D01*
X87275931Y-73278505D01*
X87342897Y-73072405D01*
X87342897Y-73072404D01*
X87342898Y-73072401D01*
X87374094Y-72875441D01*
X88349500Y-72875441D01*
X88349500Y-73124558D01*
X88349501Y-73124575D01*
X88382017Y-73371561D01*
X88446498Y-73612207D01*
X88541830Y-73842361D01*
X88541837Y-73842376D01*
X88666400Y-74058126D01*
X88818060Y-74255774D01*
X88818066Y-74255781D01*
X88994218Y-74431933D01*
X88994225Y-74431939D01*
X89191873Y-74583599D01*
X89407623Y-74708162D01*
X89407638Y-74708169D01*
X89506825Y-74749253D01*
X89637793Y-74803502D01*
X89878435Y-74867982D01*
X90125435Y-74900500D01*
X90125442Y-74900500D01*
X90374558Y-74900500D01*
X90374565Y-74900500D01*
X90621565Y-74867982D01*
X90862207Y-74803502D01*
X91092373Y-74708164D01*
X91308127Y-74583599D01*
X91505776Y-74431938D01*
X91681938Y-74255776D01*
X91833599Y-74058127D01*
X91958164Y-73842373D01*
X92053502Y-73612207D01*
X92117982Y-73371565D01*
X92127271Y-73301011D01*
X103692500Y-73301011D01*
X103692500Y-73698988D01*
X103727185Y-74095442D01*
X103796291Y-74487357D01*
X103796294Y-74487370D01*
X103899290Y-74871761D01*
X104035412Y-75245750D01*
X104203592Y-75606415D01*
X104203600Y-75606430D01*
X104402576Y-75951067D01*
X104402585Y-75951082D01*
X104630846Y-76277072D01*
X104853739Y-76542705D01*
X106168314Y-75228130D01*
X106229860Y-75305307D01*
X106444693Y-75520140D01*
X106521867Y-75581684D01*
X105207292Y-76896259D01*
X105207293Y-76896260D01*
X105472920Y-77119148D01*
X105798917Y-77347414D01*
X105798932Y-77347423D01*
X106143569Y-77546399D01*
X106143584Y-77546407D01*
X106504249Y-77714587D01*
X106878238Y-77850709D01*
X107262629Y-77953705D01*
X107262642Y-77953708D01*
X107654557Y-78022814D01*
X108051011Y-78057499D01*
X108051014Y-78057500D01*
X108448986Y-78057500D01*
X108448988Y-78057499D01*
X108845442Y-78022814D01*
X109237357Y-77953708D01*
X109237370Y-77953705D01*
X109621761Y-77850709D01*
X109995750Y-77714587D01*
X110356415Y-77546407D01*
X110356430Y-77546399D01*
X110701067Y-77347423D01*
X110701082Y-77347414D01*
X111027079Y-77119148D01*
X111292705Y-76896260D01*
X111292706Y-76896259D01*
X109978131Y-75581685D01*
X110055307Y-75520140D01*
X110270140Y-75305307D01*
X110331685Y-75228131D01*
X111646259Y-76542706D01*
X111646260Y-76542705D01*
X111869148Y-76277079D01*
X112097414Y-75951082D01*
X112097423Y-75951067D01*
X112296399Y-75606430D01*
X112296407Y-75606415D01*
X112464587Y-75245750D01*
X112600709Y-74871761D01*
X112703705Y-74487370D01*
X112703708Y-74487357D01*
X112772814Y-74095442D01*
X112807499Y-73698988D01*
X112807500Y-73698986D01*
X112807500Y-73301014D01*
X112807499Y-73301011D01*
X112772814Y-72904557D01*
X112703708Y-72512642D01*
X112703705Y-72512629D01*
X112600709Y-72128238D01*
X112464587Y-71754249D01*
X112296407Y-71393584D01*
X112296399Y-71393569D01*
X112097423Y-71048932D01*
X112097414Y-71048917D01*
X111869148Y-70722920D01*
X111646260Y-70457293D01*
X111646259Y-70457292D01*
X110331684Y-71771867D01*
X110270140Y-71694693D01*
X110055307Y-71479860D01*
X109978131Y-71418314D01*
X111292706Y-70103739D01*
X111027072Y-69880846D01*
X110701082Y-69652585D01*
X110701067Y-69652576D01*
X110356430Y-69453600D01*
X110356415Y-69453592D01*
X109995750Y-69285412D01*
X109621761Y-69149290D01*
X109237370Y-69046294D01*
X109237357Y-69046291D01*
X108845442Y-68977185D01*
X108448988Y-68942500D01*
X108051011Y-68942500D01*
X107654557Y-68977185D01*
X107262642Y-69046291D01*
X107262629Y-69046294D01*
X106878238Y-69149290D01*
X106504249Y-69285412D01*
X106143584Y-69453592D01*
X106143569Y-69453600D01*
X105798932Y-69652576D01*
X105798917Y-69652585D01*
X105472927Y-69880846D01*
X105207293Y-70103739D01*
X106521868Y-71418314D01*
X106444693Y-71479860D01*
X106229860Y-71694693D01*
X106168314Y-71771868D01*
X104853739Y-70457293D01*
X104630846Y-70722927D01*
X104402585Y-71048917D01*
X104402576Y-71048932D01*
X104203600Y-71393569D01*
X104203592Y-71393584D01*
X104035412Y-71754249D01*
X103899290Y-72128238D01*
X103796294Y-72512629D01*
X103796291Y-72512642D01*
X103727185Y-72904557D01*
X103692500Y-73301011D01*
X92127271Y-73301011D01*
X92150500Y-73124565D01*
X92150500Y-72875435D01*
X92117982Y-72628435D01*
X92053502Y-72387793D01*
X91958164Y-72157627D01*
X91941196Y-72128238D01*
X91833599Y-71941873D01*
X91681939Y-71744225D01*
X91681933Y-71744218D01*
X91505781Y-71568066D01*
X91505774Y-71568060D01*
X91308126Y-71416400D01*
X91092376Y-71291837D01*
X91092361Y-71291830D01*
X90862207Y-71196498D01*
X90677206Y-71146927D01*
X90621565Y-71132018D01*
X90621564Y-71132017D01*
X90621561Y-71132017D01*
X90374575Y-71099501D01*
X90374570Y-71099500D01*
X90374565Y-71099500D01*
X90125435Y-71099500D01*
X90125429Y-71099500D01*
X90125424Y-71099501D01*
X89878438Y-71132017D01*
X89637792Y-71196498D01*
X89407638Y-71291830D01*
X89407623Y-71291837D01*
X89191873Y-71416400D01*
X88994225Y-71568060D01*
X88994218Y-71568066D01*
X88818066Y-71744218D01*
X88818060Y-71744225D01*
X88666400Y-71941873D01*
X88541837Y-72157623D01*
X88541830Y-72157638D01*
X88446498Y-72387792D01*
X88382017Y-72628438D01*
X88349501Y-72875424D01*
X88349500Y-72875441D01*
X87374094Y-72875441D01*
X87376800Y-72858356D01*
X87376800Y-72641644D01*
X87342898Y-72427599D01*
X87342897Y-72427595D01*
X87342897Y-72427594D01*
X87275931Y-72221494D01*
X87177544Y-72028399D01*
X87114679Y-71941873D01*
X87050164Y-71853075D01*
X86896925Y-71699836D01*
X86759949Y-71600317D01*
X86717284Y-71544988D01*
X86711305Y-71475375D01*
X86743911Y-71413580D01*
X86759950Y-71399682D01*
X86768364Y-71393569D01*
X86896925Y-71300164D01*
X87050164Y-71146925D01*
X87177545Y-70971600D01*
X87275930Y-70778508D01*
X87342898Y-70572401D01*
X87376800Y-70358356D01*
X87376800Y-70141644D01*
X87342898Y-69927599D01*
X87342897Y-69927595D01*
X87342897Y-69927594D01*
X87275931Y-69721494D01*
X87240820Y-69652585D01*
X87177545Y-69528400D01*
X87050164Y-69353075D01*
X86896925Y-69199836D01*
X86759949Y-69100317D01*
X86717284Y-69044988D01*
X86711305Y-68975375D01*
X86743911Y-68913580D01*
X86759950Y-68899682D01*
X86794507Y-68874575D01*
X86896925Y-68800164D01*
X87050164Y-68646925D01*
X87065773Y-68625441D01*
X88349500Y-68625441D01*
X88349500Y-68874558D01*
X88349501Y-68874575D01*
X88382017Y-69121561D01*
X88446498Y-69362207D01*
X88541830Y-69592361D01*
X88541837Y-69592376D01*
X88666400Y-69808126D01*
X88818060Y-70005774D01*
X88818066Y-70005781D01*
X88994218Y-70181933D01*
X88994225Y-70181939D01*
X89191873Y-70333599D01*
X89407623Y-70458162D01*
X89407638Y-70458169D01*
X89506825Y-70499253D01*
X89637793Y-70553502D01*
X89878435Y-70617982D01*
X90125435Y-70650500D01*
X90125442Y-70650500D01*
X90374558Y-70650500D01*
X90374565Y-70650500D01*
X90621565Y-70617982D01*
X90862207Y-70553502D01*
X91092373Y-70458164D01*
X91308127Y-70333599D01*
X91505776Y-70181938D01*
X91546070Y-70141644D01*
X91622557Y-70065158D01*
X91681933Y-70005781D01*
X91681938Y-70005776D01*
X91833599Y-69808127D01*
X91958164Y-69592373D01*
X92053502Y-69362207D01*
X92117982Y-69121565D01*
X92150500Y-68874565D01*
X92150500Y-68625435D01*
X92117982Y-68378435D01*
X92053502Y-68137793D01*
X91958164Y-67907627D01*
X91833599Y-67691873D01*
X91681938Y-67494224D01*
X91681933Y-67494218D01*
X91505781Y-67318066D01*
X91505774Y-67318060D01*
X91308126Y-67166400D01*
X91092376Y-67041837D01*
X91092361Y-67041830D01*
X90862207Y-66946498D01*
X90621561Y-66882017D01*
X90374575Y-66849501D01*
X90374570Y-66849500D01*
X90374565Y-66849500D01*
X90125435Y-66849500D01*
X90125429Y-66849500D01*
X90125424Y-66849501D01*
X89878438Y-66882017D01*
X89637792Y-66946498D01*
X89407638Y-67041830D01*
X89407623Y-67041837D01*
X89191873Y-67166400D01*
X88994225Y-67318060D01*
X88994218Y-67318066D01*
X88818066Y-67494218D01*
X88818060Y-67494225D01*
X88666400Y-67691873D01*
X88541837Y-67907623D01*
X88541830Y-67907638D01*
X88446498Y-68137792D01*
X88382017Y-68378438D01*
X88349501Y-68625424D01*
X88349500Y-68625441D01*
X87065773Y-68625441D01*
X87177545Y-68471600D01*
X87275930Y-68278508D01*
X87342898Y-68072401D01*
X87376800Y-67858356D01*
X87376800Y-67641644D01*
X87342898Y-67427599D01*
X87342897Y-67427595D01*
X87342897Y-67427594D01*
X87275931Y-67221494D01*
X87184391Y-67041836D01*
X87177545Y-67028400D01*
X87050164Y-66853075D01*
X86896925Y-66699836D01*
X86759949Y-66600317D01*
X86717284Y-66544988D01*
X86711305Y-66475375D01*
X86743911Y-66413580D01*
X86759950Y-66399682D01*
X86769147Y-66393000D01*
X86896925Y-66300164D01*
X87050164Y-66146925D01*
X87177545Y-65971600D01*
X87275930Y-65778508D01*
X87342898Y-65572401D01*
X87376800Y-65358356D01*
X87376800Y-65141644D01*
X87342898Y-64927599D01*
X87342897Y-64927595D01*
X87342897Y-64927594D01*
X87275931Y-64721494D01*
X87226543Y-64624565D01*
X87177545Y-64528400D01*
X87066414Y-64375441D01*
X88349500Y-64375441D01*
X88349500Y-64624558D01*
X88349501Y-64624575D01*
X88382017Y-64871561D01*
X88446498Y-65112207D01*
X88541830Y-65342361D01*
X88541837Y-65342376D01*
X88666400Y-65558126D01*
X88818060Y-65755774D01*
X88818066Y-65755781D01*
X88994218Y-65931933D01*
X88994225Y-65931939D01*
X89191873Y-66083599D01*
X89407623Y-66208162D01*
X89407638Y-66208169D01*
X89506825Y-66249253D01*
X89637793Y-66303502D01*
X89878435Y-66367982D01*
X90125435Y-66400500D01*
X90125442Y-66400500D01*
X90374558Y-66400500D01*
X90374565Y-66400500D01*
X90621565Y-66367982D01*
X90862207Y-66303502D01*
X91092373Y-66208164D01*
X91308127Y-66083599D01*
X91505776Y-65931938D01*
X91681938Y-65755776D01*
X91833599Y-65558127D01*
X91958164Y-65342373D01*
X92053502Y-65112207D01*
X92117982Y-64871565D01*
X92150500Y-64624565D01*
X92150500Y-64375435D01*
X92117982Y-64128435D01*
X92053502Y-63887793D01*
X91958164Y-63657627D01*
X91951986Y-63646927D01*
X91833599Y-63441873D01*
X91681939Y-63244225D01*
X91681933Y-63244218D01*
X91505781Y-63068066D01*
X91505774Y-63068060D01*
X91308126Y-62916400D01*
X91092376Y-62791837D01*
X91092361Y-62791830D01*
X90862207Y-62696498D01*
X90621565Y-62632018D01*
X90621564Y-62632017D01*
X90621561Y-62632017D01*
X90374575Y-62599501D01*
X90374570Y-62599500D01*
X90374565Y-62599500D01*
X90125435Y-62599500D01*
X90125429Y-62599500D01*
X90125424Y-62599501D01*
X89878438Y-62632017D01*
X89637792Y-62696498D01*
X89407638Y-62791830D01*
X89407623Y-62791837D01*
X89191873Y-62916400D01*
X88994225Y-63068060D01*
X88994218Y-63068066D01*
X88818066Y-63244218D01*
X88818060Y-63244225D01*
X88666400Y-63441873D01*
X88541837Y-63657623D01*
X88541830Y-63657638D01*
X88446498Y-63887792D01*
X88382017Y-64128438D01*
X88349501Y-64375424D01*
X88349500Y-64375441D01*
X87066414Y-64375441D01*
X87050164Y-64353075D01*
X86896925Y-64199836D01*
X86759949Y-64100317D01*
X86717284Y-64044988D01*
X86711305Y-63975375D01*
X86743911Y-63913580D01*
X86759950Y-63899682D01*
X86776315Y-63887792D01*
X86896925Y-63800164D01*
X87050164Y-63646925D01*
X87177545Y-63471600D01*
X87275930Y-63278508D01*
X87287070Y-63244224D01*
X87342897Y-63072405D01*
X87342897Y-63072404D01*
X87342898Y-63072401D01*
X87376800Y-62858356D01*
X87376800Y-62641644D01*
X87342898Y-62427599D01*
X87342897Y-62427595D01*
X87342897Y-62427594D01*
X87275931Y-62221494D01*
X87190335Y-62053502D01*
X87177545Y-62028400D01*
X87050164Y-61853075D01*
X86896925Y-61699836D01*
X86759949Y-61600317D01*
X86717284Y-61544988D01*
X86711305Y-61475375D01*
X86743911Y-61413580D01*
X86759950Y-61399682D01*
X86761435Y-61398603D01*
X86896925Y-61300164D01*
X87050164Y-61146925D01*
X87177545Y-60971600D01*
X87275930Y-60778508D01*
X87342898Y-60572401D01*
X87376800Y-60358356D01*
X87376800Y-60141644D01*
X87374234Y-60125441D01*
X88349500Y-60125441D01*
X88349500Y-60374558D01*
X88349501Y-60374575D01*
X88382017Y-60621561D01*
X88446498Y-60862207D01*
X88541830Y-61092361D01*
X88541837Y-61092376D01*
X88666400Y-61308126D01*
X88818060Y-61505774D01*
X88818066Y-61505781D01*
X88994218Y-61681933D01*
X88994225Y-61681939D01*
X89191873Y-61833599D01*
X89407623Y-61958162D01*
X89407638Y-61958169D01*
X89506825Y-61999253D01*
X89637793Y-62053502D01*
X89878435Y-62117982D01*
X90125435Y-62150500D01*
X90125442Y-62150500D01*
X90374558Y-62150500D01*
X90374565Y-62150500D01*
X90621565Y-62117982D01*
X90862207Y-62053502D01*
X91092373Y-61958164D01*
X91308127Y-61833599D01*
X91505776Y-61681938D01*
X91551725Y-61635989D01*
X103692000Y-61635989D01*
X103692000Y-62034010D01*
X103726689Y-62430507D01*
X103795803Y-62822466D01*
X103795806Y-62822479D01*
X103898813Y-63206912D01*
X104034951Y-63580946D01*
X104203143Y-63941637D01*
X104203156Y-63941661D01*
X104402155Y-64286336D01*
X104402164Y-64286351D01*
X104630455Y-64612384D01*
X104640685Y-64624575D01*
X104886289Y-64917274D01*
X105167726Y-65198711D01*
X105276225Y-65289752D01*
X105472615Y-65454544D01*
X105472621Y-65454548D01*
X105472622Y-65454549D01*
X105798655Y-65682840D01*
X105964352Y-65778505D01*
X106143338Y-65881843D01*
X106143362Y-65881856D01*
X106504053Y-66050048D01*
X106504058Y-66050049D01*
X106504067Y-66050054D01*
X106878077Y-66186183D01*
X106878083Y-66186184D01*
X106878087Y-66186186D01*
X106960104Y-66208162D01*
X107262528Y-66289196D01*
X107654495Y-66358311D01*
X108050991Y-66392999D01*
X108050992Y-66393000D01*
X108050993Y-66393000D01*
X108449008Y-66393000D01*
X108449008Y-66392999D01*
X108845505Y-66358311D01*
X109237472Y-66289196D01*
X109621923Y-66186183D01*
X109995933Y-66050054D01*
X110164179Y-65971600D01*
X110356637Y-65881856D01*
X110356645Y-65881851D01*
X110356655Y-65881847D01*
X110701345Y-65682840D01*
X111027378Y-65454549D01*
X111332274Y-65198711D01*
X111613711Y-64917274D01*
X111869549Y-64612378D01*
X112097840Y-64286345D01*
X112296847Y-63941655D01*
X112296851Y-63941645D01*
X112296856Y-63941637D01*
X112465048Y-63580946D01*
X112465048Y-63580945D01*
X112465054Y-63580933D01*
X112601183Y-63206923D01*
X112704196Y-62822472D01*
X112773311Y-62430505D01*
X112808000Y-62034007D01*
X112808000Y-61635993D01*
X112773311Y-61239495D01*
X112704196Y-60847528D01*
X112629238Y-60567780D01*
X112601186Y-60463087D01*
X112601184Y-60463083D01*
X112601183Y-60463077D01*
X112465054Y-60089067D01*
X112465049Y-60089058D01*
X112465048Y-60089053D01*
X112296856Y-59728362D01*
X112296843Y-59728338D01*
X112213278Y-59583599D01*
X112097840Y-59383655D01*
X111869549Y-59057622D01*
X111869548Y-59057621D01*
X111869544Y-59057615D01*
X111613708Y-58752723D01*
X111332276Y-58471291D01*
X111027384Y-58215455D01*
X110701351Y-57987164D01*
X110701348Y-57987162D01*
X110701345Y-57987160D01*
X110507813Y-57875424D01*
X110356661Y-57788156D01*
X110356637Y-57788143D01*
X109995946Y-57619951D01*
X109995935Y-57619947D01*
X109995933Y-57619946D01*
X109621923Y-57483817D01*
X109621922Y-57483816D01*
X109621912Y-57483813D01*
X109263555Y-57387793D01*
X109237472Y-57380804D01*
X109182130Y-57371045D01*
X108845507Y-57311689D01*
X108449010Y-57277000D01*
X108449007Y-57277000D01*
X108050993Y-57277000D01*
X108050989Y-57277000D01*
X107654492Y-57311689D01*
X107262533Y-57380803D01*
X107262530Y-57380803D01*
X107262528Y-57380804D01*
X107262523Y-57380805D01*
X107262520Y-57380806D01*
X106878087Y-57483813D01*
X106504053Y-57619951D01*
X106143362Y-57788143D01*
X106143338Y-57788156D01*
X105798663Y-57987155D01*
X105798648Y-57987164D01*
X105472615Y-58215455D01*
X105167723Y-58471291D01*
X104886291Y-58752723D01*
X104630455Y-59057615D01*
X104402164Y-59383648D01*
X104402155Y-59383663D01*
X104203156Y-59728338D01*
X104203143Y-59728362D01*
X104034951Y-60089053D01*
X103898813Y-60463087D01*
X103795806Y-60847520D01*
X103795803Y-60847533D01*
X103726689Y-61239492D01*
X103692000Y-61635989D01*
X91551725Y-61635989D01*
X91642109Y-61545606D01*
X91681933Y-61505781D01*
X91681938Y-61505776D01*
X91833599Y-61308127D01*
X91958164Y-61092373D01*
X92053502Y-60862207D01*
X92117982Y-60621565D01*
X92150500Y-60374565D01*
X92150500Y-60125435D01*
X92117982Y-59878435D01*
X92053502Y-59637793D01*
X91972584Y-59442440D01*
X91958169Y-59407638D01*
X91958162Y-59407623D01*
X91833599Y-59191873D01*
X91681939Y-58994225D01*
X91681933Y-58994218D01*
X91505781Y-58818066D01*
X91505774Y-58818060D01*
X91308126Y-58666400D01*
X91092376Y-58541837D01*
X91092361Y-58541830D01*
X90862207Y-58446498D01*
X90621561Y-58382017D01*
X90374575Y-58349501D01*
X90374570Y-58349500D01*
X90374565Y-58349500D01*
X90125435Y-58349500D01*
X90125429Y-58349500D01*
X90125424Y-58349501D01*
X89878438Y-58382017D01*
X89637792Y-58446498D01*
X89407638Y-58541830D01*
X89407623Y-58541837D01*
X89191873Y-58666400D01*
X88994225Y-58818060D01*
X88994218Y-58818066D01*
X88818066Y-58994218D01*
X88818060Y-58994225D01*
X88666400Y-59191873D01*
X88541837Y-59407623D01*
X88541830Y-59407638D01*
X88446498Y-59637792D01*
X88382017Y-59878438D01*
X88349501Y-60125424D01*
X88349500Y-60125441D01*
X87374234Y-60125441D01*
X87342898Y-59927599D01*
X87342897Y-59927595D01*
X87342897Y-59927594D01*
X87275931Y-59721494D01*
X87177544Y-59528399D01*
X87144445Y-59482842D01*
X87050164Y-59353075D01*
X86896925Y-59199836D01*
X86721600Y-59072455D01*
X86568063Y-58994224D01*
X86528505Y-58974068D01*
X86322404Y-58907102D01*
X86161867Y-58881675D01*
X86108356Y-58873200D01*
X85891644Y-58873200D01*
X85820295Y-58884500D01*
X85677597Y-58907102D01*
X85677594Y-58907102D01*
X85471494Y-58974068D01*
X85278399Y-59072455D01*
X85103072Y-59199838D01*
X84949838Y-59353072D01*
X84822455Y-59528399D01*
X84724068Y-59721494D01*
X84657102Y-59927594D01*
X84657102Y-59927597D01*
X84623200Y-60141644D01*
X79995116Y-60141644D01*
X79968602Y-59974245D01*
X79911323Y-59797959D01*
X79827173Y-59632803D01*
X79718222Y-59482845D01*
X79587154Y-59351777D01*
X79437196Y-59242826D01*
X79424851Y-59236536D01*
X79272037Y-59158674D01*
X79095751Y-59101396D01*
X78955117Y-59079121D01*
X78912678Y-59072400D01*
X78727320Y-59072400D01*
X78684880Y-59079121D01*
X78544247Y-59101396D01*
X78544246Y-59101396D01*
X78367960Y-59158674D01*
X78202805Y-59242824D01*
X78202797Y-59242829D01*
X78122365Y-59301266D01*
X78052844Y-59351777D01*
X78052842Y-59351779D01*
X78052841Y-59351779D01*
X77962181Y-59442440D01*
X77900858Y-59475925D01*
X77831166Y-59470941D01*
X77775233Y-59429069D01*
X77750816Y-59363605D01*
X77750500Y-59354759D01*
X77750500Y-56374500D01*
X77770185Y-56307461D01*
X77822989Y-56261706D01*
X77874500Y-56250500D01*
X94792787Y-56250500D01*
X94859826Y-56270185D01*
G37*
%TD.AperFunction*%
%TD*%
M02*
