%TF.GenerationSoftware,KiCad,Pcbnew,9.0.0*%
%TF.CreationDate,2025-08-25T22:35:37-05:00*%
%TF.ProjectId,CellSimulatorPCB,43656c6c-5369-46d7-956c-61746f725043,rev?*%
%TF.SameCoordinates,Original*%
%TF.FileFunction,Legend,Bot*%
%TF.FilePolarity,Positive*%
%FSLAX46Y46*%
G04 Gerber Fmt 4.6, Leading zero omitted, Abs format (unit mm)*
G04 Created by KiCad (PCBNEW 9.0.0) date 2025-08-25 22:35:37*
%MOMM*%
%LPD*%
G01*
G04 APERTURE LIST*
%ADD10C,0.508000*%
%ADD11C,2.800000*%
%ADD12C,8.115000*%
%ADD13C,1.752600*%
G04 APERTURE END LIST*
D10*
%TO.C,J11*%
X86000001Y-76650000D02*
X86000001Y-76650000D01*
X86000001Y-76650000D01*
X86000001Y-76650000D01*
X86000001Y-76650000D01*
X86000001Y-76650000D01*
X86000001Y-76650001D01*
X86000001Y-76650001D01*
X86000001Y-76650001D01*
X86000001Y-76650001D01*
X86000001Y-76650001D01*
X86000001Y-76650001D01*
X86000001Y-76650001D01*
X86000000Y-76650001D01*
X86000000Y-76650001D01*
X86000000Y-76650001D01*
X86000000Y-76650001D01*
X86000000Y-76650001D01*
X86000000Y-76650001D01*
X86000000Y-76650001D01*
X86000000Y-76650001D01*
X86000000Y-76650001D01*
X86000000Y-76650001D01*
X86000000Y-76650001D01*
X86000000Y-76650001D01*
X85999999Y-76650001D01*
X85999999Y-76650001D01*
X85999999Y-76650001D01*
X85999999Y-76650001D01*
X85999999Y-76650001D01*
X85999999Y-76650001D01*
X85999999Y-76650000D01*
X85999999Y-76650000D01*
X85999999Y-76650000D01*
X85999999Y-76650000D01*
X85999999Y-76650000D01*
X85999999Y-76650000D01*
X85999999Y-76650000D02*
X85999999Y-76650000D01*
X85999999Y-76650000D01*
X85999999Y-76650000D01*
X85999999Y-76650000D01*
X85999999Y-76650000D01*
X85999999Y-76650000D01*
X85999999Y-76649999D01*
X85999999Y-76649999D01*
X85999999Y-76649999D01*
X85999999Y-76649999D01*
X85999999Y-76649999D01*
X86000000Y-76649999D01*
X86000000Y-76649999D01*
X86000000Y-76649999D01*
X86000000Y-76649999D01*
X86000000Y-76649999D01*
X86000000Y-76649999D01*
X86000000Y-76649999D01*
X86000000Y-76649999D01*
X86000000Y-76649999D01*
X86000000Y-76649999D01*
X86000000Y-76649999D01*
X86000000Y-76649999D01*
X86000001Y-76649999D01*
X86000001Y-76649999D01*
X86000001Y-76649999D01*
X86000001Y-76649999D01*
X86000001Y-76649999D01*
X86000001Y-76649999D01*
X86000001Y-76650000D01*
X86000001Y-76650000D01*
X86000001Y-76650000D01*
X86000001Y-76650000D01*
X86000001Y-76650000D01*
X86000001Y-76650000D01*
X86000001Y-76650000D01*
%TD*%
%LPC*%
D11*
%TO.C,TP11*%
X90250000Y-64500000D03*
%TD*%
%TO.C,TP9*%
X90250000Y-73000000D03*
%TD*%
%TO.C,TP13*%
X95250000Y-76500000D03*
%TD*%
D12*
%TO.C,J2*%
X108250000Y-73500000D03*
%TD*%
D11*
%TO.C,TP14*%
X96000000Y-58000000D03*
%TD*%
D13*
%TO.C,J11*%
X86000000Y-75250000D03*
X86000000Y-72750000D03*
X86000000Y-70250000D03*
X86000000Y-67750000D03*
X86000000Y-65250000D03*
X86000000Y-62750000D03*
X86000000Y-60250000D03*
%TD*%
D11*
%TO.C,TP12*%
X90250000Y-60250000D03*
%TD*%
D12*
%TO.C,J1*%
X108250000Y-61835000D03*
%TD*%
D11*
%TO.C,TP10*%
X90250000Y-68750000D03*
%TD*%
%LPD*%
M02*
