%TF.GenerationSoftware,KiCad,Pcbnew,9.0.0*%
%TF.CreationDate,2025-08-25T22:35:37-05:00*%
%TF.ProjectId,CellSimulatorPCB,43656c6c-5369-46d7-956c-61746f725043,rev?*%
%TF.SameCoordinates,Original*%
%TF.FileFunction,Legend,Top*%
%TF.FilePolarity,Positive*%
%FSLAX46Y46*%
G04 Gerber Fmt 4.6, Leading zero omitted, Abs format (unit mm)*
G04 Created by KiCad (PCBNEW 9.0.0) date 2025-08-25 22:35:37*
%MOMM*%
%LPD*%
G01*
G04 APERTURE LIST*
G04 Aperture macros list*
%AMRoundRect*
0 Rectangle with rounded corners*
0 $1 Rounding radius*
0 $2 $3 $4 $5 $6 $7 $8 $9 X,Y pos of 4 corners*
0 Add a 4 corners polygon primitive as box body*
4,1,4,$2,$3,$4,$5,$6,$7,$8,$9,$2,$3,0*
0 Add four circle primitives for the rounded corners*
1,1,$1+$1,$2,$3*
1,1,$1+$1,$4,$5*
1,1,$1+$1,$6,$7*
1,1,$1+$1,$8,$9*
0 Add four rect primitives between the rounded corners*
20,1,$1+$1,$2,$3,$4,$5,0*
20,1,$1+$1,$4,$5,$6,$7,0*
20,1,$1+$1,$6,$7,$8,$9,0*
20,1,$1+$1,$8,$9,$2,$3,0*%
G04 Aperture macros list end*
%ADD10C,0.300000*%
%ADD11C,0.150000*%
%ADD12C,0.120000*%
%ADD13C,0.100000*%
%ADD14C,0.152400*%
%ADD15C,0.508000*%
%ADD16RoundRect,0.237500X-0.237500X0.250000X-0.237500X-0.250000X0.237500X-0.250000X0.237500X0.250000X0*%
%ADD17C,2.800000*%
%ADD18C,8.115000*%
%ADD19C,1.752600*%
G04 APERTURE END LIST*
D10*
X87411653Y-64300828D02*
X88340225Y-64300828D01*
X88340225Y-64300828D02*
X87840225Y-64872257D01*
X87840225Y-64872257D02*
X88054510Y-64872257D01*
X88054510Y-64872257D02*
X88197368Y-64943685D01*
X88197368Y-64943685D02*
X88268796Y-65015114D01*
X88268796Y-65015114D02*
X88340225Y-65157971D01*
X88340225Y-65157971D02*
X88340225Y-65515114D01*
X88340225Y-65515114D02*
X88268796Y-65657971D01*
X88268796Y-65657971D02*
X88197368Y-65729400D01*
X88197368Y-65729400D02*
X88054510Y-65800828D01*
X88054510Y-65800828D02*
X87625939Y-65800828D01*
X87625939Y-65800828D02*
X87483082Y-65729400D01*
X87483082Y-65729400D02*
X87411653Y-65657971D01*
X87554510Y-75479400D02*
X88697368Y-75479400D01*
X98090225Y-56550828D02*
X98590225Y-58050828D01*
X98590225Y-58050828D02*
X99090225Y-56550828D01*
X100090224Y-57265114D02*
X100304510Y-57336542D01*
X100304510Y-57336542D02*
X100375939Y-57407971D01*
X100375939Y-57407971D02*
X100447367Y-57550828D01*
X100447367Y-57550828D02*
X100447367Y-57765114D01*
X100447367Y-57765114D02*
X100375939Y-57907971D01*
X100375939Y-57907971D02*
X100304510Y-57979400D01*
X100304510Y-57979400D02*
X100161653Y-58050828D01*
X100161653Y-58050828D02*
X99590224Y-58050828D01*
X99590224Y-58050828D02*
X99590224Y-56550828D01*
X99590224Y-56550828D02*
X100090224Y-56550828D01*
X100090224Y-56550828D02*
X100233082Y-56622257D01*
X100233082Y-56622257D02*
X100304510Y-56693685D01*
X100304510Y-56693685D02*
X100375939Y-56836542D01*
X100375939Y-56836542D02*
X100375939Y-56979400D01*
X100375939Y-56979400D02*
X100304510Y-57122257D01*
X100304510Y-57122257D02*
X100233082Y-57193685D01*
X100233082Y-57193685D02*
X100090224Y-57265114D01*
X100090224Y-57265114D02*
X99590224Y-57265114D01*
X101018796Y-57622257D02*
X101733082Y-57622257D01*
X100875939Y-58050828D02*
X101375939Y-56550828D01*
X101375939Y-56550828D02*
X101875939Y-58050828D01*
X102161653Y-56550828D02*
X103018796Y-56550828D01*
X102590224Y-58050828D02*
X102590224Y-56550828D01*
X87411653Y-73800828D02*
X88197368Y-72800828D01*
X87411653Y-72800828D02*
X88197368Y-73800828D01*
X88197368Y-62050828D02*
X88197368Y-63050828D01*
X87840225Y-61479400D02*
X87483082Y-62550828D01*
X87483082Y-62550828D02*
X88411653Y-62550828D01*
X98840225Y-77122257D02*
X98697368Y-77050828D01*
X98697368Y-77050828D02*
X98483082Y-77050828D01*
X98483082Y-77050828D02*
X98268796Y-77122257D01*
X98268796Y-77122257D02*
X98125939Y-77265114D01*
X98125939Y-77265114D02*
X98054510Y-77407971D01*
X98054510Y-77407971D02*
X97983082Y-77693685D01*
X97983082Y-77693685D02*
X97983082Y-77907971D01*
X97983082Y-77907971D02*
X98054510Y-78193685D01*
X98054510Y-78193685D02*
X98125939Y-78336542D01*
X98125939Y-78336542D02*
X98268796Y-78479400D01*
X98268796Y-78479400D02*
X98483082Y-78550828D01*
X98483082Y-78550828D02*
X98625939Y-78550828D01*
X98625939Y-78550828D02*
X98840225Y-78479400D01*
X98840225Y-78479400D02*
X98911653Y-78407971D01*
X98911653Y-78407971D02*
X98911653Y-77907971D01*
X98911653Y-77907971D02*
X98625939Y-77907971D01*
X99554510Y-78550828D02*
X99554510Y-77050828D01*
X99554510Y-77050828D02*
X100411653Y-78550828D01*
X100411653Y-78550828D02*
X100411653Y-77050828D01*
X101125939Y-78550828D02*
X101125939Y-77050828D01*
X101125939Y-77050828D02*
X101483082Y-77050828D01*
X101483082Y-77050828D02*
X101697368Y-77122257D01*
X101697368Y-77122257D02*
X101840225Y-77265114D01*
X101840225Y-77265114D02*
X101911654Y-77407971D01*
X101911654Y-77407971D02*
X101983082Y-77693685D01*
X101983082Y-77693685D02*
X101983082Y-77907971D01*
X101983082Y-77907971D02*
X101911654Y-78193685D01*
X101911654Y-78193685D02*
X101840225Y-78336542D01*
X101840225Y-78336542D02*
X101697368Y-78479400D01*
X101697368Y-78479400D02*
X101483082Y-78550828D01*
X101483082Y-78550828D02*
X101125939Y-78550828D01*
X87483082Y-66943685D02*
X87554510Y-66872257D01*
X87554510Y-66872257D02*
X87697368Y-66800828D01*
X87697368Y-66800828D02*
X88054510Y-66800828D01*
X88054510Y-66800828D02*
X88197368Y-66872257D01*
X88197368Y-66872257D02*
X88268796Y-66943685D01*
X88268796Y-66943685D02*
X88340225Y-67086542D01*
X88340225Y-67086542D02*
X88340225Y-67229400D01*
X88340225Y-67229400D02*
X88268796Y-67443685D01*
X88268796Y-67443685D02*
X87411653Y-68300828D01*
X87411653Y-68300828D02*
X88340225Y-68300828D01*
X88340225Y-71050828D02*
X87483082Y-71050828D01*
X87911653Y-71050828D02*
X87911653Y-69550828D01*
X87911653Y-69550828D02*
X87768796Y-69765114D01*
X87768796Y-69765114D02*
X87625939Y-69907971D01*
X87625939Y-69907971D02*
X87483082Y-69979400D01*
D11*
X101884819Y-71766666D02*
X101408628Y-72099999D01*
X101884819Y-72338094D02*
X100884819Y-72338094D01*
X100884819Y-72338094D02*
X100884819Y-71957142D01*
X100884819Y-71957142D02*
X100932438Y-71861904D01*
X100932438Y-71861904D02*
X100980057Y-71814285D01*
X100980057Y-71814285D02*
X101075295Y-71766666D01*
X101075295Y-71766666D02*
X101218152Y-71766666D01*
X101218152Y-71766666D02*
X101313390Y-71814285D01*
X101313390Y-71814285D02*
X101361009Y-71861904D01*
X101361009Y-71861904D02*
X101408628Y-71957142D01*
X101408628Y-71957142D02*
X101408628Y-72338094D01*
X101218152Y-70909523D02*
X101884819Y-70909523D01*
X100837200Y-71147618D02*
X101551485Y-71385713D01*
X101551485Y-71385713D02*
X101551485Y-70766666D01*
X101884819Y-60704166D02*
X101408628Y-61037499D01*
X101884819Y-61275594D02*
X100884819Y-61275594D01*
X100884819Y-61275594D02*
X100884819Y-60894642D01*
X100884819Y-60894642D02*
X100932438Y-60799404D01*
X100932438Y-60799404D02*
X100980057Y-60751785D01*
X100980057Y-60751785D02*
X101075295Y-60704166D01*
X101075295Y-60704166D02*
X101218152Y-60704166D01*
X101218152Y-60704166D02*
X101313390Y-60751785D01*
X101313390Y-60751785D02*
X101361009Y-60799404D01*
X101361009Y-60799404D02*
X101408628Y-60894642D01*
X101408628Y-60894642D02*
X101408628Y-61275594D01*
X101884819Y-59751785D02*
X101884819Y-60323213D01*
X101884819Y-60037499D02*
X100884819Y-60037499D01*
X100884819Y-60037499D02*
X101027676Y-60132737D01*
X101027676Y-60132737D02*
X101122914Y-60227975D01*
X101122914Y-60227975D02*
X101170533Y-60323213D01*
X82345180Y-67440476D02*
X81630895Y-67440476D01*
X81630895Y-67440476D02*
X81488038Y-67392857D01*
X81488038Y-67392857D02*
X81392800Y-67297619D01*
X81392800Y-67297619D02*
X81345180Y-67154762D01*
X81345180Y-67154762D02*
X81345180Y-67059524D01*
X81345180Y-68440476D02*
X81345180Y-67869048D01*
X81345180Y-68154762D02*
X82345180Y-68154762D01*
X82345180Y-68154762D02*
X82202323Y-68059524D01*
X82202323Y-68059524D02*
X82107085Y-67964286D01*
X82107085Y-67964286D02*
X82059466Y-67869048D01*
X81345180Y-69392857D02*
X81345180Y-68821429D01*
X81345180Y-69107143D02*
X82345180Y-69107143D01*
X82345180Y-69107143D02*
X82202323Y-69011905D01*
X82202323Y-69011905D02*
X82107085Y-68916667D01*
X82107085Y-68916667D02*
X82059466Y-68821429D01*
X101884819Y-75454166D02*
X101408628Y-75787499D01*
X101884819Y-76025594D02*
X100884819Y-76025594D01*
X100884819Y-76025594D02*
X100884819Y-75644642D01*
X100884819Y-75644642D02*
X100932438Y-75549404D01*
X100932438Y-75549404D02*
X100980057Y-75501785D01*
X100980057Y-75501785D02*
X101075295Y-75454166D01*
X101075295Y-75454166D02*
X101218152Y-75454166D01*
X101218152Y-75454166D02*
X101313390Y-75501785D01*
X101313390Y-75501785D02*
X101361009Y-75549404D01*
X101361009Y-75549404D02*
X101408628Y-75644642D01*
X101408628Y-75644642D02*
X101408628Y-76025594D01*
X100884819Y-74549404D02*
X100884819Y-75025594D01*
X100884819Y-75025594D02*
X101361009Y-75073213D01*
X101361009Y-75073213D02*
X101313390Y-75025594D01*
X101313390Y-75025594D02*
X101265771Y-74930356D01*
X101265771Y-74930356D02*
X101265771Y-74692261D01*
X101265771Y-74692261D02*
X101313390Y-74597023D01*
X101313390Y-74597023D02*
X101361009Y-74549404D01*
X101361009Y-74549404D02*
X101456247Y-74501785D01*
X101456247Y-74501785D02*
X101694342Y-74501785D01*
X101694342Y-74501785D02*
X101789580Y-74549404D01*
X101789580Y-74549404D02*
X101837200Y-74597023D01*
X101837200Y-74597023D02*
X101884819Y-74692261D01*
X101884819Y-74692261D02*
X101884819Y-74930356D01*
X101884819Y-74930356D02*
X101837200Y-75025594D01*
X101837200Y-75025594D02*
X101789580Y-75073213D01*
X101884819Y-64391666D02*
X101408628Y-64724999D01*
X101884819Y-64963094D02*
X100884819Y-64963094D01*
X100884819Y-64963094D02*
X100884819Y-64582142D01*
X100884819Y-64582142D02*
X100932438Y-64486904D01*
X100932438Y-64486904D02*
X100980057Y-64439285D01*
X100980057Y-64439285D02*
X101075295Y-64391666D01*
X101075295Y-64391666D02*
X101218152Y-64391666D01*
X101218152Y-64391666D02*
X101313390Y-64439285D01*
X101313390Y-64439285D02*
X101361009Y-64486904D01*
X101361009Y-64486904D02*
X101408628Y-64582142D01*
X101408628Y-64582142D02*
X101408628Y-64963094D01*
X100980057Y-64010713D02*
X100932438Y-63963094D01*
X100932438Y-63963094D02*
X100884819Y-63867856D01*
X100884819Y-63867856D02*
X100884819Y-63629761D01*
X100884819Y-63629761D02*
X100932438Y-63534523D01*
X100932438Y-63534523D02*
X100980057Y-63486904D01*
X100980057Y-63486904D02*
X101075295Y-63439285D01*
X101075295Y-63439285D02*
X101170533Y-63439285D01*
X101170533Y-63439285D02*
X101313390Y-63486904D01*
X101313390Y-63486904D02*
X101884819Y-64058332D01*
X101884819Y-64058332D02*
X101884819Y-63439285D01*
X101884819Y-68079166D02*
X101408628Y-68412499D01*
X101884819Y-68650594D02*
X100884819Y-68650594D01*
X100884819Y-68650594D02*
X100884819Y-68269642D01*
X100884819Y-68269642D02*
X100932438Y-68174404D01*
X100932438Y-68174404D02*
X100980057Y-68126785D01*
X100980057Y-68126785D02*
X101075295Y-68079166D01*
X101075295Y-68079166D02*
X101218152Y-68079166D01*
X101218152Y-68079166D02*
X101313390Y-68126785D01*
X101313390Y-68126785D02*
X101361009Y-68174404D01*
X101361009Y-68174404D02*
X101408628Y-68269642D01*
X101408628Y-68269642D02*
X101408628Y-68650594D01*
X100884819Y-67745832D02*
X100884819Y-67126785D01*
X100884819Y-67126785D02*
X101265771Y-67460118D01*
X101265771Y-67460118D02*
X101265771Y-67317261D01*
X101265771Y-67317261D02*
X101313390Y-67222023D01*
X101313390Y-67222023D02*
X101361009Y-67174404D01*
X101361009Y-67174404D02*
X101456247Y-67126785D01*
X101456247Y-67126785D02*
X101694342Y-67126785D01*
X101694342Y-67126785D02*
X101789580Y-67174404D01*
X101789580Y-67174404D02*
X101837200Y-67222023D01*
X101837200Y-67222023D02*
X101884819Y-67317261D01*
X101884819Y-67317261D02*
X101884819Y-67602975D01*
X101884819Y-67602975D02*
X101837200Y-67698213D01*
X101837200Y-67698213D02*
X101789580Y-67745832D01*
D12*
%TO.C,R4*%
X99477500Y-71345276D02*
X99477500Y-71854724D01*
X100522500Y-71345276D02*
X100522500Y-71854724D01*
%TO.C,TP11*%
X92000000Y-64500000D02*
G75*
G02*
X88500000Y-64500000I-1750000J0D01*
G01*
X88500000Y-64500000D02*
G75*
G02*
X92000000Y-64500000I1750000J0D01*
G01*
%TO.C,TP9*%
X92000000Y-73000000D02*
G75*
G02*
X88500000Y-73000000I-1750000J0D01*
G01*
X88500000Y-73000000D02*
G75*
G02*
X92000000Y-73000000I1750000J0D01*
G01*
%TO.C,TP13*%
X97000000Y-76500000D02*
G75*
G02*
X93500000Y-76500000I-1750000J0D01*
G01*
X93500000Y-76500000D02*
G75*
G02*
X97000000Y-76500000I1750000J0D01*
G01*
D13*
%TO.C,J2*%
X103350000Y-73500000D02*
X103350000Y-73500000D01*
X103450000Y-73500000D02*
X103450000Y-73500000D01*
X103350000Y-73500000D02*
G75*
G02*
X103450000Y-73500000I50000J0D01*
G01*
X103450000Y-73500000D02*
G75*
G02*
X103350000Y-73500000I-50000J0D01*
G01*
D12*
%TO.C,R1*%
X99477500Y-60282776D02*
X99477500Y-60792224D01*
X100522500Y-60282776D02*
X100522500Y-60792224D01*
%TO.C,TP14*%
X97750000Y-58000000D02*
G75*
G02*
X94250000Y-58000000I-1750000J0D01*
G01*
X94250000Y-58000000D02*
G75*
G02*
X97750000Y-58000000I1750000J0D01*
G01*
D14*
%TO.C,J11*%
X74046989Y-65019500D02*
X74046989Y-70480500D01*
X74046989Y-70480500D02*
X75494789Y-70480500D01*
X75494789Y-65019500D02*
X74046989Y-65019500D01*
X75494789Y-70480500D02*
X75494801Y-77097200D01*
X75494801Y-58402800D02*
X75494789Y-65019500D01*
X75494801Y-77097200D02*
X84207000Y-77097200D01*
X84207000Y-58402800D02*
X75494801Y-58402800D01*
X84207000Y-77097200D02*
X84207000Y-58402800D01*
D15*
X86000001Y-76650000D02*
X86000001Y-76650000D01*
X86000001Y-76650000D01*
X86000001Y-76650000D01*
X86000001Y-76650000D01*
X86000001Y-76650000D01*
X86000001Y-76650001D01*
X86000001Y-76650001D01*
X86000001Y-76650001D01*
X86000001Y-76650001D01*
X86000001Y-76650001D01*
X86000001Y-76650001D01*
X86000001Y-76650001D01*
X86000000Y-76650001D01*
X86000000Y-76650001D01*
X86000000Y-76650001D01*
X86000000Y-76650001D01*
X86000000Y-76650001D01*
X86000000Y-76650001D01*
X86000000Y-76650001D01*
X86000000Y-76650001D01*
X86000000Y-76650001D01*
X86000000Y-76650001D01*
X86000000Y-76650001D01*
X86000000Y-76650001D01*
X85999999Y-76650001D01*
X85999999Y-76650001D01*
X85999999Y-76650001D01*
X85999999Y-76650001D01*
X85999999Y-76650001D01*
X85999999Y-76650001D01*
X85999999Y-76650000D01*
X85999999Y-76650000D01*
X85999999Y-76650000D01*
X85999999Y-76650000D01*
X85999999Y-76650000D01*
X85999999Y-76650000D01*
X85999999Y-76650000D02*
X85999999Y-76650000D01*
X85999999Y-76650000D01*
X85999999Y-76650000D01*
X85999999Y-76650000D01*
X85999999Y-76650000D01*
X85999999Y-76650000D01*
X85999999Y-76649999D01*
X85999999Y-76649999D01*
X85999999Y-76649999D01*
X85999999Y-76649999D01*
X85999999Y-76649999D01*
X86000000Y-76649999D01*
X86000000Y-76649999D01*
X86000000Y-76649999D01*
X86000000Y-76649999D01*
X86000000Y-76649999D01*
X86000000Y-76649999D01*
X86000000Y-76649999D01*
X86000000Y-76649999D01*
X86000000Y-76649999D01*
X86000000Y-76649999D01*
X86000000Y-76649999D01*
X86000000Y-76649999D01*
X86000001Y-76649999D01*
X86000001Y-76649999D01*
X86000001Y-76649999D01*
X86000001Y-76649999D01*
X86000001Y-76649999D01*
X86000001Y-76649999D01*
X86000001Y-76650000D01*
X86000001Y-76650000D01*
X86000001Y-76650000D01*
X86000001Y-76650000D01*
X86000001Y-76650000D01*
X86000001Y-76650000D01*
X86000001Y-76650000D01*
D12*
%TO.C,TP12*%
X92000000Y-60250000D02*
G75*
G02*
X88500000Y-60250000I-1750000J0D01*
G01*
X88500000Y-60250000D02*
G75*
G02*
X92000000Y-60250000I1750000J0D01*
G01*
D13*
%TO.C,J1*%
X103350000Y-61835000D02*
X103350000Y-61835000D01*
X103450000Y-61835000D02*
X103450000Y-61835000D01*
X103350000Y-61835000D02*
G75*
G02*
X103450000Y-61835000I50000J0D01*
G01*
X103450000Y-61835000D02*
G75*
G02*
X103350000Y-61835000I-50000J0D01*
G01*
D12*
%TO.C,R5*%
X99477500Y-75032776D02*
X99477500Y-75542224D01*
X100522500Y-75032776D02*
X100522500Y-75542224D01*
%TO.C,TP10*%
X92000000Y-68750000D02*
G75*
G02*
X88500000Y-68750000I-1750000J0D01*
G01*
X88500000Y-68750000D02*
G75*
G02*
X92000000Y-68750000I1750000J0D01*
G01*
%TO.C,R2*%
X99477500Y-63970276D02*
X99477500Y-64479724D01*
X100522500Y-63970276D02*
X100522500Y-64479724D01*
%TO.C,R3*%
X99477500Y-67657776D02*
X99477500Y-68167224D01*
X100522500Y-67657776D02*
X100522500Y-68167224D01*
%TD*%
%LPC*%
D16*
%TO.C,R4*%
X100000000Y-70687500D03*
X100000000Y-72512500D03*
%TD*%
D17*
%TO.C,TP11*%
X90250000Y-64500000D03*
%TD*%
%TO.C,TP9*%
X90250000Y-73000000D03*
%TD*%
%TO.C,TP13*%
X95250000Y-76500000D03*
%TD*%
D18*
%TO.C,J2*%
X108250000Y-73500000D03*
%TD*%
D16*
%TO.C,R1*%
X100000000Y-59625000D03*
X100000000Y-61450000D03*
%TD*%
D17*
%TO.C,TP14*%
X96000000Y-58000000D03*
%TD*%
D19*
%TO.C,J11*%
X86000000Y-75250000D03*
X86000000Y-72750000D03*
X86000000Y-70250000D03*
X86000000Y-67750000D03*
X86000000Y-65250000D03*
X86000000Y-62750000D03*
X86000000Y-60250000D03*
%TD*%
D17*
%TO.C,TP12*%
X90250000Y-60250000D03*
%TD*%
D18*
%TO.C,J1*%
X108250000Y-61835000D03*
%TD*%
D16*
%TO.C,R5*%
X100000000Y-74375000D03*
X100000000Y-76200000D03*
%TD*%
D17*
%TO.C,TP10*%
X90250000Y-68750000D03*
%TD*%
D16*
%TO.C,R2*%
X100000000Y-63312500D03*
X100000000Y-65137500D03*
%TD*%
%TO.C,R3*%
X100000000Y-67000000D03*
X100000000Y-68825000D03*
%TD*%
%LPD*%
M02*
