%TF.GenerationSoftware,KiCad,Pcbnew,9.0.0*%
%TF.CreationDate,2025-08-25T22:36:10-05:00*%
%TF.ProjectId,ThermistorBreakoutPCB,54686572-6d69-4737-946f-72427265616b,rev?*%
%TF.SameCoordinates,Original*%
%TF.FileFunction,Copper,L2,Bot*%
%TF.FilePolarity,Positive*%
%FSLAX46Y46*%
G04 Gerber Fmt 4.6, Leading zero omitted, Abs format (unit mm)*
G04 Created by KiCad (PCBNEW 9.0.0) date 2025-08-25 22:36:10*
%MOMM*%
%LPD*%
G01*
G04 APERTURE LIST*
%TA.AperFunction,ComponentPad*%
%ADD10R,1.700000X1.700000*%
%TD*%
%TA.AperFunction,ComponentPad*%
%ADD11O,1.700000X1.700000*%
%TD*%
%TA.AperFunction,ComponentPad*%
%ADD12C,1.752600*%
%TD*%
%TA.AperFunction,ComponentPad*%
%ADD13C,2.800000*%
%TD*%
%TA.AperFunction,ViaPad*%
%ADD14C,0.600000*%
%TD*%
%TA.AperFunction,Conductor*%
%ADD15C,0.500000*%
%TD*%
G04 APERTURE END LIST*
D10*
%TO.P,J4,1,Pin_1*%
%TO.N,Net-(J4-Pin_1)*%
X124000000Y-40170000D03*
D11*
%TO.P,J4,2,Pin_2*%
%TO.N,/Temperature2*%
X124000000Y-42710000D03*
%TO.P,J4,3,Pin_3*%
%TO.N,Net-(J4-Pin_3)*%
X124000000Y-45250000D03*
%TD*%
D12*
%TO.P,J8,1,Pin_1*%
%TO.N,VDDA*%
X127216600Y-53441895D03*
%TO.P,J8,2,Pin_2*%
%TO.N,/Temperature1*%
X124716600Y-53441895D03*
%TO.P,J8,3,Pin_3*%
%TO.N,/Temperature2*%
X122216600Y-53441895D03*
%TO.P,J8,4,Pin_4*%
%TO.N,/Temperature3*%
X119716600Y-53441895D03*
%TO.P,J8,5,Pin_5*%
%TO.N,/Temperature4*%
X117216600Y-53441895D03*
%TO.P,J8,6,Pin_6*%
%TO.N,GNDA*%
X114716600Y-53441895D03*
%TD*%
D10*
%TO.P,J6,1,Pin_1*%
%TO.N,Net-(J6-Pin_1)*%
X109500000Y-40170000D03*
D11*
%TO.P,J6,2,Pin_2*%
%TO.N,/Temperature4*%
X109500000Y-42710000D03*
%TO.P,J6,3,Pin_3*%
%TO.N,Net-(J6-Pin_3)*%
X109500000Y-45250000D03*
%TD*%
D13*
%TO.P,TP11,1,1*%
%TO.N,/Temperature1*%
X127250000Y-49641700D03*
%TD*%
%TO.P,TP10,1,1*%
%TO.N,/Temperature2*%
X122750000Y-49641700D03*
%TD*%
%TO.P,TP9,1,1*%
%TO.N,/Temperature4*%
X114500000Y-49641700D03*
%TD*%
D10*
%TO.P,J5,1,Pin_1*%
%TO.N,Net-(J5-Pin_1)*%
X116750000Y-40170000D03*
D11*
%TO.P,J5,2,Pin_2*%
%TO.N,/Temperature3*%
X116750000Y-42710000D03*
%TO.P,J5,3,Pin_3*%
%TO.N,Net-(J5-Pin_3)*%
X116750000Y-45250000D03*
%TD*%
D13*
%TO.P,TP8,1,1*%
%TO.N,/Temperature3*%
X118750000Y-49641700D03*
%TD*%
D10*
%TO.P,J3,1,Pin_1*%
%TO.N,Net-(J3-Pin_1)*%
X131250000Y-40170000D03*
D11*
%TO.P,J3,2,Pin_2*%
%TO.N,/Temperature1*%
X131250000Y-42710000D03*
%TO.P,J3,3,Pin_3*%
%TO.N,Net-(J3-Pin_3)*%
X131250000Y-45250000D03*
%TD*%
D10*
%TO.P,J1,1,Pin_1*%
%TO.N,VDDA*%
X109500000Y-54250000D03*
D11*
%TO.P,J1,2,Pin_2*%
%TO.N,GNDA*%
X109500000Y-56790000D03*
%TD*%
D14*
%TO.N,VDDA*%
X106750000Y-42250000D03*
%TO.N,GNDA*%
X134000000Y-46250000D03*
X119500000Y-46000000D03*
X112250000Y-45750000D03*
X126750000Y-46000000D03*
%TD*%
D15*
%TO.N,VDDA*%
X106750000Y-42250000D02*
X106750000Y-51500000D01*
X106750000Y-51500000D02*
X109500000Y-54250000D01*
%TD*%
%TA.AperFunction,Conductor*%
%TO.N,GNDA*%
G36*
X134256922Y-38251280D02*
G01*
X134347266Y-38261459D01*
X134374331Y-38267636D01*
X134453540Y-38295352D01*
X134478553Y-38307398D01*
X134549606Y-38352043D01*
X134571313Y-38369355D01*
X134630644Y-38428686D01*
X134647957Y-38450395D01*
X134692600Y-38521444D01*
X134704648Y-38546462D01*
X134732362Y-38625666D01*
X134738540Y-38652735D01*
X134748720Y-38743076D01*
X134749500Y-38756961D01*
X134749500Y-61743038D01*
X134748720Y-61756922D01*
X134748720Y-61756923D01*
X134738540Y-61847264D01*
X134732362Y-61874333D01*
X134704648Y-61953537D01*
X134692600Y-61978555D01*
X134647957Y-62049604D01*
X134630644Y-62071313D01*
X134571313Y-62130644D01*
X134549604Y-62147957D01*
X134478555Y-62192600D01*
X134453537Y-62204648D01*
X134374333Y-62232362D01*
X134347264Y-62238540D01*
X134267075Y-62247576D01*
X134256921Y-62248720D01*
X134243038Y-62249500D01*
X106256962Y-62249500D01*
X106243078Y-62248720D01*
X106230553Y-62247308D01*
X106152735Y-62238540D01*
X106125666Y-62232362D01*
X106046462Y-62204648D01*
X106021444Y-62192600D01*
X105950395Y-62147957D01*
X105928686Y-62130644D01*
X105869355Y-62071313D01*
X105852042Y-62049604D01*
X105807399Y-61978555D01*
X105795351Y-61953537D01*
X105767637Y-61874333D01*
X105761459Y-61847263D01*
X105751280Y-61756922D01*
X105750500Y-61743038D01*
X105750500Y-60529217D01*
X113539000Y-60529217D01*
X113539000Y-60714574D01*
X113567996Y-60897647D01*
X113567996Y-60897648D01*
X113625274Y-61073934D01*
X113625276Y-61073937D01*
X113709426Y-61239093D01*
X113818377Y-61389051D01*
X113949445Y-61520119D01*
X114099403Y-61629070D01*
X114207423Y-61684108D01*
X114264561Y-61713221D01*
X114326289Y-61733277D01*
X114440845Y-61770499D01*
X114623921Y-61799496D01*
X114623922Y-61799496D01*
X114809278Y-61799496D01*
X114809279Y-61799496D01*
X114992355Y-61770499D01*
X115168641Y-61713220D01*
X115333797Y-61629070D01*
X115483755Y-61520119D01*
X115614823Y-61389051D01*
X115723774Y-61239093D01*
X115807924Y-61073937D01*
X115865203Y-60897651D01*
X115894200Y-60714575D01*
X115894200Y-60529217D01*
X126039000Y-60529217D01*
X126039000Y-60714574D01*
X126067996Y-60897647D01*
X126067996Y-60897648D01*
X126125274Y-61073934D01*
X126125276Y-61073937D01*
X126209426Y-61239093D01*
X126318377Y-61389051D01*
X126449445Y-61520119D01*
X126599403Y-61629070D01*
X126707423Y-61684108D01*
X126764561Y-61713221D01*
X126826289Y-61733277D01*
X126940845Y-61770499D01*
X127123921Y-61799496D01*
X127123922Y-61799496D01*
X127309278Y-61799496D01*
X127309279Y-61799496D01*
X127492355Y-61770499D01*
X127668641Y-61713220D01*
X127833797Y-61629070D01*
X127983755Y-61520119D01*
X128114823Y-61389051D01*
X128223774Y-61239093D01*
X128307924Y-61073937D01*
X128365203Y-60897651D01*
X128394200Y-60714575D01*
X128394200Y-60529217D01*
X128365203Y-60346141D01*
X128307924Y-60169855D01*
X128223774Y-60004699D01*
X128114823Y-59854741D01*
X127983755Y-59723673D01*
X127833797Y-59614722D01*
X127821452Y-59608432D01*
X127668638Y-59530570D01*
X127492352Y-59473292D01*
X127351718Y-59451017D01*
X127309279Y-59444296D01*
X127123921Y-59444296D01*
X127081481Y-59451017D01*
X126940848Y-59473292D01*
X126940847Y-59473292D01*
X126764561Y-59530570D01*
X126599406Y-59614720D01*
X126599398Y-59614725D01*
X126518966Y-59673162D01*
X126449445Y-59723673D01*
X126449443Y-59723675D01*
X126449442Y-59723675D01*
X126318379Y-59854738D01*
X126318379Y-59854739D01*
X126318377Y-59854741D01*
X126267866Y-59924262D01*
X126209429Y-60004694D01*
X126209424Y-60004702D01*
X126125274Y-60169857D01*
X126067996Y-60346143D01*
X126067996Y-60346144D01*
X126039000Y-60529217D01*
X115894200Y-60529217D01*
X115865203Y-60346141D01*
X115807924Y-60169855D01*
X115723774Y-60004699D01*
X115614823Y-59854741D01*
X115483755Y-59723673D01*
X115333797Y-59614722D01*
X115321452Y-59608432D01*
X115168638Y-59530570D01*
X114992352Y-59473292D01*
X114851718Y-59451017D01*
X114809279Y-59444296D01*
X114623921Y-59444296D01*
X114581481Y-59451017D01*
X114440848Y-59473292D01*
X114440847Y-59473292D01*
X114264561Y-59530570D01*
X114099406Y-59614720D01*
X114099398Y-59614725D01*
X114018966Y-59673162D01*
X113949445Y-59723673D01*
X113949443Y-59723675D01*
X113949442Y-59723675D01*
X113818379Y-59854738D01*
X113818379Y-59854739D01*
X113818377Y-59854741D01*
X113767866Y-59924262D01*
X113709429Y-60004694D01*
X113709424Y-60004702D01*
X113625274Y-60169857D01*
X113567996Y-60346143D01*
X113567996Y-60346144D01*
X113539000Y-60529217D01*
X105750500Y-60529217D01*
X105750500Y-42552189D01*
X105753676Y-42541369D01*
X105752473Y-42530158D01*
X105763344Y-42508445D01*
X105770185Y-42485150D01*
X105778706Y-42477766D01*
X105783755Y-42467683D01*
X105804640Y-42455294D01*
X105822989Y-42439395D01*
X105834148Y-42437790D01*
X105843848Y-42432037D01*
X105868114Y-42432906D01*
X105892147Y-42429451D01*
X105902403Y-42434135D01*
X105913673Y-42434539D01*
X105933616Y-42448389D01*
X105955703Y-42458476D01*
X105963288Y-42468995D01*
X105971061Y-42474394D01*
X105989063Y-42504742D01*
X105990067Y-42507167D01*
X105999500Y-42554604D01*
X105999500Y-51573918D01*
X105999500Y-51573920D01*
X105999499Y-51573920D01*
X106028340Y-51718907D01*
X106028343Y-51718917D01*
X106084914Y-51855492D01*
X106117812Y-51904727D01*
X106117813Y-51904730D01*
X106167046Y-51978414D01*
X106167052Y-51978421D01*
X108113181Y-53924548D01*
X108146666Y-53985871D01*
X108149500Y-54012229D01*
X108149500Y-55147870D01*
X108149501Y-55147876D01*
X108155908Y-55207483D01*
X108206202Y-55342328D01*
X108206206Y-55342335D01*
X108292452Y-55457544D01*
X108292455Y-55457547D01*
X108407664Y-55543793D01*
X108407671Y-55543797D01*
X108407674Y-55543798D01*
X108539598Y-55593002D01*
X108595531Y-55634873D01*
X108619949Y-55700337D01*
X108605098Y-55768610D01*
X108583947Y-55796865D01*
X108470271Y-55910541D01*
X108345379Y-56082442D01*
X108248904Y-56271782D01*
X108183242Y-56473870D01*
X108183242Y-56473873D01*
X108172769Y-56540000D01*
X109066988Y-56540000D01*
X109034075Y-56597007D01*
X109000000Y-56724174D01*
X109000000Y-56855826D01*
X109034075Y-56982993D01*
X109066988Y-57040000D01*
X108172769Y-57040000D01*
X108183242Y-57106126D01*
X108183242Y-57106129D01*
X108248904Y-57308217D01*
X108345379Y-57497557D01*
X108470272Y-57669459D01*
X108470276Y-57669464D01*
X108620535Y-57819723D01*
X108620540Y-57819727D01*
X108792442Y-57944620D01*
X108981782Y-58041095D01*
X109183871Y-58106757D01*
X109250000Y-58117231D01*
X109250000Y-57223012D01*
X109307007Y-57255925D01*
X109434174Y-57290000D01*
X109565826Y-57290000D01*
X109692993Y-57255925D01*
X109750000Y-57223012D01*
X109750000Y-58117230D01*
X109816126Y-58106757D01*
X109816129Y-58106757D01*
X110018217Y-58041095D01*
X110207557Y-57944620D01*
X110379459Y-57819727D01*
X110379464Y-57819723D01*
X110529723Y-57669464D01*
X110529727Y-57669459D01*
X110654620Y-57497557D01*
X110751095Y-57308217D01*
X110816757Y-57106129D01*
X110816757Y-57106126D01*
X110827231Y-57040000D01*
X109933012Y-57040000D01*
X109965925Y-56982993D01*
X110000000Y-56855826D01*
X110000000Y-56724174D01*
X109965925Y-56597007D01*
X109933012Y-56540000D01*
X110827231Y-56540000D01*
X110816757Y-56473873D01*
X110816757Y-56473870D01*
X110751095Y-56271782D01*
X110654620Y-56082442D01*
X110529727Y-55910540D01*
X110529723Y-55910535D01*
X110416053Y-55796865D01*
X110382568Y-55735542D01*
X110387552Y-55665850D01*
X110429424Y-55609917D01*
X110460400Y-55593002D01*
X110592331Y-55543796D01*
X110707546Y-55457546D01*
X110793796Y-55342331D01*
X110844091Y-55207483D01*
X110850500Y-55147873D01*
X110850499Y-54222441D01*
X110850499Y-53352129D01*
X110850498Y-53352123D01*
X110849406Y-53341959D01*
X110848504Y-53333572D01*
X113340300Y-53333572D01*
X113340300Y-53550217D01*
X113374188Y-53764179D01*
X113441134Y-53970215D01*
X113539485Y-54163237D01*
X113582498Y-54222440D01*
X113582499Y-54222440D01*
X114136758Y-53668181D01*
X114165125Y-53736665D01*
X114233228Y-53838588D01*
X114319907Y-53925267D01*
X114421830Y-53993370D01*
X114490312Y-54021735D01*
X113936052Y-54575994D01*
X113936053Y-54575995D01*
X113995257Y-54619009D01*
X114188279Y-54717360D01*
X114394315Y-54784306D01*
X114608278Y-54818195D01*
X114824922Y-54818195D01*
X115038884Y-54784306D01*
X115244920Y-54717360D01*
X115437931Y-54619015D01*
X115437944Y-54619007D01*
X115497145Y-54575995D01*
X115497146Y-54575994D01*
X114942887Y-54021736D01*
X115011370Y-53993370D01*
X115113293Y-53925267D01*
X115199972Y-53838588D01*
X115268075Y-53736665D01*
X115296440Y-53668182D01*
X115850699Y-54222441D01*
X115850699Y-54222440D01*
X115865973Y-54201419D01*
X115921303Y-54158754D01*
X115990916Y-54152775D01*
X116052711Y-54185381D01*
X116066608Y-54201419D01*
X116166436Y-54338820D01*
X116319675Y-54492059D01*
X116495000Y-54619440D01*
X116687179Y-54717360D01*
X116688094Y-54717826D01*
X116894195Y-54784792D01*
X116894196Y-54784792D01*
X116894199Y-54784793D01*
X117108244Y-54818695D01*
X117108245Y-54818695D01*
X117324955Y-54818695D01*
X117324956Y-54818695D01*
X117539001Y-54784793D01*
X117539004Y-54784792D01*
X117539005Y-54784792D01*
X117745105Y-54717826D01*
X117745105Y-54717825D01*
X117745108Y-54717825D01*
X117938200Y-54619440D01*
X118113525Y-54492059D01*
X118266764Y-54338820D01*
X118366282Y-54201844D01*
X118421612Y-54159179D01*
X118491225Y-54153200D01*
X118553020Y-54185806D01*
X118566917Y-54201844D01*
X118666436Y-54338820D01*
X118819675Y-54492059D01*
X118995000Y-54619440D01*
X119187179Y-54717360D01*
X119188094Y-54717826D01*
X119394195Y-54784792D01*
X119394196Y-54784792D01*
X119394199Y-54784793D01*
X119608244Y-54818695D01*
X119608245Y-54818695D01*
X119824955Y-54818695D01*
X119824956Y-54818695D01*
X120039001Y-54784793D01*
X120039004Y-54784792D01*
X120039005Y-54784792D01*
X120245105Y-54717826D01*
X120245105Y-54717825D01*
X120245108Y-54717825D01*
X120438200Y-54619440D01*
X120613525Y-54492059D01*
X120766764Y-54338820D01*
X120866282Y-54201844D01*
X120921612Y-54159179D01*
X120991225Y-54153200D01*
X121053020Y-54185806D01*
X121066917Y-54201844D01*
X121166436Y-54338820D01*
X121319675Y-54492059D01*
X121495000Y-54619440D01*
X121687179Y-54717360D01*
X121688094Y-54717826D01*
X121894195Y-54784792D01*
X121894196Y-54784792D01*
X121894199Y-54784793D01*
X122108244Y-54818695D01*
X122108245Y-54818695D01*
X122324955Y-54818695D01*
X122324956Y-54818695D01*
X122539001Y-54784793D01*
X122539004Y-54784792D01*
X122539005Y-54784792D01*
X122745105Y-54717826D01*
X122745105Y-54717825D01*
X122745108Y-54717825D01*
X122938200Y-54619440D01*
X123113525Y-54492059D01*
X123266764Y-54338820D01*
X123366282Y-54201844D01*
X123421612Y-54159179D01*
X123491225Y-54153200D01*
X123553020Y-54185806D01*
X123566917Y-54201844D01*
X123666436Y-54338820D01*
X123819675Y-54492059D01*
X123995000Y-54619440D01*
X124187179Y-54717360D01*
X124188094Y-54717826D01*
X124394195Y-54784792D01*
X124394196Y-54784792D01*
X124394199Y-54784793D01*
X124608244Y-54818695D01*
X124608245Y-54818695D01*
X124824955Y-54818695D01*
X124824956Y-54818695D01*
X125039001Y-54784793D01*
X125039004Y-54784792D01*
X125039005Y-54784792D01*
X125245105Y-54717826D01*
X125245105Y-54717825D01*
X125245108Y-54717825D01*
X125438200Y-54619440D01*
X125613525Y-54492059D01*
X125766764Y-54338820D01*
X125866282Y-54201844D01*
X125921612Y-54159179D01*
X125991225Y-54153200D01*
X126053020Y-54185806D01*
X126066917Y-54201844D01*
X126166436Y-54338820D01*
X126319675Y-54492059D01*
X126495000Y-54619440D01*
X126687179Y-54717360D01*
X126688094Y-54717826D01*
X126894195Y-54784792D01*
X126894196Y-54784792D01*
X126894199Y-54784793D01*
X127108244Y-54818695D01*
X127108245Y-54818695D01*
X127324955Y-54818695D01*
X127324956Y-54818695D01*
X127539001Y-54784793D01*
X127539004Y-54784792D01*
X127539005Y-54784792D01*
X127745105Y-54717826D01*
X127745105Y-54717825D01*
X127745108Y-54717825D01*
X127938200Y-54619440D01*
X128113525Y-54492059D01*
X128266764Y-54338820D01*
X128394145Y-54163495D01*
X128492530Y-53970403D01*
X128559498Y-53764296D01*
X128593400Y-53550251D01*
X128593400Y-53333539D01*
X128559498Y-53119494D01*
X128559497Y-53119490D01*
X128559497Y-53119489D01*
X128492531Y-52913389D01*
X128456926Y-52843510D01*
X128394145Y-52720295D01*
X128266764Y-52544970D01*
X128113525Y-52391731D01*
X127938200Y-52264350D01*
X127745105Y-52165963D01*
X127539004Y-52098997D01*
X127378467Y-52073570D01*
X127324956Y-52065095D01*
X127108244Y-52065095D01*
X127036895Y-52076395D01*
X126894197Y-52098997D01*
X126894194Y-52098997D01*
X126688094Y-52165963D01*
X126494999Y-52264350D01*
X126319672Y-52391733D01*
X126166438Y-52544967D01*
X126166438Y-52544968D01*
X126166436Y-52544970D01*
X126066918Y-52681945D01*
X126011588Y-52724610D01*
X125941974Y-52730589D01*
X125880180Y-52697983D01*
X125866282Y-52681945D01*
X125766764Y-52544970D01*
X125613525Y-52391731D01*
X125438200Y-52264350D01*
X125245105Y-52165963D01*
X125039004Y-52098997D01*
X124878467Y-52073570D01*
X124824956Y-52065095D01*
X124608244Y-52065095D01*
X124536895Y-52076395D01*
X124394197Y-52098997D01*
X124394194Y-52098997D01*
X124188094Y-52165963D01*
X123994999Y-52264350D01*
X123819672Y-52391733D01*
X123666438Y-52544967D01*
X123666438Y-52544968D01*
X123666436Y-52544970D01*
X123566918Y-52681945D01*
X123511588Y-52724610D01*
X123441974Y-52730589D01*
X123380180Y-52697983D01*
X123366282Y-52681945D01*
X123266764Y-52544970D01*
X123113525Y-52391731D01*
X122938200Y-52264350D01*
X122745105Y-52165963D01*
X122539004Y-52098997D01*
X122378467Y-52073570D01*
X122324956Y-52065095D01*
X122108244Y-52065095D01*
X122036895Y-52076395D01*
X121894197Y-52098997D01*
X121894194Y-52098997D01*
X121688094Y-52165963D01*
X121494999Y-52264350D01*
X121319672Y-52391733D01*
X121166438Y-52544967D01*
X121166438Y-52544968D01*
X121166436Y-52544970D01*
X121066918Y-52681945D01*
X121011588Y-52724610D01*
X120941974Y-52730589D01*
X120880180Y-52697983D01*
X120866282Y-52681945D01*
X120766764Y-52544970D01*
X120613525Y-52391731D01*
X120438200Y-52264350D01*
X120245105Y-52165963D01*
X120039004Y-52098997D01*
X119878467Y-52073570D01*
X119824956Y-52065095D01*
X119608244Y-52065095D01*
X119536895Y-52076395D01*
X119394197Y-52098997D01*
X119394194Y-52098997D01*
X119188094Y-52165963D01*
X118994999Y-52264350D01*
X118819672Y-52391733D01*
X118666438Y-52544967D01*
X118666438Y-52544968D01*
X118666436Y-52544970D01*
X118566918Y-52681945D01*
X118511588Y-52724610D01*
X118441974Y-52730589D01*
X118380180Y-52697983D01*
X118366282Y-52681945D01*
X118266764Y-52544970D01*
X118113525Y-52391731D01*
X117938200Y-52264350D01*
X117745105Y-52165963D01*
X117539004Y-52098997D01*
X117378467Y-52073570D01*
X117324956Y-52065095D01*
X117108244Y-52065095D01*
X117036895Y-52076395D01*
X116894197Y-52098997D01*
X116894194Y-52098997D01*
X116688094Y-52165963D01*
X116494999Y-52264350D01*
X116319672Y-52391733D01*
X116166437Y-52544968D01*
X116066609Y-52682369D01*
X116011278Y-52725034D01*
X115941665Y-52731013D01*
X115879870Y-52698407D01*
X115865973Y-52682368D01*
X115850701Y-52661348D01*
X115850699Y-52661347D01*
X115296440Y-53215606D01*
X115268075Y-53147125D01*
X115199972Y-53045202D01*
X115113293Y-52958523D01*
X115011370Y-52890420D01*
X114942887Y-52862053D01*
X115497145Y-52307794D01*
X115497145Y-52307793D01*
X115437942Y-52264780D01*
X115244920Y-52166429D01*
X115038884Y-52099483D01*
X114824922Y-52065595D01*
X114608278Y-52065595D01*
X114394315Y-52099483D01*
X114188279Y-52166429D01*
X113995259Y-52264779D01*
X113936053Y-52307793D01*
X113936053Y-52307794D01*
X114490312Y-52862053D01*
X114421830Y-52890420D01*
X114319907Y-52958523D01*
X114233228Y-53045202D01*
X114165125Y-53147125D01*
X114136758Y-53215607D01*
X113582499Y-52661348D01*
X113582498Y-52661348D01*
X113539484Y-52720554D01*
X113441134Y-52913574D01*
X113374188Y-53119610D01*
X113340300Y-53333572D01*
X110848504Y-53333572D01*
X110844091Y-53292516D01*
X110793797Y-53157671D01*
X110793793Y-53157664D01*
X110707547Y-53042455D01*
X110707544Y-53042452D01*
X110592335Y-52956206D01*
X110592328Y-52956202D01*
X110457482Y-52905908D01*
X110457483Y-52905908D01*
X110397883Y-52899501D01*
X110397881Y-52899500D01*
X110397873Y-52899500D01*
X110397865Y-52899500D01*
X109262229Y-52899500D01*
X109195190Y-52879815D01*
X109174548Y-52863181D01*
X108754101Y-52442734D01*
X108289788Y-51978421D01*
X107536819Y-51225451D01*
X107503334Y-51164128D01*
X107500500Y-51137770D01*
X107500500Y-49517141D01*
X112599500Y-49517141D01*
X112599500Y-49766258D01*
X112599501Y-49766275D01*
X112632017Y-50013261D01*
X112696498Y-50253907D01*
X112791830Y-50484061D01*
X112791837Y-50484076D01*
X112916400Y-50699826D01*
X113068060Y-50897474D01*
X113068066Y-50897481D01*
X113244218Y-51073633D01*
X113244225Y-51073639D01*
X113441873Y-51225299D01*
X113657623Y-51349862D01*
X113657638Y-51349869D01*
X113756825Y-51390953D01*
X113887793Y-51445202D01*
X114128435Y-51509682D01*
X114375435Y-51542200D01*
X114375442Y-51542200D01*
X114624558Y-51542200D01*
X114624565Y-51542200D01*
X114871565Y-51509682D01*
X115112207Y-51445202D01*
X115342373Y-51349864D01*
X115558127Y-51225299D01*
X115755776Y-51073638D01*
X115931938Y-50897476D01*
X116083599Y-50699827D01*
X116208164Y-50484073D01*
X116303502Y-50253907D01*
X116367982Y-50013265D01*
X116400500Y-49766265D01*
X116400500Y-49517141D01*
X116849500Y-49517141D01*
X116849500Y-49766258D01*
X116849501Y-49766275D01*
X116882017Y-50013261D01*
X116946498Y-50253907D01*
X117041830Y-50484061D01*
X117041837Y-50484076D01*
X117166400Y-50699826D01*
X117318060Y-50897474D01*
X117318066Y-50897481D01*
X117494218Y-51073633D01*
X117494225Y-51073639D01*
X117691873Y-51225299D01*
X117907623Y-51349862D01*
X117907638Y-51349869D01*
X118006825Y-51390953D01*
X118137793Y-51445202D01*
X118378435Y-51509682D01*
X118625435Y-51542200D01*
X118625442Y-51542200D01*
X118874558Y-51542200D01*
X118874565Y-51542200D01*
X119121565Y-51509682D01*
X119362207Y-51445202D01*
X119592373Y-51349864D01*
X119808127Y-51225299D01*
X120005776Y-51073638D01*
X120181938Y-50897476D01*
X120333599Y-50699827D01*
X120458164Y-50484073D01*
X120553502Y-50253907D01*
X120617982Y-50013265D01*
X120627061Y-49944301D01*
X120655327Y-49880405D01*
X120713652Y-49841934D01*
X120783516Y-49841103D01*
X120842740Y-49878175D01*
X120872519Y-49941381D01*
X120872939Y-49944302D01*
X120882017Y-50013261D01*
X120946498Y-50253907D01*
X121041830Y-50484061D01*
X121041837Y-50484076D01*
X121166400Y-50699826D01*
X121318060Y-50897474D01*
X121318066Y-50897481D01*
X121494218Y-51073633D01*
X121494225Y-51073639D01*
X121691873Y-51225299D01*
X121907623Y-51349862D01*
X121907638Y-51349869D01*
X122006825Y-51390953D01*
X122137793Y-51445202D01*
X122378435Y-51509682D01*
X122625435Y-51542200D01*
X122625442Y-51542200D01*
X122874558Y-51542200D01*
X122874565Y-51542200D01*
X123121565Y-51509682D01*
X123362207Y-51445202D01*
X123592373Y-51349864D01*
X123808127Y-51225299D01*
X124005776Y-51073638D01*
X124181938Y-50897476D01*
X124333599Y-50699827D01*
X124458164Y-50484073D01*
X124553502Y-50253907D01*
X124617982Y-50013265D01*
X124650500Y-49766265D01*
X124650500Y-49517141D01*
X125349500Y-49517141D01*
X125349500Y-49766258D01*
X125349501Y-49766275D01*
X125382017Y-50013261D01*
X125446498Y-50253907D01*
X125541830Y-50484061D01*
X125541837Y-50484076D01*
X125666400Y-50699826D01*
X125818060Y-50897474D01*
X125818066Y-50897481D01*
X125994218Y-51073633D01*
X125994225Y-51073639D01*
X126191873Y-51225299D01*
X126407623Y-51349862D01*
X126407638Y-51349869D01*
X126506825Y-51390953D01*
X126637793Y-51445202D01*
X126878435Y-51509682D01*
X127125435Y-51542200D01*
X127125442Y-51542200D01*
X127374558Y-51542200D01*
X127374565Y-51542200D01*
X127621565Y-51509682D01*
X127862207Y-51445202D01*
X128092373Y-51349864D01*
X128308127Y-51225299D01*
X128505776Y-51073638D01*
X128681938Y-50897476D01*
X128833599Y-50699827D01*
X128958164Y-50484073D01*
X129053502Y-50253907D01*
X129117982Y-50013265D01*
X129150500Y-49766265D01*
X129150500Y-49517135D01*
X129117982Y-49270135D01*
X129053502Y-49029493D01*
X128958164Y-48799327D01*
X128833599Y-48583573D01*
X128681938Y-48385924D01*
X128681933Y-48385918D01*
X128505781Y-48209766D01*
X128505774Y-48209760D01*
X128308126Y-48058100D01*
X128092376Y-47933537D01*
X128092361Y-47933530D01*
X127862207Y-47838198D01*
X127621561Y-47773717D01*
X127374575Y-47741201D01*
X127374570Y-47741200D01*
X127374565Y-47741200D01*
X127125435Y-47741200D01*
X127125429Y-47741200D01*
X127125424Y-47741201D01*
X126878438Y-47773717D01*
X126637792Y-47838198D01*
X126407638Y-47933530D01*
X126407623Y-47933537D01*
X126191873Y-48058100D01*
X125994225Y-48209760D01*
X125994218Y-48209766D01*
X125818066Y-48385918D01*
X125818060Y-48385925D01*
X125666400Y-48583573D01*
X125541837Y-48799323D01*
X125541830Y-48799338D01*
X125446498Y-49029492D01*
X125382017Y-49270138D01*
X125349501Y-49517124D01*
X125349500Y-49517141D01*
X124650500Y-49517141D01*
X124650500Y-49517135D01*
X124617982Y-49270135D01*
X124553502Y-49029493D01*
X124458164Y-48799327D01*
X124333599Y-48583573D01*
X124181938Y-48385924D01*
X124181933Y-48385918D01*
X124005781Y-48209766D01*
X124005774Y-48209760D01*
X123808126Y-48058100D01*
X123592376Y-47933537D01*
X123592361Y-47933530D01*
X123362207Y-47838198D01*
X123121561Y-47773717D01*
X122874575Y-47741201D01*
X122874570Y-47741200D01*
X122874565Y-47741200D01*
X122625435Y-47741200D01*
X122625429Y-47741200D01*
X122625424Y-47741201D01*
X122378438Y-47773717D01*
X122137792Y-47838198D01*
X121907638Y-47933530D01*
X121907623Y-47933537D01*
X121691873Y-48058100D01*
X121494225Y-48209760D01*
X121494218Y-48209766D01*
X121318066Y-48385918D01*
X121318060Y-48385925D01*
X121166400Y-48583573D01*
X121041837Y-48799323D01*
X121041830Y-48799338D01*
X120946498Y-49029492D01*
X120882017Y-49270138D01*
X120872939Y-49339097D01*
X120844673Y-49402994D01*
X120786348Y-49441465D01*
X120716483Y-49442296D01*
X120657260Y-49405224D01*
X120627481Y-49342018D01*
X120627061Y-49339097D01*
X120617982Y-49270138D01*
X120617982Y-49270135D01*
X120553502Y-49029493D01*
X120458164Y-48799327D01*
X120333599Y-48583573D01*
X120181938Y-48385924D01*
X120181933Y-48385918D01*
X120005781Y-48209766D01*
X120005774Y-48209760D01*
X119808126Y-48058100D01*
X119592376Y-47933537D01*
X119592361Y-47933530D01*
X119362207Y-47838198D01*
X119121561Y-47773717D01*
X118874575Y-47741201D01*
X118874570Y-47741200D01*
X118874565Y-47741200D01*
X118625435Y-47741200D01*
X118625429Y-47741200D01*
X118625424Y-47741201D01*
X118378438Y-47773717D01*
X118137792Y-47838198D01*
X117907638Y-47933530D01*
X117907623Y-47933537D01*
X117691873Y-48058100D01*
X117494225Y-48209760D01*
X117494218Y-48209766D01*
X117318066Y-48385918D01*
X117318060Y-48385925D01*
X117166400Y-48583573D01*
X117041837Y-48799323D01*
X117041830Y-48799338D01*
X116946498Y-49029492D01*
X116882017Y-49270138D01*
X116849501Y-49517124D01*
X116849500Y-49517141D01*
X116400500Y-49517141D01*
X116400500Y-49517135D01*
X116367982Y-49270135D01*
X116303502Y-49029493D01*
X116208164Y-48799327D01*
X116083599Y-48583573D01*
X115931938Y-48385924D01*
X115931933Y-48385918D01*
X115755781Y-48209766D01*
X115755774Y-48209760D01*
X115558126Y-48058100D01*
X115342376Y-47933537D01*
X115342361Y-47933530D01*
X115112207Y-47838198D01*
X114871561Y-47773717D01*
X114624575Y-47741201D01*
X114624570Y-47741200D01*
X114624565Y-47741200D01*
X114375435Y-47741200D01*
X114375429Y-47741200D01*
X114375424Y-47741201D01*
X114128438Y-47773717D01*
X113887792Y-47838198D01*
X113657638Y-47933530D01*
X113657623Y-47933537D01*
X113441873Y-48058100D01*
X113244225Y-48209760D01*
X113244218Y-48209766D01*
X113068066Y-48385918D01*
X113068060Y-48385925D01*
X112916400Y-48583573D01*
X112791837Y-48799323D01*
X112791830Y-48799338D01*
X112696498Y-49029492D01*
X112632017Y-49270138D01*
X112599501Y-49517124D01*
X112599500Y-49517141D01*
X107500500Y-49517141D01*
X107500500Y-42554604D01*
X107509939Y-42507151D01*
X107510934Y-42504749D01*
X107519737Y-42483497D01*
X107550500Y-42328842D01*
X107550500Y-42171158D01*
X107550500Y-42171155D01*
X107550499Y-42171153D01*
X107519738Y-42016510D01*
X107519737Y-42016503D01*
X107510938Y-41995261D01*
X107459397Y-41870827D01*
X107459390Y-41870814D01*
X107371789Y-41739711D01*
X107371786Y-41739707D01*
X107260292Y-41628213D01*
X107260288Y-41628210D01*
X107129185Y-41540609D01*
X107129172Y-41540602D01*
X106983501Y-41480264D01*
X106983489Y-41480261D01*
X106828845Y-41449500D01*
X106828842Y-41449500D01*
X106671158Y-41449500D01*
X106671155Y-41449500D01*
X106516510Y-41480261D01*
X106516498Y-41480264D01*
X106370827Y-41540602D01*
X106370814Y-41540609D01*
X106239711Y-41628210D01*
X106239707Y-41628213D01*
X106128213Y-41739707D01*
X106128210Y-41739711D01*
X106040609Y-41870814D01*
X106040602Y-41870827D01*
X105989061Y-41995261D01*
X105945220Y-42049665D01*
X105878926Y-42071730D01*
X105811227Y-42054451D01*
X105763616Y-42003314D01*
X105750500Y-41947809D01*
X105750500Y-39272135D01*
X108149500Y-39272135D01*
X108149500Y-41067870D01*
X108149501Y-41067876D01*
X108155908Y-41127483D01*
X108206202Y-41262328D01*
X108206206Y-41262335D01*
X108292452Y-41377544D01*
X108292455Y-41377547D01*
X108407664Y-41463793D01*
X108407671Y-41463797D01*
X108539082Y-41512810D01*
X108595016Y-41554681D01*
X108619433Y-41620145D01*
X108604582Y-41688418D01*
X108583431Y-41716673D01*
X108469889Y-41830215D01*
X108344951Y-42002179D01*
X108248444Y-42191585D01*
X108182753Y-42393760D01*
X108149500Y-42603713D01*
X108149500Y-42816286D01*
X108182753Y-43026239D01*
X108248444Y-43228414D01*
X108344951Y-43417820D01*
X108469890Y-43589786D01*
X108620213Y-43740109D01*
X108792182Y-43865050D01*
X108800946Y-43869516D01*
X108851742Y-43917491D01*
X108868536Y-43985312D01*
X108845998Y-44051447D01*
X108800946Y-44090484D01*
X108792182Y-44094949D01*
X108620213Y-44219890D01*
X108469890Y-44370213D01*
X108344951Y-44542179D01*
X108248444Y-44731585D01*
X108182753Y-44933760D01*
X108149500Y-45143713D01*
X108149500Y-45356286D01*
X108182753Y-45566239D01*
X108248444Y-45768414D01*
X108344951Y-45957820D01*
X108469890Y-46129786D01*
X108620213Y-46280109D01*
X108792179Y-46405048D01*
X108792181Y-46405049D01*
X108792184Y-46405051D01*
X108981588Y-46501557D01*
X109183757Y-46567246D01*
X109393713Y-46600500D01*
X109393714Y-46600500D01*
X109606286Y-46600500D01*
X109606287Y-46600500D01*
X109816243Y-46567246D01*
X110018412Y-46501557D01*
X110207816Y-46405051D01*
X110229789Y-46389086D01*
X110379786Y-46280109D01*
X110379788Y-46280106D01*
X110379792Y-46280104D01*
X110530104Y-46129792D01*
X110530106Y-46129788D01*
X110530109Y-46129786D01*
X110655048Y-45957820D01*
X110655047Y-45957820D01*
X110655051Y-45957816D01*
X110751557Y-45768412D01*
X110817246Y-45566243D01*
X110850500Y-45356287D01*
X110850500Y-45143713D01*
X110817246Y-44933757D01*
X110751557Y-44731588D01*
X110655051Y-44542184D01*
X110655049Y-44542181D01*
X110655048Y-44542179D01*
X110530109Y-44370213D01*
X110379786Y-44219890D01*
X110207820Y-44094951D01*
X110207115Y-44094591D01*
X110199054Y-44090485D01*
X110148259Y-44042512D01*
X110131463Y-43974692D01*
X110153999Y-43908556D01*
X110199054Y-43869515D01*
X110207816Y-43865051D01*
X110229789Y-43849086D01*
X110379786Y-43740109D01*
X110379788Y-43740106D01*
X110379792Y-43740104D01*
X110530104Y-43589792D01*
X110530106Y-43589788D01*
X110530109Y-43589786D01*
X110655048Y-43417820D01*
X110655047Y-43417820D01*
X110655051Y-43417816D01*
X110751557Y-43228412D01*
X110817246Y-43026243D01*
X110850500Y-42816287D01*
X110850500Y-42603713D01*
X110817246Y-42393757D01*
X110751557Y-42191588D01*
X110655051Y-42002184D01*
X110655049Y-42002181D01*
X110655048Y-42002179D01*
X110530109Y-41830213D01*
X110416569Y-41716673D01*
X110383084Y-41655350D01*
X110388068Y-41585658D01*
X110429940Y-41529725D01*
X110460915Y-41512810D01*
X110592331Y-41463796D01*
X110707546Y-41377546D01*
X110793796Y-41262331D01*
X110844091Y-41127483D01*
X110850500Y-41067873D01*
X110850499Y-39272135D01*
X115399500Y-39272135D01*
X115399500Y-41067870D01*
X115399501Y-41067876D01*
X115405908Y-41127483D01*
X115456202Y-41262328D01*
X115456206Y-41262335D01*
X115542452Y-41377544D01*
X115542455Y-41377547D01*
X115657664Y-41463793D01*
X115657671Y-41463797D01*
X115789082Y-41512810D01*
X115845016Y-41554681D01*
X115869433Y-41620145D01*
X115854582Y-41688418D01*
X115833431Y-41716673D01*
X115719889Y-41830215D01*
X115594951Y-42002179D01*
X115498444Y-42191585D01*
X115432753Y-42393760D01*
X115399500Y-42603713D01*
X115399500Y-42816286D01*
X115432753Y-43026239D01*
X115498444Y-43228414D01*
X115594951Y-43417820D01*
X115719890Y-43589786D01*
X115870213Y-43740109D01*
X116042182Y-43865050D01*
X116050946Y-43869516D01*
X116101742Y-43917491D01*
X116118536Y-43985312D01*
X116095998Y-44051447D01*
X116050946Y-44090484D01*
X116042182Y-44094949D01*
X115870213Y-44219890D01*
X115719890Y-44370213D01*
X115594951Y-44542179D01*
X115498444Y-44731585D01*
X115432753Y-44933760D01*
X115399500Y-45143713D01*
X115399500Y-45356286D01*
X115432753Y-45566239D01*
X115498444Y-45768414D01*
X115594951Y-45957820D01*
X115719890Y-46129786D01*
X115870213Y-46280109D01*
X116042179Y-46405048D01*
X116042181Y-46405049D01*
X116042184Y-46405051D01*
X116231588Y-46501557D01*
X116433757Y-46567246D01*
X116643713Y-46600500D01*
X116643714Y-46600500D01*
X116856286Y-46600500D01*
X116856287Y-46600500D01*
X117066243Y-46567246D01*
X117268412Y-46501557D01*
X117457816Y-46405051D01*
X117479789Y-46389086D01*
X117629786Y-46280109D01*
X117629788Y-46280106D01*
X117629792Y-46280104D01*
X117780104Y-46129792D01*
X117780106Y-46129788D01*
X117780109Y-46129786D01*
X117905048Y-45957820D01*
X117905047Y-45957820D01*
X117905051Y-45957816D01*
X118001557Y-45768412D01*
X118067246Y-45566243D01*
X118100500Y-45356287D01*
X118100500Y-45143713D01*
X118067246Y-44933757D01*
X118001557Y-44731588D01*
X117905051Y-44542184D01*
X117905049Y-44542181D01*
X117905048Y-44542179D01*
X117780109Y-44370213D01*
X117629786Y-44219890D01*
X117457820Y-44094951D01*
X117457115Y-44094591D01*
X117449054Y-44090485D01*
X117398259Y-44042512D01*
X117381463Y-43974692D01*
X117403999Y-43908556D01*
X117449054Y-43869515D01*
X117457816Y-43865051D01*
X117479789Y-43849086D01*
X117629786Y-43740109D01*
X117629788Y-43740106D01*
X117629792Y-43740104D01*
X117780104Y-43589792D01*
X117780106Y-43589788D01*
X117780109Y-43589786D01*
X117905048Y-43417820D01*
X117905047Y-43417820D01*
X117905051Y-43417816D01*
X118001557Y-43228412D01*
X118067246Y-43026243D01*
X118100500Y-42816287D01*
X118100500Y-42603713D01*
X118067246Y-42393757D01*
X118001557Y-42191588D01*
X117905051Y-42002184D01*
X117905049Y-42002181D01*
X117905048Y-42002179D01*
X117780109Y-41830213D01*
X117666569Y-41716673D01*
X117633084Y-41655350D01*
X117638068Y-41585658D01*
X117679940Y-41529725D01*
X117710915Y-41512810D01*
X117842331Y-41463796D01*
X117957546Y-41377546D01*
X118043796Y-41262331D01*
X118094091Y-41127483D01*
X118100500Y-41067873D01*
X118100499Y-39272135D01*
X122649500Y-39272135D01*
X122649500Y-41067870D01*
X122649501Y-41067876D01*
X122655908Y-41127483D01*
X122706202Y-41262328D01*
X122706206Y-41262335D01*
X122792452Y-41377544D01*
X122792455Y-41377547D01*
X122907664Y-41463793D01*
X122907671Y-41463797D01*
X123039082Y-41512810D01*
X123095016Y-41554681D01*
X123119433Y-41620145D01*
X123104582Y-41688418D01*
X123083431Y-41716673D01*
X122969889Y-41830215D01*
X122844951Y-42002179D01*
X122748444Y-42191585D01*
X122682753Y-42393760D01*
X122649500Y-42603713D01*
X122649500Y-42816286D01*
X122682753Y-43026239D01*
X122748444Y-43228414D01*
X122844951Y-43417820D01*
X122969890Y-43589786D01*
X123120213Y-43740109D01*
X123292182Y-43865050D01*
X123300946Y-43869516D01*
X123351742Y-43917491D01*
X123368536Y-43985312D01*
X123345998Y-44051447D01*
X123300946Y-44090484D01*
X123292182Y-44094949D01*
X123120213Y-44219890D01*
X122969890Y-44370213D01*
X122844951Y-44542179D01*
X122748444Y-44731585D01*
X122682753Y-44933760D01*
X122649500Y-45143713D01*
X122649500Y-45356286D01*
X122682753Y-45566239D01*
X122748444Y-45768414D01*
X122844951Y-45957820D01*
X122969890Y-46129786D01*
X123120213Y-46280109D01*
X123292179Y-46405048D01*
X123292181Y-46405049D01*
X123292184Y-46405051D01*
X123481588Y-46501557D01*
X123683757Y-46567246D01*
X123893713Y-46600500D01*
X123893714Y-46600500D01*
X124106286Y-46600500D01*
X124106287Y-46600500D01*
X124316243Y-46567246D01*
X124518412Y-46501557D01*
X124707816Y-46405051D01*
X124729789Y-46389086D01*
X124879786Y-46280109D01*
X124879788Y-46280106D01*
X124879792Y-46280104D01*
X125030104Y-46129792D01*
X125030106Y-46129788D01*
X125030109Y-46129786D01*
X125155048Y-45957820D01*
X125155047Y-45957820D01*
X125155051Y-45957816D01*
X125251557Y-45768412D01*
X125317246Y-45566243D01*
X125350500Y-45356287D01*
X125350500Y-45143713D01*
X125317246Y-44933757D01*
X125251557Y-44731588D01*
X125155051Y-44542184D01*
X125155049Y-44542181D01*
X125155048Y-44542179D01*
X125030109Y-44370213D01*
X124879786Y-44219890D01*
X124707820Y-44094951D01*
X124707115Y-44094591D01*
X124699054Y-44090485D01*
X124648259Y-44042512D01*
X124631463Y-43974692D01*
X124653999Y-43908556D01*
X124699054Y-43869515D01*
X124707816Y-43865051D01*
X124729789Y-43849086D01*
X124879786Y-43740109D01*
X124879788Y-43740106D01*
X124879792Y-43740104D01*
X125030104Y-43589792D01*
X125030106Y-43589788D01*
X125030109Y-43589786D01*
X125155048Y-43417820D01*
X125155047Y-43417820D01*
X125155051Y-43417816D01*
X125251557Y-43228412D01*
X125317246Y-43026243D01*
X125350500Y-42816287D01*
X125350500Y-42603713D01*
X125317246Y-42393757D01*
X125251557Y-42191588D01*
X125155051Y-42002184D01*
X125155049Y-42002181D01*
X125155048Y-42002179D01*
X125030109Y-41830213D01*
X124916569Y-41716673D01*
X124883084Y-41655350D01*
X124888068Y-41585658D01*
X124929940Y-41529725D01*
X124960915Y-41512810D01*
X125092331Y-41463796D01*
X125207546Y-41377546D01*
X125293796Y-41262331D01*
X125344091Y-41127483D01*
X125350500Y-41067873D01*
X125350499Y-39272135D01*
X129899500Y-39272135D01*
X129899500Y-41067870D01*
X129899501Y-41067876D01*
X129905908Y-41127483D01*
X129956202Y-41262328D01*
X129956206Y-41262335D01*
X130042452Y-41377544D01*
X130042455Y-41377547D01*
X130157664Y-41463793D01*
X130157671Y-41463797D01*
X130289082Y-41512810D01*
X130345016Y-41554681D01*
X130369433Y-41620145D01*
X130354582Y-41688418D01*
X130333431Y-41716673D01*
X130219889Y-41830215D01*
X130094951Y-42002179D01*
X129998444Y-42191585D01*
X129932753Y-42393760D01*
X129899500Y-42603713D01*
X129899500Y-42816286D01*
X129932753Y-43026239D01*
X129998444Y-43228414D01*
X130094951Y-43417820D01*
X130219890Y-43589786D01*
X130370213Y-43740109D01*
X130542182Y-43865050D01*
X130550946Y-43869516D01*
X130601742Y-43917491D01*
X130618536Y-43985312D01*
X130595998Y-44051447D01*
X130550946Y-44090484D01*
X130542182Y-44094949D01*
X130370213Y-44219890D01*
X130219890Y-44370213D01*
X130094951Y-44542179D01*
X129998444Y-44731585D01*
X129932753Y-44933760D01*
X129899500Y-45143713D01*
X129899500Y-45356286D01*
X129932753Y-45566239D01*
X129998444Y-45768414D01*
X130094951Y-45957820D01*
X130219890Y-46129786D01*
X130370213Y-46280109D01*
X130542179Y-46405048D01*
X130542181Y-46405049D01*
X130542184Y-46405051D01*
X130731588Y-46501557D01*
X130933757Y-46567246D01*
X131143713Y-46600500D01*
X131143714Y-46600500D01*
X131356286Y-46600500D01*
X131356287Y-46600500D01*
X131566243Y-46567246D01*
X131768412Y-46501557D01*
X131957816Y-46405051D01*
X131979789Y-46389086D01*
X132129786Y-46280109D01*
X132129788Y-46280106D01*
X132129792Y-46280104D01*
X132280104Y-46129792D01*
X132280106Y-46129788D01*
X132280109Y-46129786D01*
X132405048Y-45957820D01*
X132405047Y-45957820D01*
X132405051Y-45957816D01*
X132501557Y-45768412D01*
X132567246Y-45566243D01*
X132600500Y-45356287D01*
X132600500Y-45143713D01*
X132567246Y-44933757D01*
X132501557Y-44731588D01*
X132405051Y-44542184D01*
X132405049Y-44542181D01*
X132405048Y-44542179D01*
X132280109Y-44370213D01*
X132129786Y-44219890D01*
X131957820Y-44094951D01*
X131957115Y-44094591D01*
X131949054Y-44090485D01*
X131898259Y-44042512D01*
X131881463Y-43974692D01*
X131903999Y-43908556D01*
X131949054Y-43869515D01*
X131957816Y-43865051D01*
X131979789Y-43849086D01*
X132129786Y-43740109D01*
X132129788Y-43740106D01*
X132129792Y-43740104D01*
X132280104Y-43589792D01*
X132280106Y-43589788D01*
X132280109Y-43589786D01*
X132405048Y-43417820D01*
X132405047Y-43417820D01*
X132405051Y-43417816D01*
X132501557Y-43228412D01*
X132567246Y-43026243D01*
X132600500Y-42816287D01*
X132600500Y-42603713D01*
X132567246Y-42393757D01*
X132501557Y-42191588D01*
X132405051Y-42002184D01*
X132405049Y-42002181D01*
X132405048Y-42002179D01*
X132280109Y-41830213D01*
X132166569Y-41716673D01*
X132133084Y-41655350D01*
X132138068Y-41585658D01*
X132179940Y-41529725D01*
X132210915Y-41512810D01*
X132342331Y-41463796D01*
X132457546Y-41377546D01*
X132543796Y-41262331D01*
X132594091Y-41127483D01*
X132600500Y-41067873D01*
X132600499Y-39272128D01*
X132594091Y-39212517D01*
X132543796Y-39077669D01*
X132543795Y-39077668D01*
X132543793Y-39077664D01*
X132457547Y-38962455D01*
X132457544Y-38962452D01*
X132342335Y-38876206D01*
X132342328Y-38876202D01*
X132207482Y-38825908D01*
X132207483Y-38825908D01*
X132147883Y-38819501D01*
X132147881Y-38819500D01*
X132147873Y-38819500D01*
X132147864Y-38819500D01*
X130352129Y-38819500D01*
X130352123Y-38819501D01*
X130292516Y-38825908D01*
X130157671Y-38876202D01*
X130157664Y-38876206D01*
X130042455Y-38962452D01*
X130042452Y-38962455D01*
X129956206Y-39077664D01*
X129956202Y-39077671D01*
X129905908Y-39212517D01*
X129899501Y-39272116D01*
X129899501Y-39272123D01*
X129899500Y-39272135D01*
X125350499Y-39272135D01*
X125350499Y-39272128D01*
X125344091Y-39212517D01*
X125293796Y-39077669D01*
X125293795Y-39077668D01*
X125293793Y-39077664D01*
X125207547Y-38962455D01*
X125207544Y-38962452D01*
X125092335Y-38876206D01*
X125092328Y-38876202D01*
X124957482Y-38825908D01*
X124957483Y-38825908D01*
X124897883Y-38819501D01*
X124897881Y-38819500D01*
X124897873Y-38819500D01*
X124897864Y-38819500D01*
X123102129Y-38819500D01*
X123102123Y-38819501D01*
X123042516Y-38825908D01*
X122907671Y-38876202D01*
X122907664Y-38876206D01*
X122792455Y-38962452D01*
X122792452Y-38962455D01*
X122706206Y-39077664D01*
X122706202Y-39077671D01*
X122655908Y-39212517D01*
X122649501Y-39272116D01*
X122649501Y-39272123D01*
X122649500Y-39272135D01*
X118100499Y-39272135D01*
X118100499Y-39272128D01*
X118094091Y-39212517D01*
X118043796Y-39077669D01*
X118043795Y-39077668D01*
X118043793Y-39077664D01*
X117957547Y-38962455D01*
X117957544Y-38962452D01*
X117842335Y-38876206D01*
X117842328Y-38876202D01*
X117707482Y-38825908D01*
X117707483Y-38825908D01*
X117647883Y-38819501D01*
X117647881Y-38819500D01*
X117647873Y-38819500D01*
X117647864Y-38819500D01*
X115852129Y-38819500D01*
X115852123Y-38819501D01*
X115792516Y-38825908D01*
X115657671Y-38876202D01*
X115657664Y-38876206D01*
X115542455Y-38962452D01*
X115542452Y-38962455D01*
X115456206Y-39077664D01*
X115456202Y-39077671D01*
X115405908Y-39212517D01*
X115399501Y-39272116D01*
X115399501Y-39272123D01*
X115399500Y-39272135D01*
X110850499Y-39272135D01*
X110850499Y-39272128D01*
X110844091Y-39212517D01*
X110793796Y-39077669D01*
X110793795Y-39077668D01*
X110793793Y-39077664D01*
X110707547Y-38962455D01*
X110707544Y-38962452D01*
X110592335Y-38876206D01*
X110592328Y-38876202D01*
X110457482Y-38825908D01*
X110457483Y-38825908D01*
X110397883Y-38819501D01*
X110397881Y-38819500D01*
X110397873Y-38819500D01*
X110397864Y-38819500D01*
X108602129Y-38819500D01*
X108602123Y-38819501D01*
X108542516Y-38825908D01*
X108407671Y-38876202D01*
X108407664Y-38876206D01*
X108292455Y-38962452D01*
X108292452Y-38962455D01*
X108206206Y-39077664D01*
X108206202Y-39077671D01*
X108155908Y-39212517D01*
X108149501Y-39272116D01*
X108149501Y-39272123D01*
X108149500Y-39272135D01*
X105750500Y-39272135D01*
X105750500Y-38756961D01*
X105751280Y-38743077D01*
X105751280Y-38743076D01*
X105761460Y-38652729D01*
X105767635Y-38625670D01*
X105795353Y-38546456D01*
X105807396Y-38521450D01*
X105852046Y-38450389D01*
X105869351Y-38428690D01*
X105928690Y-38369351D01*
X105950389Y-38352046D01*
X106021450Y-38307396D01*
X106046456Y-38295353D01*
X106125670Y-38267635D01*
X106152733Y-38261459D01*
X106215419Y-38254396D01*
X106243079Y-38251280D01*
X106256962Y-38250500D01*
X106315892Y-38250500D01*
X134184108Y-38250500D01*
X134243038Y-38250500D01*
X134256922Y-38251280D01*
G37*
%TD.AperFunction*%
%TD*%
M02*
