%TF.GenerationSoftware,KiCad,Pcbnew,9.0.0*%
%TF.CreationDate,2025-08-25T22:36:10-05:00*%
%TF.ProjectId,ThermistorBreakoutPCB,54686572-6d69-4737-946f-72427265616b,rev?*%
%TF.SameCoordinates,Original*%
%TF.FileFunction,Soldermask,Top*%
%TF.FilePolarity,Negative*%
%FSLAX46Y46*%
G04 Gerber Fmt 4.6, Leading zero omitted, Abs format (unit mm)*
G04 Created by KiCad (PCBNEW 9.0.0) date 2025-08-25 22:36:10*
%MOMM*%
%LPD*%
G01*
G04 APERTURE LIST*
G04 Aperture macros list*
%AMRoundRect*
0 Rectangle with rounded corners*
0 $1 Rounding radius*
0 $2 $3 $4 $5 $6 $7 $8 $9 X,Y pos of 4 corners*
0 Add a 4 corners polygon primitive as box body*
4,1,4,$2,$3,$4,$5,$6,$7,$8,$9,$2,$3,0*
0 Add four circle primitives for the rounded corners*
1,1,$1+$1,$2,$3*
1,1,$1+$1,$4,$5*
1,1,$1+$1,$6,$7*
1,1,$1+$1,$8,$9*
0 Add four rect primitives between the rounded corners*
20,1,$1+$1,$2,$3,$4,$5,0*
20,1,$1+$1,$4,$5,$6,$7,0*
20,1,$1+$1,$6,$7,$8,$9,0*
20,1,$1+$1,$8,$9,$2,$3,0*%
G04 Aperture macros list end*
%ADD10C,0.010000*%
%ADD11RoundRect,0.237500X0.237500X-0.250000X0.237500X0.250000X-0.237500X0.250000X-0.237500X-0.250000X0*%
%ADD12R,1.700000X1.700000*%
%ADD13O,1.700000X1.700000*%
%ADD14RoundRect,0.237500X-0.237500X0.250000X-0.237500X-0.250000X0.237500X-0.250000X0.237500X0.250000X0*%
%ADD15C,1.752600*%
%ADD16C,2.800000*%
G04 APERTURE END LIST*
D10*
%TO.C,TH5*%
X128850000Y-40260000D02*
X128150000Y-40260000D01*
X128150000Y-39560000D01*
X128850000Y-39560000D01*
X128850000Y-40260000D01*
G36*
X128850000Y-40260000D02*
G01*
X128150000Y-40260000D01*
X128150000Y-39560000D01*
X128850000Y-39560000D01*
X128850000Y-40260000D01*
G37*
X128850000Y-41860000D02*
X128150000Y-41860000D01*
X128150000Y-41160000D01*
X128850000Y-41160000D01*
X128850000Y-41860000D01*
G36*
X128850000Y-41860000D02*
G01*
X128150000Y-41860000D01*
X128150000Y-41160000D01*
X128850000Y-41160000D01*
X128850000Y-41860000D01*
G37*
%TO.C,TH7*%
X114350000Y-40260000D02*
X113650000Y-40260000D01*
X113650000Y-39560000D01*
X114350000Y-39560000D01*
X114350000Y-40260000D01*
G36*
X114350000Y-40260000D02*
G01*
X113650000Y-40260000D01*
X113650000Y-39560000D01*
X114350000Y-39560000D01*
X114350000Y-40260000D01*
G37*
X114350000Y-41860000D02*
X113650000Y-41860000D01*
X113650000Y-41160000D01*
X114350000Y-41160000D01*
X114350000Y-41860000D01*
G36*
X114350000Y-41860000D02*
G01*
X113650000Y-41860000D01*
X113650000Y-41160000D01*
X114350000Y-41160000D01*
X114350000Y-41860000D01*
G37*
%TO.C,TH6*%
X121600000Y-40260000D02*
X120900000Y-40260000D01*
X120900000Y-39560000D01*
X121600000Y-39560000D01*
X121600000Y-40260000D01*
G36*
X121600000Y-40260000D02*
G01*
X120900000Y-40260000D01*
X120900000Y-39560000D01*
X121600000Y-39560000D01*
X121600000Y-40260000D01*
G37*
X121600000Y-41860000D02*
X120900000Y-41860000D01*
X120900000Y-41160000D01*
X121600000Y-41160000D01*
X121600000Y-41860000D01*
G36*
X121600000Y-41860000D02*
G01*
X120900000Y-41860000D01*
X120900000Y-41160000D01*
X121600000Y-41160000D01*
X121600000Y-41860000D01*
G37*
%TO.C,TH8*%
X107100000Y-40260000D02*
X106400000Y-40260000D01*
X106400000Y-39560000D01*
X107100000Y-39560000D01*
X107100000Y-40260000D01*
G36*
X107100000Y-40260000D02*
G01*
X106400000Y-40260000D01*
X106400000Y-39560000D01*
X107100000Y-39560000D01*
X107100000Y-40260000D01*
G37*
X107100000Y-41860000D02*
X106400000Y-41860000D01*
X106400000Y-41160000D01*
X107100000Y-41160000D01*
X107100000Y-41860000D01*
G36*
X107100000Y-41860000D02*
G01*
X106400000Y-41860000D01*
X106400000Y-41160000D01*
X107100000Y-41160000D01*
X107100000Y-41860000D01*
G37*
%TD*%
D11*
%TO.C,R12*%
X106750000Y-45122500D03*
X106750000Y-43297500D03*
%TD*%
D12*
%TO.C,J4*%
X124000000Y-40170000D03*
D13*
X124000000Y-42710000D03*
X124000000Y-45250000D03*
%TD*%
D14*
%TO.C,R9*%
X119500000Y-42635000D03*
X119500000Y-44460000D03*
%TD*%
%TO.C,R7*%
X126750000Y-42635000D03*
X126750000Y-44460000D03*
%TD*%
D15*
%TO.C,J8*%
X127216600Y-53441895D03*
X124716600Y-53441895D03*
X122216600Y-53441895D03*
X119716600Y-53441895D03*
X117216600Y-53441895D03*
X114716600Y-53441895D03*
%TD*%
D11*
%TO.C,R8*%
X121250000Y-45122500D03*
X121250000Y-43297500D03*
%TD*%
D12*
%TO.C,J6*%
X109500000Y-40170000D03*
D13*
X109500000Y-42710000D03*
X109500000Y-45250000D03*
%TD*%
D11*
%TO.C,R5*%
X128500000Y-45122500D03*
X128500000Y-43297500D03*
%TD*%
D16*
%TO.C,TP11*%
X127250000Y-49641700D03*
%TD*%
%TO.C,TP10*%
X122750000Y-49641700D03*
%TD*%
%TO.C,TP9*%
X114500000Y-49641700D03*
%TD*%
D12*
%TO.C,J5*%
X116750000Y-40170000D03*
D13*
X116750000Y-42710000D03*
X116750000Y-45250000D03*
%TD*%
D16*
%TO.C,TP8*%
X118750000Y-49641700D03*
%TD*%
D14*
%TO.C,R6*%
X134000000Y-42635000D03*
X134000000Y-44460000D03*
%TD*%
D12*
%TO.C,J3*%
X131250000Y-40170000D03*
D13*
X131250000Y-42710000D03*
X131250000Y-45250000D03*
%TD*%
D11*
%TO.C,R11*%
X114000000Y-45122500D03*
X114000000Y-43297500D03*
%TD*%
D12*
%TO.C,J1*%
X109500000Y-54250000D03*
D13*
X109500000Y-56790000D03*
%TD*%
D14*
%TO.C,R10*%
X112250000Y-42635000D03*
X112250000Y-44460000D03*
%TD*%
M02*
