M48
; DRILL file {KiCad 9.0.0} date 2025-08-25T22:36:10-0500
; FORMAT={-:-/ absolute / inch / decimal}
; #@! TF.CreationDate,2025-08-25T22:36:10-05:00
; #@! TF.GenerationSoftware,Kicad,Pcbnew,9.0.0
; #@! TF.FileFunction,Plated,1,2,PTH
FMAT,2
INCH
; #@! TA.AperFunction,Plated,PTH,ViaDrill
T1C0.0118
; #@! TA.AperFunction,Plated,PTH,ComponentDrill
T2C0.0394
; #@! TA.AperFunction,Plated,PTH,ComponentDrill
T3C0.0490
; #@! TA.AperFunction,Plated,PTH,ComponentDrill
T4C0.0630
%
G90
G05
T1
X4.2028Y-1.6634
X4.4193Y-1.8012
X4.7047Y-1.811
X4.9902Y-1.811
X5.2756Y-1.8209
T2
X4.311Y-1.5815
X4.311Y-1.6815
X4.311Y-1.7815
X4.311Y-2.1358
X4.311Y-2.2358
X4.5965Y-1.5815
X4.5965Y-1.6815
X4.5965Y-1.7815
X4.8819Y-1.5815
X4.8819Y-1.6815
X4.8819Y-1.7815
X5.1673Y-1.5815
X5.1673Y-1.6815
X5.1673Y-1.7815
T3
X4.5164Y-2.104
X4.6148Y-2.104
X4.7133Y-2.104
X4.8117Y-2.104
X4.9101Y-2.104
X5.0085Y-2.104
T4
X4.5079Y-1.9544
X4.6752Y-1.9544
X4.8327Y-1.9544
X5.0098Y-1.9544
M30
