%TF.GenerationSoftware,KiCad,Pcbnew,9.0.0*%
%TF.CreationDate,2025-08-25T22:46:20-05:00*%
%TF.ProjectId,BPS-Voltage_Temp_Board,4250532d-566f-46c7-9461-67655f54656d,rev?*%
%TF.SameCoordinates,Original*%
%TF.FileFunction,Soldermask,Bot*%
%TF.FilePolarity,Negative*%
%FSLAX46Y46*%
G04 Gerber Fmt 4.6, Leading zero omitted, Abs format (unit mm)*
G04 Created by KiCad (PCBNEW 9.0.0) date 2025-08-25 22:46:20*
%MOMM*%
%LPD*%
G01*
G04 APERTURE LIST*
%ADD10C,1.524000*%
%ADD11C,3.600000*%
%ADD12C,6.400000*%
%ADD13C,1.750000*%
%ADD14C,1.875000*%
%ADD15C,1.752600*%
G04 APERTURE END LIST*
D10*
%TO.C,J5*%
X164790000Y-71402900D03*
X162250000Y-71402900D03*
X164790000Y-73942900D03*
X162250000Y-73942900D03*
X164790000Y-76482900D03*
X162250000Y-76482900D03*
X164790000Y-79022900D03*
X162250000Y-79022900D03*
X164790000Y-81562900D03*
X162250000Y-81562900D03*
%TD*%
D11*
%TO.C,MH4*%
X214975000Y-69700000D03*
D12*
X214975000Y-69700000D03*
%TD*%
D13*
%TO.C,J6*%
X129294200Y-119000000D03*
X136794200Y-119000000D03*
D14*
X136794200Y-111820000D03*
X134294200Y-111820000D03*
X131794200Y-111820000D03*
X129294200Y-111820000D03*
%TD*%
D15*
%TO.C,J11*%
X127801000Y-76479000D03*
X130301000Y-76479000D03*
X132801000Y-76479000D03*
X135301000Y-76479000D03*
X137801000Y-76479000D03*
X140301000Y-76479000D03*
X142801000Y-76479000D03*
%TD*%
D11*
%TO.C,J10*%
X203787600Y-116949500D03*
D12*
X203787600Y-116949500D03*
D11*
X173037600Y-116949500D03*
D12*
X173037600Y-116949500D03*
D11*
X173037600Y-70479500D03*
D12*
X173037600Y-70479500D03*
D11*
X203777600Y-70479500D03*
D12*
X203777600Y-70479500D03*
%TD*%
D13*
%TO.C,J13*%
X215496600Y-97750000D03*
X215496600Y-90250000D03*
D14*
X208316600Y-90250000D03*
X208316600Y-92750000D03*
X208316600Y-95250000D03*
X208316600Y-97750000D03*
%TD*%
D15*
%TO.C,J8*%
X155484200Y-111691895D03*
X152984200Y-111691895D03*
X150484200Y-111691895D03*
X147984200Y-111691895D03*
X145484200Y-111691895D03*
X142984200Y-111691895D03*
%TD*%
%TO.C,J9*%
X165984200Y-111191895D03*
X163484200Y-111191895D03*
X160984200Y-111191895D03*
%TD*%
D11*
%TO.C,MH1*%
X122017600Y-69699500D03*
D12*
X122017600Y-69699500D03*
%TD*%
D11*
%TO.C,MH3*%
X214975000Y-118449500D03*
D12*
X214975000Y-118449500D03*
%TD*%
D13*
%TO.C,J12*%
X215496600Y-111889500D03*
X215496600Y-104389500D03*
D14*
X208316600Y-104389500D03*
X208316600Y-106889500D03*
X208316600Y-109389500D03*
X208316600Y-111889500D03*
%TD*%
D11*
%TO.C,MH2*%
X122017600Y-118449500D03*
D12*
X122017600Y-118449500D03*
%TD*%
D13*
%TO.C,J7*%
X155991000Y-69271000D03*
X148491000Y-69271000D03*
D14*
X148491000Y-76451000D03*
X150991000Y-76451000D03*
X153491000Y-76451000D03*
X155991000Y-76451000D03*
%TD*%
M02*
