M48
; DRILL file {KiCad 9.0.0} date 2025-08-25T22:46:20-0500
; FORMAT={-:-/ absolute / inch / decimal}
; #@! TF.CreationDate,2025-08-25T22:46:20-05:00
; #@! TF.GenerationSoftware,Kicad,Pcbnew,9.0.0
; #@! TF.FileFunction,Plated,1,2,PTH
FMAT,2
INCH
; #@! TA.AperFunction,Plated,PTH,ViaDrill
T1C0.0118
; #@! TA.AperFunction,Plated,PTH,ComponentDrill
T2C0.0400
; #@! TA.AperFunction,Plated,PTH,ComponentDrill
T3C0.0490
; #@! TA.AperFunction,Plated,PTH,ComponentDrill
T4C0.0492
; #@! TA.AperFunction,Plated,PTH,ComponentDrill
T5C0.1260
%
G90
G05
T1
X4.6929Y-4.5354
X4.7086Y-3.7205
X4.7237Y-3.3261
X4.7237Y-3.523
X4.7244Y-3.1142
X4.749Y-2.9646
X4.7559Y-3.8386
X4.7569Y-3.2263
X4.7616Y-3.5805
X4.7616Y-3.7773
X4.7638Y-3.1102
X4.7638Y-3.3195
X4.7638Y-3.3814
X4.7638Y-3.5163
X4.7638Y-3.7008
X4.7638Y-4.3583
X4.7933Y-2.9921
X4.7992Y-3.8878
X4.7992Y-3.9611
X4.7992Y-4.0344
X4.7992Y-4.1078
X4.7992Y-4.1811
X4.8622Y-3.3268
X4.8622Y-3.5112
X4.8622Y-3.7205
X4.8819Y-3.1201
X4.9016Y-3.3071
X4.9016Y-3.5039
X4.9016Y-3.7008
X4.939Y-3.8917
X4.939Y-3.9651
X4.939Y-4.0384
X4.939Y-4.1117
X4.939Y-4.185
X4.9409Y-3.8583
X4.9705Y-3.0118
X4.9705Y-3.5335
X4.9803Y-3.1496
X4.9803Y-3.7598
X4.9901Y-4.7598
X5.0689Y-4.0453
X5.0815Y-3.9783
X5.1181Y-3.7893
X5.1575Y-4.0059
X5.1596Y-4.0531
X5.1869Y-4.3306
X5.2571Y-3.6622
X5.3307Y-3.9213
X5.3445Y-3.7578
X5.3555Y-3.6638
X5.3611Y-4.3042
X5.374Y-3.2087
X5.4141Y-4.5059
X5.4272Y-3.6646
X5.4331Y-3.9961
X5.4331Y-4.0354
X5.4607Y-3.7874
X5.4702Y-3.236
X5.4921Y-3.6652
X5.502Y-3.9961
X5.5023Y-4.0512
X5.6693Y-3.7588
X5.6772Y-3.9213
X5.7283Y-3.0512
X5.7461Y-3.6652
X5.748Y-3.6319
X5.7634Y-3.2366
X5.7677Y-3.5972
X5.7677Y-4.0059
X5.7677Y-4.0453
X5.7693Y-3.4787
X5.7701Y-3.5366
X5.7972Y-3.7883
X5.8268Y-3.4787
X5.8268Y-3.5366
X5.8366Y-4.0059
X5.8386Y-3.2086
X5.8388Y-4.0522
X5.8463Y-3.5929
X5.8563Y-3.563
X5.8563Y-3.6494
X5.8661Y-3.5236
X5.8993Y-3.3376
X5.9646Y-4.252
X6.0Y-3.9213
X6.0039Y-3.7578
X6.0281Y-3.4089
X6.0413Y-3.5079
X6.0564Y-3.395
X6.0622Y-3.1858
X6.0925Y-3.9961
X6.0925Y-4.0354
X6.1024Y-3.6447
X6.1122Y-3.4646
X6.1247Y-3.7874
X6.1406Y-3.1858
X6.1614Y-3.9961
X6.1621Y-4.5059
X6.1662Y-4.0512
X6.235Y-3.1008
X6.2378Y-3.0268
X6.2378Y-3.1874
X6.3211Y-3.605
X6.3386Y-3.5788
X6.3386Y-3.7598
X6.3465Y-3.9213
X6.3476Y-3.4488
X6.3681Y-3.6024
X6.4075Y-3.2874
X6.4095Y-3.5425
X6.4272Y-4.0059
X6.4272Y-4.0453
X6.4407Y-3.5583
X6.4567Y-3.7874
X6.4862Y-3.2874
X6.4862Y-3.4449
X6.4961Y-4.0059
X6.4982Y-4.0512
X6.5354Y-3.0079
X6.5846Y-4.4587
X6.6339Y-3.6396
X6.6634Y-4.0512
X6.6772Y-3.6652
X6.7323Y-3.6122
X6.7717Y-3.1496
X6.7717Y-3.8583
X6.7717Y-4.1339
X6.7717Y-4.2815
X6.8529Y-3.1496
X6.8529Y-3.8583
X6.8529Y-4.1339
X6.8529Y-4.2815
X6.9341Y-3.1496
X6.9341Y-3.8583
X6.9341Y-4.1339
X6.9341Y-4.2815
X6.9961Y-4.6339
X6.9961Y-4.7323
X7.0118Y-2.7756
X7.0153Y-3.1496
X7.0153Y-3.8583
X7.0153Y-4.1339
X7.0153Y-4.2815
X7.0512Y-4.6339
X7.0551Y-4.7323
X7.0768Y-3.0512
X7.0838Y-2.7756
X7.0965Y-3.1496
X7.0965Y-3.8583
X7.0965Y-4.1339
X7.0965Y-4.2815
X7.1063Y-3.614
X7.1102Y-4.7323
X7.1142Y-4.6339
X7.1241Y-3.435
X7.1557Y-2.7756
X7.1614Y-4.0512
X7.1654Y-4.7323
X7.1693Y-4.6339
X7.2276Y-2.7756
X7.229Y-4.6346
X7.2598Y-4.6319
X7.261Y-4.3898
X7.262Y-3.6417
X7.2913Y-4.6319
X7.2953Y-3.6181
X7.2996Y-2.7756
X7.3157Y-4.3307
X7.3228Y-3.6457
X7.3425Y-4.626
X7.3474Y-3.6653
X7.3543Y-3.3071
X7.355Y-4.4488
X7.3715Y-2.7756
X7.375Y-4.6269
X7.4057Y-4.6339
X7.4213Y-4.7441
X7.4435Y-2.7756
X7.4536Y-4.7452
X7.4843Y-4.7539
X7.4882Y-4.6299
X7.5053Y-3.3018
X7.5118Y-4.4488
X7.5154Y-2.7756
X7.5433Y-4.5965
X7.5591Y-3.6141
X7.5591Y-4.7717
X7.5748Y-4.3396
X7.5827Y-4.3701
X7.5873Y-2.7756
X7.6593Y-2.7756
X7.7312Y-2.7756
X7.8031Y-2.7756
X8.0236Y-2.9528
X8.0236Y-3.0247
X8.0236Y-3.0966
X8.0236Y-3.1686
X8.0236Y-3.2405
X8.0236Y-3.3125
X8.0236Y-3.3844
X8.0236Y-3.4563
X8.0236Y-3.5283
X8.0236Y-3.6002
X8.0236Y-3.6722
X8.0236Y-3.7441
X8.0236Y-3.8157
X8.0236Y-3.8876
X8.0236Y-3.9596
X8.0236Y-4.0315
X8.0236Y-4.0952
X8.0236Y-4.1671
X8.0236Y-4.2391
X8.0236Y-4.311
X8.1969Y-3.9646
X8.3563Y-2.9232
X8.3563Y-2.9921
X8.3563Y-3.063
X8.3563Y-3.1299
X8.3563Y-3.1988
X8.3563Y-3.2677
X8.3563Y-3.3386
T2
X6.3878Y-2.8111
X6.3878Y-2.9111
X6.3878Y-3.0111
X6.3878Y-3.1111
X6.3878Y-3.2111
X6.4878Y-2.8111
X6.4878Y-2.9111
X6.4878Y-3.0111
X6.4878Y-3.1111
X6.4878Y-3.2111
T3
X5.0315Y-3.011
X5.13Y-3.011
X5.2284Y-3.011
X5.3268Y-3.011
X5.4252Y-3.011
X5.5237Y-3.011
X5.6221Y-3.011
X5.6293Y-4.3973
X5.7277Y-4.3973
X5.8261Y-4.3973
X5.9246Y-4.3973
X6.023Y-4.3973
X6.1214Y-4.3973
X6.338Y-4.3776
X6.4364Y-4.3776
X6.5348Y-4.3776
T4
X5.0903Y-4.4024
X5.1887Y-4.4024
X5.2872Y-4.4024
X5.3856Y-4.4024
X5.8461Y-3.0099
X5.9445Y-3.0099
X6.043Y-3.0099
X6.1414Y-3.0099
X8.2014Y-3.5531
X8.2014Y-3.6516
X8.2014Y-3.75
X8.2014Y-3.8484
X8.2014Y-4.1098
X8.2014Y-4.2082
X8.2014Y-4.3067
X8.2014Y-4.4051
T5
X4.8038Y-2.7441
X4.8038Y-4.6634
X6.8125Y-2.7748
X6.8125Y-4.6043
X8.0227Y-2.7748
X8.0231Y-4.6043
X8.4636Y-2.7441
X8.4636Y-4.6634
M30
