%TF.GenerationSoftware,KiCad,Pcbnew,9.0.0*%
%TF.CreationDate,2025-08-25T22:46:20-05:00*%
%TF.ProjectId,BPS-Voltage_Temp_Board,4250532d-566f-46c7-9461-67655f54656d,rev?*%
%TF.SameCoordinates,Original*%
%TF.FileFunction,Soldermask,Top*%
%TF.FilePolarity,Negative*%
%FSLAX46Y46*%
G04 Gerber Fmt 4.6, Leading zero omitted, Abs format (unit mm)*
G04 Created by KiCad (PCBNEW 9.0.0) date 2025-08-25 22:46:20*
%MOMM*%
%LPD*%
G01*
G04 APERTURE LIST*
G04 Aperture macros list*
%AMRoundRect*
0 Rectangle with rounded corners*
0 $1 Rounding radius*
0 $2 $3 $4 $5 $6 $7 $8 $9 X,Y pos of 4 corners*
0 Add a 4 corners polygon primitive as box body*
4,1,4,$2,$3,$4,$5,$6,$7,$8,$9,$2,$3,0*
0 Add four circle primitives for the rounded corners*
1,1,$1+$1,$2,$3*
1,1,$1+$1,$4,$5*
1,1,$1+$1,$6,$7*
1,1,$1+$1,$8,$9*
0 Add four rect primitives between the rounded corners*
20,1,$1+$1,$2,$3,$4,$5,0*
20,1,$1+$1,$4,$5,$6,$7,0*
20,1,$1+$1,$6,$7,$8,$9,0*
20,1,$1+$1,$8,$9,$2,$3,0*%
G04 Aperture macros list end*
%ADD10C,0.000000*%
%ADD11RoundRect,0.250000X0.475000X-0.337500X0.475000X0.337500X-0.475000X0.337500X-0.475000X-0.337500X0*%
%ADD12R,1.000000X1.000000*%
%ADD13RoundRect,0.237500X-0.300000X-0.237500X0.300000X-0.237500X0.300000X0.237500X-0.300000X0.237500X0*%
%ADD14R,0.700000X0.700000*%
%ADD15RoundRect,0.237500X-0.237500X0.250000X-0.237500X-0.250000X0.237500X-0.250000X0.237500X0.250000X0*%
%ADD16C,1.524000*%
%ADD17RoundRect,0.237500X-0.237500X0.300000X-0.237500X-0.300000X0.237500X-0.300000X0.237500X0.300000X0*%
%ADD18C,3.600000*%
%ADD19C,6.400000*%
%ADD20RoundRect,0.250000X-0.475000X0.250000X-0.475000X-0.250000X0.475000X-0.250000X0.475000X0.250000X0*%
%ADD21RoundRect,0.237500X-0.287500X-0.237500X0.287500X-0.237500X0.287500X0.237500X-0.287500X0.237500X0*%
%ADD22RoundRect,0.237500X-0.250000X-0.237500X0.250000X-0.237500X0.250000X0.237500X-0.250000X0.237500X0*%
%ADD23R,1.010000X0.940000*%
%ADD24C,1.875000*%
%ADD25RoundRect,0.237500X0.237500X-0.250000X0.237500X0.250000X-0.237500X0.250000X-0.237500X-0.250000X0*%
%ADD26RoundRect,0.237500X0.250000X0.237500X-0.250000X0.237500X-0.250000X-0.237500X0.250000X-0.237500X0*%
%ADD27RoundRect,0.250000X-0.337500X-0.475000X0.337500X-0.475000X0.337500X0.475000X-0.337500X0.475000X0*%
%ADD28RoundRect,0.237500X0.300000X0.237500X-0.300000X0.237500X-0.300000X-0.237500X0.300000X-0.237500X0*%
%ADD29C,1.752600*%
%ADD30RoundRect,0.102000X0.275000X0.900000X-0.275000X0.900000X-0.275000X-0.900000X0.275000X-0.900000X0*%
%ADD31RoundRect,0.150000X0.150000X-0.825000X0.150000X0.825000X-0.150000X0.825000X-0.150000X-0.825000X0*%
%ADD32RoundRect,0.237500X0.237500X-0.300000X0.237500X0.300000X-0.237500X0.300000X-0.237500X-0.300000X0*%
%ADD33RoundRect,0.243750X0.456250X-0.243750X0.456250X0.243750X-0.456250X0.243750X-0.456250X-0.243750X0*%
%ADD34RoundRect,0.102000X0.500000X0.375000X-0.500000X0.375000X-0.500000X-0.375000X0.500000X-0.375000X0*%
%ADD35R,1.500000X1.500000*%
%ADD36RoundRect,0.237500X0.237500X-0.287500X0.237500X0.287500X-0.237500X0.287500X-0.237500X-0.287500X0*%
%ADD37RoundRect,0.250000X-0.450000X0.262500X-0.450000X-0.262500X0.450000X-0.262500X0.450000X0.262500X0*%
%ADD38RoundRect,0.150000X-0.662500X-0.150000X0.662500X-0.150000X0.662500X0.150000X-0.662500X0.150000X0*%
%ADD39R,1.528000X0.650000*%
%ADD40RoundRect,0.150000X0.662500X0.150000X-0.662500X0.150000X-0.662500X-0.150000X0.662500X-0.150000X0*%
%ADD41R,1.475000X0.450000*%
G04 APERTURE END LIST*
D10*
%TO.C,LOGO2*%
G36*
X209438512Y-71907834D02*
G01*
X210837024Y-71921231D01*
X210837024Y-72198413D01*
X210837024Y-72475596D01*
X209703095Y-72500794D01*
X208569167Y-72525993D01*
X208555524Y-73546528D01*
X208541881Y-74567064D01*
X208290941Y-74567064D01*
X208040000Y-74567064D01*
X208040000Y-73230751D01*
X208040000Y-71894438D01*
X209438512Y-71907834D01*
G37*
G36*
X208501508Y-84131151D02*
G01*
X208501508Y-84912301D01*
X208753492Y-84912301D01*
X209005476Y-84912301D01*
X209005476Y-84131151D01*
X209005476Y-83350000D01*
X209711032Y-83350000D01*
X210416587Y-83350000D01*
X210416587Y-84357936D01*
X210416587Y-85365873D01*
X210189802Y-85365873D01*
X209963016Y-85365873D01*
X209963016Y-84584722D01*
X209963016Y-83803571D01*
X209711032Y-83803571D01*
X209459048Y-83803571D01*
X209459048Y-84584722D01*
X209459048Y-85365873D01*
X208753492Y-85365873D01*
X208047937Y-85365873D01*
X208047937Y-84357936D01*
X208047937Y-83350000D01*
X208274722Y-83350000D01*
X208501508Y-83350000D01*
X208501508Y-84131151D01*
G37*
G36*
X209436086Y-75082830D02*
G01*
X210837024Y-75096231D01*
X210851975Y-75352691D01*
X210847139Y-75551790D01*
X210804580Y-75660363D01*
X210798756Y-75665728D01*
X210721427Y-75691275D01*
X210568757Y-75714051D01*
X210366199Y-75730876D01*
X210229439Y-75736847D01*
X209728294Y-75751389D01*
X209728294Y-76834921D01*
X209728294Y-77918453D01*
X210269526Y-77932752D01*
X210527445Y-77942061D01*
X210700221Y-77961771D01*
X210803491Y-78003781D01*
X210852895Y-78079990D01*
X210864070Y-78202298D01*
X210853130Y-78376828D01*
X210837024Y-78573612D01*
X209438512Y-78587008D01*
X208040000Y-78600404D01*
X208040000Y-78273678D01*
X208040000Y-77946952D01*
X208606964Y-77932703D01*
X209173929Y-77918453D01*
X209187506Y-76823982D01*
X209201084Y-75729510D01*
X208633141Y-75715251D01*
X208065199Y-75700993D01*
X208050174Y-75385211D01*
X208035149Y-75069429D01*
X209436086Y-75082830D01*
G37*
G36*
X209887884Y-79354762D02*
G01*
X210809905Y-79354762D01*
X210841491Y-79480608D01*
X210849274Y-79563764D01*
X210854850Y-79732805D01*
X210858097Y-79972847D01*
X210858894Y-80269004D01*
X210857120Y-80606389D01*
X210853276Y-80929517D01*
X210844807Y-81397725D01*
X210832131Y-81775655D01*
X210811144Y-82073823D01*
X210777743Y-82302744D01*
X210727822Y-82472934D01*
X210657279Y-82594908D01*
X210562008Y-82679182D01*
X210437906Y-82736272D01*
X210280868Y-82776693D01*
X210121144Y-82805352D01*
X209918686Y-82815781D01*
X209696195Y-82792188D01*
X209487652Y-82741695D01*
X209327034Y-82671422D01*
X209271840Y-82627371D01*
X209205924Y-82563130D01*
X209153618Y-82563297D01*
X209073428Y-82630288D01*
X209063615Y-82639499D01*
X208988649Y-82695563D01*
X208891225Y-82732230D01*
X208746366Y-82755316D01*
X208529095Y-82770634D01*
X208492571Y-82772438D01*
X208040000Y-82794076D01*
X208040000Y-82460332D01*
X208040000Y-82126588D01*
X208335585Y-82126588D01*
X208542287Y-82114342D01*
X208685649Y-82071898D01*
X208763958Y-82022136D01*
X208896746Y-81917685D01*
X208896746Y-80963803D01*
X208896746Y-80728345D01*
X209405481Y-80728345D01*
X209408874Y-81027158D01*
X209408902Y-81028719D01*
X209415993Y-81365482D01*
X209424390Y-81615965D01*
X209435596Y-81794681D01*
X209451115Y-81916141D01*
X209472449Y-81994859D01*
X209501103Y-82045349D01*
X209515907Y-82061853D01*
X209634038Y-82127195D01*
X209825503Y-82151407D01*
X209860538Y-82151786D01*
X210029871Y-82141791D01*
X210136804Y-82103410D01*
X210211516Y-82032810D01*
X210245454Y-81982720D01*
X210270399Y-81918423D01*
X210287713Y-81824814D01*
X210298753Y-81686788D01*
X210304877Y-81489240D01*
X210307446Y-81217064D01*
X210307857Y-80961878D01*
X210307857Y-80009921D01*
X209887884Y-80009921D01*
X209690347Y-80014188D01*
X209532626Y-80025542D01*
X209440988Y-80041816D01*
X209429901Y-80047719D01*
X209418801Y-80107819D01*
X209410796Y-80252244D01*
X209406239Y-80464564D01*
X209405481Y-80728345D01*
X208896746Y-80728345D01*
X208896746Y-80009921D01*
X208468373Y-80009921D01*
X208040000Y-80009921D01*
X208040000Y-79682342D01*
X208040000Y-79354762D01*
X209424953Y-79354762D01*
X209887884Y-79354762D01*
G37*
%TD*%
D11*
%TO.C,C31*%
X156951600Y-97287500D03*
X156951600Y-95212500D03*
%TD*%
D12*
%TO.C,TP15*%
X162000000Y-95449000D03*
%TD*%
D13*
%TO.C,C10*%
X120137500Y-81750000D03*
X121862500Y-81750000D03*
%TD*%
D14*
%TO.C,D3*%
X121000000Y-83335000D03*
X119900000Y-83335000D03*
X119900000Y-85165000D03*
X121000000Y-85165000D03*
%TD*%
D15*
%TO.C,R60*%
X148075650Y-83963000D03*
X148075650Y-85788000D03*
%TD*%
D16*
%TO.C,J5*%
X164790000Y-71402900D03*
X162250000Y-71402900D03*
X164790000Y-73942900D03*
X162250000Y-73942900D03*
X164790000Y-76482900D03*
X162250000Y-76482900D03*
X164790000Y-79022900D03*
X162250000Y-79022900D03*
X164790000Y-81562900D03*
X162250000Y-81562900D03*
%TD*%
D17*
%TO.C,C39*%
X140800000Y-83737500D03*
X140800000Y-85462500D03*
%TD*%
D14*
%TO.C,D7*%
X124550000Y-88335000D03*
X123450000Y-88335000D03*
X123450000Y-90165000D03*
X124550000Y-90165000D03*
%TD*%
D18*
%TO.C,MH4*%
X214975000Y-69700000D03*
D19*
X214975000Y-69700000D03*
%TD*%
D13*
%TO.C,C9*%
X161637500Y-97250000D03*
X163362500Y-97250000D03*
%TD*%
D20*
%TO.C,C2*%
X149843250Y-83875000D03*
X149843250Y-85775000D03*
%TD*%
D21*
%TO.C,D10*%
X174625000Y-109750000D03*
X176375000Y-109750000D03*
%TD*%
D22*
%TO.C,R37*%
X136040000Y-106500000D03*
X137865000Y-106500000D03*
%TD*%
D11*
%TO.C,C28*%
X150885000Y-104812500D03*
X150885000Y-102737500D03*
%TD*%
D23*
%TO.C,F7*%
X142800000Y-80410000D03*
X142800000Y-81990000D03*
%TD*%
D24*
%TO.C,J6*%
X136794200Y-111820000D03*
X134294200Y-111820000D03*
X131794200Y-111820000D03*
X129294200Y-111820000D03*
%TD*%
D12*
%TO.C,TP12*%
X136702500Y-95449000D03*
%TD*%
D25*
%TO.C,R40*%
X142337500Y-97075000D03*
X142337500Y-95250000D03*
%TD*%
D11*
%TO.C,C27*%
X140087500Y-97287500D03*
X140087500Y-95212500D03*
%TD*%
D12*
%TO.C,TP13*%
X145250000Y-95474000D03*
%TD*%
D11*
%TO.C,C29*%
X159201600Y-104787500D03*
X159201600Y-102712500D03*
%TD*%
D26*
%TO.C,R14*%
X184430100Y-110199500D03*
X182605100Y-110199500D03*
%TD*%
D13*
%TO.C,C7*%
X144887500Y-97275000D03*
X146612500Y-97275000D03*
%TD*%
D27*
%TO.C,C18*%
X152462500Y-89100000D03*
X154537500Y-89100000D03*
%TD*%
D14*
%TO.C,D4*%
X121000000Y-88335000D03*
X119900000Y-88335000D03*
X119900000Y-90165000D03*
X121000000Y-90165000D03*
%TD*%
D28*
%TO.C,C42*%
X157594900Y-93000000D03*
X155869900Y-93000000D03*
%TD*%
D13*
%TO.C,C8*%
X153204100Y-97250000D03*
X154929100Y-97250000D03*
%TD*%
D12*
%TO.C,TP11*%
X128000000Y-95498999D03*
%TD*%
D14*
%TO.C,D5*%
X121000000Y-93335000D03*
X119900000Y-93335000D03*
X119900000Y-95165000D03*
X121000000Y-95165000D03*
%TD*%
D29*
%TO.C,J11*%
X127801000Y-76479000D03*
X130301000Y-76479000D03*
X132801000Y-76479000D03*
X135301000Y-76479000D03*
X137801000Y-76479000D03*
X140301000Y-76479000D03*
X142801000Y-76479000D03*
%TD*%
D22*
%TO.C,R38*%
X139540000Y-106500000D03*
X141365000Y-106500000D03*
%TD*%
D13*
%TO.C,C12*%
X120137500Y-91750000D03*
X121862500Y-91750000D03*
%TD*%
D11*
%TO.C,C33*%
X165385000Y-97287500D03*
X165385000Y-95212500D03*
%TD*%
D30*
%TO.C,J10*%
X183617600Y-119099500D03*
X183617600Y-114799500D03*
X184417600Y-119099500D03*
X184417600Y-114799500D03*
X185217600Y-119099500D03*
X185217600Y-114799500D03*
X186017600Y-119099500D03*
X186017600Y-114799500D03*
X186817600Y-119099500D03*
X186817600Y-114799500D03*
X187617597Y-119099500D03*
X187617597Y-114799500D03*
X188417600Y-119099500D03*
X188417600Y-114799500D03*
X189217600Y-119099500D03*
X189217600Y-114799500D03*
X190017600Y-119099500D03*
X190017600Y-114799500D03*
X190817600Y-119099500D03*
X190817600Y-114799500D03*
X191617600Y-119099500D03*
X191617600Y-114799500D03*
X192417600Y-119099500D03*
X192417600Y-114799500D03*
D18*
X203787600Y-116949500D03*
D19*
X203787600Y-116949500D03*
D18*
X173037600Y-116949500D03*
D19*
X173037600Y-116949500D03*
D18*
X173037600Y-70479500D03*
D19*
X173037600Y-70479500D03*
D18*
X203777600Y-70479500D03*
D19*
X203777600Y-70479500D03*
%TD*%
D31*
%TO.C,U4*%
X127845000Y-104524999D03*
X129115000Y-104524999D03*
X130385000Y-104524999D03*
X131655000Y-104524999D03*
X131655000Y-99574999D03*
X130385000Y-99574999D03*
X129115000Y-99574999D03*
X127845000Y-99574999D03*
%TD*%
D23*
%TO.C,F9*%
X137800000Y-80410000D03*
X137800000Y-81990000D03*
%TD*%
D26*
%TO.C,R28*%
X142612500Y-87100000D03*
X140787500Y-87100000D03*
%TD*%
D32*
%TO.C,C35*%
X127600000Y-85462500D03*
X127600000Y-83737500D03*
%TD*%
D33*
%TO.C,D1*%
X146075650Y-85813000D03*
X146075650Y-83938000D03*
%TD*%
D34*
%TO.C,SW1*%
X158250000Y-83175000D03*
X153750000Y-83175000D03*
X158250000Y-85325000D03*
X153750000Y-85325000D03*
%TD*%
D22*
%TO.C,R41*%
X144587500Y-106525000D03*
X146412500Y-106525000D03*
%TD*%
D26*
%TO.C,R15*%
X184430100Y-108449500D03*
X182605100Y-108449500D03*
%TD*%
D17*
%TO.C,C37*%
X134400000Y-83737500D03*
X134400000Y-85462500D03*
%TD*%
D15*
%TO.C,R59*%
X168000000Y-86837500D03*
X168000000Y-88662500D03*
%TD*%
D28*
%TO.C,C16*%
X125362500Y-86750000D03*
X123637500Y-86750000D03*
%TD*%
D22*
%TO.C,R44*%
X156404100Y-106500000D03*
X158229100Y-106500000D03*
%TD*%
D17*
%TO.C,C36*%
X131200000Y-83737500D03*
X131200000Y-85462500D03*
%TD*%
D35*
%TO.C,TP16*%
X127500000Y-92500000D03*
%TD*%
D12*
%TO.C,TP14*%
X153566600Y-95449000D03*
%TD*%
D25*
%TO.C,R52*%
X167635000Y-97075000D03*
X167635000Y-95250000D03*
%TD*%
D14*
%TO.C,D6*%
X124550000Y-93335000D03*
X123450000Y-93335000D03*
X123450000Y-95165000D03*
X124550000Y-95165000D03*
%TD*%
D11*
%TO.C,C3*%
X133635000Y-104837499D03*
X133635000Y-102762499D03*
%TD*%
D26*
%TO.C,R27*%
X139212500Y-87100000D03*
X137387500Y-87100000D03*
%TD*%
D15*
%TO.C,R18*%
X119720000Y-108697500D03*
X119720000Y-110522500D03*
%TD*%
D14*
%TO.C,D8*%
X124550000Y-83335000D03*
X123450000Y-83335000D03*
X123450000Y-85165000D03*
X124550000Y-85165000D03*
%TD*%
D26*
%TO.C,R25*%
X128912500Y-87100000D03*
X127087500Y-87100000D03*
%TD*%
%TO.C,R31*%
X179962500Y-109750000D03*
X178137500Y-109750000D03*
%TD*%
%TO.C,R2*%
X142662500Y-93325000D03*
X140837500Y-93325000D03*
%TD*%
D35*
%TO.C,TP19*%
X135500000Y-89250000D03*
%TD*%
D31*
%TO.C,U12*%
X145095000Y-104500000D03*
X146365000Y-104500000D03*
X147635000Y-104500000D03*
X148905000Y-104500000D03*
X148905000Y-99550000D03*
X147635000Y-99550000D03*
X146365000Y-99550000D03*
X145095000Y-99550000D03*
%TD*%
D23*
%TO.C,F12*%
X130300000Y-80410000D03*
X130300000Y-81990000D03*
%TD*%
D36*
%TO.C,D14*%
X119760000Y-113830000D03*
X119760000Y-112080000D03*
%TD*%
D25*
%TO.C,R12*%
X144325650Y-85788000D03*
X144325650Y-83963000D03*
%TD*%
D14*
%TO.C,D2*%
X121000000Y-78250000D03*
X119900000Y-78250000D03*
X119900000Y-80080000D03*
X121000000Y-80080000D03*
%TD*%
D13*
%TO.C,C5*%
X127637500Y-97299999D03*
X129362500Y-97299999D03*
%TD*%
D31*
%TO.C,U6*%
X136547500Y-104475000D03*
X137817500Y-104475000D03*
X139087500Y-104475000D03*
X140357500Y-104475000D03*
X140357500Y-99525000D03*
X139087500Y-99525000D03*
X137817500Y-99525000D03*
X136547500Y-99525000D03*
%TD*%
D12*
%TO.C,TP4*%
X131250000Y-93000000D03*
%TD*%
D22*
%TO.C,R1*%
X127337500Y-106549999D03*
X129162500Y-106549999D03*
%TD*%
%TO.C,R13*%
X177937500Y-90362500D03*
X179762500Y-90362500D03*
%TD*%
D24*
%TO.C,J13*%
X208316600Y-90250000D03*
X208316600Y-92750000D03*
X208316600Y-95250000D03*
X208316600Y-97750000D03*
%TD*%
D25*
%TO.C,R39*%
X142337500Y-100825000D03*
X142337500Y-99000000D03*
%TD*%
D22*
%TO.C,R23*%
X149425000Y-79250000D03*
X151250000Y-79250000D03*
%TD*%
D13*
%TO.C,C11*%
X120137500Y-86750000D03*
X121862500Y-86750000D03*
%TD*%
D22*
%TO.C,R43*%
X148087500Y-106525000D03*
X149912500Y-106525000D03*
%TD*%
D15*
%TO.C,R9*%
X156200000Y-89587500D03*
X156200000Y-91412500D03*
%TD*%
D25*
%TO.C,R36*%
X133635000Y-97124999D03*
X133635000Y-95299999D03*
%TD*%
D35*
%TO.C,TP20*%
X138500000Y-89250000D03*
%TD*%
D29*
%TO.C,J8*%
X155484200Y-111691895D03*
X152984200Y-111691895D03*
X150484200Y-111691895D03*
X147984200Y-111691895D03*
X145484200Y-111691895D03*
X142984200Y-111691895D03*
%TD*%
D13*
%TO.C,C6*%
X136340000Y-97250000D03*
X138065000Y-97250000D03*
%TD*%
D25*
%TO.C,R57*%
X139200000Y-85512500D03*
X139200000Y-83687500D03*
%TD*%
D37*
%TO.C,R5*%
X179487500Y-83687500D03*
X179487500Y-85512500D03*
%TD*%
D17*
%TO.C,C38*%
X137600000Y-83737500D03*
X137600000Y-85462500D03*
%TD*%
D12*
%TO.C,TP1*%
X159000000Y-87100000D03*
%TD*%
D28*
%TO.C,C14*%
X125362500Y-96750000D03*
X123637500Y-96750000D03*
%TD*%
D32*
%TO.C,C24*%
X167800000Y-92962500D03*
X167800000Y-91237500D03*
%TD*%
D25*
%TO.C,R54*%
X129600000Y-85512500D03*
X129600000Y-83687500D03*
%TD*%
D11*
%TO.C,C30*%
X148635000Y-97312500D03*
X148635000Y-95237500D03*
%TD*%
D26*
%TO.C,R26*%
X132412500Y-87100000D03*
X130587500Y-87100000D03*
%TD*%
D25*
%TO.C,R48*%
X159201600Y-97075000D03*
X159201600Y-95250000D03*
%TD*%
%TO.C,R29*%
X180000000Y-115862000D03*
X180000000Y-114037000D03*
%TD*%
D22*
%TO.C,R50*%
X164837500Y-106500000D03*
X166662500Y-106500000D03*
%TD*%
D17*
%TO.C,C34*%
X127700000Y-80337500D03*
X127700000Y-82062500D03*
%TD*%
D38*
%TO.C,U1*%
X172975000Y-87362500D03*
X172975000Y-88632500D03*
X179350000Y-88632500D03*
X179350000Y-87362500D03*
%TD*%
D25*
%TO.C,R51*%
X167635000Y-100825000D03*
X167635000Y-99000000D03*
%TD*%
D15*
%TO.C,R53*%
X127000000Y-88587500D03*
X127000000Y-90412500D03*
%TD*%
D25*
%TO.C,R46*%
X159201600Y-100825000D03*
X159201600Y-99000000D03*
%TD*%
D15*
%TO.C,R19*%
X122400000Y-108687500D03*
X122400000Y-110512500D03*
%TD*%
D25*
%TO.C,R8*%
X151843250Y-85737500D03*
X151843250Y-83912500D03*
%TD*%
D11*
%TO.C,C26*%
X142337500Y-104787500D03*
X142337500Y-102712500D03*
%TD*%
D13*
%TO.C,C40*%
X152250750Y-87305000D03*
X153975750Y-87305000D03*
%TD*%
D12*
%TO.C,TP2*%
X180000000Y-111800000D03*
%TD*%
D29*
%TO.C,J9*%
X165984200Y-111191895D03*
X163484200Y-111191895D03*
X160984200Y-111191895D03*
%TD*%
D28*
%TO.C,C17*%
X125362500Y-81750000D03*
X123637500Y-81750000D03*
%TD*%
D13*
%TO.C,C41*%
X152637500Y-91075000D03*
X154362500Y-91075000D03*
%TD*%
D23*
%TO.C,F11*%
X132800000Y-80410000D03*
X132800000Y-81990000D03*
%TD*%
D17*
%TO.C,C4*%
X170500000Y-87250000D03*
X170500000Y-88975000D03*
%TD*%
D14*
%TO.C,D9*%
X124550000Y-78335000D03*
X123450000Y-78335000D03*
X123450000Y-80165000D03*
X124550000Y-80165000D03*
%TD*%
D22*
%TO.C,R42*%
X152904100Y-106500000D03*
X154729100Y-106500000D03*
%TD*%
D23*
%TO.C,F10*%
X135300000Y-80410000D03*
X135300000Y-81990000D03*
%TD*%
D15*
%TO.C,R10*%
X157700000Y-89587500D03*
X157700000Y-91412500D03*
%TD*%
D18*
%TO.C,MH1*%
X122017600Y-69699500D03*
D19*
X122017600Y-69699500D03*
%TD*%
D23*
%TO.C,F8*%
X140300000Y-80410000D03*
X140300000Y-81990000D03*
%TD*%
D18*
%TO.C,MH3*%
X214975000Y-118449500D03*
D19*
X214975000Y-118449500D03*
%TD*%
D24*
%TO.C,J12*%
X208316600Y-104389500D03*
X208316600Y-106889500D03*
X208316600Y-109389500D03*
X208316600Y-111889500D03*
%TD*%
D39*
%TO.C,IC1*%
X164961000Y-92905000D03*
X164961000Y-91635000D03*
X164961000Y-90365000D03*
X164961000Y-89095000D03*
X159539000Y-89095000D03*
X159539000Y-90365000D03*
X159539000Y-91635000D03*
X159539000Y-92905000D03*
%TD*%
D22*
%TO.C,R49*%
X161337500Y-106500000D03*
X163162500Y-106500000D03*
%TD*%
D35*
%TO.C,TP17*%
X129500000Y-89250000D03*
%TD*%
D26*
%TO.C,R11*%
X154005750Y-92575000D03*
X152180750Y-92575000D03*
%TD*%
D11*
%TO.C,C32*%
X167635000Y-104787500D03*
X167635000Y-102712500D03*
%TD*%
D36*
%TO.C,D15*%
X122400000Y-113875000D03*
X122400000Y-112125000D03*
%TD*%
D18*
%TO.C,MH2*%
X122017600Y-118449500D03*
D19*
X122017600Y-118449500D03*
%TD*%
D25*
%TO.C,R47*%
X150885000Y-97100000D03*
X150885000Y-95275000D03*
%TD*%
D13*
%TO.C,C13*%
X120137500Y-96750000D03*
X121862500Y-96750000D03*
%TD*%
D11*
%TO.C,C25*%
X131385000Y-97337499D03*
X131385000Y-95262499D03*
%TD*%
D25*
%TO.C,R56*%
X136000000Y-85512500D03*
X136000000Y-83687500D03*
%TD*%
D24*
%TO.C,J7*%
X148491000Y-76451000D03*
X150991000Y-76451000D03*
X153491000Y-76451000D03*
X155991000Y-76451000D03*
%TD*%
D12*
%TO.C,TP3*%
X166000000Y-87000000D03*
%TD*%
D25*
%TO.C,R35*%
X133635000Y-100874999D03*
X133635000Y-99049999D03*
%TD*%
D15*
%TO.C,R24*%
X125700000Y-109287500D03*
X125700000Y-111112500D03*
%TD*%
D31*
%TO.C,U14*%
X161845000Y-104475000D03*
X163115000Y-104475000D03*
X164385000Y-104475000D03*
X165655000Y-104475000D03*
X165655000Y-99525000D03*
X164385000Y-99525000D03*
X163115000Y-99525000D03*
X161845000Y-99525000D03*
%TD*%
D25*
%TO.C,R55*%
X132800000Y-85512500D03*
X132800000Y-83687500D03*
%TD*%
D35*
%TO.C,TP18*%
X132500000Y-89250000D03*
%TD*%
D31*
%TO.C,U13*%
X153411600Y-104475000D03*
X154681600Y-104475000D03*
X155951600Y-104475000D03*
X157221600Y-104475000D03*
X157221600Y-99525000D03*
X155951600Y-99525000D03*
X154681600Y-99525000D03*
X153411600Y-99525000D03*
%TD*%
D25*
%TO.C,R58*%
X142400000Y-85512500D03*
X142400000Y-83687500D03*
%TD*%
D28*
%TO.C,C15*%
X125362500Y-91750000D03*
X123637500Y-91750000D03*
%TD*%
D26*
%TO.C,R30*%
X135812500Y-87100000D03*
X133987500Y-87100000D03*
%TD*%
D40*
%TO.C,U3*%
X176987500Y-85235000D03*
X176987500Y-83965000D03*
X170612500Y-83965000D03*
X170612500Y-85235000D03*
%TD*%
D25*
%TO.C,R45*%
X150885000Y-100850000D03*
X150885000Y-99025000D03*
%TD*%
D12*
%TO.C,TP5*%
X176800000Y-106800000D03*
%TD*%
D35*
%TO.C,TP21*%
X141250000Y-89250000D03*
%TD*%
D22*
%TO.C,R34*%
X130837500Y-106549999D03*
X132662500Y-106549999D03*
%TD*%
D41*
%TO.C,U2*%
X150281250Y-93250000D03*
X150281250Y-92600000D03*
X150281250Y-91950000D03*
X150281250Y-91300000D03*
X150281250Y-90650000D03*
X150281250Y-90000000D03*
X150281250Y-89350000D03*
X150281250Y-88700000D03*
X150281250Y-88050000D03*
X150281250Y-87400000D03*
X144405250Y-87400000D03*
X144405250Y-88050000D03*
X144405250Y-88700000D03*
X144405250Y-89350000D03*
X144405250Y-90000000D03*
X144405250Y-90650000D03*
X144405250Y-91300000D03*
X144405250Y-91950000D03*
X144405250Y-92600000D03*
X144405250Y-93250000D03*
%TD*%
M02*
