%TF.GenerationSoftware,KiCad,Pcbnew,9.0.0*%
%TF.CreationDate,2025-08-25T22:46:20-05:00*%
%TF.ProjectId,BPS-Voltage_Temp_Board,4250532d-566f-46c7-9461-67655f54656d,rev?*%
%TF.SameCoordinates,Original*%
%TF.FileFunction,Copper,L2,Bot*%
%TF.FilePolarity,Positive*%
%FSLAX46Y46*%
G04 Gerber Fmt 4.6, Leading zero omitted, Abs format (unit mm)*
G04 Created by KiCad (PCBNEW 9.0.0) date 2025-08-25 22:46:20*
%MOMM*%
%LPD*%
G01*
G04 APERTURE LIST*
%TA.AperFunction,ComponentPad*%
%ADD10C,1.524000*%
%TD*%
%TA.AperFunction,ComponentPad*%
%ADD11C,3.600000*%
%TD*%
%TA.AperFunction,ConnectorPad*%
%ADD12C,6.400000*%
%TD*%
%TA.AperFunction,ComponentPad*%
%ADD13C,1.875000*%
%TD*%
%TA.AperFunction,ComponentPad*%
%ADD14C,1.752600*%
%TD*%
%TA.AperFunction,ViaPad*%
%ADD15C,0.600000*%
%TD*%
%TA.AperFunction,Conductor*%
%ADD16C,0.400000*%
%TD*%
%TA.AperFunction,Conductor*%
%ADD17C,0.300000*%
%TD*%
%TA.AperFunction,Conductor*%
%ADD18C,0.200000*%
%TD*%
G04 APERTURE END LIST*
D10*
%TO.P,J5,1,CH0*%
%TO.N,/PB15*%
X164790000Y-71402900D03*
%TO.P,J5,2,CH1*%
%TO.N,/bmsEn*%
X162250000Y-71402900D03*
%TO.P,J5,3,CH2*%
%TO.N,/PB14*%
X164790000Y-73942900D03*
%TO.P,J5,4,CH3*%
%TO.N,/bmsAlert*%
X162250000Y-73942900D03*
%TO.P,J5,5,CH4*%
%TO.N,/LedDin*%
X164790000Y-76482900D03*
%TO.P,J5,6,CH5*%
%TO.N,/PB3*%
X162250000Y-76482900D03*
%TO.P,J5,7,CH6*%
%TO.N,/VoltageSense/I2C_SDA*%
X164790000Y-79022900D03*
%TO.P,J5,8,CH7*%
%TO.N,/VoltageSense/I2C_SCL*%
X162250000Y-79022900D03*
%TO.P,J5,9,GND*%
%TO.N,GND*%
X164790000Y-81562900D03*
%TO.P,J5,10,GND*%
X162250000Y-81562900D03*
%TD*%
D11*
%TO.P,MH4,1,1*%
%TO.N,unconnected-(MH4-Pad1)_2*%
X214975000Y-69700000D03*
D12*
%TO.N,unconnected-(MH4-Pad1)*%
X214975000Y-69700000D03*
%TD*%
D13*
%TO.P,J6,1,Pin_1*%
%TO.N,VDDA*%
X136794200Y-111820000D03*
%TO.P,J6,2,Pin_2*%
%TO.N,/TemperatureConn/rawTemperature4*%
X134294200Y-111820000D03*
%TO.P,J6,3,Pin_3*%
%TO.N,/TemperatureConn/rawTemperature4_Pre*%
X131794200Y-111820000D03*
%TO.P,J6,4,Pin_4*%
%TO.N,GNDA*%
X129294200Y-111820000D03*
%TD*%
D14*
%TO.P,J11,1,Pin_1*%
%TO.N,Net-(J11-Pin_1)*%
X127801000Y-76479000D03*
%TO.P,J11,2,Pin_2*%
%TO.N,unconnected-(J11-Pin_2-Pad2)*%
X130301000Y-76479000D03*
%TO.P,J11,3,Pin_3*%
%TO.N,/VoltageConn/1&2COM_ext*%
X132801000Y-76479000D03*
%TO.P,J11,4,Pin_4*%
%TO.N,/VoltageConn/2&3COM_ext*%
X135301000Y-76479000D03*
%TO.P,J11,5,Pin_5*%
%TO.N,/VoltageConn/3&4COM_ext*%
X137801000Y-76479000D03*
%TO.P,J11,6,Pin_6*%
%TO.N,/VoltageConn/4&5COM_ext*%
X140301000Y-76479000D03*
%TO.P,J11,7,Pin_7*%
%TO.N,/VoltageConn/last_cell_ext*%
X142801000Y-76479000D03*
%TD*%
D11*
%TO.P,J10,25,MNT*%
%TO.N,unconnected-(J10-MNT-Pad25)*%
X203787600Y-116949500D03*
D12*
%TO.N,unconnected-(J10-MNT-Pad25)_1*%
X203787600Y-116949500D03*
D11*
%TO.P,J10,26,MNT*%
%TO.N,unconnected-(J10-MNT-Pad26)*%
X173037600Y-116949500D03*
D12*
%TO.N,unconnected-(J10-MNT-Pad26)_1*%
X173037600Y-116949500D03*
D11*
%TO.P,J10,27,MNT*%
%TO.N,unconnected-(J10-MNT-Pad27)*%
X173037600Y-70479500D03*
D12*
%TO.N,unconnected-(J10-MNT-Pad27)_2*%
X173037600Y-70479500D03*
D11*
%TO.P,J10,28,MNT*%
%TO.N,unconnected-(J10-MNT-Pad28)_2*%
X203777600Y-70479500D03*
D12*
%TO.N,unconnected-(J10-MNT-Pad28)_1*%
X203777600Y-70479500D03*
%TD*%
D13*
%TO.P,J13,1,Pin_1*%
%TO.N,+24V*%
X208316600Y-90250000D03*
%TO.P,J13,2,Pin_2*%
%TO.N,/I-CAN_H*%
X208316600Y-92750000D03*
%TO.P,J13,3,Pin_3*%
%TO.N,/I-CAN_L*%
X208316600Y-95250000D03*
%TO.P,J13,4,Pin_4*%
%TO.N,GND*%
X208316600Y-97750000D03*
%TD*%
D14*
%TO.P,J8,1,Pin_1*%
%TO.N,VDDA*%
X155484200Y-111691895D03*
%TO.P,J8,2,Pin_2*%
%TO.N,/TemperatureConn/rawTemperature1*%
X152984200Y-111691895D03*
%TO.P,J8,3,Pin_3*%
%TO.N,/TemperatureConn/rawTemperature2*%
X150484200Y-111691895D03*
%TO.P,J8,4,Pin_4*%
%TO.N,/TemperatureConn/rawTemperature3*%
X147984200Y-111691895D03*
%TO.P,J8,5,Pin_5*%
%TO.N,/TemperatureConn/rawTemperature4_Pre*%
X145484200Y-111691895D03*
%TO.P,J8,6,Pin_6*%
%TO.N,GNDA*%
X142984200Y-111691895D03*
%TD*%
%TO.P,J9,1,Pin_1*%
%TO.N,VDDA*%
X165984200Y-111191895D03*
%TO.P,J9,2,Pin_2*%
%TO.N,/TemperatureConn/rawTemperature5*%
X163484200Y-111191895D03*
%TO.P,J9,3,Pin_3*%
%TO.N,GNDA*%
X160984200Y-111191895D03*
%TD*%
D11*
%TO.P,MH1,1,1*%
%TO.N,unconnected-(MH1-Pad1)*%
X122017600Y-69699500D03*
D12*
%TO.N,unconnected-(MH1-Pad1)_1*%
X122017600Y-69699500D03*
%TD*%
D11*
%TO.P,MH3,1,1*%
%TO.N,unconnected-(MH3-Pad1)*%
X214975000Y-118449500D03*
D12*
%TO.N,unconnected-(MH3-Pad1)_2*%
X214975000Y-118449500D03*
%TD*%
D13*
%TO.P,J12,1,Pin_1*%
%TO.N,+24V*%
X208316600Y-104389500D03*
%TO.P,J12,2,Pin_2*%
%TO.N,/I-CAN_H*%
X208316600Y-106889500D03*
%TO.P,J12,3,Pin_3*%
%TO.N,/I-CAN_L*%
X208316600Y-109389500D03*
%TO.P,J12,4,Pin_4*%
%TO.N,GND*%
X208316600Y-111889500D03*
%TD*%
D11*
%TO.P,MH2,1,1*%
%TO.N,unconnected-(MH2-Pad1)*%
X122017600Y-118449500D03*
D12*
%TO.N,unconnected-(MH2-Pad1)_2*%
X122017600Y-118449500D03*
%TD*%
D13*
%TO.P,J7,1,Pin_1*%
%TO.N,/VoltageConn/3&4COM*%
X148491000Y-76451000D03*
%TO.P,J7,2,Pin_2*%
%TO.N,unconnected-(J7-Pin_2-Pad2)*%
X150991000Y-76451000D03*
%TO.P,J7,3,Pin_3*%
%TO.N,/VoltageConn/3&4COM_Out*%
X153491000Y-76451000D03*
%TO.P,J7,4,Pin_4*%
%TO.N,GND_Seg*%
X155991000Y-76451000D03*
%TD*%
D15*
%TO.N,GND*%
X203800000Y-82309091D03*
X192718182Y-70500000D03*
X177700000Y-117700000D03*
X172000000Y-105000000D03*
X121900000Y-98750000D03*
X184400000Y-117649500D03*
X203800000Y-89618182D03*
X212250000Y-76000000D03*
X179200000Y-120200000D03*
X185409091Y-70500000D03*
X212250000Y-81250000D03*
X183581818Y-70500000D03*
X203800000Y-91445455D03*
X125450000Y-104437500D03*
X121900000Y-100612500D03*
X203800000Y-105845455D03*
X174062500Y-98000000D03*
X203800000Y-98745455D03*
X203800000Y-84136364D03*
X164750000Y-87500000D03*
X182000000Y-120200000D03*
X203800000Y-87790909D03*
X203800000Y-107672727D03*
X178187500Y-108750000D03*
X125450000Y-98850000D03*
X187236364Y-70500000D03*
X180250000Y-80000000D03*
X121900000Y-106200000D03*
X203800000Y-78654545D03*
X194545455Y-70500000D03*
X189063636Y-70500000D03*
X121900000Y-104337500D03*
X179100000Y-117700000D03*
X180250000Y-98000000D03*
X119200000Y-115200000D03*
X212250000Y-84800000D03*
X196372727Y-70500000D03*
X178100000Y-70500000D03*
X176125000Y-80000000D03*
X212250000Y-79500000D03*
X180700000Y-117700000D03*
X181754545Y-70500000D03*
X208200000Y-100700000D03*
X203800000Y-109500000D03*
X164750000Y-83500000D03*
X180250000Y-105000000D03*
X172000000Y-80000000D03*
X203800000Y-104018182D03*
X203800000Y-85963636D03*
X179927273Y-70500000D03*
X174062500Y-108750000D03*
X198200000Y-70500000D03*
X183617600Y-117717600D03*
X203800000Y-96918182D03*
X121000000Y-110700000D03*
X176125000Y-98000000D03*
X212250000Y-77800000D03*
X172000000Y-98000000D03*
X172000000Y-108750000D03*
X174062500Y-80000000D03*
X174062500Y-105000000D03*
X212250000Y-83000000D03*
X203800000Y-75000000D03*
X177700000Y-120200000D03*
X203800000Y-100572727D03*
X203800000Y-95100000D03*
X212250000Y-74250000D03*
X178187500Y-98000000D03*
X190890909Y-70500000D03*
X176125000Y-108750000D03*
X125450000Y-106300000D03*
X180600000Y-120200000D03*
X162750000Y-83500000D03*
X182100000Y-117700000D03*
X176125000Y-105000000D03*
X178187500Y-80000000D03*
X178187500Y-105000000D03*
X180250000Y-108750000D03*
X125450000Y-100712500D03*
X203800000Y-102400000D03*
X125450000Y-102575000D03*
X203800000Y-76827273D03*
X121900000Y-102475000D03*
X203800000Y-80481818D03*
X185200000Y-117649500D03*
X203800000Y-93272727D03*
%TO.N,+3.3V*%
X121750000Y-76000000D03*
X120943750Y-90943750D03*
X120800000Y-97500000D03*
X121000000Y-85887500D03*
X120943750Y-95943750D03*
X120825000Y-81948136D03*
X125500000Y-98000000D03*
X179750000Y-77500000D03*
X168500000Y-92445000D03*
X184454600Y-92500000D03*
X180951000Y-87250000D03*
%TO.N,GNDA*%
X163250000Y-101750000D03*
X146500000Y-102750000D03*
X165000000Y-101750000D03*
X139750000Y-101500000D03*
X146500000Y-101750000D03*
X139757500Y-102900001D03*
X131055000Y-102950000D03*
X155566600Y-96199000D03*
X131000000Y-101750000D03*
X138000000Y-101500000D03*
X138000000Y-102500000D03*
X138702500Y-96199000D03*
X181900001Y-102900001D03*
X147250000Y-96224000D03*
X148250000Y-101750000D03*
X154750000Y-101500000D03*
X151500000Y-108000000D03*
X148305000Y-102925001D03*
X164000000Y-96199000D03*
X130000000Y-96248999D03*
X128750000Y-102750000D03*
X165055000Y-102900001D03*
X186817600Y-113000000D03*
X163250000Y-102750000D03*
X169250000Y-102900001D03*
X156621600Y-102900001D03*
X156500000Y-101500000D03*
X154750000Y-102500000D03*
%TO.N,VDDA*%
X161200000Y-99600000D03*
X156517600Y-114449500D03*
X137517600Y-114449500D03*
X135400000Y-99600000D03*
X129070979Y-101049999D03*
X136172350Y-109327650D03*
X152400000Y-99600000D03*
X144200000Y-99600000D03*
X167250000Y-113250000D03*
%TO.N,/VoltageSense/regout*%
X153832277Y-86234256D03*
X153450000Y-89100000D03*
%TO.N,/TemperatureFilters/Temperature1*%
X152500000Y-95449000D03*
X187324266Y-117524263D03*
%TO.N,/TemperatureFilters/Temperature2*%
X188104511Y-117700951D03*
X144000000Y-95474000D03*
%TO.N,/TemperatureFilters/Temperature3*%
X135750000Y-95449000D03*
X188500000Y-120500000D03*
%TO.N,/TemperatureFilters/Temperature4*%
X189321367Y-120527162D03*
X126500000Y-95500000D03*
%TO.N,Net-(D2-DOUT)*%
X119983234Y-84483234D03*
X121000000Y-79000000D03*
%TO.N,/LedDin*%
X190800000Y-113000000D03*
X120625000Y-75300000D03*
X120000000Y-79100002D03*
X166000000Y-76400000D03*
%TO.N,Net-(D3-DOUT)*%
X121000000Y-84314998D03*
X119983234Y-89483234D03*
%TO.N,Net-(D4-DOUT)*%
X119599000Y-94500000D03*
X121000000Y-89314998D03*
%TO.N,Net-(D5-DOUT)*%
X121000000Y-94000000D03*
X123500000Y-94500000D03*
%TO.N,Net-(D6-DOUT)*%
X123500000Y-89185002D03*
X124500000Y-94000000D03*
%TO.N,Net-(D7-DOUT)*%
X123500000Y-84500000D03*
X124500000Y-89000000D03*
%TO.N,Net-(D8-DOUT)*%
X124000000Y-79250000D03*
X124500000Y-84000000D03*
%TO.N,/VoltageSense/bmSCL*%
X148750000Y-90500000D03*
X160999265Y-90900735D03*
%TO.N,/VoltageSense/bmSDA*%
X148497017Y-91258949D03*
X160555692Y-91566503D03*
%TO.N,/PB3*%
X192000000Y-121200000D03*
%TO.N,/bmsEn*%
X190633436Y-83866564D03*
X190200000Y-117600000D03*
X186800000Y-84000000D03*
%TO.N,/bmsAlert*%
X185300000Y-91900000D03*
X192000000Y-91799000D03*
X180500000Y-91795000D03*
X191600000Y-116750000D03*
%TO.N,/VoltageSense/ALERT*%
X145950000Y-93096000D03*
X169600000Y-93096000D03*
%TO.N,/VoltageSense/bmsBoot*%
X149000000Y-89500000D03*
X153113249Y-86584974D03*
%TO.N,/VoltageConn/3&4COM*%
X146391194Y-82208624D03*
X138943839Y-82193839D03*
%TO.N,/VoltageConn/3&4COM_Out*%
X148300000Y-81499000D03*
X136500000Y-81500000D03*
%TO.N,/VoltageSense/I2C_SCL*%
X162801000Y-89979324D03*
X186000000Y-92600000D03*
%TO.N,/VoltageSense/I2C_SDA*%
X184430100Y-111500000D03*
X186624697Y-93099758D03*
X185817600Y-110000000D03*
X163595010Y-90380324D03*
%TO.N,/PB14*%
X192401000Y-110225144D03*
%TO.N,/PB15*%
X192600000Y-111000000D03*
%TO.N,GND_Seg*%
X133530000Y-93020000D03*
X149843250Y-84775000D03*
X126250000Y-89750000D03*
X139500000Y-93096000D03*
X153980000Y-80920000D03*
X146560000Y-89830000D03*
X155250000Y-88000000D03*
X155000000Y-92575000D03*
X158370000Y-78760000D03*
X161750000Y-91500000D03*
X148000000Y-89830000D03*
X126250000Y-76500000D03*
X158440000Y-76880000D03*
X146000000Y-92250000D03*
X148750000Y-92695000D03*
X146500000Y-91370000D03*
X148000000Y-88360000D03*
X158440000Y-80960000D03*
X137850000Y-93080000D03*
X145500000Y-77500000D03*
X126500000Y-80000000D03*
X136030000Y-93060000D03*
X171000000Y-91750000D03*
X146540000Y-88360000D03*
X161230000Y-87600000D03*
X155970000Y-80920000D03*
%TO.N,/TemperatureFilters/Temperature5*%
X186500000Y-117500000D03*
X161000000Y-95499000D03*
%TO.N,/TemperatureConn/rawTemperature4_Pre*%
X131746850Y-109996850D03*
%TO.N,/BQ_HB*%
X190100000Y-120750000D03*
X126748515Y-120899985D03*
%TD*%
D16*
%TO.N,+3.3V*%
X121000000Y-85887500D02*
X122000000Y-86887500D01*
X120943750Y-90943750D02*
X120299000Y-91588500D01*
X180951000Y-78701000D02*
X179750000Y-77500000D01*
X121750000Y-76000000D02*
X121750000Y-81023136D01*
X121750000Y-81023136D02*
X120825000Y-81948136D01*
X180951000Y-87250000D02*
X180951000Y-78701000D01*
D17*
X184399600Y-92445000D02*
X184454600Y-92500000D01*
D16*
X120299000Y-91588500D02*
X120299000Y-95299000D01*
X120299000Y-95299000D02*
X120943750Y-95943750D01*
X120825000Y-81948136D02*
X122000000Y-83123136D01*
X125000000Y-97500000D02*
X125500000Y-98000000D01*
X120800000Y-97500000D02*
X125000000Y-97500000D01*
X122000000Y-83123136D02*
X122000000Y-84887500D01*
D17*
X168500000Y-92445000D02*
X184399600Y-92445000D01*
D16*
X122000000Y-84887500D02*
X121000000Y-85887500D01*
X122000000Y-89887500D02*
X120943750Y-90943750D01*
X122000000Y-86887500D02*
X122000000Y-89887500D01*
%TO.N,GNDA*%
X183400001Y-102900001D02*
X181900001Y-102900001D01*
X186817600Y-106317600D02*
X183400001Y-102900001D01*
X169250000Y-102900001D02*
X165055000Y-102900001D01*
X186817600Y-113000000D02*
X186817600Y-106317600D01*
%TO.N,VDDA*%
X165984200Y-114416100D02*
X165950800Y-114449500D01*
X152400000Y-99600000D02*
X161200000Y-99600000D01*
X129070979Y-101049999D02*
X130520978Y-99600000D01*
X135400000Y-108555300D02*
X135400000Y-99600000D01*
X136172350Y-109327650D02*
X135400000Y-108555300D01*
X130520978Y-99600000D02*
X144200000Y-99600000D01*
X167250000Y-113250000D02*
X167150300Y-113250000D01*
X165950800Y-114449500D02*
X156517600Y-114449500D01*
X144200000Y-99600000D02*
X152400000Y-99600000D01*
X156517600Y-114449500D02*
X137517600Y-114449500D01*
X167150300Y-113250000D02*
X165984200Y-114416100D01*
D17*
%TO.N,/VoltageSense/regout*%
X153800000Y-88400000D02*
X153450000Y-88750000D01*
X153450000Y-88750000D02*
X153450000Y-89100000D01*
X153800000Y-86266533D02*
X153800000Y-88400000D01*
X153832277Y-86234256D02*
X153800000Y-86266533D01*
D18*
%TO.N,/TemperatureFilters/Temperature1*%
X188000000Y-98250000D02*
X188000000Y-116848529D01*
X188000000Y-116848529D02*
X187324266Y-117524263D01*
X152500000Y-95449000D02*
X152500000Y-95250000D01*
X152500000Y-95250000D02*
X152851000Y-94899000D01*
X184649000Y-94899000D02*
X188000000Y-98250000D01*
X152851000Y-94899000D02*
X184649000Y-94899000D01*
%TO.N,/TemperatureFilters/Temperature2*%
X188401000Y-117404462D02*
X188401000Y-97901000D01*
X188401000Y-97901000D02*
X184998000Y-94498000D01*
X184998000Y-94498000D02*
X144752000Y-94498000D01*
X188104511Y-117700951D02*
X188401000Y-117404462D01*
X144752000Y-94498000D02*
X144000000Y-95250000D01*
X144000000Y-95250000D02*
X144000000Y-95474000D01*
%TO.N,/TemperatureFilters/Temperature3*%
X189000000Y-120000000D02*
X189000000Y-97750000D01*
X188500000Y-120500000D02*
X189000000Y-120000000D01*
X185347000Y-94097000D02*
X136653000Y-94097000D01*
X189000000Y-97750000D02*
X185347000Y-94097000D01*
X136653000Y-94097000D02*
X135750000Y-95000000D01*
X135750000Y-95000000D02*
X135750000Y-95449000D01*
%TO.N,/TemperatureFilters/Temperature4*%
X189321367Y-120527162D02*
X189321367Y-120280633D01*
X189401000Y-120201000D02*
X189401000Y-97583900D01*
X135982900Y-94200000D02*
X127800000Y-94200000D01*
X189321367Y-120280633D02*
X189401000Y-120201000D01*
X127800000Y-94200000D02*
X126500000Y-95500000D01*
X189401000Y-97583900D02*
X185513100Y-93696000D01*
X136486900Y-93696000D02*
X135982900Y-94200000D01*
X185513100Y-93696000D02*
X136486900Y-93696000D01*
%TO.N,Net-(D2-DOUT)*%
X119983234Y-84483234D02*
X119983234Y-80016766D01*
X119983234Y-80016766D02*
X121000000Y-79000000D01*
%TO.N,/LedDin*%
X190800000Y-87150057D02*
X180049943Y-76400000D01*
X120600000Y-75300000D02*
X120000000Y-75900000D01*
X190800000Y-113000000D02*
X190800000Y-87150057D01*
X166000000Y-76400000D02*
X165887200Y-76400000D01*
X165887200Y-76400000D02*
X165804300Y-76482900D01*
X120000000Y-75900000D02*
X120000000Y-79100002D01*
X120625000Y-75300000D02*
X120600000Y-75300000D01*
X180049943Y-76400000D02*
X166000000Y-76400000D01*
%TO.N,Net-(D3-DOUT)*%
X119983234Y-85331764D02*
X121000000Y-84314998D01*
X119983234Y-89483234D02*
X119983234Y-85331764D01*
%TO.N,/I-CAN_L*%
X211250000Y-106456100D02*
X208316600Y-109389500D01*
X211250000Y-96750000D02*
X211250000Y-106456100D01*
X208316600Y-95250000D02*
X209750000Y-95250000D01*
X209750000Y-95250000D02*
X211250000Y-96750000D01*
%TO.N,Net-(D4-DOUT)*%
X119599000Y-90715998D02*
X121000000Y-89314998D01*
X119599000Y-94500000D02*
X119599000Y-90715998D01*
%TO.N,Net-(D5-DOUT)*%
X121000000Y-94000000D02*
X123000000Y-94000000D01*
X123000000Y-94000000D02*
X123500000Y-94500000D01*
D17*
%TO.N,Net-(D6-DOUT)*%
X124500000Y-94000000D02*
X124500000Y-90185002D01*
X124500000Y-90185002D02*
X123500000Y-89185002D01*
D18*
%TO.N,Net-(D7-DOUT)*%
X124500000Y-89000000D02*
X124500000Y-85500000D01*
X124500000Y-85500000D02*
X123500000Y-84500000D01*
%TO.N,Net-(D8-DOUT)*%
X124500000Y-80500000D02*
X124500000Y-84000000D01*
X124000000Y-79250000D02*
X124000000Y-80000000D01*
X124000000Y-80000000D02*
X124500000Y-80500000D01*
%TO.N,/VoltageSense/bmSCL*%
X160999265Y-90900735D02*
X160598529Y-90500000D01*
X160598529Y-90500000D02*
X148750000Y-90500000D01*
%TO.N,/VoltageSense/bmSDA*%
X160600000Y-91350000D02*
X160508949Y-91258949D01*
X160555692Y-91566503D02*
X160600000Y-91522195D01*
X160508949Y-91258949D02*
X148497017Y-91258949D01*
X160600000Y-91522195D02*
X160600000Y-91350000D01*
%TO.N,/PB3*%
X180216043Y-75999000D02*
X191400000Y-87182957D01*
X163264300Y-76482900D02*
X162250000Y-76482900D01*
X164327300Y-75419900D02*
X166619900Y-75419900D01*
X166619900Y-75419900D02*
X167199000Y-75999000D01*
X191400000Y-87182957D02*
X191400000Y-112750057D01*
X191000000Y-113649943D02*
X191000000Y-120200000D01*
X167199000Y-75999000D02*
X180216043Y-75999000D01*
X191401000Y-113248943D02*
X191000000Y-113649943D01*
X163264300Y-76482900D02*
X164327300Y-75419900D01*
X191000000Y-120200000D02*
X192000000Y-121200000D01*
X191400000Y-112750057D02*
X191401000Y-112751057D01*
X191401000Y-112751057D02*
X191401000Y-113248943D01*
%TO.N,/bmsEn*%
X190366564Y-83866564D02*
X180895000Y-74395000D01*
X189802000Y-97417800D02*
X189802000Y-117202000D01*
X189750000Y-97365800D02*
X189802000Y-97417800D01*
X186800000Y-84000000D02*
X189750000Y-86950000D01*
X169395000Y-74395000D02*
X167000000Y-72000000D01*
X180895000Y-74395000D02*
X169395000Y-74395000D01*
X166839900Y-70339900D02*
X163313000Y-70339900D01*
X189802000Y-117202000D02*
X190200000Y-117600000D01*
X189750000Y-86950000D02*
X189750000Y-97365800D01*
X163313000Y-70339900D02*
X162250000Y-71402900D01*
X167000000Y-70500000D02*
X166839900Y-70339900D01*
X167000000Y-72000000D02*
X167000000Y-70500000D01*
X190633436Y-83866564D02*
X190366564Y-83866564D01*
%TO.N,/bmsAlert*%
X191801000Y-87016857D02*
X191801000Y-91401000D01*
X163755900Y-75005900D02*
X167005900Y-75005900D01*
X162692900Y-73942900D02*
X163755900Y-75005900D01*
X180500000Y-91795000D02*
X180605000Y-91900000D01*
X167598000Y-75598000D02*
X180382143Y-75598000D01*
X162250000Y-73942900D02*
X162692900Y-73942900D01*
X192000000Y-91600000D02*
X192000000Y-91799000D01*
X191600000Y-116202000D02*
X191801000Y-116001000D01*
X167005900Y-75005900D02*
X167598000Y-75598000D01*
X191801000Y-91401000D02*
X192000000Y-91600000D01*
X191600000Y-116750000D02*
X191600000Y-116202000D01*
X191801000Y-116001000D02*
X191801000Y-91998000D01*
X180382143Y-75598000D02*
X191801000Y-87016857D01*
X180605000Y-91900000D02*
X185300000Y-91900000D01*
X191801000Y-91998000D02*
X192000000Y-91799000D01*
%TO.N,/VoltageSense/ALERT*%
X146000000Y-93096000D02*
X146199000Y-93295000D01*
X169401000Y-93295000D02*
X169600000Y-93096000D01*
X146199000Y-93295000D02*
X169401000Y-93295000D01*
X145950000Y-93096000D02*
X146000000Y-93096000D01*
%TO.N,/VoltageSense/bmsBoot*%
X151700000Y-89500000D02*
X153113249Y-88086751D01*
X153113249Y-88086751D02*
X153113249Y-86584974D01*
X149000000Y-89500000D02*
X151700000Y-89500000D01*
D17*
%TO.N,/VoltageConn/3&4COM*%
X146299289Y-82116719D02*
X146299289Y-82000000D01*
X139458521Y-82000000D02*
X139457520Y-82001000D01*
X146391194Y-82208624D02*
X146299289Y-82116719D01*
X139369760Y-82001000D02*
X139176921Y-82193839D01*
X139458520Y-82000000D02*
X139458521Y-82000000D01*
X146299289Y-82000000D02*
X139458520Y-82000000D01*
X139457520Y-82001000D02*
X139369760Y-82001000D01*
X139176921Y-82193839D02*
X138943839Y-82193839D01*
%TO.N,/VoltageConn/3&4COM_Out*%
X139251000Y-81499000D02*
X139250000Y-81500000D01*
X148300000Y-81499000D02*
X139251000Y-81499000D01*
X139250000Y-81500000D02*
X136500000Y-81500000D01*
D18*
%TO.N,/VoltageSense/I2C_SCL*%
X160500000Y-81000000D02*
X162477100Y-79022900D01*
X173081900Y-91149000D02*
X173126900Y-91194000D01*
X173126900Y-91194000D02*
X185443943Y-91194000D01*
X160500000Y-84400000D02*
X160500000Y-81000000D01*
X162801000Y-90436257D02*
X163513743Y-91149000D01*
X163513743Y-91149000D02*
X173081900Y-91149000D01*
X185443943Y-91194000D02*
X186000000Y-91750057D01*
X162801000Y-89979324D02*
X162801000Y-90436257D01*
X163000000Y-86900000D02*
X160500000Y-84400000D01*
X163000000Y-89780324D02*
X163000000Y-86900000D01*
X186000000Y-91750057D02*
X186000000Y-92600000D01*
X162801000Y-89979324D02*
X163000000Y-89780324D01*
%TO.N,/VoltageSense/I2C_SDA*%
X185817600Y-110112500D02*
X184430100Y-111500000D01*
X185610043Y-90793000D02*
X173293000Y-90793000D01*
X163595010Y-90380324D02*
X163402000Y-90187314D01*
X164327300Y-79485600D02*
X164790000Y-79022900D01*
X163917277Y-90702591D02*
X163595010Y-90380324D01*
X163402000Y-90187314D02*
X163402000Y-89730381D01*
X173293000Y-90793000D02*
X173202591Y-90702591D01*
X161000000Y-81250000D02*
X162164100Y-80085900D01*
X186624697Y-91807654D02*
X185610043Y-90793000D01*
X163401000Y-86733900D02*
X161000000Y-84332900D01*
X163401000Y-89729381D02*
X163401000Y-86733900D01*
X173202591Y-90702591D02*
X163917277Y-90702591D01*
X161000000Y-84332900D02*
X161000000Y-81250000D01*
X162164100Y-80085900D02*
X163727000Y-80085900D01*
X185817600Y-110000000D02*
X185817600Y-110112500D01*
X163727000Y-80085900D02*
X164790000Y-79022900D01*
X186624697Y-93099758D02*
X186624697Y-91807654D01*
X163402000Y-89730381D02*
X163401000Y-89729381D01*
%TO.N,/PB14*%
X192202000Y-86850757D02*
X180548243Y-75197000D01*
X166510000Y-73942900D02*
X164790000Y-73942900D01*
X192202000Y-90952057D02*
X192202000Y-86850757D01*
X192601000Y-91351057D02*
X192202000Y-90952057D01*
X192601000Y-110025144D02*
X192601000Y-91351057D01*
X192401000Y-110225144D02*
X192601000Y-110025144D01*
X167764100Y-75197000D02*
X166510000Y-73942900D01*
X180548243Y-75197000D02*
X167764100Y-75197000D01*
%TO.N,/PB15*%
X192600000Y-111000000D02*
X193002000Y-110598000D01*
X180714343Y-74796000D02*
X168746700Y-74796000D01*
X192603000Y-90785957D02*
X192603000Y-86684657D01*
X193002000Y-110598000D02*
X193002000Y-91184957D01*
X193002000Y-91184957D02*
X192603000Y-90785957D01*
X165353600Y-71402900D02*
X164790000Y-71402900D01*
X168746700Y-74796000D02*
X165353600Y-71402900D01*
X192603000Y-86684657D02*
X180714343Y-74796000D01*
D17*
%TO.N,GND_Seg*%
X161750000Y-91500000D02*
X162400000Y-91500000D01*
X162650000Y-91750000D02*
X171000000Y-91750000D01*
X162400000Y-91500000D02*
X162650000Y-91750000D01*
D18*
%TO.N,/TemperatureFilters/Temperature5*%
X187418600Y-98418600D02*
X184500000Y-95500000D01*
X184500000Y-95500000D02*
X161001000Y-95500000D01*
X186500000Y-117500000D02*
X187418600Y-116581400D01*
X187418600Y-116581400D02*
X187418600Y-98418600D01*
X161001000Y-95500000D02*
X161000000Y-95499000D01*
%TO.N,/TemperatureConn/rawTemperature4_Pre*%
X132094700Y-110250000D02*
X132094700Y-111519500D01*
X132094700Y-110250000D02*
X145000000Y-110250000D01*
X132094700Y-111519500D02*
X131794200Y-111820000D01*
X145484200Y-111691895D02*
X145484200Y-110734200D01*
X131794200Y-109949500D02*
X132094700Y-110250000D01*
X145484200Y-110734200D02*
X145000000Y-110250000D01*
%TO.N,/BQ_HB*%
X126976692Y-121128162D02*
X189721838Y-121128162D01*
X189721838Y-121128162D02*
X190100000Y-120750000D01*
X126748515Y-120899985D02*
X126976692Y-121128162D01*
%TD*%
%TA.AperFunction,Conductor*%
%TO.N,GND_Seg*%
G36*
X161287331Y-74769685D02*
G01*
X161307973Y-74786318D01*
X161427536Y-74905881D01*
X161588306Y-75022687D01*
X161706832Y-75083079D01*
X161744780Y-75102415D01*
X161795576Y-75150390D01*
X161812371Y-75218211D01*
X161789833Y-75284346D01*
X161744780Y-75323385D01*
X161588305Y-75403113D01*
X161427533Y-75519921D01*
X161287021Y-75660433D01*
X161170213Y-75821205D01*
X161079994Y-75998267D01*
X161079993Y-75998270D01*
X161018587Y-76187262D01*
X160987500Y-76383539D01*
X160987500Y-76582260D01*
X161018587Y-76778537D01*
X161079993Y-76967529D01*
X161079994Y-76967532D01*
X161136248Y-77077935D01*
X161170213Y-77144594D01*
X161287019Y-77305364D01*
X161427536Y-77445881D01*
X161588306Y-77562687D01*
X161706832Y-77623079D01*
X161744780Y-77642415D01*
X161795576Y-77690390D01*
X161812371Y-77758211D01*
X161789833Y-77824346D01*
X161744780Y-77863385D01*
X161588305Y-77943113D01*
X161427533Y-78059921D01*
X161287021Y-78200433D01*
X161170213Y-78361205D01*
X161079994Y-78538267D01*
X161079993Y-78538270D01*
X161018587Y-78727262D01*
X160987500Y-78923539D01*
X160987500Y-79122260D01*
X161018587Y-79318539D01*
X161072021Y-79482994D01*
X161074016Y-79552835D01*
X161041771Y-79608992D01*
X160131286Y-80519478D01*
X160019481Y-80631282D01*
X160019479Y-80631285D01*
X160000076Y-80664892D01*
X159980673Y-80698500D01*
X159940423Y-80768215D01*
X159899499Y-80920943D01*
X159899499Y-80920945D01*
X159899499Y-81089046D01*
X159899500Y-81089059D01*
X159899500Y-84313330D01*
X159899499Y-84313348D01*
X159899499Y-84479054D01*
X159899498Y-84479054D01*
X159940423Y-84631785D01*
X159969358Y-84681900D01*
X159969359Y-84681904D01*
X159969360Y-84681904D01*
X160019479Y-84768714D01*
X160019481Y-84768717D01*
X160138349Y-84887585D01*
X160138355Y-84887590D01*
X162163681Y-86912916D01*
X162197166Y-86974239D01*
X162200000Y-87000597D01*
X162200000Y-89400306D01*
X162180315Y-89467345D01*
X162179102Y-89469197D01*
X162091609Y-89600138D01*
X162091602Y-89600151D01*
X162031264Y-89745822D01*
X162031261Y-89745834D01*
X162000500Y-89900477D01*
X162000500Y-90058170D01*
X162031261Y-90212813D01*
X162031264Y-90212825D01*
X162091602Y-90358496D01*
X162091609Y-90358509D01*
X162179102Y-90489450D01*
X162199980Y-90556127D01*
X162200000Y-90558341D01*
X162200000Y-92570500D01*
X162180315Y-92637539D01*
X162127511Y-92683294D01*
X162076000Y-92694500D01*
X146710759Y-92694500D01*
X146643720Y-92674815D01*
X146607657Y-92639391D01*
X146571789Y-92585710D01*
X146460292Y-92474213D01*
X146460288Y-92474210D01*
X146329185Y-92386609D01*
X146329172Y-92386602D01*
X146183501Y-92326264D01*
X146183489Y-92326261D01*
X146028845Y-92295500D01*
X146028842Y-92295500D01*
X145871158Y-92295500D01*
X145871155Y-92295500D01*
X145716510Y-92326261D01*
X145716498Y-92326264D01*
X145570827Y-92386602D01*
X145570814Y-92386609D01*
X145439711Y-92474210D01*
X145439707Y-92474213D01*
X145328213Y-92585707D01*
X145328210Y-92585711D01*
X145240609Y-92716814D01*
X145240602Y-92716827D01*
X145180264Y-92862498D01*
X145180261Y-92862508D01*
X145153769Y-92995692D01*
X145121384Y-93057603D01*
X145060668Y-93092177D01*
X145032152Y-93095500D01*
X136573570Y-93095500D01*
X136573554Y-93095499D01*
X136565958Y-93095499D01*
X136407843Y-93095499D01*
X136331479Y-93115961D01*
X136255114Y-93136423D01*
X136255109Y-93136426D01*
X136118190Y-93215475D01*
X136118182Y-93215481D01*
X135770484Y-93563181D01*
X135709161Y-93596666D01*
X135682803Y-93599500D01*
X127886670Y-93599500D01*
X127886654Y-93599499D01*
X127879058Y-93599499D01*
X127720943Y-93599499D01*
X127655843Y-93616943D01*
X127568214Y-93640423D01*
X127568209Y-93640426D01*
X127431290Y-93719475D01*
X127431286Y-93719478D01*
X127190087Y-93960676D01*
X127128764Y-93994160D01*
X127102744Y-93996994D01*
X126124338Y-93999661D01*
X126057245Y-93980159D01*
X126011346Y-93927480D01*
X126000000Y-93875661D01*
X126000000Y-91180102D01*
X147696517Y-91180102D01*
X147696517Y-91337795D01*
X147727278Y-91492438D01*
X147727281Y-91492450D01*
X147787619Y-91638121D01*
X147787626Y-91638134D01*
X147875227Y-91769237D01*
X147875230Y-91769241D01*
X147986724Y-91880735D01*
X147986728Y-91880738D01*
X148117831Y-91968339D01*
X148117844Y-91968346D01*
X148263515Y-92028684D01*
X148263520Y-92028686D01*
X148418170Y-92059448D01*
X148418173Y-92059449D01*
X148418175Y-92059449D01*
X148575861Y-92059449D01*
X148575862Y-92059448D01*
X148730514Y-92028686D01*
X148876196Y-91968343D01*
X148930680Y-91931938D01*
X149007892Y-91880347D01*
X149074570Y-91859469D01*
X149076783Y-91859449D01*
X159727725Y-91859449D01*
X159794764Y-91879134D01*
X159840519Y-91931938D01*
X159842287Y-91935998D01*
X159846297Y-91945681D01*
X159846301Y-91945688D01*
X159933902Y-92076791D01*
X159933905Y-92076795D01*
X160045399Y-92188289D01*
X160045403Y-92188292D01*
X160176506Y-92275893D01*
X160176519Y-92275900D01*
X160322190Y-92336238D01*
X160322195Y-92336240D01*
X160476845Y-92367002D01*
X160476848Y-92367003D01*
X160476850Y-92367003D01*
X160634536Y-92367003D01*
X160634537Y-92367002D01*
X160789189Y-92336240D01*
X160934871Y-92275897D01*
X161065981Y-92188292D01*
X161177481Y-92076792D01*
X161265086Y-91945682D01*
X161325429Y-91800000D01*
X161350840Y-91672249D01*
X161383223Y-91610343D01*
X161403560Y-91593346D01*
X161509554Y-91522524D01*
X161621054Y-91411024D01*
X161708659Y-91279914D01*
X161769002Y-91134232D01*
X161799765Y-90979577D01*
X161799765Y-90821893D01*
X161799765Y-90821890D01*
X161799764Y-90821888D01*
X161785278Y-90749061D01*
X161769002Y-90667238D01*
X161765397Y-90658535D01*
X161708662Y-90521562D01*
X161708655Y-90521549D01*
X161621054Y-90390446D01*
X161621051Y-90390442D01*
X161509557Y-90278948D01*
X161509553Y-90278945D01*
X161378450Y-90191344D01*
X161378437Y-90191337D01*
X161232766Y-90130999D01*
X161232756Y-90130996D01*
X161077414Y-90100096D01*
X161015503Y-90067711D01*
X161013925Y-90066160D01*
X160967246Y-90019481D01*
X160967238Y-90019475D01*
X160830319Y-89940426D01*
X160830314Y-89940423D01*
X160792131Y-89930192D01*
X160677586Y-89899499D01*
X160677583Y-89899499D01*
X160519471Y-89899500D01*
X154081941Y-89899500D01*
X154014902Y-89879815D01*
X153969147Y-89827011D01*
X153959203Y-89757853D01*
X153988228Y-89694297D01*
X153994260Y-89687819D01*
X154071786Y-89610292D01*
X154071789Y-89610289D01*
X154159394Y-89479179D01*
X154219737Y-89333497D01*
X154250500Y-89178842D01*
X154250500Y-89021158D01*
X154250500Y-89021155D01*
X154238260Y-88959623D01*
X154244487Y-88890031D01*
X154272197Y-88847749D01*
X154305273Y-88814673D01*
X154305273Y-88814672D01*
X154305277Y-88814669D01*
X154376465Y-88708127D01*
X154425501Y-88589743D01*
X154425508Y-88589711D01*
X154450500Y-88464069D01*
X154450500Y-86787497D01*
X154470185Y-86720458D01*
X154471398Y-86718606D01*
X154541667Y-86613441D01*
X154541667Y-86613440D01*
X154541671Y-86613435D01*
X154602014Y-86467753D01*
X154632777Y-86313098D01*
X154632777Y-86155414D01*
X154632777Y-86155411D01*
X154632776Y-86155409D01*
X154602015Y-86000766D01*
X154602014Y-86000759D01*
X154586451Y-85963187D01*
X154541674Y-85855083D01*
X154541667Y-85855070D01*
X154454066Y-85723967D01*
X154454063Y-85723963D01*
X154342569Y-85612469D01*
X154342565Y-85612466D01*
X154211462Y-85524865D01*
X154211449Y-85524858D01*
X154065778Y-85464520D01*
X154065766Y-85464517D01*
X153911122Y-85433756D01*
X153911119Y-85433756D01*
X153753435Y-85433756D01*
X153753432Y-85433756D01*
X153598787Y-85464517D01*
X153598775Y-85464520D01*
X153453104Y-85524858D01*
X153453091Y-85524865D01*
X153321988Y-85612466D01*
X153321984Y-85612469D01*
X153210489Y-85723964D01*
X153206882Y-85729364D01*
X153153270Y-85774169D01*
X153103779Y-85784474D01*
X153034404Y-85784474D01*
X152879759Y-85815235D01*
X152879747Y-85815238D01*
X152734076Y-85875576D01*
X152734063Y-85875583D01*
X152602960Y-85963184D01*
X152602956Y-85963187D01*
X152491462Y-86074681D01*
X152491459Y-86074685D01*
X152403858Y-86205788D01*
X152403851Y-86205801D01*
X152343513Y-86351472D01*
X152343510Y-86351484D01*
X152312749Y-86506127D01*
X152312749Y-86663820D01*
X152343510Y-86818463D01*
X152343513Y-86818475D01*
X152403851Y-86964146D01*
X152403858Y-86964159D01*
X152491851Y-87095848D01*
X152512729Y-87162525D01*
X152512749Y-87164739D01*
X152512749Y-87786654D01*
X152493064Y-87853693D01*
X152476430Y-87874335D01*
X151487584Y-88863181D01*
X151426261Y-88896666D01*
X151399903Y-88899500D01*
X149579766Y-88899500D01*
X149512727Y-88879815D01*
X149510875Y-88878602D01*
X149379185Y-88790609D01*
X149379172Y-88790602D01*
X149233501Y-88730264D01*
X149233489Y-88730261D01*
X149078845Y-88699500D01*
X149078842Y-88699500D01*
X148921158Y-88699500D01*
X148921155Y-88699500D01*
X148766510Y-88730261D01*
X148766498Y-88730264D01*
X148620827Y-88790602D01*
X148620814Y-88790609D01*
X148489711Y-88878210D01*
X148489707Y-88878213D01*
X148378213Y-88989707D01*
X148378210Y-88989711D01*
X148290609Y-89120814D01*
X148290602Y-89120827D01*
X148230264Y-89266498D01*
X148230261Y-89266510D01*
X148199500Y-89421153D01*
X148199500Y-89578846D01*
X148230260Y-89733488D01*
X148230263Y-89733498D01*
X148243709Y-89765959D01*
X148251178Y-89835429D01*
X148219902Y-89897908D01*
X148216829Y-89901092D01*
X148128213Y-89989707D01*
X148128210Y-89989711D01*
X148040609Y-90120814D01*
X148040602Y-90120827D01*
X147980264Y-90266498D01*
X147980261Y-90266510D01*
X147949500Y-90421153D01*
X147949500Y-90578843D01*
X147952421Y-90593527D01*
X147946194Y-90663119D01*
X147918487Y-90705399D01*
X147875229Y-90748657D01*
X147875225Y-90748663D01*
X147787626Y-90879763D01*
X147787619Y-90879776D01*
X147727281Y-91025447D01*
X147727278Y-91025459D01*
X147696517Y-91180102D01*
X126000000Y-91180102D01*
X126000000Y-81421153D01*
X135699500Y-81421153D01*
X135699500Y-81578846D01*
X135730261Y-81733489D01*
X135730264Y-81733501D01*
X135790602Y-81879172D01*
X135790609Y-81879185D01*
X135878210Y-82010288D01*
X135878213Y-82010292D01*
X135989707Y-82121786D01*
X135989711Y-82121789D01*
X136120814Y-82209390D01*
X136120827Y-82209397D01*
X136264084Y-82268735D01*
X136266503Y-82269737D01*
X136416126Y-82299499D01*
X136421153Y-82300499D01*
X136421156Y-82300500D01*
X136421158Y-82300500D01*
X136578844Y-82300500D01*
X136578845Y-82300499D01*
X136733497Y-82269737D01*
X136879179Y-82209394D01*
X136936044Y-82171397D01*
X137002721Y-82150520D01*
X137004935Y-82150500D01*
X138019339Y-82150500D01*
X138086378Y-82170185D01*
X138132133Y-82222989D01*
X138141648Y-82266728D01*
X138142742Y-82266621D01*
X138143339Y-82272685D01*
X138174100Y-82427328D01*
X138174103Y-82427340D01*
X138234441Y-82573011D01*
X138234448Y-82573024D01*
X138322049Y-82704127D01*
X138322052Y-82704131D01*
X138433546Y-82815625D01*
X138433550Y-82815628D01*
X138564653Y-82903229D01*
X138564666Y-82903236D01*
X138710337Y-82963574D01*
X138710342Y-82963576D01*
X138841731Y-82989711D01*
X138864992Y-82994338D01*
X138864995Y-82994339D01*
X138864997Y-82994339D01*
X139022683Y-82994339D01*
X139022684Y-82994338D01*
X139177336Y-82963576D01*
X139323018Y-82903233D01*
X139454128Y-82815628D01*
X139519828Y-82749926D01*
X139533053Y-82738452D01*
X139535765Y-82736415D01*
X139541020Y-82732905D01*
X139591590Y-82699116D01*
X139610097Y-82680608D01*
X139617119Y-82675337D01*
X139641945Y-82666037D01*
X139665210Y-82653334D01*
X139680146Y-82651728D01*
X139682549Y-82650828D01*
X139684532Y-82651256D01*
X139691568Y-82650500D01*
X145657413Y-82650500D01*
X145724452Y-82670185D01*
X145760515Y-82705608D01*
X145769407Y-82718916D01*
X145880901Y-82830410D01*
X145880905Y-82830413D01*
X146012008Y-82918014D01*
X146012021Y-82918021D01*
X146122005Y-82963577D01*
X146157697Y-82978361D01*
X146261315Y-82998972D01*
X146312347Y-83009123D01*
X146312350Y-83009124D01*
X146312352Y-83009124D01*
X146470038Y-83009124D01*
X146470039Y-83009123D01*
X146624691Y-82978361D01*
X146770373Y-82918018D01*
X146901483Y-82830413D01*
X147012983Y-82718913D01*
X147100588Y-82587803D01*
X147160931Y-82442121D01*
X147191694Y-82287466D01*
X147191694Y-82273500D01*
X147211379Y-82206461D01*
X147264183Y-82160706D01*
X147315694Y-82149500D01*
X147795065Y-82149500D01*
X147862104Y-82169185D01*
X147863909Y-82170366D01*
X147920821Y-82208394D01*
X147920823Y-82208395D01*
X147920827Y-82208397D01*
X148061394Y-82266621D01*
X148066503Y-82268737D01*
X148160680Y-82287470D01*
X148221153Y-82299499D01*
X148221156Y-82299500D01*
X148221158Y-82299500D01*
X148378844Y-82299500D01*
X148378845Y-82299499D01*
X148533497Y-82268737D01*
X148676767Y-82209393D01*
X148679172Y-82208397D01*
X148679172Y-82208396D01*
X148679179Y-82208394D01*
X148810289Y-82120789D01*
X148921789Y-82009289D01*
X149008726Y-81879179D01*
X149009390Y-81878185D01*
X149009390Y-81878184D01*
X149009394Y-81878179D01*
X149069737Y-81732497D01*
X149100500Y-81577842D01*
X149100500Y-81420158D01*
X149100500Y-81420155D01*
X149100499Y-81420153D01*
X149069738Y-81265510D01*
X149069737Y-81265503D01*
X149009811Y-81120827D01*
X149009397Y-81119827D01*
X149009390Y-81119814D01*
X148921789Y-80988711D01*
X148921786Y-80988707D01*
X148810292Y-80877213D01*
X148810288Y-80877210D01*
X148679185Y-80789609D01*
X148679172Y-80789602D01*
X148533501Y-80729264D01*
X148533489Y-80729261D01*
X148378845Y-80698500D01*
X148378842Y-80698500D01*
X148221158Y-80698500D01*
X148221155Y-80698500D01*
X148066510Y-80729261D01*
X148066498Y-80729264D01*
X147920827Y-80789602D01*
X147920820Y-80789606D01*
X147891928Y-80808911D01*
X147863955Y-80827602D01*
X147797279Y-80848480D01*
X147795065Y-80848500D01*
X139186927Y-80848500D01*
X139182834Y-80848903D01*
X139170683Y-80849500D01*
X137004935Y-80849500D01*
X136937896Y-80829815D01*
X136936090Y-80828633D01*
X136879179Y-80790606D01*
X136879172Y-80790602D01*
X136733501Y-80730264D01*
X136733489Y-80730261D01*
X136578845Y-80699500D01*
X136578842Y-80699500D01*
X136421158Y-80699500D01*
X136421155Y-80699500D01*
X136266510Y-80730261D01*
X136266498Y-80730264D01*
X136120827Y-80790602D01*
X136120814Y-80790609D01*
X135989711Y-80878210D01*
X135989707Y-80878213D01*
X135878213Y-80989707D01*
X135878210Y-80989711D01*
X135790609Y-81120814D01*
X135790602Y-81120827D01*
X135730264Y-81266498D01*
X135730261Y-81266510D01*
X135699500Y-81421153D01*
X126000000Y-81421153D01*
X126000000Y-76370644D01*
X126424200Y-76370644D01*
X126424200Y-76587355D01*
X126458102Y-76801402D01*
X126458102Y-76801405D01*
X126525068Y-77007505D01*
X126605420Y-77165204D01*
X126623455Y-77200600D01*
X126750836Y-77375925D01*
X126904075Y-77529164D01*
X127079400Y-77656545D01*
X127253788Y-77745400D01*
X127272494Y-77754931D01*
X127478595Y-77821897D01*
X127478596Y-77821897D01*
X127478599Y-77821898D01*
X127692644Y-77855800D01*
X127692645Y-77855800D01*
X127909355Y-77855800D01*
X127909356Y-77855800D01*
X128123401Y-77821898D01*
X128123404Y-77821897D01*
X128123405Y-77821897D01*
X128329505Y-77754931D01*
X128329505Y-77754930D01*
X128329508Y-77754930D01*
X128522600Y-77656545D01*
X128697925Y-77529164D01*
X128851164Y-77375925D01*
X128950682Y-77238949D01*
X129006012Y-77196284D01*
X129075625Y-77190305D01*
X129137420Y-77222911D01*
X129151317Y-77238949D01*
X129250836Y-77375925D01*
X129404075Y-77529164D01*
X129579400Y-77656545D01*
X129753788Y-77745400D01*
X129772494Y-77754931D01*
X129978595Y-77821897D01*
X129978596Y-77821897D01*
X129978599Y-77821898D01*
X130192644Y-77855800D01*
X130192645Y-77855800D01*
X130409355Y-77855800D01*
X130409356Y-77855800D01*
X130623401Y-77821898D01*
X130623404Y-77821897D01*
X130623405Y-77821897D01*
X130829505Y-77754931D01*
X130829505Y-77754930D01*
X130829508Y-77754930D01*
X131022600Y-77656545D01*
X131197925Y-77529164D01*
X131351164Y-77375925D01*
X131450682Y-77238949D01*
X131506012Y-77196284D01*
X131575625Y-77190305D01*
X131637420Y-77222911D01*
X131651317Y-77238949D01*
X131750836Y-77375925D01*
X131904075Y-77529164D01*
X132079400Y-77656545D01*
X132253788Y-77745400D01*
X132272494Y-77754931D01*
X132478595Y-77821897D01*
X132478596Y-77821897D01*
X132478599Y-77821898D01*
X132692644Y-77855800D01*
X132692645Y-77855800D01*
X132909355Y-77855800D01*
X132909356Y-77855800D01*
X133123401Y-77821898D01*
X133123404Y-77821897D01*
X133123405Y-77821897D01*
X133329505Y-77754931D01*
X133329505Y-77754930D01*
X133329508Y-77754930D01*
X133522600Y-77656545D01*
X133697925Y-77529164D01*
X133851164Y-77375925D01*
X133950682Y-77238949D01*
X134006012Y-77196284D01*
X134075625Y-77190305D01*
X134137420Y-77222911D01*
X134151317Y-77238949D01*
X134250836Y-77375925D01*
X134404075Y-77529164D01*
X134579400Y-77656545D01*
X134753788Y-77745400D01*
X134772494Y-77754931D01*
X134978595Y-77821897D01*
X134978596Y-77821897D01*
X134978599Y-77821898D01*
X135192644Y-77855800D01*
X135192645Y-77855800D01*
X135409355Y-77855800D01*
X135409356Y-77855800D01*
X135623401Y-77821898D01*
X135623404Y-77821897D01*
X135623405Y-77821897D01*
X135829505Y-77754931D01*
X135829505Y-77754930D01*
X135829508Y-77754930D01*
X136022600Y-77656545D01*
X136197925Y-77529164D01*
X136351164Y-77375925D01*
X136450682Y-77238949D01*
X136506012Y-77196284D01*
X136575625Y-77190305D01*
X136637420Y-77222911D01*
X136651317Y-77238949D01*
X136750836Y-77375925D01*
X136904075Y-77529164D01*
X137079400Y-77656545D01*
X137253788Y-77745400D01*
X137272494Y-77754931D01*
X137478595Y-77821897D01*
X137478596Y-77821897D01*
X137478599Y-77821898D01*
X137692644Y-77855800D01*
X137692645Y-77855800D01*
X137909355Y-77855800D01*
X137909356Y-77855800D01*
X138123401Y-77821898D01*
X138123404Y-77821897D01*
X138123405Y-77821897D01*
X138329505Y-77754931D01*
X138329505Y-77754930D01*
X138329508Y-77754930D01*
X138522600Y-77656545D01*
X138697925Y-77529164D01*
X138851164Y-77375925D01*
X138950682Y-77238949D01*
X139006012Y-77196284D01*
X139075625Y-77190305D01*
X139137420Y-77222911D01*
X139151317Y-77238949D01*
X139250836Y-77375925D01*
X139404075Y-77529164D01*
X139579400Y-77656545D01*
X139753788Y-77745400D01*
X139772494Y-77754931D01*
X139978595Y-77821897D01*
X139978596Y-77821897D01*
X139978599Y-77821898D01*
X140192644Y-77855800D01*
X140192645Y-77855800D01*
X140409355Y-77855800D01*
X140409356Y-77855800D01*
X140623401Y-77821898D01*
X140623404Y-77821897D01*
X140623405Y-77821897D01*
X140829505Y-77754931D01*
X140829505Y-77754930D01*
X140829508Y-77754930D01*
X141022600Y-77656545D01*
X141197925Y-77529164D01*
X141351164Y-77375925D01*
X141450682Y-77238949D01*
X141506012Y-77196284D01*
X141575625Y-77190305D01*
X141637420Y-77222911D01*
X141651317Y-77238949D01*
X141750836Y-77375925D01*
X141904075Y-77529164D01*
X142079400Y-77656545D01*
X142253788Y-77745400D01*
X142272494Y-77754931D01*
X142478595Y-77821897D01*
X142478596Y-77821897D01*
X142478599Y-77821898D01*
X142692644Y-77855800D01*
X142692645Y-77855800D01*
X142909355Y-77855800D01*
X142909356Y-77855800D01*
X143123401Y-77821898D01*
X143123404Y-77821897D01*
X143123405Y-77821897D01*
X143329505Y-77754931D01*
X143329505Y-77754930D01*
X143329508Y-77754930D01*
X143522600Y-77656545D01*
X143697925Y-77529164D01*
X143851164Y-77375925D01*
X143978545Y-77200600D01*
X144076930Y-77007508D01*
X144143898Y-76801401D01*
X144177800Y-76587356D01*
X144177800Y-76370644D01*
X144172601Y-76337821D01*
X147053000Y-76337821D01*
X147053000Y-76564178D01*
X147088407Y-76787733D01*
X147158354Y-77003005D01*
X147241000Y-77165204D01*
X147261112Y-77204676D01*
X147394155Y-77387794D01*
X147554206Y-77547845D01*
X147737324Y-77680888D01*
X147755973Y-77690390D01*
X147938994Y-77783645D01*
X147938996Y-77783645D01*
X147938999Y-77783647D01*
X148054388Y-77821139D01*
X148154266Y-77853592D01*
X148377822Y-77889000D01*
X148377827Y-77889000D01*
X148604178Y-77889000D01*
X148827733Y-77853592D01*
X148829878Y-77852895D01*
X149043001Y-77783647D01*
X149244676Y-77680888D01*
X149427794Y-77547845D01*
X149587845Y-77387794D01*
X149640682Y-77315069D01*
X149696012Y-77272404D01*
X149765625Y-77266425D01*
X149827420Y-77299031D01*
X149841317Y-77315069D01*
X149894155Y-77387794D01*
X150054206Y-77547845D01*
X150237324Y-77680888D01*
X150255973Y-77690390D01*
X150438994Y-77783645D01*
X150438996Y-77783645D01*
X150438999Y-77783647D01*
X150554388Y-77821139D01*
X150654266Y-77853592D01*
X150877822Y-77889000D01*
X150877827Y-77889000D01*
X151104178Y-77889000D01*
X151327733Y-77853592D01*
X151329878Y-77852895D01*
X151543001Y-77783647D01*
X151744676Y-77680888D01*
X151927794Y-77547845D01*
X152087845Y-77387794D01*
X152140682Y-77315069D01*
X152196012Y-77272404D01*
X152265625Y-77266425D01*
X152327420Y-77299031D01*
X152341317Y-77315069D01*
X152394155Y-77387794D01*
X152554206Y-77547845D01*
X152737324Y-77680888D01*
X152755973Y-77690390D01*
X152938994Y-77783645D01*
X152938996Y-77783645D01*
X152938999Y-77783647D01*
X153054388Y-77821139D01*
X153154266Y-77853592D01*
X153377822Y-77889000D01*
X153377827Y-77889000D01*
X153604178Y-77889000D01*
X153827733Y-77853592D01*
X153829878Y-77852895D01*
X154043001Y-77783647D01*
X154244676Y-77680888D01*
X154427794Y-77547845D01*
X154587845Y-77387794D01*
X154720888Y-77204676D01*
X154823647Y-77003001D01*
X154893592Y-76787733D01*
X154929000Y-76564178D01*
X154929000Y-76337821D01*
X154893592Y-76114266D01*
X154855902Y-75998270D01*
X154823647Y-75898999D01*
X154823645Y-75898996D01*
X154823645Y-75898994D01*
X154751498Y-75757399D01*
X154720888Y-75697324D01*
X154587845Y-75514206D01*
X154427794Y-75354155D01*
X154244676Y-75221112D01*
X154243279Y-75220400D01*
X154043005Y-75118354D01*
X153827733Y-75048407D01*
X153604178Y-75013000D01*
X153604173Y-75013000D01*
X153377827Y-75013000D01*
X153377822Y-75013000D01*
X153154266Y-75048407D01*
X152938994Y-75118354D01*
X152737323Y-75221112D01*
X152554203Y-75354157D01*
X152394157Y-75514203D01*
X152394157Y-75514204D01*
X152394155Y-75514206D01*
X152344847Y-75582073D01*
X152341318Y-75586930D01*
X152285988Y-75629595D01*
X152216374Y-75635574D01*
X152154579Y-75602968D01*
X152140682Y-75586930D01*
X152137153Y-75582073D01*
X152087845Y-75514206D01*
X151927794Y-75354155D01*
X151744676Y-75221112D01*
X151743279Y-75220400D01*
X151543005Y-75118354D01*
X151327733Y-75048407D01*
X151104178Y-75013000D01*
X151104173Y-75013000D01*
X150877827Y-75013000D01*
X150877822Y-75013000D01*
X150654266Y-75048407D01*
X150438994Y-75118354D01*
X150237323Y-75221112D01*
X150054203Y-75354157D01*
X149894157Y-75514203D01*
X149894157Y-75514204D01*
X149894155Y-75514206D01*
X149844847Y-75582073D01*
X149841318Y-75586930D01*
X149785988Y-75629595D01*
X149716374Y-75635574D01*
X149654579Y-75602968D01*
X149640682Y-75586930D01*
X149637153Y-75582073D01*
X149587845Y-75514206D01*
X149427794Y-75354155D01*
X149244676Y-75221112D01*
X149243279Y-75220400D01*
X149043005Y-75118354D01*
X148827733Y-75048407D01*
X148604178Y-75013000D01*
X148604173Y-75013000D01*
X148377827Y-75013000D01*
X148377822Y-75013000D01*
X148154266Y-75048407D01*
X147938994Y-75118354D01*
X147737323Y-75221112D01*
X147554203Y-75354157D01*
X147394157Y-75514203D01*
X147261112Y-75697323D01*
X147158354Y-75898994D01*
X147088407Y-76114266D01*
X147053000Y-76337821D01*
X144172601Y-76337821D01*
X144143898Y-76156599D01*
X144143897Y-76156595D01*
X144143897Y-76156594D01*
X144076931Y-75950494D01*
X144050693Y-75898999D01*
X143978545Y-75757400D01*
X143851164Y-75582075D01*
X143697925Y-75428836D01*
X143522600Y-75301455D01*
X143424532Y-75251487D01*
X143329505Y-75203068D01*
X143123404Y-75136102D01*
X142962867Y-75110675D01*
X142909356Y-75102200D01*
X142692644Y-75102200D01*
X142621295Y-75113500D01*
X142478597Y-75136102D01*
X142478594Y-75136102D01*
X142272494Y-75203068D01*
X142079399Y-75301455D01*
X141904072Y-75428838D01*
X141750838Y-75582072D01*
X141750838Y-75582073D01*
X141750836Y-75582075D01*
X141667103Y-75697324D01*
X141651318Y-75719050D01*
X141595988Y-75761715D01*
X141526374Y-75767694D01*
X141464580Y-75735088D01*
X141450682Y-75719050D01*
X141434897Y-75697324D01*
X141351164Y-75582075D01*
X141197925Y-75428836D01*
X141022600Y-75301455D01*
X140924532Y-75251487D01*
X140829505Y-75203068D01*
X140623404Y-75136102D01*
X140462867Y-75110675D01*
X140409356Y-75102200D01*
X140192644Y-75102200D01*
X140121295Y-75113500D01*
X139978597Y-75136102D01*
X139978594Y-75136102D01*
X139772494Y-75203068D01*
X139579399Y-75301455D01*
X139404072Y-75428838D01*
X139250838Y-75582072D01*
X139250838Y-75582073D01*
X139250836Y-75582075D01*
X139167103Y-75697324D01*
X139151318Y-75719050D01*
X139095988Y-75761715D01*
X139026374Y-75767694D01*
X138964580Y-75735088D01*
X138950682Y-75719050D01*
X138934897Y-75697324D01*
X138851164Y-75582075D01*
X138697925Y-75428836D01*
X138522600Y-75301455D01*
X138424532Y-75251487D01*
X138329505Y-75203068D01*
X138123404Y-75136102D01*
X137962867Y-75110675D01*
X137909356Y-75102200D01*
X137692644Y-75102200D01*
X137621295Y-75113500D01*
X137478597Y-75136102D01*
X137478594Y-75136102D01*
X137272494Y-75203068D01*
X137079399Y-75301455D01*
X136904072Y-75428838D01*
X136750838Y-75582072D01*
X136750838Y-75582073D01*
X136750836Y-75582075D01*
X136667103Y-75697324D01*
X136651318Y-75719050D01*
X136595988Y-75761715D01*
X136526374Y-75767694D01*
X136464580Y-75735088D01*
X136450682Y-75719050D01*
X136434897Y-75697324D01*
X136351164Y-75582075D01*
X136197925Y-75428836D01*
X136022600Y-75301455D01*
X135924532Y-75251487D01*
X135829505Y-75203068D01*
X135623404Y-75136102D01*
X135462867Y-75110675D01*
X135409356Y-75102200D01*
X135192644Y-75102200D01*
X135121295Y-75113500D01*
X134978597Y-75136102D01*
X134978594Y-75136102D01*
X134772494Y-75203068D01*
X134579399Y-75301455D01*
X134404072Y-75428838D01*
X134250838Y-75582072D01*
X134250838Y-75582073D01*
X134250836Y-75582075D01*
X134167103Y-75697324D01*
X134151318Y-75719050D01*
X134095988Y-75761715D01*
X134026374Y-75767694D01*
X133964580Y-75735088D01*
X133950682Y-75719050D01*
X133934897Y-75697324D01*
X133851164Y-75582075D01*
X133697925Y-75428836D01*
X133522600Y-75301455D01*
X133424532Y-75251487D01*
X133329505Y-75203068D01*
X133123404Y-75136102D01*
X132962867Y-75110675D01*
X132909356Y-75102200D01*
X132692644Y-75102200D01*
X132621295Y-75113500D01*
X132478597Y-75136102D01*
X132478594Y-75136102D01*
X132272494Y-75203068D01*
X132079399Y-75301455D01*
X131904072Y-75428838D01*
X131750838Y-75582072D01*
X131750838Y-75582073D01*
X131750836Y-75582075D01*
X131667103Y-75697324D01*
X131651318Y-75719050D01*
X131595988Y-75761715D01*
X131526374Y-75767694D01*
X131464580Y-75735088D01*
X131450682Y-75719050D01*
X131434897Y-75697324D01*
X131351164Y-75582075D01*
X131197925Y-75428836D01*
X131022600Y-75301455D01*
X130924532Y-75251487D01*
X130829505Y-75203068D01*
X130623404Y-75136102D01*
X130462867Y-75110675D01*
X130409356Y-75102200D01*
X130192644Y-75102200D01*
X130121295Y-75113500D01*
X129978597Y-75136102D01*
X129978594Y-75136102D01*
X129772494Y-75203068D01*
X129579399Y-75301455D01*
X129404072Y-75428838D01*
X129250838Y-75582072D01*
X129250838Y-75582073D01*
X129250836Y-75582075D01*
X129167103Y-75697324D01*
X129151318Y-75719050D01*
X129095988Y-75761715D01*
X129026374Y-75767694D01*
X128964580Y-75735088D01*
X128950682Y-75719050D01*
X128934897Y-75697324D01*
X128851164Y-75582075D01*
X128697925Y-75428836D01*
X128522600Y-75301455D01*
X128424532Y-75251487D01*
X128329505Y-75203068D01*
X128123404Y-75136102D01*
X127962867Y-75110675D01*
X127909356Y-75102200D01*
X127692644Y-75102200D01*
X127621295Y-75113500D01*
X127478597Y-75136102D01*
X127478594Y-75136102D01*
X127272494Y-75203068D01*
X127079399Y-75301455D01*
X126904072Y-75428838D01*
X126750838Y-75582072D01*
X126623455Y-75757399D01*
X126525068Y-75950494D01*
X126458102Y-76156594D01*
X126458102Y-76156597D01*
X126424200Y-76370644D01*
X126000000Y-76370644D01*
X126000000Y-74874000D01*
X126019685Y-74806961D01*
X126072489Y-74761206D01*
X126124000Y-74750000D01*
X161220292Y-74750000D01*
X161287331Y-74769685D01*
G37*
%TD.AperFunction*%
%TD*%
%TA.AperFunction,Conductor*%
%TO.N,GNDA*%
G36*
X135184599Y-96019685D02*
G01*
X135205242Y-96036320D01*
X135239707Y-96070786D01*
X135239711Y-96070789D01*
X135370814Y-96158390D01*
X135370827Y-96158397D01*
X135493954Y-96209397D01*
X135516503Y-96218737D01*
X135642176Y-96243735D01*
X135671153Y-96249499D01*
X135671156Y-96249500D01*
X135671158Y-96249500D01*
X135828844Y-96249500D01*
X135828845Y-96249499D01*
X135983497Y-96218737D01*
X136129179Y-96158394D01*
X136260289Y-96070789D01*
X136294758Y-96036320D01*
X136356080Y-96002834D01*
X136382440Y-96000000D01*
X143342560Y-96000000D01*
X143409599Y-96019685D01*
X143430236Y-96036314D01*
X143464708Y-96070786D01*
X143489712Y-96095790D01*
X143620814Y-96183390D01*
X143620827Y-96183397D01*
X143720060Y-96224500D01*
X143766503Y-96243737D01*
X143892176Y-96268735D01*
X143921153Y-96274499D01*
X143921156Y-96274500D01*
X143921158Y-96274500D01*
X144078844Y-96274500D01*
X144078845Y-96274499D01*
X144233497Y-96243737D01*
X144379179Y-96183394D01*
X144510289Y-96095789D01*
X144569760Y-96036317D01*
X144631081Y-96002834D01*
X144657440Y-96000000D01*
X151867560Y-96000000D01*
X151934599Y-96019685D01*
X151955242Y-96036320D01*
X151989707Y-96070786D01*
X151989711Y-96070789D01*
X152120814Y-96158390D01*
X152120827Y-96158397D01*
X152243954Y-96209397D01*
X152266503Y-96218737D01*
X152392176Y-96243735D01*
X152421153Y-96249499D01*
X152421156Y-96249500D01*
X152421158Y-96249500D01*
X152578844Y-96249500D01*
X152578845Y-96249499D01*
X152733497Y-96218737D01*
X152879179Y-96158394D01*
X153010289Y-96070789D01*
X153044758Y-96036320D01*
X153106080Y-96002834D01*
X153132440Y-96000000D01*
X160317560Y-96000000D01*
X160384599Y-96019685D01*
X160405236Y-96036314D01*
X160464711Y-96095789D01*
X160489712Y-96120790D01*
X160620814Y-96208390D01*
X160620827Y-96208397D01*
X160720060Y-96249500D01*
X160766503Y-96268737D01*
X160899576Y-96295207D01*
X160921153Y-96299499D01*
X160921156Y-96299500D01*
X160921158Y-96299500D01*
X161078844Y-96299500D01*
X161078845Y-96299499D01*
X161233497Y-96268737D01*
X161376765Y-96209394D01*
X161379172Y-96208397D01*
X161379172Y-96208396D01*
X161379179Y-96208394D01*
X161454015Y-96158390D01*
X161509378Y-96121398D01*
X161576055Y-96100520D01*
X161578269Y-96100500D01*
X169376000Y-96100500D01*
X169443039Y-96120185D01*
X169488794Y-96172989D01*
X169500000Y-96224500D01*
X169500000Y-107126000D01*
X169480315Y-107193039D01*
X169427511Y-107238794D01*
X169376000Y-107250000D01*
X162250000Y-107250000D01*
X162250000Y-110287570D01*
X162230315Y-110354609D01*
X162177511Y-110400364D01*
X162118928Y-110410718D01*
X161564040Y-110965606D01*
X161535675Y-110897125D01*
X161467572Y-110795202D01*
X161380893Y-110708523D01*
X161278970Y-110640420D01*
X161210487Y-110612053D01*
X161764745Y-110057794D01*
X161764745Y-110057793D01*
X161705542Y-110014780D01*
X161512520Y-109916429D01*
X161306484Y-109849483D01*
X161092522Y-109815595D01*
X160875878Y-109815595D01*
X160661915Y-109849483D01*
X160455879Y-109916429D01*
X160262859Y-110014779D01*
X160203653Y-110057793D01*
X160203653Y-110057794D01*
X160757912Y-110612053D01*
X160689430Y-110640420D01*
X160587507Y-110708523D01*
X160500828Y-110795202D01*
X160432725Y-110897125D01*
X160404358Y-110965607D01*
X159850099Y-110411348D01*
X159850098Y-110411348D01*
X159807084Y-110470554D01*
X159708734Y-110663574D01*
X159641788Y-110869610D01*
X159607900Y-111083572D01*
X159607900Y-111300217D01*
X159641788Y-111514179D01*
X159708734Y-111720215D01*
X159807085Y-111913237D01*
X159850098Y-111972440D01*
X159850099Y-111972440D01*
X160404358Y-111418181D01*
X160432725Y-111486665D01*
X160500828Y-111588588D01*
X160587507Y-111675267D01*
X160689430Y-111743370D01*
X160757912Y-111771735D01*
X160203652Y-112325994D01*
X160203653Y-112325995D01*
X160262857Y-112369009D01*
X160455879Y-112467360D01*
X160661915Y-112534306D01*
X160875878Y-112568195D01*
X161092522Y-112568195D01*
X161306484Y-112534306D01*
X161512520Y-112467360D01*
X161705531Y-112369015D01*
X161705544Y-112369007D01*
X161764745Y-112325995D01*
X161764746Y-112325994D01*
X161210487Y-111771736D01*
X161278970Y-111743370D01*
X161380893Y-111675267D01*
X161467572Y-111588588D01*
X161535675Y-111486665D01*
X161564041Y-111418182D01*
X162119039Y-111973181D01*
X162184647Y-111986964D01*
X162234405Y-112036015D01*
X162250000Y-112096218D01*
X162250000Y-113126000D01*
X162230315Y-113193039D01*
X162177511Y-113238794D01*
X162126000Y-113250000D01*
X155927169Y-113250000D01*
X155860130Y-113230315D01*
X155814375Y-113177511D01*
X155804431Y-113108353D01*
X155833456Y-113044797D01*
X155888851Y-113008069D01*
X156012705Y-112967826D01*
X156012705Y-112967825D01*
X156012708Y-112967825D01*
X156205800Y-112869440D01*
X156381125Y-112742059D01*
X156534364Y-112588820D01*
X156661745Y-112413495D01*
X156760130Y-112220403D01*
X156760777Y-112218414D01*
X156827097Y-112014300D01*
X156827097Y-112014299D01*
X156827098Y-112014296D01*
X156861000Y-111800251D01*
X156861000Y-111583539D01*
X156827098Y-111369494D01*
X156827097Y-111369490D01*
X156827097Y-111369489D01*
X156760130Y-111163387D01*
X156760130Y-111163386D01*
X156745668Y-111135002D01*
X156745667Y-111135001D01*
X156692571Y-111030795D01*
X156661745Y-110970295D01*
X156534364Y-110794970D01*
X156381125Y-110641731D01*
X156205800Y-110514350D01*
X156191648Y-110507139D01*
X156012705Y-110415963D01*
X155806604Y-110348997D01*
X155646067Y-110323570D01*
X155592556Y-110315095D01*
X155375844Y-110315095D01*
X155304495Y-110326395D01*
X155161797Y-110348997D01*
X155161794Y-110348997D01*
X154955694Y-110415963D01*
X154762599Y-110514350D01*
X154587272Y-110641733D01*
X154434038Y-110794967D01*
X154434038Y-110794968D01*
X154434036Y-110794970D01*
X154347902Y-110913524D01*
X154334518Y-110931945D01*
X154279188Y-110974610D01*
X154209574Y-110980589D01*
X154147780Y-110947983D01*
X154133882Y-110931945D01*
X154120498Y-110913524D01*
X154034364Y-110794970D01*
X153881125Y-110641731D01*
X153705800Y-110514350D01*
X153691648Y-110507139D01*
X153512705Y-110415963D01*
X153306604Y-110348997D01*
X153146067Y-110323570D01*
X153092556Y-110315095D01*
X152875844Y-110315095D01*
X152804495Y-110326395D01*
X152661797Y-110348997D01*
X152661794Y-110348997D01*
X152455694Y-110415963D01*
X152262599Y-110514350D01*
X152087272Y-110641733D01*
X151934038Y-110794967D01*
X151934038Y-110794968D01*
X151934036Y-110794970D01*
X151847902Y-110913524D01*
X151834518Y-110931945D01*
X151779188Y-110974610D01*
X151709574Y-110980589D01*
X151647780Y-110947983D01*
X151633882Y-110931945D01*
X151620498Y-110913524D01*
X151534364Y-110794970D01*
X151381125Y-110641731D01*
X151205800Y-110514350D01*
X151191648Y-110507139D01*
X151012705Y-110415963D01*
X150806604Y-110348997D01*
X150646067Y-110323570D01*
X150592556Y-110315095D01*
X150375844Y-110315095D01*
X150304495Y-110326395D01*
X150161797Y-110348997D01*
X150161794Y-110348997D01*
X149955694Y-110415963D01*
X149762599Y-110514350D01*
X149587272Y-110641733D01*
X149434038Y-110794967D01*
X149434038Y-110794968D01*
X149434036Y-110794970D01*
X149347902Y-110913524D01*
X149334518Y-110931945D01*
X149279188Y-110974610D01*
X149209574Y-110980589D01*
X149147780Y-110947983D01*
X149133882Y-110931945D01*
X149120498Y-110913524D01*
X149034364Y-110794970D01*
X148881125Y-110641731D01*
X148705800Y-110514350D01*
X148691648Y-110507139D01*
X148512705Y-110415963D01*
X148306604Y-110348997D01*
X148146067Y-110323570D01*
X148092556Y-110315095D01*
X147875844Y-110315095D01*
X147804495Y-110326395D01*
X147661797Y-110348997D01*
X147661794Y-110348997D01*
X147455694Y-110415963D01*
X147262599Y-110514350D01*
X147087272Y-110641733D01*
X146934038Y-110794967D01*
X146934038Y-110794968D01*
X146934036Y-110794970D01*
X146847902Y-110913524D01*
X146834518Y-110931945D01*
X146779188Y-110974610D01*
X146709574Y-110980589D01*
X146647780Y-110947983D01*
X146633882Y-110931945D01*
X146620498Y-110913524D01*
X146534364Y-110794970D01*
X146381125Y-110641731D01*
X146205800Y-110514350D01*
X146018738Y-110419037D01*
X145984898Y-110393709D01*
X145974913Y-110383140D01*
X145974255Y-110382000D01*
X145964720Y-110365484D01*
X145852916Y-110253680D01*
X145852913Y-110253678D01*
X145487590Y-109888355D01*
X145487588Y-109888352D01*
X145368717Y-109769481D01*
X145368709Y-109769475D01*
X145279057Y-109717715D01*
X145279056Y-109717715D01*
X145231785Y-109690423D01*
X145079057Y-109649499D01*
X144920943Y-109649499D01*
X144913347Y-109649499D01*
X144913331Y-109649500D01*
X137075607Y-109649500D01*
X137008568Y-109629815D01*
X136962813Y-109577011D01*
X136952869Y-109507853D01*
X136953990Y-109501308D01*
X136972850Y-109406494D01*
X136972850Y-109248805D01*
X136972849Y-109248803D01*
X136942088Y-109094160D01*
X136942087Y-109094153D01*
X136942085Y-109094148D01*
X136881747Y-108948477D01*
X136881740Y-108948464D01*
X136794139Y-108817361D01*
X136794136Y-108817357D01*
X136682642Y-108705863D01*
X136682638Y-108705860D01*
X136551535Y-108618259D01*
X136551522Y-108618252D01*
X136407164Y-108558458D01*
X136366935Y-108531578D01*
X136136819Y-108301462D01*
X136103334Y-108240139D01*
X136100500Y-108213781D01*
X136100500Y-100424500D01*
X136120185Y-100357461D01*
X136172989Y-100311706D01*
X136224500Y-100300500D01*
X143774684Y-100300500D01*
X143822136Y-100309939D01*
X143936866Y-100357461D01*
X143966503Y-100369737D01*
X144121153Y-100400499D01*
X144121156Y-100400500D01*
X144121158Y-100400500D01*
X144278844Y-100400500D01*
X144278845Y-100400499D01*
X144433497Y-100369737D01*
X144512969Y-100336819D01*
X144577864Y-100309939D01*
X144625316Y-100300500D01*
X151974684Y-100300500D01*
X152022136Y-100309939D01*
X152136866Y-100357461D01*
X152166503Y-100369737D01*
X152321153Y-100400499D01*
X152321156Y-100400500D01*
X152321158Y-100400500D01*
X152478844Y-100400500D01*
X152478845Y-100400499D01*
X152633497Y-100369737D01*
X152712969Y-100336819D01*
X152777864Y-100309939D01*
X152825316Y-100300500D01*
X160774684Y-100300500D01*
X160822136Y-100309939D01*
X160936866Y-100357461D01*
X160966503Y-100369737D01*
X161121153Y-100400499D01*
X161121156Y-100400500D01*
X161121158Y-100400500D01*
X161278844Y-100400500D01*
X161278845Y-100400499D01*
X161433497Y-100369737D01*
X161579179Y-100309394D01*
X161710289Y-100221789D01*
X161821789Y-100110289D01*
X161909394Y-99979179D01*
X161969737Y-99833497D01*
X162000500Y-99678842D01*
X162000500Y-99521158D01*
X162000500Y-99521155D01*
X162000499Y-99521153D01*
X161969738Y-99366510D01*
X161969737Y-99366503D01*
X161969735Y-99366498D01*
X161909397Y-99220827D01*
X161909390Y-99220814D01*
X161821789Y-99089711D01*
X161821786Y-99089707D01*
X161710292Y-98978213D01*
X161710288Y-98978210D01*
X161579185Y-98890609D01*
X161579172Y-98890602D01*
X161433501Y-98830264D01*
X161433489Y-98830261D01*
X161278845Y-98799500D01*
X161278842Y-98799500D01*
X161121158Y-98799500D01*
X161121155Y-98799500D01*
X160966510Y-98830261D01*
X160966498Y-98830264D01*
X160822136Y-98890061D01*
X160774684Y-98899500D01*
X152825316Y-98899500D01*
X152777864Y-98890061D01*
X152633501Y-98830264D01*
X152633489Y-98830261D01*
X152478845Y-98799500D01*
X152478842Y-98799500D01*
X152321158Y-98799500D01*
X152321155Y-98799500D01*
X152166510Y-98830261D01*
X152166498Y-98830264D01*
X152022136Y-98890061D01*
X151974684Y-98899500D01*
X144625316Y-98899500D01*
X144577864Y-98890061D01*
X144433501Y-98830264D01*
X144433489Y-98830261D01*
X144278845Y-98799500D01*
X144278842Y-98799500D01*
X144121158Y-98799500D01*
X144121155Y-98799500D01*
X143966510Y-98830261D01*
X143966498Y-98830264D01*
X143822136Y-98890061D01*
X143774684Y-98899500D01*
X135825316Y-98899500D01*
X135777864Y-98890061D01*
X135633501Y-98830264D01*
X135633489Y-98830261D01*
X135478845Y-98799500D01*
X135478842Y-98799500D01*
X135321158Y-98799500D01*
X135321155Y-98799500D01*
X135166510Y-98830261D01*
X135166498Y-98830264D01*
X135022136Y-98890061D01*
X134974684Y-98899500D01*
X130451981Y-98899500D01*
X130343568Y-98921065D01*
X130343567Y-98921065D01*
X130316649Y-98926420D01*
X130189168Y-98979224D01*
X130074432Y-99055887D01*
X128876391Y-100253928D01*
X128836163Y-100280808D01*
X128691802Y-100340603D01*
X128691793Y-100340608D01*
X128560690Y-100428209D01*
X128560686Y-100428212D01*
X128449192Y-100539706D01*
X128449189Y-100539710D01*
X128361588Y-100670813D01*
X128361581Y-100670826D01*
X128301243Y-100816497D01*
X128301240Y-100816509D01*
X128270479Y-100971152D01*
X128270479Y-101128845D01*
X128301240Y-101283488D01*
X128301243Y-101283500D01*
X128361581Y-101429171D01*
X128361588Y-101429184D01*
X128449189Y-101560287D01*
X128449192Y-101560291D01*
X128560686Y-101671785D01*
X128560690Y-101671788D01*
X128691793Y-101759389D01*
X128691806Y-101759396D01*
X128837477Y-101819734D01*
X128837482Y-101819736D01*
X128992132Y-101850498D01*
X128992135Y-101850499D01*
X128992137Y-101850499D01*
X129149823Y-101850499D01*
X129149824Y-101850498D01*
X129304476Y-101819736D01*
X129450158Y-101759393D01*
X129581268Y-101671788D01*
X129692768Y-101560288D01*
X129780373Y-101429178D01*
X129780374Y-101429175D01*
X129780376Y-101429172D01*
X129840171Y-101284811D01*
X129867048Y-101244585D01*
X130774816Y-100336819D01*
X130836139Y-100303334D01*
X130862497Y-100300500D01*
X134575500Y-100300500D01*
X134642539Y-100320185D01*
X134688294Y-100372989D01*
X134699500Y-100424500D01*
X134699500Y-108486306D01*
X134699500Y-108624294D01*
X134699500Y-108624296D01*
X134699499Y-108624296D01*
X134726418Y-108759622D01*
X134726421Y-108759632D01*
X134779222Y-108887107D01*
X134855887Y-109001845D01*
X134855888Y-109001846D01*
X135291862Y-109437819D01*
X135325347Y-109499142D01*
X135320363Y-109568833D01*
X135278492Y-109624767D01*
X135213027Y-109649184D01*
X135204181Y-109649500D01*
X132543791Y-109649500D01*
X132476752Y-109629815D01*
X132440689Y-109594391D01*
X132368639Y-109486561D01*
X132368636Y-109486557D01*
X132257142Y-109375063D01*
X132257138Y-109375060D01*
X132126035Y-109287459D01*
X132126022Y-109287452D01*
X131980351Y-109227114D01*
X131980339Y-109227111D01*
X131825695Y-109196350D01*
X131825692Y-109196350D01*
X131668008Y-109196350D01*
X131668005Y-109196350D01*
X131513360Y-109227111D01*
X131513348Y-109227114D01*
X131367677Y-109287452D01*
X131367664Y-109287459D01*
X131236561Y-109375060D01*
X131236557Y-109375063D01*
X131125063Y-109486557D01*
X131125060Y-109486561D01*
X131037459Y-109617664D01*
X131037452Y-109617677D01*
X130977114Y-109763348D01*
X130977111Y-109763360D01*
X130946350Y-109918003D01*
X130946350Y-110075696D01*
X130977111Y-110230339D01*
X130977114Y-110230351D01*
X131037452Y-110376022D01*
X131037459Y-110376034D01*
X131068518Y-110422517D01*
X131089396Y-110489194D01*
X131070912Y-110556574D01*
X131038302Y-110591726D01*
X130969474Y-110641733D01*
X130857406Y-110723155D01*
X130857404Y-110723157D01*
X130857403Y-110723157D01*
X130697357Y-110883203D01*
X130697350Y-110883212D01*
X130644207Y-110956356D01*
X130588877Y-110999022D01*
X130519264Y-111005000D01*
X130506678Y-110998359D01*
X130472113Y-110995638D01*
X129876107Y-111591645D01*
X129848068Y-111523952D01*
X129779669Y-111421586D01*
X129692614Y-111334531D01*
X129590248Y-111266132D01*
X129522553Y-111238092D01*
X130118560Y-110642085D01*
X130118559Y-110642084D01*
X130047618Y-110590542D01*
X129846010Y-110487818D01*
X129630811Y-110417895D01*
X129630812Y-110417895D01*
X129407333Y-110382500D01*
X129181067Y-110382500D01*
X128957588Y-110417895D01*
X128742389Y-110487818D01*
X128540787Y-110590539D01*
X128469839Y-110642085D01*
X129065846Y-111238092D01*
X128998152Y-111266132D01*
X128895786Y-111334531D01*
X128808731Y-111421586D01*
X128740332Y-111523952D01*
X128712292Y-111591646D01*
X128116285Y-110995639D01*
X128064739Y-111066587D01*
X127962018Y-111268189D01*
X127892095Y-111483388D01*
X127856700Y-111706866D01*
X127856700Y-111933133D01*
X127892095Y-112156611D01*
X127962018Y-112371810D01*
X128064742Y-112573418D01*
X128116284Y-112644359D01*
X128116285Y-112644360D01*
X128712292Y-112048353D01*
X128740332Y-112116048D01*
X128808731Y-112218414D01*
X128895786Y-112305469D01*
X128998152Y-112373868D01*
X129065845Y-112401907D01*
X128469838Y-112997913D01*
X128469839Y-112997914D01*
X128508058Y-113025682D01*
X128550724Y-113081012D01*
X128556703Y-113150625D01*
X128524097Y-113212420D01*
X128463258Y-113246778D01*
X128435173Y-113250000D01*
X126674000Y-113250000D01*
X126606961Y-113230315D01*
X126561206Y-113177511D01*
X126550000Y-113126000D01*
X126550000Y-96408001D01*
X126569685Y-96340962D01*
X126622489Y-96295207D01*
X126649809Y-96286384D01*
X126678550Y-96280666D01*
X126733497Y-96269737D01*
X126879179Y-96209394D01*
X127010289Y-96121789D01*
X127036289Y-96095789D01*
X127095760Y-96036319D01*
X127157083Y-96002834D01*
X127183441Y-96000000D01*
X135117560Y-96000000D01*
X135184599Y-96019685D01*
G37*
%TD.AperFunction*%
%TA.AperFunction,Conductor*%
G36*
X130472113Y-112644360D02*
G01*
X130497059Y-112642396D01*
X130498895Y-112640981D01*
X130568508Y-112634997D01*
X130630305Y-112667599D01*
X130644206Y-112683640D01*
X130697355Y-112756794D01*
X130857406Y-112916845D01*
X130857409Y-112916847D01*
X131007207Y-113025682D01*
X131049873Y-113081012D01*
X131055852Y-113150625D01*
X131023246Y-113212420D01*
X130962408Y-113246777D01*
X130934322Y-113250000D01*
X130153226Y-113250000D01*
X130086187Y-113230315D01*
X130040432Y-113177511D01*
X130030488Y-113108353D01*
X130059513Y-113044797D01*
X130080341Y-113025682D01*
X130118559Y-112997914D01*
X130118560Y-112997913D01*
X129522553Y-112401907D01*
X129590248Y-112373868D01*
X129692614Y-112305469D01*
X129779669Y-112218414D01*
X129848068Y-112116048D01*
X129876107Y-112048353D01*
X130472113Y-112644360D01*
G37*
%TD.AperFunction*%
%TA.AperFunction,Conductor*%
G36*
X141668545Y-110851275D02*
G01*
X141671216Y-110850614D01*
X141701881Y-110861063D01*
X141732944Y-110870185D01*
X141734744Y-110872262D01*
X141737351Y-110873151D01*
X141757502Y-110898527D01*
X141778699Y-110922989D01*
X141779090Y-110925711D01*
X141780802Y-110927867D01*
X141784033Y-110960087D01*
X141788643Y-110992147D01*
X141787583Y-110995488D01*
X141787774Y-110997388D01*
X141776390Y-111030795D01*
X141708734Y-111163574D01*
X141641788Y-111369610D01*
X141607900Y-111583572D01*
X141607900Y-111800217D01*
X141641788Y-112014179D01*
X141708734Y-112220215D01*
X141807085Y-112413237D01*
X141850098Y-112472440D01*
X141850099Y-112472440D01*
X142404358Y-111918180D01*
X142432725Y-111986665D01*
X142500828Y-112088588D01*
X142587507Y-112175267D01*
X142689430Y-112243370D01*
X142757912Y-112271735D01*
X142203652Y-112825994D01*
X142203653Y-112825995D01*
X142262857Y-112869009D01*
X142455879Y-112967360D01*
X142581167Y-113008069D01*
X142638842Y-113047507D01*
X142666040Y-113111866D01*
X142654125Y-113180712D01*
X142606881Y-113232188D01*
X142542848Y-113250000D01*
X137654078Y-113250000D01*
X137587039Y-113230315D01*
X137541284Y-113177511D01*
X137531340Y-113108353D01*
X137560365Y-113044797D01*
X137581193Y-113025682D01*
X137619413Y-112997913D01*
X137730994Y-112916845D01*
X137891045Y-112756794D01*
X138024088Y-112573676D01*
X138126847Y-112372001D01*
X138196792Y-112156733D01*
X138207585Y-112088588D01*
X138232200Y-111933178D01*
X138232200Y-111706821D01*
X138196792Y-111483266D01*
X138161098Y-111373413D01*
X138126847Y-111267999D01*
X138126845Y-111267996D01*
X138126845Y-111267994D01*
X138024088Y-111066324D01*
X138010328Y-111047385D01*
X137986849Y-110981578D01*
X138002675Y-110913524D01*
X138052781Y-110864830D01*
X138110647Y-110850500D01*
X141665905Y-110850500D01*
X141668545Y-110851275D01*
G37*
%TD.AperFunction*%
%TA.AperFunction,Conductor*%
G36*
X144118299Y-112472441D02*
G01*
X144118299Y-112472440D01*
X144133573Y-112451419D01*
X144188903Y-112408754D01*
X144258516Y-112402775D01*
X144320311Y-112435381D01*
X144334208Y-112451419D01*
X144434036Y-112588820D01*
X144587275Y-112742059D01*
X144762600Y-112869440D01*
X144855632Y-112916842D01*
X144955694Y-112967826D01*
X145079549Y-113008069D01*
X145137224Y-113047506D01*
X145164423Y-113111865D01*
X145152509Y-113180711D01*
X145105264Y-113232187D01*
X145041231Y-113250000D01*
X143425552Y-113250000D01*
X143358513Y-113230315D01*
X143312758Y-113177511D01*
X143302814Y-113108353D01*
X143331839Y-113044797D01*
X143387233Y-113008069D01*
X143512520Y-112967360D01*
X143705531Y-112869015D01*
X143705544Y-112869007D01*
X143764745Y-112825995D01*
X143764746Y-112825994D01*
X143210487Y-112271736D01*
X143278970Y-112243370D01*
X143380893Y-112175267D01*
X143467572Y-112088588D01*
X143535675Y-111986665D01*
X143564040Y-111918182D01*
X144118299Y-112472441D01*
G37*
%TD.AperFunction*%
%TD*%
%TA.AperFunction,Conductor*%
%TO.N,GND*%
G36*
X118980703Y-95014228D02*
G01*
X118987181Y-95020260D01*
X119088707Y-95121786D01*
X119088711Y-95121789D01*
X119219814Y-95209390D01*
X119219827Y-95209397D01*
X119305077Y-95244708D01*
X119365503Y-95269737D01*
X119424318Y-95281436D01*
X119506486Y-95297781D01*
X119568397Y-95330166D01*
X119602971Y-95390882D01*
X119603912Y-95395206D01*
X119625418Y-95503322D01*
X119625421Y-95503332D01*
X119678222Y-95630807D01*
X119754887Y-95745545D01*
X119754888Y-95745546D01*
X120147678Y-96138335D01*
X120174558Y-96178564D01*
X120234352Y-96322922D01*
X120234359Y-96322935D01*
X120321960Y-96454038D01*
X120321963Y-96454042D01*
X120433457Y-96565536D01*
X120433463Y-96565541D01*
X120443668Y-96572360D01*
X120488472Y-96625972D01*
X120497179Y-96695297D01*
X120467024Y-96758324D01*
X120425991Y-96787362D01*
X120426191Y-96787736D01*
X120423216Y-96789325D01*
X120422237Y-96790019D01*
X120420825Y-96790603D01*
X120420814Y-96790609D01*
X120289711Y-96878210D01*
X120289707Y-96878213D01*
X120178213Y-96989707D01*
X120178210Y-96989711D01*
X120090609Y-97120814D01*
X120090602Y-97120827D01*
X120030264Y-97266498D01*
X120030261Y-97266510D01*
X119999500Y-97421153D01*
X119999500Y-97578846D01*
X120030261Y-97733489D01*
X120030264Y-97733501D01*
X120090602Y-97879172D01*
X120090609Y-97879185D01*
X120178210Y-98010288D01*
X120178213Y-98010292D01*
X120289707Y-98121786D01*
X120289711Y-98121789D01*
X120420814Y-98209390D01*
X120420827Y-98209397D01*
X120566498Y-98269735D01*
X120566503Y-98269737D01*
X120721153Y-98300499D01*
X120721156Y-98300500D01*
X120721158Y-98300500D01*
X120878844Y-98300500D01*
X120878845Y-98300499D01*
X121033497Y-98269737D01*
X121120989Y-98233497D01*
X121177864Y-98209939D01*
X121225316Y-98200500D01*
X124633741Y-98200500D01*
X124700780Y-98220185D01*
X124746535Y-98272989D01*
X124748302Y-98277048D01*
X124790602Y-98379172D01*
X124790609Y-98379185D01*
X124878210Y-98510288D01*
X124878213Y-98510292D01*
X124989707Y-98621786D01*
X124989711Y-98621789D01*
X125120814Y-98709390D01*
X125120827Y-98709397D01*
X125184426Y-98735740D01*
X125266503Y-98769737D01*
X125402301Y-98796749D01*
X125421153Y-98800499D01*
X125421156Y-98800500D01*
X125421158Y-98800500D01*
X125578844Y-98800500D01*
X125578845Y-98800499D01*
X125733497Y-98769737D01*
X125815574Y-98735740D01*
X125873048Y-98711934D01*
X125942517Y-98704465D01*
X126004996Y-98735740D01*
X126040648Y-98795829D01*
X126044500Y-98826495D01*
X126044500Y-111819282D01*
X126044500Y-113126000D01*
X126044501Y-113126009D01*
X126056052Y-113233450D01*
X126056054Y-113233462D01*
X126067260Y-113284972D01*
X126101383Y-113387497D01*
X126101386Y-113387503D01*
X126179171Y-113508537D01*
X126179179Y-113508548D01*
X126224923Y-113561340D01*
X126224926Y-113561343D01*
X126224930Y-113561347D01*
X126333664Y-113655567D01*
X126333667Y-113655568D01*
X126333668Y-113655569D01*
X126451525Y-113709394D01*
X126464541Y-113715338D01*
X126531580Y-113735023D01*
X126531584Y-113735024D01*
X126674000Y-113755500D01*
X126674003Y-113755500D01*
X128435159Y-113755500D01*
X128435173Y-113755500D01*
X128492788Y-113752206D01*
X128520873Y-113748984D01*
X128577756Y-113739140D01*
X128711832Y-113686938D01*
X128772671Y-113652580D01*
X128886607Y-113564723D01*
X128971177Y-113448321D01*
X129003783Y-113386526D01*
X129003784Y-113386526D01*
X129023229Y-113332026D01*
X129024519Y-113328949D01*
X129044524Y-113304331D01*
X129063165Y-113278675D01*
X129066396Y-113277417D01*
X129068583Y-113274726D01*
X129098718Y-113264832D01*
X129128274Y-113253326D01*
X129133230Y-113253503D01*
X129134967Y-113252933D01*
X129137790Y-113253665D01*
X129158285Y-113254398D01*
X129181024Y-113258000D01*
X129181027Y-113258000D01*
X129407372Y-113258000D01*
X129407373Y-113258000D01*
X129428914Y-113254588D01*
X129498207Y-113263542D01*
X129551659Y-113308538D01*
X129567289Y-113342126D01*
X129580612Y-113387502D01*
X129580615Y-113387507D01*
X129658397Y-113508537D01*
X129658405Y-113508548D01*
X129704149Y-113561340D01*
X129704152Y-113561343D01*
X129704156Y-113561347D01*
X129812890Y-113655567D01*
X129812893Y-113655568D01*
X129812894Y-113655569D01*
X129930751Y-113709394D01*
X129943767Y-113715338D01*
X130010806Y-113735023D01*
X130010810Y-113735024D01*
X130153226Y-113755500D01*
X130153229Y-113755500D01*
X130934311Y-113755500D01*
X130934322Y-113755500D01*
X130991952Y-113752204D01*
X131018452Y-113749163D01*
X131020030Y-113748982D01*
X131020030Y-113748981D01*
X131020038Y-113748981D01*
X131076903Y-113739140D01*
X131210980Y-113686939D01*
X131271818Y-113652582D01*
X131385756Y-113564723D01*
X131470326Y-113448321D01*
X131502932Y-113386526D01*
X131502933Y-113386526D01*
X131522427Y-113331889D01*
X131523709Y-113328830D01*
X131543716Y-113304204D01*
X131562358Y-113278547D01*
X131565584Y-113277290D01*
X131567768Y-113274603D01*
X131597910Y-113264704D01*
X131627467Y-113253197D01*
X131632415Y-113253373D01*
X131634151Y-113252804D01*
X131636973Y-113253536D01*
X131657467Y-113254268D01*
X131681027Y-113258000D01*
X131681033Y-113258000D01*
X131907371Y-113258000D01*
X131907373Y-113258000D01*
X131929728Y-113254459D01*
X131999021Y-113263413D01*
X132052473Y-113308409D01*
X132068103Y-113341997D01*
X132079020Y-113379179D01*
X132081464Y-113387502D01*
X132081467Y-113387507D01*
X132159249Y-113508537D01*
X132159257Y-113508548D01*
X132205001Y-113561340D01*
X132205004Y-113561343D01*
X132205008Y-113561347D01*
X132313742Y-113655567D01*
X132313745Y-113655568D01*
X132313746Y-113655569D01*
X132431603Y-113709394D01*
X132444619Y-113715338D01*
X132511658Y-113735023D01*
X132511662Y-113735024D01*
X132654078Y-113755500D01*
X132654081Y-113755500D01*
X133434311Y-113755500D01*
X133434322Y-113755500D01*
X133491952Y-113752204D01*
X133518452Y-113749163D01*
X133520030Y-113748982D01*
X133520030Y-113748981D01*
X133520038Y-113748981D01*
X133576903Y-113739140D01*
X133710980Y-113686939D01*
X133771818Y-113652582D01*
X133885756Y-113564723D01*
X133970326Y-113448321D01*
X134002932Y-113386526D01*
X134002933Y-113386526D01*
X134022427Y-113331889D01*
X134023709Y-113328830D01*
X134043716Y-113304204D01*
X134062358Y-113278547D01*
X134065584Y-113277290D01*
X134067768Y-113274603D01*
X134097910Y-113264704D01*
X134127467Y-113253197D01*
X134132415Y-113253373D01*
X134134151Y-113252804D01*
X134136973Y-113253536D01*
X134157467Y-113254268D01*
X134181027Y-113258000D01*
X134181033Y-113258000D01*
X134407371Y-113258000D01*
X134407373Y-113258000D01*
X134429728Y-113254459D01*
X134499021Y-113263413D01*
X134552473Y-113308409D01*
X134568103Y-113341997D01*
X134579020Y-113379179D01*
X134581464Y-113387502D01*
X134581467Y-113387507D01*
X134659249Y-113508537D01*
X134659257Y-113508548D01*
X134705001Y-113561340D01*
X134705004Y-113561343D01*
X134705008Y-113561347D01*
X134813742Y-113655567D01*
X134813745Y-113655568D01*
X134813746Y-113655569D01*
X134931603Y-113709394D01*
X134944619Y-113715338D01*
X135011658Y-113735023D01*
X135011662Y-113735024D01*
X135154078Y-113755500D01*
X135154081Y-113755500D01*
X135934311Y-113755500D01*
X135934322Y-113755500D01*
X135991952Y-113752204D01*
X136018452Y-113749163D01*
X136020030Y-113748982D01*
X136020030Y-113748981D01*
X136020038Y-113748981D01*
X136076903Y-113739140D01*
X136210980Y-113686939D01*
X136271818Y-113652582D01*
X136385756Y-113564723D01*
X136470326Y-113448321D01*
X136502932Y-113386526D01*
X136502933Y-113386526D01*
X136522427Y-113331889D01*
X136523709Y-113328830D01*
X136543716Y-113304204D01*
X136562358Y-113278547D01*
X136565584Y-113277290D01*
X136567768Y-113274603D01*
X136597910Y-113264704D01*
X136627467Y-113253197D01*
X136632415Y-113253373D01*
X136634151Y-113252804D01*
X136636973Y-113253536D01*
X136657467Y-113254268D01*
X136681027Y-113258000D01*
X136681033Y-113258000D01*
X136907371Y-113258000D01*
X136907373Y-113258000D01*
X136929728Y-113254459D01*
X136999021Y-113263413D01*
X137052473Y-113308409D01*
X137068103Y-113341997D01*
X137079020Y-113379179D01*
X137081464Y-113387502D01*
X137081467Y-113387507D01*
X137143151Y-113483489D01*
X137159253Y-113508543D01*
X137160766Y-113510289D01*
X137188796Y-113542638D01*
X137217820Y-113606194D01*
X137207876Y-113675353D01*
X137162120Y-113728156D01*
X137142542Y-113738398D01*
X137138428Y-113740102D01*
X137138414Y-113740109D01*
X137007311Y-113827710D01*
X137007307Y-113827713D01*
X136895813Y-113939207D01*
X136895810Y-113939211D01*
X136808209Y-114070314D01*
X136808202Y-114070327D01*
X136747864Y-114215998D01*
X136747861Y-114216010D01*
X136717100Y-114370653D01*
X136717100Y-114528346D01*
X136747861Y-114682989D01*
X136747864Y-114683001D01*
X136808202Y-114828672D01*
X136808209Y-114828685D01*
X136895810Y-114959788D01*
X136895813Y-114959792D01*
X137007307Y-115071286D01*
X137007311Y-115071289D01*
X137138414Y-115158890D01*
X137138427Y-115158897D01*
X137284098Y-115219235D01*
X137284103Y-115219237D01*
X137438753Y-115249999D01*
X137438756Y-115250000D01*
X137438758Y-115250000D01*
X137596444Y-115250000D01*
X137596445Y-115249999D01*
X137751097Y-115219237D01*
X137826563Y-115187978D01*
X137895464Y-115159439D01*
X137942916Y-115150000D01*
X156092284Y-115150000D01*
X156139736Y-115159439D01*
X156284098Y-115219235D01*
X156284103Y-115219237D01*
X156438753Y-115249999D01*
X156438756Y-115250000D01*
X156438758Y-115250000D01*
X156596444Y-115250000D01*
X156596445Y-115249999D01*
X156751097Y-115219237D01*
X156826563Y-115187978D01*
X156895464Y-115159439D01*
X156942916Y-115150000D01*
X166019796Y-115150000D01*
X166110840Y-115131889D01*
X166155128Y-115123080D01*
X166218869Y-115096677D01*
X166282607Y-115070277D01*
X166282608Y-115070276D01*
X166282611Y-115070275D01*
X166397343Y-114993614D01*
X166528314Y-114862643D01*
X166528314Y-114862642D01*
X167316744Y-114074211D01*
X167378065Y-114040728D01*
X167380074Y-114040309D01*
X167483497Y-114019737D01*
X167629179Y-113959394D01*
X167760289Y-113871789D01*
X167871789Y-113760289D01*
X167959394Y-113629179D01*
X168019737Y-113483497D01*
X168050500Y-113328842D01*
X168050500Y-113171158D01*
X168050500Y-113171155D01*
X168050499Y-113171153D01*
X168032137Y-113078842D01*
X168019737Y-113016503D01*
X168009251Y-112991187D01*
X167959397Y-112870827D01*
X167959390Y-112870814D01*
X167871789Y-112739711D01*
X167871786Y-112739707D01*
X167760292Y-112628213D01*
X167760288Y-112628210D01*
X167629185Y-112540609D01*
X167629172Y-112540602D01*
X167483501Y-112480264D01*
X167483489Y-112480261D01*
X167328845Y-112449500D01*
X167328842Y-112449500D01*
X167171158Y-112449500D01*
X167171155Y-112449500D01*
X167016510Y-112480261D01*
X167016498Y-112480264D01*
X166915653Y-112522035D01*
X166915647Y-112522038D01*
X166870821Y-112540606D01*
X166739711Y-112628211D01*
X166737692Y-112630229D01*
X166737687Y-112630233D01*
X166628213Y-112739707D01*
X166628210Y-112739711D01*
X166550980Y-112855293D01*
X166535559Y-112874083D01*
X165696962Y-113712681D01*
X165635639Y-113746166D01*
X165609281Y-113749000D01*
X162682158Y-113749000D01*
X162615119Y-113729315D01*
X162569364Y-113676511D01*
X162559420Y-113607353D01*
X162588444Y-113543798D01*
X162655567Y-113466336D01*
X162715338Y-113335459D01*
X162735023Y-113268420D01*
X162735024Y-113268416D01*
X162755500Y-113126000D01*
X162755500Y-112568172D01*
X162775185Y-112501133D01*
X162827989Y-112455378D01*
X162897147Y-112445434D01*
X162935795Y-112457687D01*
X162955694Y-112467826D01*
X163161795Y-112534792D01*
X163161796Y-112534792D01*
X163161799Y-112534793D01*
X163375844Y-112568695D01*
X163375845Y-112568695D01*
X163592555Y-112568695D01*
X163592556Y-112568695D01*
X163806601Y-112534793D01*
X163806604Y-112534792D01*
X163806605Y-112534792D01*
X164012705Y-112467826D01*
X164012705Y-112467825D01*
X164012708Y-112467825D01*
X164205800Y-112369440D01*
X164381125Y-112242059D01*
X164534364Y-112088820D01*
X164633882Y-111951844D01*
X164689212Y-111909179D01*
X164758825Y-111903200D01*
X164820620Y-111935806D01*
X164834517Y-111951844D01*
X164934036Y-112088820D01*
X165087275Y-112242059D01*
X165262600Y-112369440D01*
X165411747Y-112445434D01*
X165455694Y-112467826D01*
X165661795Y-112534792D01*
X165661796Y-112534792D01*
X165661799Y-112534793D01*
X165875844Y-112568695D01*
X165875845Y-112568695D01*
X166092555Y-112568695D01*
X166092556Y-112568695D01*
X166306601Y-112534793D01*
X166306604Y-112534792D01*
X166306605Y-112534792D01*
X166512705Y-112467826D01*
X166512705Y-112467825D01*
X166512708Y-112467825D01*
X166705800Y-112369440D01*
X166881125Y-112242059D01*
X167034364Y-112088820D01*
X167161745Y-111913495D01*
X167260130Y-111720403D01*
X167292172Y-111621789D01*
X167327097Y-111514300D01*
X167327097Y-111514299D01*
X167327098Y-111514296D01*
X167361000Y-111300251D01*
X167361000Y-111083539D01*
X167327098Y-110869494D01*
X167327097Y-110869490D01*
X167327097Y-110869489D01*
X167260131Y-110663389D01*
X167204082Y-110553387D01*
X167161745Y-110470295D01*
X167034364Y-110294970D01*
X166881125Y-110141731D01*
X166705800Y-110014350D01*
X166701979Y-110012403D01*
X166512705Y-109915963D01*
X166306604Y-109848997D01*
X166146067Y-109823570D01*
X166092556Y-109815095D01*
X165875844Y-109815095D01*
X165804495Y-109826395D01*
X165661797Y-109848997D01*
X165661794Y-109848997D01*
X165455694Y-109915963D01*
X165262599Y-110014350D01*
X165087272Y-110141733D01*
X164934038Y-110294967D01*
X164934038Y-110294968D01*
X164934036Y-110294970D01*
X164834518Y-110431945D01*
X164779188Y-110474610D01*
X164709574Y-110480589D01*
X164647780Y-110447983D01*
X164633882Y-110431945D01*
X164534364Y-110294970D01*
X164381125Y-110141731D01*
X164205800Y-110014350D01*
X164201979Y-110012403D01*
X164012705Y-109915963D01*
X163806604Y-109848997D01*
X163646067Y-109823570D01*
X163592556Y-109815095D01*
X163375844Y-109815095D01*
X163304495Y-109826395D01*
X163161797Y-109848997D01*
X163161794Y-109848997D01*
X162955692Y-109915964D01*
X162955690Y-109915965D01*
X162935792Y-109926103D01*
X162867122Y-109938998D01*
X162802382Y-109912719D01*
X162762127Y-109855612D01*
X162755500Y-109815617D01*
X162755500Y-107879500D01*
X162775185Y-107812461D01*
X162827989Y-107766706D01*
X162879500Y-107755500D01*
X169375990Y-107755500D01*
X169376000Y-107755500D01*
X169483456Y-107743947D01*
X169534967Y-107732741D01*
X169569197Y-107721347D01*
X169637497Y-107698616D01*
X169637501Y-107698613D01*
X169637504Y-107698613D01*
X169758543Y-107620825D01*
X169811347Y-107575070D01*
X169905567Y-107466336D01*
X169965338Y-107335459D01*
X169985023Y-107268420D01*
X169985024Y-107268416D01*
X170005500Y-107126000D01*
X170005500Y-103192534D01*
X170014939Y-103145081D01*
X170019737Y-103133498D01*
X170050500Y-102978843D01*
X170050500Y-102821159D01*
X170050500Y-102821156D01*
X170050499Y-102821154D01*
X170019738Y-102666506D01*
X170014939Y-102654921D01*
X170005500Y-102607467D01*
X170005500Y-96224500D01*
X170025185Y-96157461D01*
X170077989Y-96111706D01*
X170129500Y-96100500D01*
X184199903Y-96100500D01*
X184266942Y-96120185D01*
X184287584Y-96136819D01*
X186781781Y-98631016D01*
X186815266Y-98692339D01*
X186818100Y-98718697D01*
X186818100Y-105028080D01*
X186798415Y-105095119D01*
X186745611Y-105140874D01*
X186676453Y-105150818D01*
X186612897Y-105121793D01*
X186606419Y-105115761D01*
X183846546Y-102355888D01*
X183731808Y-102279223D01*
X183604333Y-102226422D01*
X183604323Y-102226419D01*
X183468997Y-102199501D01*
X183468995Y-102199501D01*
X183468994Y-102199501D01*
X182325317Y-102199501D01*
X182277865Y-102190062D01*
X182133502Y-102130265D01*
X182133490Y-102130262D01*
X181978846Y-102099501D01*
X181978843Y-102099501D01*
X181821159Y-102099501D01*
X181821156Y-102099501D01*
X181666511Y-102130262D01*
X181666499Y-102130265D01*
X181520828Y-102190603D01*
X181520815Y-102190610D01*
X181389712Y-102278211D01*
X181389708Y-102278214D01*
X181278214Y-102389708D01*
X181278211Y-102389712D01*
X181190610Y-102520815D01*
X181190603Y-102520828D01*
X181130265Y-102666499D01*
X181130262Y-102666511D01*
X181099501Y-102821154D01*
X181099501Y-102978847D01*
X181130262Y-103133490D01*
X181130265Y-103133502D01*
X181190603Y-103279173D01*
X181190610Y-103279186D01*
X181278211Y-103410289D01*
X181278214Y-103410293D01*
X181389708Y-103521787D01*
X181389712Y-103521790D01*
X181520815Y-103609391D01*
X181520828Y-103609398D01*
X181587032Y-103636820D01*
X181666504Y-103669738D01*
X181821154Y-103700500D01*
X181821157Y-103700501D01*
X181821159Y-103700501D01*
X181978845Y-103700501D01*
X181978846Y-103700500D01*
X182133498Y-103669738D01*
X182215377Y-103635823D01*
X182277865Y-103609940D01*
X182325317Y-103600501D01*
X183058482Y-103600501D01*
X183125521Y-103620186D01*
X183146163Y-103636820D01*
X186080781Y-106571438D01*
X186114266Y-106632761D01*
X186117100Y-106659119D01*
X186117100Y-109092297D01*
X186097415Y-109159336D01*
X186044611Y-109205091D01*
X185975453Y-109215035D01*
X185968909Y-109213914D01*
X185896445Y-109199500D01*
X185896442Y-109199500D01*
X185738758Y-109199500D01*
X185738755Y-109199500D01*
X185584110Y-109230261D01*
X185584098Y-109230264D01*
X185438427Y-109290602D01*
X185438414Y-109290609D01*
X185307311Y-109378210D01*
X185307307Y-109378213D01*
X185195813Y-109489707D01*
X185195810Y-109489711D01*
X185108209Y-109620814D01*
X185108202Y-109620827D01*
X185047864Y-109766498D01*
X185047861Y-109766510D01*
X185017100Y-109921153D01*
X185017100Y-110012403D01*
X184997415Y-110079442D01*
X184980781Y-110100084D01*
X184415439Y-110665425D01*
X184354116Y-110698910D01*
X184351950Y-110699361D01*
X184196608Y-110730261D01*
X184196598Y-110730264D01*
X184050927Y-110790602D01*
X184050914Y-110790609D01*
X183919811Y-110878210D01*
X183919807Y-110878213D01*
X183808313Y-110989707D01*
X183808310Y-110989711D01*
X183720709Y-111120814D01*
X183720702Y-111120827D01*
X183660364Y-111266498D01*
X183660361Y-111266510D01*
X183629600Y-111421153D01*
X183629600Y-111578846D01*
X183660361Y-111733489D01*
X183660364Y-111733501D01*
X183720702Y-111879172D01*
X183720709Y-111879185D01*
X183808310Y-112010288D01*
X183808313Y-112010292D01*
X183919807Y-112121786D01*
X183919811Y-112121789D01*
X184050914Y-112209390D01*
X184050927Y-112209397D01*
X184196598Y-112269735D01*
X184196603Y-112269737D01*
X184351253Y-112300499D01*
X184351256Y-112300500D01*
X184351258Y-112300500D01*
X184508944Y-112300500D01*
X184508945Y-112300499D01*
X184663597Y-112269737D01*
X184809279Y-112209394D01*
X184940389Y-112121789D01*
X185051889Y-112010289D01*
X185139494Y-111879179D01*
X185199837Y-111733497D01*
X185227694Y-111593452D01*
X185230738Y-111578150D01*
X185263123Y-111516239D01*
X185264621Y-111514713D01*
X185905419Y-110873914D01*
X185966742Y-110840430D01*
X186036434Y-110845414D01*
X186092367Y-110887286D01*
X186116784Y-110952750D01*
X186117100Y-110961596D01*
X186117100Y-112574684D01*
X186107661Y-112622136D01*
X186047864Y-112766498D01*
X186047861Y-112766510D01*
X186017100Y-112921153D01*
X186017100Y-113078846D01*
X186047861Y-113233489D01*
X186047864Y-113233501D01*
X186108202Y-113379172D01*
X186108209Y-113379185D01*
X186195810Y-113510288D01*
X186195813Y-113510292D01*
X186307307Y-113621786D01*
X186307311Y-113621789D01*
X186438414Y-113709390D01*
X186438427Y-113709397D01*
X186584098Y-113769735D01*
X186584103Y-113769737D01*
X186678245Y-113788463D01*
X186718291Y-113796429D01*
X186780202Y-113828814D01*
X186814776Y-113889529D01*
X186818100Y-113918046D01*
X186818100Y-116281302D01*
X186798415Y-116348341D01*
X186781781Y-116368983D01*
X186485339Y-116665425D01*
X186424016Y-116698910D01*
X186421850Y-116699361D01*
X186266508Y-116730261D01*
X186266498Y-116730264D01*
X186120827Y-116790602D01*
X186120814Y-116790609D01*
X185989711Y-116878210D01*
X185989707Y-116878213D01*
X185878213Y-116989707D01*
X185878210Y-116989711D01*
X185790609Y-117120814D01*
X185790602Y-117120827D01*
X185730264Y-117266498D01*
X185730261Y-117266510D01*
X185699500Y-117421153D01*
X185699500Y-117578846D01*
X185730261Y-117733489D01*
X185730264Y-117733501D01*
X185790602Y-117879172D01*
X185790609Y-117879185D01*
X185878210Y-118010288D01*
X185878213Y-118010292D01*
X185989707Y-118121786D01*
X185989711Y-118121789D01*
X186120814Y-118209390D01*
X186120827Y-118209397D01*
X186261607Y-118267709D01*
X186266503Y-118269737D01*
X186388481Y-118294000D01*
X186421153Y-118300499D01*
X186421156Y-118300500D01*
X186421158Y-118300500D01*
X186578844Y-118300500D01*
X186578845Y-118300499D01*
X186733497Y-118269737D01*
X186836556Y-118227048D01*
X186906022Y-118219580D01*
X186942463Y-118232254D01*
X186945078Y-118233651D01*
X186945087Y-118233657D01*
X187090769Y-118294000D01*
X187235254Y-118322740D01*
X187245419Y-118324762D01*
X187245422Y-118324763D01*
X187245424Y-118324763D01*
X187403110Y-118324763D01*
X187471032Y-118311252D01*
X187502336Y-118305025D01*
X187571928Y-118311252D01*
X187595419Y-118323540D01*
X187725325Y-118410341D01*
X187725338Y-118410348D01*
X187821068Y-118450000D01*
X187871014Y-118470688D01*
X187989020Y-118494161D01*
X188025664Y-118501450D01*
X188025667Y-118501451D01*
X188025669Y-118501451D01*
X188183355Y-118501451D01*
X188251308Y-118487934D01*
X188320900Y-118494161D01*
X188376077Y-118537024D01*
X188399322Y-118602913D01*
X188399500Y-118609551D01*
X188399500Y-119602044D01*
X188379815Y-119669083D01*
X188327011Y-119714838D01*
X188299691Y-119723661D01*
X188266510Y-119730261D01*
X188266498Y-119730264D01*
X188120827Y-119790602D01*
X188120814Y-119790609D01*
X187989711Y-119878210D01*
X187989707Y-119878213D01*
X187878213Y-119989707D01*
X187878210Y-119989711D01*
X187790609Y-120120814D01*
X187790602Y-120120827D01*
X187730264Y-120266498D01*
X187730261Y-120266510D01*
X187698311Y-120427132D01*
X187695668Y-120426606D01*
X187673866Y-120480602D01*
X187616833Y-120520962D01*
X187576623Y-120527662D01*
X174688442Y-120527662D01*
X174621403Y-120507977D01*
X174575648Y-120455173D01*
X174565704Y-120386015D01*
X174594729Y-120322459D01*
X174629989Y-120294304D01*
X174864977Y-120168700D01*
X174942332Y-120127353D01*
X175244644Y-119925354D01*
X175525701Y-119694697D01*
X175782797Y-119437601D01*
X176013454Y-119156544D01*
X176215453Y-118854232D01*
X176386847Y-118533576D01*
X176525986Y-118197664D01*
X176631530Y-117849733D01*
X176631532Y-117849723D01*
X176631535Y-117849712D01*
X176691900Y-117546230D01*
X176702462Y-117493131D01*
X176738100Y-117131294D01*
X176738100Y-116767706D01*
X176702462Y-116405869D01*
X176681610Y-116301038D01*
X176631535Y-116049287D01*
X176631532Y-116049276D01*
X176631531Y-116049273D01*
X176631530Y-116049267D01*
X176525986Y-115701336D01*
X176386847Y-115365424D01*
X176336724Y-115271651D01*
X176215459Y-115044779D01*
X176215458Y-115044777D01*
X176215453Y-115044768D01*
X176013454Y-114742456D01*
X175782797Y-114461399D01*
X175782796Y-114461398D01*
X175782792Y-114461393D01*
X175525706Y-114204307D01*
X175244649Y-113973650D01*
X175244648Y-113973649D01*
X175244644Y-113973646D01*
X174942332Y-113771647D01*
X174942327Y-113771644D01*
X174942320Y-113771640D01*
X174621683Y-113600256D01*
X174621678Y-113600254D01*
X174558278Y-113573993D01*
X174485379Y-113543797D01*
X174285765Y-113461114D01*
X173937823Y-113355567D01*
X173937812Y-113355564D01*
X173581230Y-113284637D01*
X173308711Y-113257796D01*
X173219394Y-113249000D01*
X172855806Y-113249000D01*
X172773279Y-113257128D01*
X172493969Y-113284637D01*
X172137387Y-113355564D01*
X172137376Y-113355567D01*
X171789434Y-113461114D01*
X171453521Y-113600254D01*
X171453516Y-113600256D01*
X171132879Y-113771640D01*
X171132861Y-113771651D01*
X170830564Y-113973640D01*
X170830550Y-113973650D01*
X170549493Y-114204307D01*
X170292407Y-114461393D01*
X170061750Y-114742450D01*
X170061740Y-114742464D01*
X169859751Y-115044761D01*
X169859740Y-115044779D01*
X169688356Y-115365416D01*
X169688354Y-115365421D01*
X169549214Y-115701334D01*
X169443667Y-116049276D01*
X169443664Y-116049287D01*
X169372737Y-116405869D01*
X169359056Y-116544779D01*
X169337100Y-116767706D01*
X169337100Y-117131294D01*
X169343999Y-117201336D01*
X169372737Y-117493130D01*
X169443664Y-117849712D01*
X169443667Y-117849723D01*
X169549214Y-118197665D01*
X169637309Y-118410345D01*
X169675046Y-118501451D01*
X169688354Y-118533578D01*
X169688356Y-118533583D01*
X169859740Y-118854220D01*
X169859751Y-118854238D01*
X170061740Y-119156535D01*
X170061750Y-119156549D01*
X170292407Y-119437606D01*
X170549493Y-119694692D01*
X170549498Y-119694696D01*
X170549499Y-119694697D01*
X170830556Y-119925354D01*
X171132868Y-120127353D01*
X171132877Y-120127358D01*
X171132879Y-120127359D01*
X171445211Y-120294304D01*
X171495055Y-120343266D01*
X171510516Y-120411404D01*
X171486684Y-120477084D01*
X171431127Y-120519452D01*
X171386758Y-120527662D01*
X127528769Y-120527662D01*
X127461730Y-120507977D01*
X127425667Y-120472553D01*
X127370304Y-120389696D01*
X127370302Y-120389693D01*
X127258807Y-120278198D01*
X127258803Y-120278195D01*
X127127700Y-120190594D01*
X127127687Y-120190587D01*
X126982016Y-120130249D01*
X126982004Y-120130246D01*
X126827360Y-120099485D01*
X126827357Y-120099485D01*
X126669673Y-120099485D01*
X126669670Y-120099485D01*
X126515025Y-120130246D01*
X126515013Y-120130249D01*
X126369342Y-120190587D01*
X126369329Y-120190594D01*
X126238226Y-120278195D01*
X126238222Y-120278198D01*
X126126728Y-120389692D01*
X126126725Y-120389696D01*
X126039124Y-120520799D01*
X126039117Y-120520812D01*
X125978779Y-120666483D01*
X125978776Y-120666495D01*
X125948015Y-120821138D01*
X125948015Y-120978831D01*
X125978776Y-121133474D01*
X125978779Y-121133486D01*
X126039117Y-121279157D01*
X126039124Y-121279170D01*
X126126725Y-121410273D01*
X126126728Y-121410277D01*
X126204270Y-121487819D01*
X126237755Y-121549142D01*
X126232771Y-121618834D01*
X126190899Y-121674767D01*
X126125435Y-121699184D01*
X126116589Y-121699500D01*
X124223129Y-121699500D01*
X124156090Y-121679815D01*
X124110335Y-121627011D01*
X124100391Y-121557853D01*
X124129416Y-121494297D01*
X124154238Y-121472398D01*
X124171389Y-121460938D01*
X124224644Y-121425354D01*
X124505701Y-121194697D01*
X124762797Y-120937601D01*
X124993454Y-120656544D01*
X125195453Y-120354232D01*
X125366847Y-120033576D01*
X125505986Y-119697664D01*
X125611530Y-119349733D01*
X125611532Y-119349723D01*
X125611535Y-119349712D01*
X125682462Y-118993130D01*
X125690541Y-118911106D01*
X128164700Y-118911106D01*
X128164700Y-119088893D01*
X128192512Y-119264493D01*
X128247449Y-119433575D01*
X128249503Y-119437606D01*
X128293727Y-119524400D01*
X128328167Y-119591990D01*
X128432659Y-119735814D01*
X128558385Y-119861540D01*
X128679454Y-119949500D01*
X128702213Y-119966035D01*
X128860622Y-120046749D01*
X128860624Y-120046750D01*
X128945165Y-120074218D01*
X129029708Y-120101688D01*
X129205306Y-120129500D01*
X129205307Y-120129500D01*
X129383093Y-120129500D01*
X129383094Y-120129500D01*
X129558692Y-120101688D01*
X129727778Y-120046749D01*
X129886187Y-119966035D01*
X129990273Y-119890413D01*
X130030014Y-119861540D01*
X130030016Y-119861537D01*
X130030020Y-119861535D01*
X130155735Y-119735820D01*
X130155737Y-119735816D01*
X130155740Y-119735814D01*
X130224148Y-119641657D01*
X130260235Y-119591987D01*
X130340949Y-119433578D01*
X130395888Y-119264492D01*
X130423700Y-119088894D01*
X130423700Y-118911106D01*
X135664700Y-118911106D01*
X135664700Y-119088893D01*
X135692512Y-119264493D01*
X135747449Y-119433575D01*
X135749503Y-119437606D01*
X135793727Y-119524400D01*
X135828167Y-119591990D01*
X135932659Y-119735814D01*
X136058385Y-119861540D01*
X136179454Y-119949500D01*
X136202213Y-119966035D01*
X136360622Y-120046749D01*
X136360624Y-120046750D01*
X136445165Y-120074218D01*
X136529708Y-120101688D01*
X136705306Y-120129500D01*
X136705307Y-120129500D01*
X136883093Y-120129500D01*
X136883094Y-120129500D01*
X137058692Y-120101688D01*
X137227778Y-120046749D01*
X137386187Y-119966035D01*
X137490273Y-119890413D01*
X137530014Y-119861540D01*
X137530016Y-119861537D01*
X137530020Y-119861535D01*
X137655735Y-119735820D01*
X137655737Y-119735816D01*
X137655740Y-119735814D01*
X137724148Y-119641657D01*
X137760235Y-119591987D01*
X137840949Y-119433578D01*
X137895888Y-119264492D01*
X137923700Y-119088894D01*
X137923700Y-118911106D01*
X137923700Y-118911105D01*
X137905062Y-118793427D01*
X137902761Y-118778902D01*
X141802600Y-118778902D01*
X141802600Y-118964889D01*
X141831695Y-119148589D01*
X141889166Y-119325470D01*
X141889167Y-119325473D01*
X141961243Y-119466928D01*
X141973605Y-119491190D01*
X142082926Y-119641657D01*
X142214439Y-119773170D01*
X142364906Y-119882491D01*
X142441872Y-119921707D01*
X142530622Y-119966928D01*
X142530625Y-119966929D01*
X142571664Y-119980263D01*
X142707508Y-120024401D01*
X142891206Y-120053496D01*
X142891207Y-120053496D01*
X143077193Y-120053496D01*
X143077194Y-120053496D01*
X143260892Y-120024401D01*
X143437777Y-119966928D01*
X143603494Y-119882491D01*
X143753961Y-119773170D01*
X143885474Y-119641657D01*
X143994795Y-119491190D01*
X144079232Y-119325473D01*
X144136705Y-119148588D01*
X144165800Y-118964890D01*
X144165800Y-118778902D01*
X154302600Y-118778902D01*
X154302600Y-118964889D01*
X154331695Y-119148589D01*
X154389166Y-119325470D01*
X154389167Y-119325473D01*
X154461243Y-119466928D01*
X154473605Y-119491190D01*
X154582926Y-119641657D01*
X154714439Y-119773170D01*
X154864906Y-119882491D01*
X154941872Y-119921707D01*
X155030622Y-119966928D01*
X155030625Y-119966929D01*
X155071664Y-119980263D01*
X155207508Y-120024401D01*
X155391206Y-120053496D01*
X155391207Y-120053496D01*
X155577193Y-120053496D01*
X155577194Y-120053496D01*
X155760892Y-120024401D01*
X155937777Y-119966928D01*
X156103494Y-119882491D01*
X156253961Y-119773170D01*
X156385474Y-119641657D01*
X156494795Y-119491190D01*
X156579232Y-119325473D01*
X156636705Y-119148588D01*
X156665800Y-118964890D01*
X156665800Y-118778902D01*
X156636705Y-118595204D01*
X156594364Y-118464890D01*
X156579233Y-118418321D01*
X156579231Y-118418318D01*
X156575862Y-118411706D01*
X156508195Y-118278902D01*
X159802600Y-118278902D01*
X159802600Y-118464890D01*
X159803883Y-118472989D01*
X159831695Y-118648589D01*
X159889166Y-118825470D01*
X159889167Y-118825473D01*
X159932800Y-118911106D01*
X159973605Y-118991190D01*
X160082926Y-119141657D01*
X160214439Y-119273170D01*
X160364906Y-119382491D01*
X160446185Y-119423904D01*
X160530622Y-119466928D01*
X160530625Y-119466929D01*
X160605294Y-119491190D01*
X160707508Y-119524401D01*
X160891206Y-119553496D01*
X160891207Y-119553496D01*
X161077193Y-119553496D01*
X161077194Y-119553496D01*
X161260892Y-119524401D01*
X161437777Y-119466928D01*
X161603494Y-119382491D01*
X161753961Y-119273170D01*
X161885474Y-119141657D01*
X161994795Y-118991190D01*
X162079232Y-118825473D01*
X162136705Y-118648588D01*
X162165800Y-118464890D01*
X162165800Y-118278902D01*
X164802600Y-118278902D01*
X164802600Y-118464890D01*
X164803883Y-118472989D01*
X164831695Y-118648589D01*
X164889166Y-118825470D01*
X164889167Y-118825473D01*
X164932800Y-118911106D01*
X164973605Y-118991190D01*
X165082926Y-119141657D01*
X165214439Y-119273170D01*
X165364906Y-119382491D01*
X165446185Y-119423904D01*
X165530622Y-119466928D01*
X165530625Y-119466929D01*
X165605294Y-119491190D01*
X165707508Y-119524401D01*
X165891206Y-119553496D01*
X165891207Y-119553496D01*
X166077193Y-119553496D01*
X166077194Y-119553496D01*
X166260892Y-119524401D01*
X166437777Y-119466928D01*
X166603494Y-119382491D01*
X166753961Y-119273170D01*
X166885474Y-119141657D01*
X166994795Y-118991190D01*
X167079232Y-118825473D01*
X167136705Y-118648588D01*
X167165800Y-118464890D01*
X167165800Y-118278902D01*
X167136705Y-118095204D01*
X167090582Y-117953251D01*
X167079233Y-117918321D01*
X167079232Y-117918318D01*
X167007157Y-117776864D01*
X166994795Y-117752602D01*
X166885474Y-117602135D01*
X166753961Y-117470622D01*
X166603494Y-117361301D01*
X166437777Y-117276863D01*
X166437774Y-117276862D01*
X166260893Y-117219391D01*
X166169043Y-117204843D01*
X166077194Y-117190296D01*
X165891206Y-117190296D01*
X165829973Y-117199994D01*
X165707506Y-117219391D01*
X165530625Y-117276862D01*
X165530622Y-117276863D01*
X165364905Y-117361301D01*
X165282527Y-117421153D01*
X165214439Y-117470622D01*
X165214437Y-117470624D01*
X165214436Y-117470624D01*
X165082928Y-117602132D01*
X165082928Y-117602133D01*
X165082926Y-117602135D01*
X165035977Y-117666754D01*
X164973605Y-117752601D01*
X164889167Y-117918318D01*
X164889166Y-117918321D01*
X164831695Y-118095202D01*
X164804932Y-118264180D01*
X164802600Y-118278902D01*
X162165800Y-118278902D01*
X162136705Y-118095204D01*
X162090582Y-117953251D01*
X162079233Y-117918321D01*
X162079232Y-117918318D01*
X162007157Y-117776864D01*
X161994795Y-117752602D01*
X161885474Y-117602135D01*
X161753961Y-117470622D01*
X161603494Y-117361301D01*
X161437777Y-117276863D01*
X161437774Y-117276862D01*
X161260893Y-117219391D01*
X161169043Y-117204843D01*
X161077194Y-117190296D01*
X160891206Y-117190296D01*
X160829973Y-117199994D01*
X160707506Y-117219391D01*
X160530625Y-117276862D01*
X160530622Y-117276863D01*
X160364905Y-117361301D01*
X160282527Y-117421153D01*
X160214439Y-117470622D01*
X160214437Y-117470624D01*
X160214436Y-117470624D01*
X160082928Y-117602132D01*
X160082928Y-117602133D01*
X160082926Y-117602135D01*
X160035977Y-117666754D01*
X159973605Y-117752601D01*
X159889167Y-117918318D01*
X159889166Y-117918321D01*
X159831695Y-118095202D01*
X159804932Y-118264180D01*
X159802600Y-118278902D01*
X156508195Y-118278902D01*
X156494795Y-118252602D01*
X156385474Y-118102135D01*
X156253961Y-117970622D01*
X156103494Y-117861301D01*
X156080771Y-117849723D01*
X155937777Y-117776863D01*
X155937774Y-117776862D01*
X155760893Y-117719391D01*
X155669043Y-117704843D01*
X155577194Y-117690296D01*
X155391206Y-117690296D01*
X155329973Y-117699994D01*
X155207506Y-117719391D01*
X155030625Y-117776862D01*
X155030622Y-117776863D01*
X154864905Y-117861301D01*
X154786429Y-117918318D01*
X154714439Y-117970622D01*
X154714437Y-117970624D01*
X154714436Y-117970624D01*
X154582928Y-118102132D01*
X154582928Y-118102133D01*
X154582926Y-118102135D01*
X154556535Y-118138459D01*
X154473605Y-118252601D01*
X154389167Y-118418318D01*
X154389166Y-118418321D01*
X154331695Y-118595202D01*
X154302600Y-118778902D01*
X144165800Y-118778902D01*
X144136705Y-118595204D01*
X144094364Y-118464890D01*
X144079233Y-118418321D01*
X144079232Y-118418318D01*
X144014736Y-118291739D01*
X143994795Y-118252602D01*
X143885474Y-118102135D01*
X143753961Y-117970622D01*
X143603494Y-117861301D01*
X143580771Y-117849723D01*
X143437777Y-117776863D01*
X143437774Y-117776862D01*
X143260893Y-117719391D01*
X143169043Y-117704843D01*
X143077194Y-117690296D01*
X142891206Y-117690296D01*
X142829973Y-117699994D01*
X142707506Y-117719391D01*
X142530625Y-117776862D01*
X142530622Y-117776863D01*
X142364905Y-117861301D01*
X142286429Y-117918318D01*
X142214439Y-117970622D01*
X142214437Y-117970624D01*
X142214436Y-117970624D01*
X142082928Y-118102132D01*
X142082928Y-118102133D01*
X142082926Y-118102135D01*
X142056535Y-118138459D01*
X141973605Y-118252601D01*
X141889167Y-118418318D01*
X141889166Y-118418321D01*
X141831695Y-118595202D01*
X141802600Y-118778902D01*
X137902761Y-118778902D01*
X137901059Y-118768161D01*
X137895888Y-118735508D01*
X137868418Y-118650965D01*
X137840950Y-118566424D01*
X137825970Y-118537024D01*
X137760235Y-118408013D01*
X137742867Y-118384108D01*
X137655740Y-118264185D01*
X137530014Y-118138459D01*
X137386190Y-118033967D01*
X137386189Y-118033966D01*
X137386187Y-118033965D01*
X137306982Y-117993608D01*
X137227775Y-117953249D01*
X137058693Y-117898312D01*
X136937891Y-117879179D01*
X136883094Y-117870500D01*
X136705306Y-117870500D01*
X136650553Y-117879172D01*
X136529706Y-117898312D01*
X136360624Y-117953249D01*
X136202209Y-118033967D01*
X136058385Y-118138459D01*
X135932659Y-118264185D01*
X135828167Y-118408009D01*
X135747449Y-118566424D01*
X135692512Y-118735506D01*
X135664700Y-118911106D01*
X130423700Y-118911106D01*
X130395888Y-118735508D01*
X130368418Y-118650965D01*
X130340950Y-118566424D01*
X130325970Y-118537024D01*
X130260235Y-118408013D01*
X130242867Y-118384108D01*
X130155740Y-118264185D01*
X130030014Y-118138459D01*
X129886190Y-118033967D01*
X129886189Y-118033966D01*
X129886187Y-118033965D01*
X129806982Y-117993608D01*
X129727775Y-117953249D01*
X129558693Y-117898312D01*
X129437891Y-117879179D01*
X129383094Y-117870500D01*
X129205306Y-117870500D01*
X129150553Y-117879172D01*
X129029706Y-117898312D01*
X128860624Y-117953249D01*
X128702209Y-118033967D01*
X128558385Y-118138459D01*
X128432659Y-118264185D01*
X128328167Y-118408009D01*
X128247449Y-118566424D01*
X128192512Y-118735506D01*
X128164700Y-118911106D01*
X125690541Y-118911106D01*
X125692218Y-118894080D01*
X125707836Y-118735506D01*
X125718100Y-118631294D01*
X125718100Y-118267706D01*
X125682462Y-117905869D01*
X125656802Y-117776864D01*
X125611535Y-117549287D01*
X125611532Y-117549276D01*
X125611531Y-117549273D01*
X125611530Y-117549267D01*
X125505986Y-117201336D01*
X125366847Y-116865424D01*
X125314617Y-116767709D01*
X125195459Y-116544779D01*
X125195458Y-116544777D01*
X125195453Y-116544768D01*
X124993454Y-116242456D01*
X124762797Y-115961399D01*
X124762796Y-115961398D01*
X124762792Y-115961393D01*
X124505706Y-115704307D01*
X124224649Y-115473650D01*
X124224648Y-115473649D01*
X124224644Y-115473646D01*
X123922332Y-115271647D01*
X123922327Y-115271644D01*
X123922320Y-115271640D01*
X123601683Y-115100256D01*
X123601678Y-115100254D01*
X123531750Y-115071289D01*
X123467706Y-115044761D01*
X123265765Y-114961114D01*
X122917823Y-114855567D01*
X122917812Y-114855564D01*
X122561230Y-114784637D01*
X122288711Y-114757796D01*
X122199394Y-114749000D01*
X121835806Y-114749000D01*
X121753279Y-114757128D01*
X121473969Y-114784637D01*
X121117387Y-114855564D01*
X121117376Y-114855567D01*
X120769434Y-114961114D01*
X120433521Y-115100254D01*
X120433516Y-115100256D01*
X120112879Y-115271640D01*
X120112861Y-115271651D01*
X119810564Y-115473640D01*
X119810550Y-115473650D01*
X119529493Y-115704307D01*
X119272407Y-115961393D01*
X119041750Y-116242450D01*
X119041739Y-116242464D01*
X119002602Y-116301038D01*
X118948989Y-116345843D01*
X118879664Y-116354550D01*
X118816637Y-116324395D01*
X118779918Y-116264952D01*
X118775500Y-116232147D01*
X118775500Y-95107941D01*
X118795185Y-95040902D01*
X118847989Y-94995147D01*
X118917147Y-94985203D01*
X118980703Y-95014228D01*
G37*
%TD.AperFunction*%
%TA.AperFunction,Conductor*%
G36*
X212835762Y-66470185D02*
G01*
X212881517Y-66522989D01*
X212891461Y-66592147D01*
X212862436Y-66655703D01*
X212837614Y-66677602D01*
X212767964Y-66724140D01*
X212767950Y-66724150D01*
X212486893Y-66954807D01*
X212229807Y-67211893D01*
X211999150Y-67492950D01*
X211999140Y-67492964D01*
X211797151Y-67795261D01*
X211797140Y-67795279D01*
X211625756Y-68115916D01*
X211625754Y-68115921D01*
X211486614Y-68451834D01*
X211381067Y-68799776D01*
X211381064Y-68799787D01*
X211310137Y-69156369D01*
X211290092Y-69359894D01*
X211274500Y-69518206D01*
X211274500Y-69881794D01*
X211285337Y-69991829D01*
X211310137Y-70243630D01*
X211381064Y-70600212D01*
X211381067Y-70600223D01*
X211486614Y-70948165D01*
X211625754Y-71284078D01*
X211625756Y-71284083D01*
X211797140Y-71604720D01*
X211797151Y-71604738D01*
X211999140Y-71907035D01*
X211999150Y-71907049D01*
X212229807Y-72188106D01*
X212486893Y-72445192D01*
X212486898Y-72445196D01*
X212486899Y-72445197D01*
X212767956Y-72675854D01*
X213070268Y-72877853D01*
X213070277Y-72877858D01*
X213070279Y-72877859D01*
X213390916Y-73049243D01*
X213390918Y-73049243D01*
X213390924Y-73049247D01*
X213726836Y-73188386D01*
X214074767Y-73293930D01*
X214074773Y-73293931D01*
X214074776Y-73293932D01*
X214074787Y-73293935D01*
X214428855Y-73364362D01*
X214431369Y-73364862D01*
X214793206Y-73400500D01*
X214793209Y-73400500D01*
X215156791Y-73400500D01*
X215156794Y-73400500D01*
X215518631Y-73364862D01*
X215588045Y-73351054D01*
X215875212Y-73293935D01*
X215875223Y-73293932D01*
X215875223Y-73293931D01*
X215875233Y-73293930D01*
X216223164Y-73188386D01*
X216559076Y-73049247D01*
X216879732Y-72877853D01*
X217182044Y-72675854D01*
X217463101Y-72445197D01*
X217720197Y-72188101D01*
X217950854Y-71907044D01*
X217997398Y-71837385D01*
X218051010Y-71792581D01*
X218120335Y-71783874D01*
X218183362Y-71814028D01*
X218220082Y-71873471D01*
X218224500Y-71906277D01*
X218224500Y-116243222D01*
X218204815Y-116310261D01*
X218152011Y-116356016D01*
X218082853Y-116365960D01*
X218019297Y-116336935D01*
X217997398Y-116312113D01*
X217950860Y-116242464D01*
X217950849Y-116242450D01*
X217942921Y-116232789D01*
X217720197Y-115961399D01*
X217720196Y-115961398D01*
X217720192Y-115961393D01*
X217463106Y-115704307D01*
X217182049Y-115473650D01*
X217182048Y-115473649D01*
X217182044Y-115473646D01*
X216879732Y-115271647D01*
X216879727Y-115271644D01*
X216879720Y-115271640D01*
X216559083Y-115100256D01*
X216559078Y-115100254D01*
X216489150Y-115071289D01*
X216425106Y-115044761D01*
X216223165Y-114961114D01*
X215875223Y-114855567D01*
X215875212Y-114855564D01*
X215518630Y-114784637D01*
X215246111Y-114757796D01*
X215156794Y-114749000D01*
X214793206Y-114749000D01*
X214710679Y-114757128D01*
X214431369Y-114784637D01*
X214074787Y-114855564D01*
X214074776Y-114855567D01*
X213726834Y-114961114D01*
X213390921Y-115100254D01*
X213390916Y-115100256D01*
X213070279Y-115271640D01*
X213070261Y-115271651D01*
X212767964Y-115473640D01*
X212767950Y-115473650D01*
X212486893Y-115704307D01*
X212229807Y-115961393D01*
X211999150Y-116242450D01*
X211999140Y-116242464D01*
X211797151Y-116544761D01*
X211797140Y-116544779D01*
X211625756Y-116865416D01*
X211625754Y-116865421D01*
X211486614Y-117201334D01*
X211381067Y-117549276D01*
X211381064Y-117549287D01*
X211310137Y-117905869D01*
X211287230Y-118138459D01*
X211274500Y-118267706D01*
X211274500Y-118631294D01*
X211284764Y-118735506D01*
X211310137Y-118993130D01*
X211381064Y-119349712D01*
X211381067Y-119349723D01*
X211486614Y-119697665D01*
X211625754Y-120033578D01*
X211625756Y-120033583D01*
X211797140Y-120354220D01*
X211797151Y-120354238D01*
X211999140Y-120656535D01*
X211999150Y-120656549D01*
X212229807Y-120937606D01*
X212486893Y-121194692D01*
X212486898Y-121194696D01*
X212486899Y-121194697D01*
X212767956Y-121425354D01*
X212818894Y-121459390D01*
X212838362Y-121472398D01*
X212883167Y-121526010D01*
X212891874Y-121595335D01*
X212861720Y-121658363D01*
X212802277Y-121695082D01*
X212769471Y-121699500D01*
X192845134Y-121699500D01*
X192778095Y-121679815D01*
X192732340Y-121627011D01*
X192722396Y-121557853D01*
X192730573Y-121528047D01*
X192731417Y-121526010D01*
X192769737Y-121433497D01*
X192800500Y-121278842D01*
X192800500Y-121121158D01*
X192800500Y-121121155D01*
X192800499Y-121121153D01*
X192769738Y-120966510D01*
X192769737Y-120966503D01*
X192757768Y-120937606D01*
X192709397Y-120820827D01*
X192709390Y-120820814D01*
X192621789Y-120689711D01*
X192621786Y-120689707D01*
X192510292Y-120578213D01*
X192510288Y-120578210D01*
X192379185Y-120490609D01*
X192379172Y-120490602D01*
X192233501Y-120430264D01*
X192233491Y-120430261D01*
X192078151Y-120399362D01*
X192016241Y-120366977D01*
X192014662Y-120365426D01*
X191636819Y-119987583D01*
X191603334Y-119926260D01*
X191600500Y-119899902D01*
X191600500Y-117667847D01*
X191620185Y-117600808D01*
X191672989Y-117555053D01*
X191700309Y-117546230D01*
X191716291Y-117543050D01*
X191833497Y-117519737D01*
X191979179Y-117459394D01*
X192110289Y-117371789D01*
X192221789Y-117260289D01*
X192309394Y-117129179D01*
X192312854Y-117120827D01*
X192367163Y-116989711D01*
X192369737Y-116983497D01*
X192400500Y-116828842D01*
X192400500Y-116767706D01*
X200087100Y-116767706D01*
X200087100Y-117131294D01*
X200093999Y-117201336D01*
X200122737Y-117493130D01*
X200193664Y-117849712D01*
X200193667Y-117849723D01*
X200299214Y-118197665D01*
X200387309Y-118410345D01*
X200425046Y-118501451D01*
X200438354Y-118533578D01*
X200438356Y-118533583D01*
X200609740Y-118854220D01*
X200609751Y-118854238D01*
X200811740Y-119156535D01*
X200811750Y-119156549D01*
X201042407Y-119437606D01*
X201299493Y-119694692D01*
X201299498Y-119694696D01*
X201299499Y-119694697D01*
X201580556Y-119925354D01*
X201882868Y-120127353D01*
X201882877Y-120127358D01*
X201882879Y-120127359D01*
X202203516Y-120298743D01*
X202203518Y-120298743D01*
X202203524Y-120298747D01*
X202539436Y-120437886D01*
X202887367Y-120543430D01*
X202887373Y-120543431D01*
X202887376Y-120543432D01*
X202887387Y-120543435D01*
X203243969Y-120614362D01*
X203605806Y-120650000D01*
X203605809Y-120650000D01*
X203969391Y-120650000D01*
X203969394Y-120650000D01*
X204331231Y-120614362D01*
X204400645Y-120600554D01*
X204687812Y-120543435D01*
X204687823Y-120543432D01*
X204687823Y-120543431D01*
X204687833Y-120543430D01*
X205035764Y-120437886D01*
X205371676Y-120298747D01*
X205692332Y-120127353D01*
X205994644Y-119925354D01*
X206275701Y-119694697D01*
X206532797Y-119437601D01*
X206763454Y-119156544D01*
X206965453Y-118854232D01*
X207136847Y-118533576D01*
X207275986Y-118197664D01*
X207381530Y-117849733D01*
X207381532Y-117849723D01*
X207381535Y-117849712D01*
X207441900Y-117546230D01*
X207452462Y-117493131D01*
X207488100Y-117131294D01*
X207488100Y-116767706D01*
X207452462Y-116405869D01*
X207431610Y-116301038D01*
X207381535Y-116049287D01*
X207381532Y-116049276D01*
X207381531Y-116049273D01*
X207381530Y-116049267D01*
X207275986Y-115701336D01*
X207136847Y-115365424D01*
X207086724Y-115271651D01*
X206965459Y-115044779D01*
X206965458Y-115044777D01*
X206965453Y-115044768D01*
X206763454Y-114742456D01*
X206532797Y-114461399D01*
X206532796Y-114461398D01*
X206532792Y-114461393D01*
X206275706Y-114204307D01*
X205994649Y-113973650D01*
X205994648Y-113973649D01*
X205994644Y-113973646D01*
X205692332Y-113771647D01*
X205692327Y-113771644D01*
X205692320Y-113771640D01*
X205371683Y-113600256D01*
X205371678Y-113600254D01*
X205308278Y-113573993D01*
X205235379Y-113543797D01*
X205035765Y-113461114D01*
X204687823Y-113355567D01*
X204687812Y-113355564D01*
X204331230Y-113284637D01*
X204058711Y-113257796D01*
X203969394Y-113249000D01*
X203605806Y-113249000D01*
X203523279Y-113257128D01*
X203243969Y-113284637D01*
X202887387Y-113355564D01*
X202887376Y-113355567D01*
X202539434Y-113461114D01*
X202203521Y-113600254D01*
X202203516Y-113600256D01*
X201882879Y-113771640D01*
X201882861Y-113771651D01*
X201580564Y-113973640D01*
X201580550Y-113973650D01*
X201299493Y-114204307D01*
X201042407Y-114461393D01*
X200811750Y-114742450D01*
X200811740Y-114742464D01*
X200609751Y-115044761D01*
X200609740Y-115044779D01*
X200438356Y-115365416D01*
X200438354Y-115365421D01*
X200299214Y-115701334D01*
X200193667Y-116049276D01*
X200193664Y-116049287D01*
X200122737Y-116405869D01*
X200109056Y-116544779D01*
X200087100Y-116767706D01*
X192400500Y-116767706D01*
X192400500Y-116671158D01*
X192400500Y-116671155D01*
X192400499Y-116671153D01*
X192369738Y-116516510D01*
X192369737Y-116516503D01*
X192320884Y-116398560D01*
X192313415Y-116329091D01*
X192328058Y-116289108D01*
X192337435Y-116272868D01*
X192360577Y-116232785D01*
X192401501Y-116080057D01*
X192401501Y-115921943D01*
X192401501Y-115914348D01*
X192401500Y-115914330D01*
X192401500Y-111924500D01*
X192421185Y-111857461D01*
X192473989Y-111811706D01*
X192525500Y-111800500D01*
X192678844Y-111800500D01*
X192678845Y-111800499D01*
X192833497Y-111769737D01*
X192979179Y-111709394D01*
X192982472Y-111707194D01*
X193040544Y-111668392D01*
X193105474Y-111625006D01*
X193110289Y-111621789D01*
X193221789Y-111510289D01*
X193309394Y-111379179D01*
X193369737Y-111233497D01*
X193400500Y-111078842D01*
X193400500Y-111078840D01*
X193400637Y-111078152D01*
X193421529Y-111030020D01*
X193427418Y-111021817D01*
X193482520Y-110966716D01*
X193543203Y-110861609D01*
X193561577Y-110829785D01*
X193602501Y-110677057D01*
X193602501Y-110518943D01*
X193602501Y-110511348D01*
X193602500Y-110511330D01*
X193602500Y-91105902D01*
X193602498Y-91105893D01*
X193597916Y-91088790D01*
X193561577Y-90953172D01*
X193519198Y-90879770D01*
X193482520Y-90816241D01*
X193370716Y-90704437D01*
X193366385Y-90700106D01*
X193366374Y-90700096D01*
X193239819Y-90573541D01*
X193206334Y-90512218D01*
X193203500Y-90485860D01*
X193203500Y-90136821D01*
X206878600Y-90136821D01*
X206878600Y-90363178D01*
X206914007Y-90586733D01*
X206983954Y-90802005D01*
X207060978Y-90953170D01*
X207086712Y-91003676D01*
X207219755Y-91186794D01*
X207379806Y-91346845D01*
X207424752Y-91379500D01*
X207452530Y-91399682D01*
X207495195Y-91455012D01*
X207501174Y-91524626D01*
X207468568Y-91586421D01*
X207452530Y-91600317D01*
X207379806Y-91653155D01*
X207379804Y-91653157D01*
X207379803Y-91653157D01*
X207219757Y-91813203D01*
X207086712Y-91996323D01*
X206983954Y-92197994D01*
X206914007Y-92413266D01*
X206878600Y-92636821D01*
X206878600Y-92863178D01*
X206914007Y-93086733D01*
X206983954Y-93302005D01*
X207068776Y-93468475D01*
X207086712Y-93503676D01*
X207219755Y-93686794D01*
X207379806Y-93846845D01*
X207452530Y-93899682D01*
X207495195Y-93955012D01*
X207501174Y-94024626D01*
X207468568Y-94086421D01*
X207452530Y-94100317D01*
X207379806Y-94153155D01*
X207379804Y-94153157D01*
X207379803Y-94153157D01*
X207219757Y-94313203D01*
X207086712Y-94496323D01*
X206983954Y-94697994D01*
X206914007Y-94913266D01*
X206878600Y-95136821D01*
X206878600Y-95363178D01*
X206914007Y-95586733D01*
X206983954Y-95802005D01*
X207023277Y-95879179D01*
X207086712Y-96003676D01*
X207219755Y-96186794D01*
X207379806Y-96346845D01*
X207452954Y-96399990D01*
X207495620Y-96455320D01*
X207501599Y-96524933D01*
X207494960Y-96537514D01*
X207492239Y-96572085D01*
X208088246Y-97168092D01*
X208020552Y-97196132D01*
X207918186Y-97264531D01*
X207831131Y-97351586D01*
X207762732Y-97453952D01*
X207734692Y-97521645D01*
X207138685Y-96925639D01*
X207087139Y-96996587D01*
X206984418Y-97198189D01*
X206914495Y-97413388D01*
X206879100Y-97636866D01*
X206879100Y-97863133D01*
X206914495Y-98086611D01*
X206984418Y-98301810D01*
X207087142Y-98503418D01*
X207138684Y-98574359D01*
X207138685Y-98574360D01*
X207734692Y-97978353D01*
X207762732Y-98046048D01*
X207831131Y-98148414D01*
X207918186Y-98235469D01*
X208020552Y-98303868D01*
X208088245Y-98331907D01*
X207492238Y-98927913D01*
X207563185Y-98979459D01*
X207764789Y-99082181D01*
X207979988Y-99152104D01*
X207979987Y-99152104D01*
X208203467Y-99187500D01*
X208429733Y-99187500D01*
X208653211Y-99152104D01*
X208868410Y-99082181D01*
X209070006Y-98979463D01*
X209070012Y-98979459D01*
X209140959Y-98927913D01*
X209140960Y-98927913D01*
X208544953Y-98331907D01*
X208612648Y-98303868D01*
X208715014Y-98235469D01*
X208802069Y-98148414D01*
X208870468Y-98046048D01*
X208898507Y-97978354D01*
X209494513Y-98574360D01*
X209494513Y-98574359D01*
X209546059Y-98503412D01*
X209546063Y-98503406D01*
X209648781Y-98301810D01*
X209718704Y-98086611D01*
X209754100Y-97863133D01*
X209754100Y-97636866D01*
X209718704Y-97413388D01*
X209648781Y-97198189D01*
X209546059Y-96996585D01*
X209494513Y-96925639D01*
X209494513Y-96925638D01*
X208898507Y-97521645D01*
X208870468Y-97453952D01*
X208802069Y-97351586D01*
X208715014Y-97264531D01*
X208612648Y-97196132D01*
X208544953Y-97168092D01*
X209140960Y-96572085D01*
X209138996Y-96547133D01*
X209137579Y-96545295D01*
X209131600Y-96475682D01*
X209164206Y-96413887D01*
X209180231Y-96400000D01*
X209253394Y-96346845D01*
X209413445Y-96186794D01*
X209506578Y-96058606D01*
X209561908Y-96015942D01*
X209631521Y-96009963D01*
X209693316Y-96042569D01*
X209694577Y-96043812D01*
X210613181Y-96962416D01*
X210646666Y-97023739D01*
X210649500Y-97050097D01*
X210649500Y-106156002D01*
X210629815Y-106223041D01*
X210613181Y-106243683D01*
X209966281Y-106890583D01*
X209904958Y-106924068D01*
X209835266Y-106919084D01*
X209779333Y-106877212D01*
X209754916Y-106811748D01*
X209754600Y-106802902D01*
X209754600Y-106776321D01*
X209719192Y-106552766D01*
X209686739Y-106452888D01*
X209649247Y-106337499D01*
X209649245Y-106337496D01*
X209649245Y-106337494D01*
X209546487Y-106135823D01*
X209413445Y-105952706D01*
X209253394Y-105792655D01*
X209180669Y-105739817D01*
X209138004Y-105684488D01*
X209132025Y-105614875D01*
X209164631Y-105553080D01*
X209180670Y-105539182D01*
X209208448Y-105519000D01*
X209253394Y-105486345D01*
X209413445Y-105326294D01*
X209546488Y-105143176D01*
X209649247Y-104941501D01*
X209719192Y-104726233D01*
X209730634Y-104653992D01*
X209754600Y-104502678D01*
X209754600Y-104276321D01*
X209719192Y-104052766D01*
X209649245Y-103837494D01*
X209579442Y-103700500D01*
X209546488Y-103635824D01*
X209413445Y-103452706D01*
X209253394Y-103292655D01*
X209070276Y-103159612D01*
X208868605Y-103056854D01*
X208653333Y-102986907D01*
X208429778Y-102951500D01*
X208429773Y-102951500D01*
X208203427Y-102951500D01*
X208203422Y-102951500D01*
X207979866Y-102986907D01*
X207764594Y-103056854D01*
X207562923Y-103159612D01*
X207379803Y-103292657D01*
X207219757Y-103452703D01*
X207086712Y-103635823D01*
X206983954Y-103837494D01*
X206914007Y-104052766D01*
X206878600Y-104276321D01*
X206878600Y-104502678D01*
X206914007Y-104726233D01*
X206983954Y-104941505D01*
X207072743Y-105115761D01*
X207086712Y-105143176D01*
X207219755Y-105326294D01*
X207379806Y-105486345D01*
X207424752Y-105519000D01*
X207452530Y-105539182D01*
X207495195Y-105594512D01*
X207501174Y-105664126D01*
X207468568Y-105725921D01*
X207452530Y-105739817D01*
X207379806Y-105792655D01*
X207379804Y-105792657D01*
X207379803Y-105792657D01*
X207219757Y-105952703D01*
X207086712Y-106135823D01*
X206983954Y-106337494D01*
X206914007Y-106552766D01*
X206878600Y-106776321D01*
X206878600Y-107002678D01*
X206914007Y-107226233D01*
X206983954Y-107441505D01*
X207075325Y-107620828D01*
X207086712Y-107643176D01*
X207219755Y-107826294D01*
X207379806Y-107986345D01*
X207452530Y-108039182D01*
X207495195Y-108094512D01*
X207501174Y-108164126D01*
X207468568Y-108225921D01*
X207452530Y-108239817D01*
X207379806Y-108292655D01*
X207379804Y-108292657D01*
X207379803Y-108292657D01*
X207219757Y-108452703D01*
X207086712Y-108635823D01*
X206983954Y-108837494D01*
X206914007Y-109052766D01*
X206878600Y-109276321D01*
X206878600Y-109502678D01*
X206914007Y-109726233D01*
X206983954Y-109941505D01*
X207064755Y-110100084D01*
X207086712Y-110143176D01*
X207219755Y-110326294D01*
X207379806Y-110486345D01*
X207452954Y-110539490D01*
X207495620Y-110594820D01*
X207501599Y-110664433D01*
X207494960Y-110677014D01*
X207492239Y-110711585D01*
X208088246Y-111307592D01*
X208020552Y-111335632D01*
X207918186Y-111404031D01*
X207831131Y-111491086D01*
X207762732Y-111593452D01*
X207734692Y-111661145D01*
X207138685Y-111065139D01*
X207087139Y-111136087D01*
X206984418Y-111337689D01*
X206914495Y-111552888D01*
X206879100Y-111776366D01*
X206879100Y-112002633D01*
X206914495Y-112226111D01*
X206984418Y-112441310D01*
X207087142Y-112642918D01*
X207138684Y-112713859D01*
X207138685Y-112713860D01*
X207734692Y-112117853D01*
X207762732Y-112185548D01*
X207831131Y-112287914D01*
X207918186Y-112374969D01*
X208020552Y-112443368D01*
X208088245Y-112471407D01*
X207492238Y-113067413D01*
X207563185Y-113118959D01*
X207764789Y-113221681D01*
X207979988Y-113291604D01*
X207979987Y-113291604D01*
X208203467Y-113327000D01*
X208429733Y-113327000D01*
X208653211Y-113291604D01*
X208868410Y-113221681D01*
X209070006Y-113118963D01*
X209070012Y-113118959D01*
X209140959Y-113067413D01*
X209140960Y-113067413D01*
X208544953Y-112471407D01*
X208612648Y-112443368D01*
X208715014Y-112374969D01*
X208802069Y-112287914D01*
X208870468Y-112185548D01*
X208898507Y-112117854D01*
X209494513Y-112713860D01*
X209494513Y-112713859D01*
X209546059Y-112642912D01*
X209546063Y-112642906D01*
X209648781Y-112441310D01*
X209718704Y-112226111D01*
X209754100Y-112002633D01*
X209754100Y-111800606D01*
X214367100Y-111800606D01*
X214367100Y-111978393D01*
X214394912Y-112153993D01*
X214449849Y-112323075D01*
X214449851Y-112323078D01*
X214529941Y-112480263D01*
X214530567Y-112481490D01*
X214635059Y-112625314D01*
X214760785Y-112751040D01*
X214895371Y-112848820D01*
X214904613Y-112855535D01*
X215063022Y-112936249D01*
X215063024Y-112936250D01*
X215147565Y-112963718D01*
X215232108Y-112991188D01*
X215407706Y-113019000D01*
X215407707Y-113019000D01*
X215585493Y-113019000D01*
X215585494Y-113019000D01*
X215761092Y-112991188D01*
X215930178Y-112936249D01*
X216088587Y-112855535D01*
X216169341Y-112796863D01*
X216232414Y-112751040D01*
X216232416Y-112751037D01*
X216232420Y-112751035D01*
X216358135Y-112625320D01*
X216358137Y-112625316D01*
X216358140Y-112625314D01*
X216403963Y-112562241D01*
X216462635Y-112481487D01*
X216543349Y-112323078D01*
X216598288Y-112153992D01*
X216626100Y-111978394D01*
X216626100Y-111800606D01*
X216598288Y-111625008D01*
X216561014Y-111510289D01*
X216543350Y-111455924D01*
X216504246Y-111379179D01*
X216462635Y-111297513D01*
X216440105Y-111266503D01*
X216358140Y-111153685D01*
X216232414Y-111027959D01*
X216088590Y-110923467D01*
X216088589Y-110923466D01*
X216088587Y-110923465D01*
X215999770Y-110878210D01*
X215930175Y-110842749D01*
X215761093Y-110787812D01*
X215646971Y-110769737D01*
X215585494Y-110760000D01*
X215407706Y-110760000D01*
X215349173Y-110769270D01*
X215232106Y-110787812D01*
X215063024Y-110842749D01*
X214904609Y-110923467D01*
X214760785Y-111027959D01*
X214635059Y-111153685D01*
X214530567Y-111297509D01*
X214449849Y-111455924D01*
X214394912Y-111625006D01*
X214367100Y-111800606D01*
X209754100Y-111800606D01*
X209754100Y-111776366D01*
X209718704Y-111552888D01*
X209648781Y-111337689D01*
X209546059Y-111136085D01*
X209494513Y-111065139D01*
X209494513Y-111065138D01*
X208898507Y-111661145D01*
X208870468Y-111593452D01*
X208802069Y-111491086D01*
X208715014Y-111404031D01*
X208612648Y-111335632D01*
X208544953Y-111307592D01*
X209140960Y-110711585D01*
X209138996Y-110686633D01*
X209137579Y-110684795D01*
X209131600Y-110615182D01*
X209164206Y-110553387D01*
X209180231Y-110539500D01*
X209253394Y-110486345D01*
X209413445Y-110326294D01*
X209546488Y-110143176D01*
X209649247Y-109941501D01*
X209719192Y-109726233D01*
X209754600Y-109502678D01*
X209754600Y-109276321D01*
X209719192Y-109052770D01*
X209719192Y-109052767D01*
X209689547Y-108961533D01*
X209687553Y-108891693D01*
X209719796Y-108835537D01*
X211618713Y-106936621D01*
X211618716Y-106936620D01*
X211730520Y-106824816D01*
X211780639Y-106738004D01*
X211809577Y-106687885D01*
X211850500Y-106535157D01*
X211850500Y-106377043D01*
X211850500Y-104300606D01*
X214367100Y-104300606D01*
X214367100Y-104478394D01*
X214370946Y-104502678D01*
X214394912Y-104653993D01*
X214449849Y-104823075D01*
X214530567Y-104981490D01*
X214635059Y-105125314D01*
X214760785Y-105251040D01*
X214865947Y-105327443D01*
X214904613Y-105355535D01*
X215063022Y-105436249D01*
X215063024Y-105436250D01*
X215147565Y-105463718D01*
X215232108Y-105491188D01*
X215407706Y-105519000D01*
X215407707Y-105519000D01*
X215585493Y-105519000D01*
X215585494Y-105519000D01*
X215761092Y-105491188D01*
X215930178Y-105436249D01*
X216088587Y-105355535D01*
X216169341Y-105296863D01*
X216232414Y-105251040D01*
X216232416Y-105251037D01*
X216232420Y-105251035D01*
X216358135Y-105125320D01*
X216358137Y-105125316D01*
X216358140Y-105125314D01*
X216428783Y-105028080D01*
X216462635Y-104981487D01*
X216543349Y-104823078D01*
X216598288Y-104653992D01*
X216626100Y-104478394D01*
X216626100Y-104300606D01*
X216598288Y-104125008D01*
X216543349Y-103955922D01*
X216462635Y-103797513D01*
X216455920Y-103788271D01*
X216358140Y-103653685D01*
X216232414Y-103527959D01*
X216088590Y-103423467D01*
X216088589Y-103423466D01*
X216088587Y-103423465D01*
X216009382Y-103383108D01*
X215930175Y-103342749D01*
X215761093Y-103287812D01*
X215673293Y-103273906D01*
X215585494Y-103260000D01*
X215407706Y-103260000D01*
X215349173Y-103269270D01*
X215232106Y-103287812D01*
X215063024Y-103342749D01*
X214904609Y-103423467D01*
X214760785Y-103527959D01*
X214635059Y-103653685D01*
X214530567Y-103797509D01*
X214449849Y-103955924D01*
X214394912Y-104125006D01*
X214394912Y-104125008D01*
X214367100Y-104300606D01*
X211850500Y-104300606D01*
X211850500Y-97661106D01*
X214367100Y-97661106D01*
X214367100Y-97838894D01*
X214381006Y-97926693D01*
X214394912Y-98014493D01*
X214449849Y-98183575D01*
X214468503Y-98220185D01*
X214511142Y-98303868D01*
X214530567Y-98341990D01*
X214635059Y-98485814D01*
X214760785Y-98611540D01*
X214871998Y-98692339D01*
X214904613Y-98716035D01*
X215061216Y-98795829D01*
X215063024Y-98796750D01*
X215074566Y-98800500D01*
X215232108Y-98851688D01*
X215407706Y-98879500D01*
X215407707Y-98879500D01*
X215585493Y-98879500D01*
X215585494Y-98879500D01*
X215761092Y-98851688D01*
X215930178Y-98796749D01*
X216088587Y-98716035D01*
X216205607Y-98631016D01*
X216232414Y-98611540D01*
X216232416Y-98611537D01*
X216232420Y-98611535D01*
X216358135Y-98485820D01*
X216358137Y-98485816D01*
X216358140Y-98485814D01*
X216435609Y-98379185D01*
X216462635Y-98341987D01*
X216543349Y-98183578D01*
X216598288Y-98014492D01*
X216626100Y-97838894D01*
X216626100Y-97661106D01*
X216598288Y-97485508D01*
X216563425Y-97378211D01*
X216543350Y-97316424D01*
X216528000Y-97286298D01*
X216462635Y-97158013D01*
X216435609Y-97120814D01*
X216358140Y-97014185D01*
X216232414Y-96888459D01*
X216088590Y-96783967D01*
X216088589Y-96783966D01*
X216088587Y-96783965D01*
X215983192Y-96730263D01*
X215930175Y-96703249D01*
X215761093Y-96648312D01*
X215673293Y-96634406D01*
X215585494Y-96620500D01*
X215407706Y-96620500D01*
X215349173Y-96629770D01*
X215232106Y-96648312D01*
X215063024Y-96703249D01*
X214904609Y-96783967D01*
X214760785Y-96888459D01*
X214635059Y-97014185D01*
X214530567Y-97158009D01*
X214449849Y-97316424D01*
X214394912Y-97485506D01*
X214394912Y-97485508D01*
X214367100Y-97661106D01*
X211850500Y-97661106D01*
X211850500Y-96670943D01*
X211809577Y-96518216D01*
X211809573Y-96518209D01*
X211730524Y-96381290D01*
X211730521Y-96381286D01*
X211730520Y-96381284D01*
X211618716Y-96269480D01*
X211618715Y-96269479D01*
X211614385Y-96265149D01*
X211614374Y-96265139D01*
X210237590Y-94888355D01*
X210237588Y-94888352D01*
X210118717Y-94769481D01*
X210118709Y-94769475D01*
X210005757Y-94704263D01*
X210005757Y-94704262D01*
X210005754Y-94704262D01*
X209981785Y-94690423D01*
X209829057Y-94649499D01*
X209700522Y-94649499D01*
X209633483Y-94629814D01*
X209590037Y-94581794D01*
X209563198Y-94529120D01*
X209546488Y-94496324D01*
X209413445Y-94313206D01*
X209253394Y-94153155D01*
X209180669Y-94100317D01*
X209138004Y-94044988D01*
X209132025Y-93975375D01*
X209164631Y-93913580D01*
X209180670Y-93899682D01*
X209253394Y-93846845D01*
X209413445Y-93686794D01*
X209546488Y-93503676D01*
X209649247Y-93302001D01*
X209719192Y-93086733D01*
X209729617Y-93020911D01*
X209754600Y-92863178D01*
X209754600Y-92636821D01*
X209719192Y-92413266D01*
X209649245Y-92197994D01*
X209546487Y-91996323D01*
X209413445Y-91813206D01*
X209253394Y-91653155D01*
X209180669Y-91600317D01*
X209138004Y-91544988D01*
X209132025Y-91475375D01*
X209164631Y-91413580D01*
X209180670Y-91399682D01*
X209208448Y-91379500D01*
X209253394Y-91346845D01*
X209413445Y-91186794D01*
X209546488Y-91003676D01*
X209649247Y-90802001D01*
X209719192Y-90586733D01*
X209735169Y-90485860D01*
X209754600Y-90363178D01*
X209754600Y-90161106D01*
X214367100Y-90161106D01*
X214367100Y-90338894D01*
X214370946Y-90363178D01*
X214394912Y-90514493D01*
X214449849Y-90683575D01*
X214530567Y-90841990D01*
X214635059Y-90985814D01*
X214760785Y-91111540D01*
X214895371Y-91209320D01*
X214904613Y-91216035D01*
X215063022Y-91296749D01*
X215063024Y-91296750D01*
X215143578Y-91322923D01*
X215232108Y-91351688D01*
X215407706Y-91379500D01*
X215407707Y-91379500D01*
X215585493Y-91379500D01*
X215585494Y-91379500D01*
X215761092Y-91351688D01*
X215930178Y-91296749D01*
X216088587Y-91216035D01*
X216169341Y-91157363D01*
X216232414Y-91111540D01*
X216232416Y-91111537D01*
X216232420Y-91111535D01*
X216358135Y-90985820D01*
X216358137Y-90985816D01*
X216358140Y-90985814D01*
X216403963Y-90922741D01*
X216462635Y-90841987D01*
X216543349Y-90683578D01*
X216598288Y-90514492D01*
X216626100Y-90338894D01*
X216626100Y-90161106D01*
X216598288Y-89985508D01*
X216547386Y-89828846D01*
X216543350Y-89816424D01*
X216498938Y-89729262D01*
X216462635Y-89658013D01*
X216394463Y-89564181D01*
X216358140Y-89514185D01*
X216232414Y-89388459D01*
X216088590Y-89283967D01*
X216088589Y-89283966D01*
X216088587Y-89283965D01*
X215938751Y-89207619D01*
X215930175Y-89203249D01*
X215761093Y-89148312D01*
X215673293Y-89134406D01*
X215585494Y-89120500D01*
X215407706Y-89120500D01*
X215349173Y-89129770D01*
X215232106Y-89148312D01*
X215063024Y-89203249D01*
X214904609Y-89283967D01*
X214760785Y-89388459D01*
X214635059Y-89514185D01*
X214530567Y-89658009D01*
X214449849Y-89816424D01*
X214394912Y-89985506D01*
X214378072Y-90091832D01*
X214367100Y-90161106D01*
X209754600Y-90161106D01*
X209754600Y-90136821D01*
X209719192Y-89913266D01*
X209659405Y-89729262D01*
X209649247Y-89697999D01*
X209649245Y-89697996D01*
X209649245Y-89697994D01*
X209581063Y-89564181D01*
X209546488Y-89496324D01*
X209413445Y-89313206D01*
X209253394Y-89153155D01*
X209070276Y-89020112D01*
X208868605Y-88917354D01*
X208653333Y-88847407D01*
X208429778Y-88812000D01*
X208429773Y-88812000D01*
X208203427Y-88812000D01*
X208203422Y-88812000D01*
X207979866Y-88847407D01*
X207764594Y-88917354D01*
X207562923Y-89020112D01*
X207379803Y-89153157D01*
X207219757Y-89313203D01*
X207086712Y-89496323D01*
X206983954Y-89697994D01*
X206914007Y-89913266D01*
X206878600Y-90136821D01*
X193203500Y-90136821D01*
X193203500Y-86773716D01*
X193203501Y-86773703D01*
X193203501Y-86605602D01*
X193203501Y-86605600D01*
X193162577Y-86452872D01*
X193133639Y-86402752D01*
X193083520Y-86315941D01*
X192971716Y-86204137D01*
X192971715Y-86204136D01*
X192967385Y-86199806D01*
X192967374Y-86199796D01*
X191282805Y-84515227D01*
X191249320Y-84453904D01*
X191254304Y-84384212D01*
X191267382Y-84358658D01*
X191342830Y-84245743D01*
X191403173Y-84100061D01*
X191433936Y-83945406D01*
X191433936Y-83787722D01*
X191433936Y-83787719D01*
X191433935Y-83787717D01*
X191422507Y-83730264D01*
X191403173Y-83633067D01*
X191388372Y-83597333D01*
X191342833Y-83487391D01*
X191342826Y-83487378D01*
X191255225Y-83356275D01*
X191255222Y-83356271D01*
X191143728Y-83244777D01*
X191143724Y-83244774D01*
X191012621Y-83157173D01*
X191012608Y-83157166D01*
X190866937Y-83096828D01*
X190866925Y-83096825D01*
X190712281Y-83066064D01*
X190712278Y-83066064D01*
X190554594Y-83066064D01*
X190503412Y-83076244D01*
X190433821Y-83070015D01*
X190391542Y-83042307D01*
X181382590Y-74033355D01*
X181382588Y-74033352D01*
X181263717Y-73914481D01*
X181263709Y-73914475D01*
X181176009Y-73863842D01*
X181176008Y-73863842D01*
X181140842Y-73843539D01*
X181126785Y-73835423D01*
X180974057Y-73794499D01*
X180815943Y-73794499D01*
X180808347Y-73794499D01*
X180808331Y-73794500D01*
X175145850Y-73794500D01*
X175078811Y-73774815D01*
X175033056Y-73722011D01*
X175023112Y-73652853D01*
X175052137Y-73589297D01*
X175076959Y-73567398D01*
X175097766Y-73553494D01*
X175244644Y-73455354D01*
X175525701Y-73224697D01*
X175782797Y-72967601D01*
X176013454Y-72686544D01*
X176215453Y-72384232D01*
X176386847Y-72063576D01*
X176525986Y-71727664D01*
X176631530Y-71379733D01*
X176631532Y-71379723D01*
X176631535Y-71379712D01*
X176702462Y-71023130D01*
X176738100Y-70661294D01*
X176738100Y-70297709D01*
X200077100Y-70297709D01*
X200077100Y-70661290D01*
X200112737Y-71023130D01*
X200183664Y-71379712D01*
X200183667Y-71379723D01*
X200289214Y-71727665D01*
X200428354Y-72063578D01*
X200428356Y-72063583D01*
X200599740Y-72384220D01*
X200599744Y-72384227D01*
X200599747Y-72384232D01*
X200794606Y-72675859D01*
X200801740Y-72686535D01*
X200801750Y-72686549D01*
X201032407Y-72967606D01*
X201289493Y-73224692D01*
X201289498Y-73224696D01*
X201289499Y-73224697D01*
X201570556Y-73455354D01*
X201872868Y-73657353D01*
X201872877Y-73657358D01*
X201872879Y-73657359D01*
X202193516Y-73828743D01*
X202193518Y-73828743D01*
X202193524Y-73828747D01*
X202529436Y-73967886D01*
X202877367Y-74073430D01*
X202877373Y-74073431D01*
X202877376Y-74073432D01*
X202877387Y-74073435D01*
X203233969Y-74144362D01*
X203595806Y-74180000D01*
X203595809Y-74180000D01*
X203959391Y-74180000D01*
X203959394Y-74180000D01*
X204321231Y-74144362D01*
X204390645Y-74130554D01*
X204677812Y-74073435D01*
X204677823Y-74073432D01*
X204677823Y-74073431D01*
X204677833Y-74073430D01*
X205025764Y-73967886D01*
X205361676Y-73828747D01*
X205682332Y-73657353D01*
X205984644Y-73455354D01*
X206265701Y-73224697D01*
X206522797Y-72967601D01*
X206753454Y-72686544D01*
X206955453Y-72384232D01*
X207126847Y-72063576D01*
X207265986Y-71727664D01*
X207371530Y-71379733D01*
X207371532Y-71379723D01*
X207371535Y-71379712D01*
X207442462Y-71023130D01*
X207478100Y-70661294D01*
X207478100Y-70297706D01*
X207442462Y-69935869D01*
X207431705Y-69881790D01*
X207371535Y-69579287D01*
X207371532Y-69579276D01*
X207371531Y-69579273D01*
X207371530Y-69579267D01*
X207265986Y-69231336D01*
X207126847Y-68895424D01*
X207100121Y-68845424D01*
X206955459Y-68574779D01*
X206955458Y-68574777D01*
X206955453Y-68574768D01*
X206753454Y-68272456D01*
X206522797Y-67991399D01*
X206522796Y-67991398D01*
X206522792Y-67991393D01*
X206265706Y-67734307D01*
X205984649Y-67503650D01*
X205984648Y-67503649D01*
X205984644Y-67503646D01*
X205682332Y-67301647D01*
X205682327Y-67301644D01*
X205682320Y-67301640D01*
X205361683Y-67130256D01*
X205361678Y-67130254D01*
X205025765Y-66991114D01*
X204677823Y-66885567D01*
X204677812Y-66885564D01*
X204321230Y-66814637D01*
X204048711Y-66787796D01*
X203959394Y-66779000D01*
X203595806Y-66779000D01*
X203513279Y-66787128D01*
X203233969Y-66814637D01*
X202877387Y-66885564D01*
X202877376Y-66885567D01*
X202529434Y-66991114D01*
X202193521Y-67130254D01*
X202193516Y-67130256D01*
X201872879Y-67301640D01*
X201872861Y-67301651D01*
X201570564Y-67503640D01*
X201570550Y-67503650D01*
X201289493Y-67734307D01*
X201032407Y-67991393D01*
X200801750Y-68272450D01*
X200801740Y-68272464D01*
X200599751Y-68574761D01*
X200599740Y-68574779D01*
X200428356Y-68895416D01*
X200428354Y-68895421D01*
X200289214Y-69231334D01*
X200183667Y-69579276D01*
X200183664Y-69579287D01*
X200112737Y-69935869D01*
X200089478Y-70172031D01*
X200083484Y-70232894D01*
X200077100Y-70297709D01*
X176738100Y-70297709D01*
X176738100Y-70297706D01*
X176702462Y-69935869D01*
X176691705Y-69881790D01*
X176631535Y-69579287D01*
X176631532Y-69579276D01*
X176631531Y-69579273D01*
X176631530Y-69579267D01*
X176525986Y-69231336D01*
X176386847Y-68895424D01*
X176360121Y-68845424D01*
X176215459Y-68574779D01*
X176215458Y-68574777D01*
X176215453Y-68574768D01*
X176013454Y-68272456D01*
X175782797Y-67991399D01*
X175782796Y-67991398D01*
X175782792Y-67991393D01*
X175525706Y-67734307D01*
X175244649Y-67503650D01*
X175244648Y-67503649D01*
X175244644Y-67503646D01*
X174942332Y-67301647D01*
X174942327Y-67301644D01*
X174942320Y-67301640D01*
X174621683Y-67130256D01*
X174621678Y-67130254D01*
X174285765Y-66991114D01*
X173937823Y-66885567D01*
X173937812Y-66885564D01*
X173581230Y-66814637D01*
X173308711Y-66787796D01*
X173219394Y-66779000D01*
X172855806Y-66779000D01*
X172773279Y-66787128D01*
X172493969Y-66814637D01*
X172137387Y-66885564D01*
X172137376Y-66885567D01*
X171789434Y-66991114D01*
X171453521Y-67130254D01*
X171453516Y-67130256D01*
X171132879Y-67301640D01*
X171132861Y-67301651D01*
X170830564Y-67503640D01*
X170830550Y-67503650D01*
X170549493Y-67734307D01*
X170292407Y-67991393D01*
X170061750Y-68272450D01*
X170061740Y-68272464D01*
X169859751Y-68574761D01*
X169859740Y-68574779D01*
X169688356Y-68895416D01*
X169688354Y-68895421D01*
X169549214Y-69231334D01*
X169443667Y-69579276D01*
X169443664Y-69579287D01*
X169372737Y-69935869D01*
X169349478Y-70172031D01*
X169343484Y-70232894D01*
X169337100Y-70297709D01*
X169337100Y-70661290D01*
X169372737Y-71023130D01*
X169443664Y-71379712D01*
X169443667Y-71379723D01*
X169549214Y-71727665D01*
X169688354Y-72063578D01*
X169688356Y-72063583D01*
X169859740Y-72384220D01*
X169859744Y-72384227D01*
X169859747Y-72384232D01*
X170054606Y-72675859D01*
X170061740Y-72686535D01*
X170061750Y-72686549D01*
X170292407Y-72967606D01*
X170549493Y-73224692D01*
X170549498Y-73224696D01*
X170549499Y-73224697D01*
X170830556Y-73455354D01*
X170905262Y-73505271D01*
X170998241Y-73567398D01*
X171043046Y-73621010D01*
X171051753Y-73690335D01*
X171021599Y-73753363D01*
X170962155Y-73790082D01*
X170929350Y-73794500D01*
X169695097Y-73794500D01*
X169628058Y-73774815D01*
X169607416Y-73758181D01*
X167636819Y-71787584D01*
X167603334Y-71726261D01*
X167600500Y-71699903D01*
X167600500Y-70589060D01*
X167600501Y-70589047D01*
X167600501Y-70420944D01*
X167593290Y-70394032D01*
X167559577Y-70268216D01*
X167545383Y-70243631D01*
X167480524Y-70131290D01*
X167480518Y-70131282D01*
X167208617Y-69859381D01*
X167208616Y-69859380D01*
X167121804Y-69809260D01*
X167121804Y-69809259D01*
X167121800Y-69809258D01*
X167071685Y-69780323D01*
X166918957Y-69739399D01*
X166760843Y-69739399D01*
X166753247Y-69739399D01*
X166753231Y-69739400D01*
X163399669Y-69739400D01*
X163399653Y-69739399D01*
X163392057Y-69739399D01*
X163233943Y-69739399D01*
X163126587Y-69768165D01*
X163081210Y-69780324D01*
X163081209Y-69780325D01*
X163031096Y-69809259D01*
X163031095Y-69809260D01*
X162987689Y-69834320D01*
X162944285Y-69859379D01*
X162944282Y-69859381D01*
X162832480Y-69971183D01*
X162832480Y-69971184D01*
X162832478Y-69971186D01*
X162734904Y-70068760D01*
X162664526Y-70139138D01*
X162603203Y-70172622D01*
X162550478Y-70172058D01*
X162550448Y-70172249D01*
X162549156Y-70172044D01*
X162547903Y-70172031D01*
X162545636Y-70171486D01*
X162376196Y-70144650D01*
X162349361Y-70140400D01*
X162150639Y-70140400D01*
X162085214Y-70150762D01*
X161954362Y-70171487D01*
X161765370Y-70232893D01*
X161765367Y-70232894D01*
X161588305Y-70323113D01*
X161427533Y-70439921D01*
X161287021Y-70580433D01*
X161170213Y-70741205D01*
X161079994Y-70918267D01*
X161079993Y-70918270D01*
X161018587Y-71107262D01*
X160987500Y-71303539D01*
X160987500Y-71502260D01*
X161018587Y-71698537D01*
X161079993Y-71887529D01*
X161079994Y-71887532D01*
X161094934Y-71916852D01*
X161170213Y-72064594D01*
X161287019Y-72225364D01*
X161427536Y-72365881D01*
X161588306Y-72482687D01*
X161706832Y-72543079D01*
X161744780Y-72562415D01*
X161795576Y-72610390D01*
X161812371Y-72678211D01*
X161789833Y-72744346D01*
X161744780Y-72783385D01*
X161588305Y-72863113D01*
X161427533Y-72979921D01*
X161287021Y-73120433D01*
X161170213Y-73281205D01*
X161079994Y-73458267D01*
X161079993Y-73458270D01*
X161018587Y-73647262D01*
X161001019Y-73758181D01*
X160987500Y-73843539D01*
X160987500Y-74042261D01*
X160996819Y-74101103D01*
X160987866Y-74170395D01*
X160942870Y-74223847D01*
X160876118Y-74244487D01*
X160874347Y-74244500D01*
X126124000Y-74244500D01*
X126123991Y-74244500D01*
X126123990Y-74244501D01*
X126016549Y-74256052D01*
X126016537Y-74256054D01*
X125965027Y-74267260D01*
X125862502Y-74301383D01*
X125862496Y-74301386D01*
X125741462Y-74379171D01*
X125741451Y-74379179D01*
X125688659Y-74424923D01*
X125594433Y-74533664D01*
X125594430Y-74533668D01*
X125534664Y-74664534D01*
X125514976Y-74731582D01*
X125494500Y-74874001D01*
X125494500Y-76207466D01*
X125485061Y-76254920D01*
X125480262Y-76266505D01*
X125480261Y-76266505D01*
X125449500Y-76421153D01*
X125449500Y-76578846D01*
X125480261Y-76733489D01*
X125480263Y-76733497D01*
X125485061Y-76745080D01*
X125494500Y-76792533D01*
X125494500Y-83685738D01*
X125474815Y-83752777D01*
X125422011Y-83798532D01*
X125352853Y-83808476D01*
X125289297Y-83779451D01*
X125255939Y-83733190D01*
X125209397Y-83620827D01*
X125209390Y-83620814D01*
X125121398Y-83489125D01*
X125100520Y-83422447D01*
X125100500Y-83420234D01*
X125100500Y-80589060D01*
X125100501Y-80589047D01*
X125100501Y-80420944D01*
X125095871Y-80403665D01*
X125059577Y-80268216D01*
X125051550Y-80254313D01*
X124980524Y-80131290D01*
X124980518Y-80131282D01*
X124835114Y-79985878D01*
X124688833Y-79839598D01*
X124655349Y-79778276D01*
X124660333Y-79708585D01*
X124673410Y-79683032D01*
X124709394Y-79629179D01*
X124769737Y-79483497D01*
X124800500Y-79328842D01*
X124800500Y-79171158D01*
X124800500Y-79171155D01*
X124800499Y-79171153D01*
X124790774Y-79122261D01*
X124769737Y-79016503D01*
X124759238Y-78991156D01*
X124709397Y-78870827D01*
X124709390Y-78870814D01*
X124621789Y-78739711D01*
X124621786Y-78739707D01*
X124510292Y-78628213D01*
X124510288Y-78628210D01*
X124379185Y-78540609D01*
X124379172Y-78540602D01*
X124233501Y-78480264D01*
X124233489Y-78480261D01*
X124078845Y-78449500D01*
X124078842Y-78449500D01*
X123921158Y-78449500D01*
X123921155Y-78449500D01*
X123766510Y-78480261D01*
X123766498Y-78480264D01*
X123620827Y-78540602D01*
X123620814Y-78540609D01*
X123489711Y-78628210D01*
X123489707Y-78628213D01*
X123378213Y-78739707D01*
X123378210Y-78739711D01*
X123290609Y-78870814D01*
X123290602Y-78870827D01*
X123230264Y-79016498D01*
X123230261Y-79016510D01*
X123199500Y-79171153D01*
X123199500Y-79328846D01*
X123230261Y-79483489D01*
X123230264Y-79483501D01*
X123290602Y-79629172D01*
X123290609Y-79629185D01*
X123378602Y-79760874D01*
X123384252Y-79778920D01*
X123394477Y-79794830D01*
X123398928Y-79825789D01*
X123399480Y-79827551D01*
X123399500Y-79829765D01*
X123399500Y-79913330D01*
X123399499Y-79913348D01*
X123399499Y-80079054D01*
X123399498Y-80079054D01*
X123411656Y-80124427D01*
X123440423Y-80231785D01*
X123440424Y-80231787D01*
X123440423Y-80231787D01*
X123453430Y-80254314D01*
X123453431Y-80254316D01*
X123519475Y-80368709D01*
X123519479Y-80368714D01*
X123519480Y-80368716D01*
X123631284Y-80480520D01*
X123631285Y-80480521D01*
X123751264Y-80600500D01*
X123863181Y-80712416D01*
X123896666Y-80773739D01*
X123899500Y-80800097D01*
X123899500Y-83420234D01*
X123894694Y-83436984D01*
X123894902Y-83453687D01*
X123881616Y-83482571D01*
X123880641Y-83485971D01*
X123878455Y-83489466D01*
X123878211Y-83489711D01*
X123790606Y-83620821D01*
X123779373Y-83647938D01*
X123773900Y-83656693D01*
X123755186Y-83673320D01*
X123739477Y-83692814D01*
X123729515Y-83696129D01*
X123721669Y-83703101D01*
X123696936Y-83706971D01*
X123673182Y-83714877D01*
X123655512Y-83713454D01*
X123652639Y-83713904D01*
X123650753Y-83713071D01*
X123644568Y-83712573D01*
X123578846Y-83699500D01*
X123578842Y-83699500D01*
X123421158Y-83699500D01*
X123421155Y-83699500D01*
X123266510Y-83730261D01*
X123266498Y-83730264D01*
X123120827Y-83790602D01*
X123120814Y-83790609D01*
X122989711Y-83878210D01*
X122989707Y-83878213D01*
X122912181Y-83955740D01*
X122850858Y-83989225D01*
X122781166Y-83984241D01*
X122725233Y-83942369D01*
X122700816Y-83876905D01*
X122700500Y-83868059D01*
X122700500Y-83054140D01*
X122673581Y-82918813D01*
X122673580Y-82918812D01*
X122673580Y-82918808D01*
X122667105Y-82903176D01*
X122620778Y-82791331D01*
X122620776Y-82791327D01*
X122620775Y-82791325D01*
X122571696Y-82717873D01*
X122544114Y-82676593D01*
X122544112Y-82676590D01*
X122544109Y-82676587D01*
X121903338Y-82035817D01*
X121869853Y-81974494D01*
X121874837Y-81904803D01*
X121903338Y-81860455D01*
X122294112Y-81469681D01*
X122294114Y-81469679D01*
X122370775Y-81354947D01*
X122423580Y-81227464D01*
X122450500Y-81092130D01*
X122450500Y-80954142D01*
X122450500Y-76425316D01*
X122459939Y-76377864D01*
X122506065Y-76266505D01*
X122519737Y-76233497D01*
X122550500Y-76078842D01*
X122550500Y-75921158D01*
X122550500Y-75921155D01*
X122550499Y-75921153D01*
X122519738Y-75766510D01*
X122519737Y-75766503D01*
X122519735Y-75766498D01*
X122459397Y-75620827D01*
X122459390Y-75620814D01*
X122371789Y-75489711D01*
X122371786Y-75489707D01*
X122260292Y-75378213D01*
X122260288Y-75378210D01*
X122129185Y-75290609D01*
X122129172Y-75290602D01*
X121983501Y-75230264D01*
X121983489Y-75230261D01*
X121828845Y-75199500D01*
X121828842Y-75199500D01*
X121671158Y-75199500D01*
X121671153Y-75199500D01*
X121552322Y-75223137D01*
X121482730Y-75216910D01*
X121427553Y-75174047D01*
X121406514Y-75125714D01*
X121394737Y-75066503D01*
X121376588Y-75022687D01*
X121334397Y-74920827D01*
X121334390Y-74920814D01*
X121246789Y-74789711D01*
X121246786Y-74789707D01*
X121135292Y-74678213D01*
X121135288Y-74678210D01*
X121004185Y-74590609D01*
X121004172Y-74590602D01*
X120858501Y-74530264D01*
X120858489Y-74530261D01*
X120703845Y-74499500D01*
X120703842Y-74499500D01*
X120546158Y-74499500D01*
X120546155Y-74499500D01*
X120391510Y-74530261D01*
X120391498Y-74530264D01*
X120245827Y-74590602D01*
X120245814Y-74590609D01*
X120114711Y-74678210D01*
X120114707Y-74678213D01*
X120003213Y-74789707D01*
X120003210Y-74789711D01*
X119915609Y-74920814D01*
X119915602Y-74920827D01*
X119855264Y-75066498D01*
X119855261Y-75066508D01*
X119830569Y-75190642D01*
X119798184Y-75252553D01*
X119796633Y-75254131D01*
X119519481Y-75531282D01*
X119519479Y-75531284D01*
X119491797Y-75579232D01*
X119480096Y-75599500D01*
X119440423Y-75668215D01*
X119399499Y-75820943D01*
X119399499Y-75820945D01*
X119399499Y-75989046D01*
X119399500Y-75989059D01*
X119399500Y-78520236D01*
X119379815Y-78587275D01*
X119378602Y-78589127D01*
X119290609Y-78720816D01*
X119290602Y-78720829D01*
X119230264Y-78866500D01*
X119230261Y-78866512D01*
X119199500Y-79021155D01*
X119199500Y-79178848D01*
X119230261Y-79333491D01*
X119230264Y-79333503D01*
X119290602Y-79479174D01*
X119290609Y-79479187D01*
X119378210Y-79610290D01*
X119378213Y-79610294D01*
X119403682Y-79635763D01*
X119437167Y-79697086D01*
X119432183Y-79766778D01*
X119424013Y-79784120D01*
X119423658Y-79784976D01*
X119412722Y-79825789D01*
X119382733Y-79937709D01*
X119382733Y-79937711D01*
X119382733Y-80105812D01*
X119382734Y-80105825D01*
X119382734Y-83903468D01*
X119363049Y-83970507D01*
X119361836Y-83972359D01*
X119273843Y-84104048D01*
X119273836Y-84104061D01*
X119213498Y-84249732D01*
X119213495Y-84249744D01*
X119182734Y-84404387D01*
X119182734Y-84562080D01*
X119213495Y-84716723D01*
X119213498Y-84716735D01*
X119273836Y-84862406D01*
X119273843Y-84862419D01*
X119361444Y-84993522D01*
X119361447Y-84993526D01*
X119382383Y-85014462D01*
X119415868Y-85075785D01*
X119414477Y-85134236D01*
X119382733Y-85252707D01*
X119382733Y-85420810D01*
X119382734Y-85420823D01*
X119382734Y-88903468D01*
X119363049Y-88970507D01*
X119361836Y-88972359D01*
X119273843Y-89104048D01*
X119273836Y-89104061D01*
X119213498Y-89249732D01*
X119213495Y-89249744D01*
X119182734Y-89404387D01*
X119182734Y-89562080D01*
X119213495Y-89716723D01*
X119213498Y-89716735D01*
X119273836Y-89862406D01*
X119273843Y-89862419D01*
X119349285Y-89975325D01*
X119358769Y-90005616D01*
X119369867Y-90035369D01*
X119369136Y-90038725D01*
X119370163Y-90042003D01*
X119361761Y-90072629D01*
X119355015Y-90103642D01*
X119352235Y-90107355D01*
X119351679Y-90109383D01*
X119333865Y-90131897D01*
X119230286Y-90235476D01*
X119230285Y-90235476D01*
X119230284Y-90235477D01*
X119118481Y-90347280D01*
X119118477Y-90347285D01*
X119081139Y-90411957D01*
X119081135Y-90411965D01*
X119077017Y-90419099D01*
X119039423Y-90484213D01*
X119017201Y-90567143D01*
X119014150Y-90574550D01*
X118997093Y-90595798D01*
X118982910Y-90619067D01*
X118975541Y-90622646D01*
X118970412Y-90629036D01*
X118944573Y-90637689D01*
X118920063Y-90649596D01*
X118911927Y-90648623D01*
X118904159Y-90651225D01*
X118877743Y-90644536D01*
X118850687Y-90641301D01*
X118844369Y-90636085D01*
X118836428Y-90634074D01*
X118817824Y-90614167D01*
X118796809Y-90596816D01*
X118794313Y-90589010D01*
X118788721Y-90583026D01*
X118783833Y-90556223D01*
X118775535Y-90530264D01*
X118775500Y-90527313D01*
X118775500Y-71916852D01*
X118795185Y-71849813D01*
X118847989Y-71804058D01*
X118917147Y-71794114D01*
X118980703Y-71823139D01*
X119002601Y-71847960D01*
X119012694Y-71863065D01*
X119041740Y-71906535D01*
X119041750Y-71906549D01*
X119272407Y-72187606D01*
X119529493Y-72444692D01*
X119529498Y-72444696D01*
X119529499Y-72444697D01*
X119810556Y-72675354D01*
X120112868Y-72877353D01*
X120112877Y-72877358D01*
X120112879Y-72877359D01*
X120433516Y-73048743D01*
X120433518Y-73048743D01*
X120433524Y-73048747D01*
X120769436Y-73187886D01*
X121117367Y-73293430D01*
X121117373Y-73293431D01*
X121117376Y-73293432D01*
X121117387Y-73293435D01*
X121473969Y-73364362D01*
X121835806Y-73400000D01*
X121835809Y-73400000D01*
X122199391Y-73400000D01*
X122199394Y-73400000D01*
X122561231Y-73364362D01*
X122630645Y-73350554D01*
X122917812Y-73293435D01*
X122917823Y-73293432D01*
X122917823Y-73293431D01*
X122917833Y-73293430D01*
X123265764Y-73187886D01*
X123601676Y-73048747D01*
X123922332Y-72877353D01*
X124224644Y-72675354D01*
X124505701Y-72444697D01*
X124762797Y-72187601D01*
X124993454Y-71906544D01*
X125195453Y-71604232D01*
X125366847Y-71283576D01*
X125505986Y-70947664D01*
X125611530Y-70599733D01*
X125611532Y-70599723D01*
X125611535Y-70599712D01*
X125677474Y-70268209D01*
X125682462Y-70243131D01*
X125718100Y-69881294D01*
X125718100Y-69517706D01*
X125687400Y-69206005D01*
X126619400Y-69206005D01*
X126619400Y-69391992D01*
X126648495Y-69575692D01*
X126705966Y-69752573D01*
X126705967Y-69752576D01*
X126771551Y-69881290D01*
X126790405Y-69918293D01*
X126899726Y-70068760D01*
X127031239Y-70200273D01*
X127181706Y-70309594D01*
X127208239Y-70323113D01*
X127347422Y-70394031D01*
X127347425Y-70394032D01*
X127430250Y-70420943D01*
X127524308Y-70451504D01*
X127708006Y-70480599D01*
X127708007Y-70480599D01*
X127893993Y-70480599D01*
X127893994Y-70480599D01*
X128077692Y-70451504D01*
X128254577Y-70394031D01*
X128420294Y-70309594D01*
X128570761Y-70200273D01*
X128702274Y-70068760D01*
X128811595Y-69918293D01*
X128896032Y-69752576D01*
X128953505Y-69575691D01*
X128982600Y-69391993D01*
X128982600Y-69206005D01*
X141619400Y-69206005D01*
X141619400Y-69391992D01*
X141648495Y-69575692D01*
X141705966Y-69752573D01*
X141705967Y-69752576D01*
X141771551Y-69881290D01*
X141790405Y-69918293D01*
X141899726Y-70068760D01*
X142031239Y-70200273D01*
X142181706Y-70309594D01*
X142208239Y-70323113D01*
X142347422Y-70394031D01*
X142347425Y-70394032D01*
X142430250Y-70420943D01*
X142524308Y-70451504D01*
X142708006Y-70480599D01*
X142708007Y-70480599D01*
X142893993Y-70480599D01*
X142893994Y-70480599D01*
X143077692Y-70451504D01*
X143254577Y-70394031D01*
X143420294Y-70309594D01*
X143570761Y-70200273D01*
X143702274Y-70068760D01*
X143811595Y-69918293D01*
X143896032Y-69752576D01*
X143953505Y-69575691D01*
X143982600Y-69391993D01*
X143982600Y-69206005D01*
X143978815Y-69182106D01*
X147361500Y-69182106D01*
X147361500Y-69359893D01*
X147389312Y-69535493D01*
X147444249Y-69704575D01*
X147444251Y-69704578D01*
X147523127Y-69859380D01*
X147524967Y-69862990D01*
X147629459Y-70006814D01*
X147755185Y-70132540D01*
X147889771Y-70230320D01*
X147899013Y-70237035D01*
X148018086Y-70297706D01*
X148057424Y-70317750D01*
X148141965Y-70345218D01*
X148226508Y-70372688D01*
X148402106Y-70400500D01*
X148402107Y-70400500D01*
X148579893Y-70400500D01*
X148579894Y-70400500D01*
X148755492Y-70372688D01*
X148924578Y-70317749D01*
X149082987Y-70237035D01*
X149217732Y-70139138D01*
X149226814Y-70132540D01*
X149226816Y-70132537D01*
X149226820Y-70132535D01*
X149352535Y-70006820D01*
X149352537Y-70006816D01*
X149352540Y-70006814D01*
X149398363Y-69943741D01*
X149457035Y-69862987D01*
X149537749Y-69704578D01*
X149592688Y-69535492D01*
X149620500Y-69359894D01*
X149620500Y-69182106D01*
X154861500Y-69182106D01*
X154861500Y-69359893D01*
X154889312Y-69535493D01*
X154944249Y-69704575D01*
X154944251Y-69704578D01*
X155023127Y-69859380D01*
X155024967Y-69862990D01*
X155129459Y-70006814D01*
X155255185Y-70132540D01*
X155389771Y-70230320D01*
X155399013Y-70237035D01*
X155518086Y-70297706D01*
X155557424Y-70317750D01*
X155641965Y-70345218D01*
X155726508Y-70372688D01*
X155902106Y-70400500D01*
X155902107Y-70400500D01*
X156079893Y-70400500D01*
X156079894Y-70400500D01*
X156255492Y-70372688D01*
X156424578Y-70317749D01*
X156582987Y-70237035D01*
X156717732Y-70139138D01*
X156726814Y-70132540D01*
X156726816Y-70132537D01*
X156726820Y-70132535D01*
X156852535Y-70006820D01*
X156852537Y-70006816D01*
X156852540Y-70006814D01*
X156898363Y-69943741D01*
X156957035Y-69862987D01*
X157037749Y-69704578D01*
X157092688Y-69535492D01*
X157120500Y-69359894D01*
X157120500Y-69182106D01*
X157092688Y-69006508D01*
X157040349Y-68845424D01*
X157037750Y-68837424D01*
X157018567Y-68799776D01*
X156957035Y-68679013D01*
X156950320Y-68669771D01*
X156852540Y-68535185D01*
X156726814Y-68409459D01*
X156582990Y-68304967D01*
X156582989Y-68304966D01*
X156582987Y-68304965D01*
X156503782Y-68264608D01*
X156424575Y-68224249D01*
X156255493Y-68169312D01*
X156167693Y-68155406D01*
X156079894Y-68141500D01*
X155902106Y-68141500D01*
X155843573Y-68150770D01*
X155726506Y-68169312D01*
X155557424Y-68224249D01*
X155399009Y-68304967D01*
X155255185Y-68409459D01*
X155129459Y-68535185D01*
X155024967Y-68679009D01*
X154944249Y-68837424D01*
X154889312Y-69006506D01*
X154861500Y-69182106D01*
X149620500Y-69182106D01*
X149592688Y-69006508D01*
X149540349Y-68845424D01*
X149537750Y-68837424D01*
X149518567Y-68799776D01*
X149457035Y-68679013D01*
X149450320Y-68669771D01*
X149352540Y-68535185D01*
X149226814Y-68409459D01*
X149082990Y-68304967D01*
X149082989Y-68304966D01*
X149082987Y-68304965D01*
X149003782Y-68264608D01*
X148924575Y-68224249D01*
X148755493Y-68169312D01*
X148667693Y-68155406D01*
X148579894Y-68141500D01*
X148402106Y-68141500D01*
X148343573Y-68150770D01*
X148226506Y-68169312D01*
X148057424Y-68224249D01*
X147899009Y-68304967D01*
X147755185Y-68409459D01*
X147629459Y-68535185D01*
X147524967Y-68679009D01*
X147444249Y-68837424D01*
X147389312Y-69006506D01*
X147361500Y-69182106D01*
X143978815Y-69182106D01*
X143953505Y-69022307D01*
X143896032Y-68845422D01*
X143896032Y-68845421D01*
X143853008Y-68760984D01*
X143811595Y-68679705D01*
X143702274Y-68529238D01*
X143570761Y-68397725D01*
X143420294Y-68288404D01*
X143389010Y-68272464D01*
X143254577Y-68203966D01*
X143254574Y-68203965D01*
X143077693Y-68146494D01*
X142985843Y-68131946D01*
X142893994Y-68117399D01*
X142708006Y-68117399D01*
X142646773Y-68127097D01*
X142524306Y-68146494D01*
X142347425Y-68203965D01*
X142347422Y-68203966D01*
X142181705Y-68288404D01*
X142099975Y-68347785D01*
X142031239Y-68397725D01*
X142031237Y-68397727D01*
X142031236Y-68397727D01*
X141899728Y-68529235D01*
X141899728Y-68529236D01*
X141899726Y-68529238D01*
X141852777Y-68593857D01*
X141790405Y-68679704D01*
X141705967Y-68845421D01*
X141705966Y-68845424D01*
X141648495Y-69022305D01*
X141619400Y-69206005D01*
X128982600Y-69206005D01*
X128953505Y-69022307D01*
X128896032Y-68845422D01*
X128896032Y-68845421D01*
X128853008Y-68760984D01*
X128811595Y-68679705D01*
X128702274Y-68529238D01*
X128570761Y-68397725D01*
X128420294Y-68288404D01*
X128389010Y-68272464D01*
X128254577Y-68203966D01*
X128254574Y-68203965D01*
X128077693Y-68146494D01*
X127985843Y-68131946D01*
X127893994Y-68117399D01*
X127708006Y-68117399D01*
X127646773Y-68127097D01*
X127524306Y-68146494D01*
X127347425Y-68203965D01*
X127347422Y-68203966D01*
X127181705Y-68288404D01*
X127099975Y-68347785D01*
X127031239Y-68397725D01*
X127031237Y-68397727D01*
X127031236Y-68397727D01*
X126899728Y-68529235D01*
X126899728Y-68529236D01*
X126899726Y-68529238D01*
X126852777Y-68593857D01*
X126790405Y-68679704D01*
X126705967Y-68845421D01*
X126705966Y-68845424D01*
X126648495Y-69022305D01*
X126619400Y-69206005D01*
X125687400Y-69206005D01*
X125682462Y-69155869D01*
X125655895Y-69022305D01*
X125611535Y-68799287D01*
X125611532Y-68799276D01*
X125611531Y-68799273D01*
X125611530Y-68799267D01*
X125505986Y-68451336D01*
X125366847Y-68115424D01*
X125300554Y-67991399D01*
X125195459Y-67794779D01*
X125195458Y-67794777D01*
X125195453Y-67794768D01*
X124993454Y-67492456D01*
X124762797Y-67211399D01*
X124762796Y-67211398D01*
X124762792Y-67211393D01*
X124505706Y-66954307D01*
X124224649Y-66723650D01*
X124224648Y-66723649D01*
X124224644Y-66723646D01*
X124222025Y-66721896D01*
X124155735Y-66677602D01*
X124110930Y-66623990D01*
X124102223Y-66554665D01*
X124132378Y-66491637D01*
X124191821Y-66454918D01*
X124224626Y-66450500D01*
X212768723Y-66450500D01*
X212835762Y-66470185D01*
G37*
%TD.AperFunction*%
%TA.AperFunction,Conductor*%
G36*
X178936339Y-77009741D02*
G01*
X178968139Y-77017858D01*
X178969703Y-77019538D01*
X178971905Y-77020185D01*
X178993378Y-77044966D01*
X179015750Y-77068995D01*
X179016157Y-77071255D01*
X179017660Y-77072989D01*
X179022327Y-77105452D01*
X179028156Y-77137755D01*
X179027398Y-77140720D01*
X179027604Y-77142147D01*
X179019427Y-77171950D01*
X179007680Y-77200313D01*
X178980263Y-77266502D01*
X178980261Y-77266510D01*
X178949500Y-77421153D01*
X178949500Y-77578846D01*
X178980261Y-77733489D01*
X178980264Y-77733501D01*
X179040602Y-77879172D01*
X179040609Y-77879185D01*
X179128210Y-78010288D01*
X179128213Y-78010292D01*
X179239707Y-78121786D01*
X179239711Y-78121789D01*
X179370814Y-78209390D01*
X179370827Y-78209397D01*
X179515187Y-78269192D01*
X179555416Y-78296072D01*
X180214181Y-78954837D01*
X180247666Y-79016160D01*
X180250500Y-79042518D01*
X180250500Y-86824684D01*
X180241061Y-86872136D01*
X180181264Y-87016498D01*
X180181261Y-87016510D01*
X180150500Y-87171153D01*
X180150500Y-87328846D01*
X180181261Y-87483489D01*
X180181264Y-87483501D01*
X180241602Y-87629172D01*
X180241609Y-87629185D01*
X180329210Y-87760288D01*
X180329213Y-87760292D01*
X180440707Y-87871786D01*
X180440711Y-87871789D01*
X180571814Y-87959390D01*
X180571827Y-87959397D01*
X180717498Y-88019735D01*
X180717503Y-88019737D01*
X180872153Y-88050499D01*
X180872156Y-88050500D01*
X180872158Y-88050500D01*
X181029844Y-88050500D01*
X181029845Y-88050499D01*
X181184497Y-88019737D01*
X181330179Y-87959394D01*
X181461289Y-87871789D01*
X181572789Y-87760289D01*
X181660394Y-87629179D01*
X181720737Y-87483497D01*
X181751500Y-87328842D01*
X181751500Y-87171158D01*
X181751500Y-87171155D01*
X181751499Y-87171153D01*
X181720738Y-87016510D01*
X181720737Y-87016503D01*
X181660939Y-86872136D01*
X181651500Y-86824684D01*
X181651500Y-79150154D01*
X181671185Y-79083115D01*
X181723989Y-79037360D01*
X181793147Y-79027416D01*
X181856703Y-79056441D01*
X181863181Y-79062473D01*
X186151196Y-83350488D01*
X186184681Y-83411811D01*
X186179697Y-83481503D01*
X186166618Y-83507059D01*
X186090608Y-83620816D01*
X186090602Y-83620827D01*
X186030264Y-83766498D01*
X186030261Y-83766510D01*
X185999500Y-83921153D01*
X185999500Y-84078846D01*
X186030261Y-84233489D01*
X186030264Y-84233501D01*
X186090602Y-84379172D01*
X186090609Y-84379185D01*
X186178210Y-84510288D01*
X186178213Y-84510292D01*
X186289707Y-84621786D01*
X186289711Y-84621789D01*
X186420814Y-84709390D01*
X186420827Y-84709397D01*
X186566498Y-84769735D01*
X186566503Y-84769737D01*
X186631147Y-84782595D01*
X186721849Y-84800638D01*
X186783760Y-84833023D01*
X186785339Y-84834574D01*
X189113181Y-87162416D01*
X189146666Y-87223739D01*
X189149500Y-87250097D01*
X189149500Y-96183803D01*
X189129815Y-96250842D01*
X189077011Y-96296597D01*
X189007853Y-96306541D01*
X188944297Y-96277516D01*
X188937819Y-96271484D01*
X186753353Y-94087018D01*
X186719868Y-94025695D01*
X186724852Y-93956003D01*
X186766724Y-93900070D01*
X186816841Y-93877720D01*
X186858194Y-93869495D01*
X187003876Y-93809152D01*
X187134986Y-93721547D01*
X187246486Y-93610047D01*
X187334091Y-93478937D01*
X187338425Y-93468475D01*
X187350044Y-93440423D01*
X187394434Y-93333255D01*
X187425197Y-93178600D01*
X187425197Y-93020916D01*
X187425197Y-93020913D01*
X187425196Y-93020911D01*
X187416895Y-92979179D01*
X187394434Y-92866261D01*
X187380863Y-92833497D01*
X187334094Y-92720585D01*
X187334087Y-92720572D01*
X187246095Y-92588883D01*
X187225217Y-92522205D01*
X187225197Y-92519992D01*
X187225197Y-91728596D01*
X187222549Y-91718716D01*
X187222548Y-91718711D01*
X187208559Y-91666504D01*
X187204982Y-91653155D01*
X187184274Y-91575870D01*
X187184270Y-91575863D01*
X187105221Y-91438944D01*
X187105218Y-91438940D01*
X187105217Y-91438938D01*
X186993413Y-91327134D01*
X186993412Y-91327133D01*
X186989082Y-91322803D01*
X186989071Y-91322793D01*
X186097633Y-90431355D01*
X186097631Y-90431352D01*
X185978760Y-90312481D01*
X185978752Y-90312475D01*
X185888362Y-90260289D01*
X185888360Y-90260288D01*
X185841833Y-90233425D01*
X185841832Y-90233424D01*
X185829306Y-90230067D01*
X185689100Y-90192499D01*
X185530986Y-90192499D01*
X185523390Y-90192499D01*
X185523374Y-90192500D01*
X173553313Y-90192500D01*
X173537825Y-90188350D01*
X173524079Y-90189005D01*
X173491313Y-90175887D01*
X173471883Y-90164669D01*
X173434376Y-90143014D01*
X173411286Y-90136827D01*
X173281648Y-90102090D01*
X173123534Y-90102090D01*
X173115938Y-90102090D01*
X173115922Y-90102091D01*
X164429071Y-90102091D01*
X164362032Y-90082406D01*
X164316277Y-90029602D01*
X164314519Y-90025566D01*
X164304404Y-90001145D01*
X164304400Y-90001138D01*
X164216799Y-89870035D01*
X164216796Y-89870031D01*
X164105302Y-89758537D01*
X164105296Y-89758532D01*
X164056608Y-89725999D01*
X164011803Y-89672386D01*
X164001500Y-89622898D01*
X164001500Y-86822960D01*
X164001501Y-86822947D01*
X164001501Y-86654844D01*
X164001360Y-86654316D01*
X163960577Y-86502116D01*
X163925267Y-86440957D01*
X163881524Y-86365190D01*
X163881518Y-86365182D01*
X162517941Y-85001606D01*
X162484456Y-84940283D01*
X162489440Y-84870591D01*
X162511907Y-84832725D01*
X162605567Y-84724638D01*
X162665338Y-84593761D01*
X162685023Y-84526722D01*
X162685024Y-84526718D01*
X162705500Y-84384302D01*
X162705500Y-84133440D01*
X162702604Y-84079404D01*
X162699770Y-84053044D01*
X162696765Y-84034505D01*
X162691113Y-83999621D01*
X162691112Y-83999618D01*
X162640828Y-83864810D01*
X162607342Y-83803488D01*
X162522306Y-83689899D01*
X162518470Y-83684478D01*
X162495358Y-83649888D01*
X162483901Y-83628453D01*
X162471010Y-83597333D01*
X162463954Y-83574075D01*
X162457381Y-83541031D01*
X162455000Y-83516844D01*
X162455000Y-83483153D01*
X162457382Y-83458965D01*
X162458432Y-83453687D01*
X162463955Y-83425919D01*
X162471006Y-83402674D01*
X162483901Y-83371540D01*
X162495360Y-83350106D01*
X162542327Y-83279816D01*
X162542332Y-83279807D01*
X162562240Y-83244775D01*
X162578403Y-83216334D01*
X162593768Y-83184073D01*
X162620330Y-83116026D01*
X162642835Y-82973917D01*
X162643831Y-82904054D01*
X162639384Y-82869645D01*
X162650313Y-82800635D01*
X162696816Y-82748489D01*
X162724047Y-82735818D01*
X162734435Y-82732442D01*
X162734440Y-82732440D01*
X162911425Y-82642262D01*
X162948715Y-82615168D01*
X162385942Y-82052395D01*
X162446081Y-82036281D01*
X162561920Y-81969402D01*
X162656502Y-81874820D01*
X162723381Y-81758981D01*
X162739495Y-81698842D01*
X163302268Y-82261615D01*
X163329362Y-82224325D01*
X163409515Y-82067017D01*
X163457489Y-82016221D01*
X163525310Y-81999426D01*
X163591445Y-82021963D01*
X163630485Y-82067017D01*
X163710641Y-82224332D01*
X163737730Y-82261615D01*
X164300504Y-81698840D01*
X164316619Y-81758981D01*
X164383498Y-81874820D01*
X164478080Y-81969402D01*
X164593919Y-82036281D01*
X164654057Y-82052394D01*
X164091283Y-82615168D01*
X164091283Y-82615169D01*
X164128567Y-82642258D01*
X164305562Y-82732442D01*
X164494477Y-82793824D01*
X164690679Y-82824900D01*
X164889321Y-82824900D01*
X165085520Y-82793824D01*
X165085523Y-82793824D01*
X165274437Y-82732442D01*
X165451425Y-82642262D01*
X165488716Y-82615168D01*
X164925942Y-82052394D01*
X164986081Y-82036281D01*
X165101920Y-81969402D01*
X165196502Y-81874820D01*
X165263381Y-81758981D01*
X165279495Y-81698842D01*
X165842268Y-82261615D01*
X165869362Y-82224325D01*
X165959542Y-82047337D01*
X166020924Y-81858423D01*
X166020924Y-81858420D01*
X166052000Y-81662221D01*
X166052000Y-81463578D01*
X166020924Y-81267379D01*
X166020924Y-81267376D01*
X165959542Y-81078462D01*
X165869358Y-80901467D01*
X165842268Y-80864183D01*
X165279494Y-81426957D01*
X165263381Y-81366819D01*
X165196502Y-81250980D01*
X165101920Y-81156398D01*
X164986081Y-81089519D01*
X164925940Y-81073404D01*
X165488715Y-80510630D01*
X165451432Y-80483541D01*
X165294668Y-80403665D01*
X165243872Y-80355690D01*
X165227077Y-80287869D01*
X165249615Y-80221734D01*
X165294667Y-80182696D01*
X165451694Y-80102687D01*
X165612464Y-79985881D01*
X165752981Y-79845364D01*
X165869787Y-79684594D01*
X165960005Y-79507532D01*
X166021413Y-79318536D01*
X166052500Y-79122261D01*
X166052500Y-78923539D01*
X166021413Y-78727264D01*
X165989229Y-78628210D01*
X165960006Y-78538270D01*
X165960005Y-78538267D01*
X165869786Y-78361205D01*
X165805599Y-78272859D01*
X165752981Y-78200436D01*
X165612464Y-78059919D01*
X165451694Y-77943113D01*
X165295218Y-77863384D01*
X165244423Y-77815410D01*
X165227628Y-77747589D01*
X165250165Y-77681454D01*
X165295218Y-77642415D01*
X165451694Y-77562687D01*
X165612464Y-77445881D01*
X165752981Y-77305364D01*
X165794127Y-77248729D01*
X165849456Y-77206065D01*
X165915052Y-77200313D01*
X165915093Y-77199903D01*
X165917277Y-77200118D01*
X165918637Y-77199999D01*
X165921155Y-77200500D01*
X165921158Y-77200500D01*
X166078844Y-77200500D01*
X166078845Y-77200499D01*
X166233497Y-77169737D01*
X166379179Y-77109394D01*
X166436258Y-77071255D01*
X166510875Y-77021398D01*
X166577553Y-77000520D01*
X166579766Y-77000500D01*
X178904866Y-77000500D01*
X178936339Y-77009741D01*
G37*
%TD.AperFunction*%
%TD*%
M02*
