M48
; DRILL file {KiCad 9.0.4} date 2025-09-21T22:31:07-0500
; FORMAT={-:-/ absolute / inch / decimal}
; #@! TF.CreationDate,2025-09-21T22:31:07-05:00
; #@! TF.GenerationSoftware,Kicad,Pcbnew,9.0.4
; #@! TF.FileFunction,Plated,1,2,PTH
FMAT,2
INCH
; #@! TA.AperFunction,Plated,PTH,ComponentDrill
T1C0.0315
; #@! TA.AperFunction,Plated,PTH,ComponentDrill
T2C0.0472
; #@! TA.AperFunction,Plated,PTH,ComponentDrill
T3C0.0490
; #@! TA.AperFunction,Plated,PTH,ComponentDrill
T4C0.0591
; #@! TA.AperFunction,Plated,PTH,ComponentDrill
T5C0.0787
; #@! TA.AperFunction,Plated,PTH,ComponentDrill
T6C0.1260
%
G90
G05
T1
X3.7008Y-2.4754
X3.7008Y-3.6762
X3.7795Y-2.4754
X3.7795Y-3.6762
X3.8583Y-2.4754
X3.8583Y-3.6762
X4.3268Y-2.7323
X4.3268Y-2.811
X4.3268Y-2.8898
X4.3268Y-3.2441
X4.3268Y-3.3228
X4.3268Y-3.4016
T2
X4.4478Y-2.4868
X4.4488Y-3.6776
X4.5463Y-2.4868
X4.5472Y-3.6776
T3
X3.8583Y-2.666
X3.8583Y-2.7644
X3.8583Y-2.8629
X3.8583Y-2.9613
X3.8583Y-3.1877
X3.8583Y-3.2861
X3.8583Y-3.3845
X3.8583Y-3.4829
X3.9567Y-2.666
X3.9567Y-2.7644
X3.9567Y-2.8629
X3.9567Y-2.9613
X3.9567Y-3.1877
X3.9567Y-3.2861
X3.9567Y-3.3845
X3.9567Y-3.4829
X4.0781Y-2.4905
X4.0814Y-3.6818
X4.1765Y-2.4905
X4.1798Y-3.6818
X4.2749Y-2.4905
X4.2782Y-3.6818
T4
X3.6181Y-2.4754
X3.6181Y-3.6762
X3.9409Y-2.4754
X3.9409Y-3.6762
X4.3268Y-2.6496
X4.3268Y-2.9724
X4.3268Y-3.1614
X4.3268Y-3.4843
T5
X4.6998Y-3.3543
X4.7037Y-2.8081
X4.9705Y-3.8278
X4.9754Y-2.3356
X5.2431Y-2.812
X5.2431Y-3.3543
T6
X3.5807Y-2.2057
X3.5807Y-3.9606
X5.3799Y-2.2067
X5.3809Y-3.9606
M30
