M48
; DRILL file {KiCad 9.0.4} date 2025-09-20T10:38:11-0500
; FORMAT={-:-/ absolute / inch / decimal}
; #@! TF.CreationDate,2025-09-20T10:38:11-05:00
; #@! TF.GenerationSoftware,Kicad,Pcbnew,9.0.4
; #@! TF.FileFunction,Plated,1,2,PTH
FMAT,2
INCH
; #@! TA.AperFunction,Plated,PTH,ComponentDrill
T1C0.0315
; #@! TA.AperFunction,Plated,PTH,ComponentDrill
T2C0.0472
; #@! TA.AperFunction,Plated,PTH,ComponentDrill
T3C0.0490
; #@! TA.AperFunction,Plated,PTH,ComponentDrill
T4C0.0492
; #@! TA.AperFunction,Plated,PTH,ComponentDrill
T5C0.0591
; #@! TA.AperFunction,Plated,PTH,ComponentDrill
T6C0.0787
; #@! TA.AperFunction,Plated,PTH,ComponentDrill
T7C0.1260
%
G90
G05
T1
X3.9173Y-2.2205
X3.9173Y-2.2992
X3.9173Y-2.378
X3.9173Y-3.8074
X3.9173Y-3.8861
X3.9173Y-3.9649
X4.6795Y-3.815
X4.6795Y-3.8937
X4.6795Y-3.9724
X4.6949Y-2.2047
X4.6949Y-2.2835
X4.6949Y-2.3622
T2
X5.3051Y-2.4465
X5.3051Y-3.7346
X5.4035Y-2.4465
X5.4035Y-3.7346
T3
X4.9199Y-3.728
X4.9226Y-2.4531
X5.0184Y-3.728
X5.021Y-2.4531
X5.1168Y-3.728
X5.1194Y-2.4531
T4
X3.9744Y-2.65
X3.9744Y-2.7484
X3.9744Y-2.8469
X3.9744Y-2.9453
X3.9744Y-3.2133
X3.9744Y-3.3117
X3.9744Y-3.4102
X3.9744Y-3.5086
X4.1406Y-3.7331
X4.1709Y-2.4587
X4.239Y-3.7331
X4.2693Y-2.4587
X4.3374Y-3.7331
X4.3677Y-2.4587
X4.4358Y-3.7331
X4.4661Y-2.4587
T5
X3.9173Y-2.1378
X3.9173Y-2.4606
X3.9173Y-3.7247
X3.9173Y-4.0476
X4.6795Y-3.7323
X4.6795Y-4.0551
X4.6949Y-2.122
X4.6949Y-2.4449
T6
X4.3307Y-2.815
X4.3307Y-3.3661
X4.8819Y-2.815
X4.8819Y-3.3661
X5.4331Y-2.815
X5.4331Y-3.3661
T7
X3.7008Y-2.185
X3.7008Y-3.9961
X5.6299Y-2.185
X5.6299Y-3.9961
M30
