%TF.GenerationSoftware,KiCad,Pcbnew,9.0.4*%
%TF.CreationDate,2025-09-21T22:31:07-05:00*%
%TF.ProjectId,Scrutineering,53637275-7469-46e6-9565-72696e672e6b,rev?*%
%TF.SameCoordinates,Original*%
%TF.FileFunction,Soldermask,Bot*%
%TF.FilePolarity,Negative*%
%FSLAX46Y46*%
G04 Gerber Fmt 4.6, Leading zero omitted, Abs format (unit mm)*
G04 Created by KiCad (PCBNEW 9.0.4) date 2025-09-21 22:31:07*
%MOMM*%
%LPD*%
G01*
G04 APERTURE LIST*
G04 Aperture macros list*
%AMRoundRect*
0 Rectangle with rounded corners*
0 $1 Rounding radius*
0 $2 $3 $4 $5 $6 $7 $8 $9 X,Y pos of 4 corners*
0 Add a 4 corners polygon primitive as box body*
4,1,4,$2,$3,$4,$5,$6,$7,$8,$9,$2,$3,0*
0 Add four circle primitives for the rounded corners*
1,1,$1+$1,$2,$3*
1,1,$1+$1,$4,$5*
1,1,$1+$1,$6,$7*
1,1,$1+$1,$8,$9*
0 Add four rect primitives between the rounded corners*
20,1,$1+$1,$2,$3,$4,$5,0*
20,1,$1+$1,$4,$5,$6,$7,0*
20,1,$1+$1,$6,$7,$8,$9,0*
20,1,$1+$1,$8,$9,$2,$3,0*%
G04 Aperture macros list end*
%ADD10C,1.700000*%
%ADD11RoundRect,0.250000X-0.600000X0.850000X-0.600000X-0.850000X0.600000X-0.850000X0.600000X0.850000X0*%
%ADD12O,1.700000X2.200000*%
%ADD13C,4.000000*%
%ADD14O,3.500000X2.200000*%
%ADD15R,2.500000X1.500000*%
%ADD16O,2.500000X1.500000*%
%ADD17C,1.752600*%
%ADD18RoundRect,0.250000X0.600000X-0.850000X0.600000X0.850000X-0.600000X0.850000X-0.600000X-0.850000X0*%
%ADD19C,3.600000*%
%ADD20C,6.400000*%
%ADD21O,2.200000X3.500000*%
%ADD22R,1.500000X2.500000*%
%ADD23O,1.500000X2.500000*%
G04 APERTURE END LIST*
D10*
%TO.C,J11*%
X115500000Y-100590000D03*
X113000000Y-100590000D03*
D11*
X115500000Y-93410000D03*
D12*
X113000000Y-93410000D03*
%TD*%
D13*
%TO.C,J10*%
X126250000Y-97225000D03*
%TD*%
D14*
%TO.C,VOLT2*%
X109900000Y-80300000D03*
X109900000Y-88500000D03*
D15*
X109900000Y-82400000D03*
D16*
X109900000Y-84400000D03*
X109900000Y-86400000D03*
%TD*%
D17*
%TO.C,J4*%
X108666600Y-93516895D03*
X106166600Y-93516895D03*
X103666600Y-93516895D03*
%TD*%
D13*
%TO.C,J5*%
X133175000Y-71425000D03*
%TD*%
%TO.C,J8*%
X119375000Y-85200000D03*
%TD*%
D10*
%TO.C,J12*%
X112975000Y-55985000D03*
X115475000Y-55985000D03*
D18*
X112975000Y-63165000D03*
D12*
X115475000Y-63165000D03*
%TD*%
D19*
%TO.C,MH2*%
X136675000Y-100600000D03*
D20*
X136675000Y-100600000D03*
%TD*%
D14*
%TO.C,VOLT1*%
X109900000Y-67300000D03*
X109900000Y-75500000D03*
D15*
X109900000Y-69400000D03*
D16*
X109900000Y-71400000D03*
X109900000Y-73400000D03*
%TD*%
D17*
%TO.C,J3*%
X103583400Y-63258106D03*
X106083400Y-63258106D03*
X108583400Y-63258106D03*
%TD*%
D19*
%TO.C,MH1*%
X136650000Y-56050000D03*
D20*
X136650000Y-56050000D03*
%TD*%
D17*
%TO.C,J1*%
X100500000Y-75216600D03*
X100500000Y-72716600D03*
X100500000Y-70216600D03*
X100500000Y-67716600D03*
X98000000Y-75216600D03*
X98000000Y-72716600D03*
X98000000Y-70216600D03*
X98000000Y-67716600D03*
%TD*%
D21*
%TO.C,TEMP2*%
X91900000Y-93375000D03*
X100100000Y-93375000D03*
D22*
X94000000Y-93375000D03*
D23*
X96000000Y-93375000D03*
X98000000Y-93375000D03*
%TD*%
D19*
%TO.C,MH4*%
X90950000Y-100600000D03*
D20*
X90950000Y-100600000D03*
%TD*%
D13*
%TO.C,J9*%
X126375000Y-59325000D03*
%TD*%
D21*
%TO.C,TEMP1*%
X91900000Y-62875000D03*
X100100000Y-62875000D03*
D22*
X94000000Y-62875000D03*
D23*
X96000000Y-62875000D03*
X98000000Y-62875000D03*
%TD*%
D17*
%TO.C,J2*%
X100500000Y-88466600D03*
X100500000Y-85966600D03*
X100500000Y-83466600D03*
X100500000Y-80966600D03*
X98000000Y-88466600D03*
X98000000Y-85966600D03*
X98000000Y-83466600D03*
X98000000Y-80966600D03*
%TD*%
D13*
%TO.C,J7*%
X119475000Y-71325000D03*
%TD*%
D19*
%TO.C,MH3*%
X90950000Y-56025000D03*
D20*
X90950000Y-56025000D03*
%TD*%
D13*
%TO.C,J6*%
X133175000Y-85200000D03*
%TD*%
M02*
