%TF.GenerationSoftware,KiCad,Pcbnew,9.0.4*%
%TF.CreationDate,2025-09-20T03:12:18-05:00*%
%TF.ProjectId,Scrutineering,53637275-7469-46e6-9565-72696e672e6b,rev?*%
%TF.SameCoordinates,Original*%
%TF.FileFunction,Soldermask,Top*%
%TF.FilePolarity,Negative*%
%FSLAX46Y46*%
G04 Gerber Fmt 4.6, Leading zero omitted, Abs format (unit mm)*
G04 Created by KiCad (PCBNEW 9.0.4) date 2025-09-20 03:12:18*
%MOMM*%
%LPD*%
G01*
G04 APERTURE LIST*
G04 Aperture macros list*
%AMRoundRect*
0 Rectangle with rounded corners*
0 $1 Rounding radius*
0 $2 $3 $4 $5 $6 $7 $8 $9 X,Y pos of 4 corners*
0 Add a 4 corners polygon primitive as box body*
4,1,4,$2,$3,$4,$5,$6,$7,$8,$9,$2,$3,0*
0 Add four circle primitives for the rounded corners*
1,1,$1+$1,$2,$3*
1,1,$1+$1,$4,$5*
1,1,$1+$1,$6,$7*
1,1,$1+$1,$8,$9*
0 Add four rect primitives between the rounded corners*
20,1,$1+$1,$2,$3,$4,$5,0*
20,1,$1+$1,$4,$5,$6,$7,0*
20,1,$1+$1,$6,$7,$8,$9,0*
20,1,$1+$1,$8,$9,$2,$3,0*%
G04 Aperture macros list end*
%ADD10C,0.000000*%
%ADD11RoundRect,0.250000X-0.600000X0.850000X-0.600000X-0.850000X0.600000X-0.850000X0.600000X0.850000X0*%
%ADD12O,1.700000X2.200000*%
%ADD13C,1.752600*%
%ADD14C,4.000000*%
%ADD15O,3.500000X2.200000*%
%ADD16R,2.500000X1.500000*%
%ADD17O,2.500000X1.500000*%
%ADD18C,1.875000*%
%ADD19RoundRect,0.250000X0.600000X-0.850000X0.600000X0.850000X-0.600000X0.850000X-0.600000X-0.850000X0*%
%ADD20C,3.600000*%
%ADD21C,6.400000*%
G04 APERTURE END LIST*
D10*
%TO.C,LOGO2*%
G36*
X111250794Y-78046905D02*
G01*
X111275993Y-79180833D01*
X112296528Y-79194476D01*
X113317064Y-79208119D01*
X113317064Y-79459059D01*
X113317064Y-79710000D01*
X111980751Y-79710000D01*
X110644438Y-79710000D01*
X110657834Y-78311488D01*
X110671231Y-76912976D01*
X110948413Y-76912976D01*
X111225596Y-76912976D01*
X111250794Y-78046905D01*
G37*
G36*
X124115873Y-77560198D02*
G01*
X124115873Y-77786984D01*
X123334722Y-77786984D01*
X122553571Y-77786984D01*
X122553571Y-78038968D01*
X122553571Y-78290952D01*
X123334722Y-78290952D01*
X124115873Y-78290952D01*
X124115873Y-78996508D01*
X124115873Y-79702063D01*
X123107936Y-79702063D01*
X122100000Y-79702063D01*
X122100000Y-79475278D01*
X122100000Y-79248492D01*
X122881151Y-79248492D01*
X123662301Y-79248492D01*
X123662301Y-78996508D01*
X123662301Y-78744524D01*
X122881151Y-78744524D01*
X122100000Y-78744524D01*
X122100000Y-78038968D01*
X122100000Y-77333413D01*
X123107936Y-77333413D01*
X124115873Y-77333413D01*
X124115873Y-77560198D01*
G37*
G36*
X117126828Y-76896870D02*
G01*
X117323612Y-76912976D01*
X117337008Y-78311488D01*
X117350404Y-79710000D01*
X117023678Y-79710000D01*
X116696952Y-79710000D01*
X116682703Y-79143036D01*
X116668453Y-78576071D01*
X115573982Y-78562494D01*
X114479510Y-78548916D01*
X114465251Y-79116859D01*
X114450993Y-79684801D01*
X114135211Y-79699826D01*
X113819429Y-79714851D01*
X113832830Y-78313914D01*
X113846231Y-76912976D01*
X114102691Y-76898025D01*
X114301790Y-76902861D01*
X114410363Y-76945420D01*
X114415728Y-76951244D01*
X114441275Y-77028573D01*
X114464051Y-77181243D01*
X114480876Y-77383801D01*
X114486847Y-77520561D01*
X114501389Y-78021706D01*
X115584921Y-78021706D01*
X116668453Y-78021706D01*
X116682752Y-77480474D01*
X116692061Y-77222555D01*
X116711771Y-77049779D01*
X116753781Y-76946509D01*
X116829990Y-76897105D01*
X116952298Y-76885930D01*
X117126828Y-76896870D01*
G37*
G36*
X119356389Y-76892880D02*
G01*
X119679517Y-76896724D01*
X120147725Y-76905193D01*
X120525655Y-76917869D01*
X120823823Y-76938856D01*
X121052744Y-76972257D01*
X121222934Y-77022178D01*
X121344908Y-77092721D01*
X121429182Y-77187992D01*
X121486272Y-77312094D01*
X121526693Y-77469132D01*
X121555352Y-77628856D01*
X121565781Y-77831314D01*
X121542188Y-78053805D01*
X121491695Y-78262348D01*
X121421422Y-78422966D01*
X121377371Y-78478160D01*
X121313130Y-78544076D01*
X121313297Y-78596382D01*
X121380288Y-78676572D01*
X121389499Y-78686385D01*
X121445563Y-78761351D01*
X121482230Y-78858775D01*
X121505316Y-79003634D01*
X121520634Y-79220905D01*
X121522438Y-79257429D01*
X121544076Y-79710000D01*
X121210332Y-79710000D01*
X120876588Y-79710000D01*
X120876588Y-79414415D01*
X120864342Y-79207713D01*
X120821898Y-79064351D01*
X120772136Y-78986042D01*
X120667685Y-78853254D01*
X119713803Y-78853254D01*
X118759921Y-78853254D01*
X118759921Y-79281627D01*
X118759921Y-79710000D01*
X118432342Y-79710000D01*
X118104762Y-79710000D01*
X118104762Y-78325047D01*
X118104762Y-77862116D01*
X118104762Y-77442143D01*
X118759921Y-77442143D01*
X118759921Y-77862116D01*
X118764188Y-78059653D01*
X118775542Y-78217374D01*
X118791816Y-78309012D01*
X118797719Y-78320099D01*
X118857819Y-78331199D01*
X119002244Y-78339204D01*
X119214564Y-78343761D01*
X119478345Y-78344519D01*
X119777158Y-78341126D01*
X119778719Y-78341098D01*
X120115482Y-78334007D01*
X120365965Y-78325610D01*
X120544681Y-78314404D01*
X120666141Y-78298885D01*
X120744859Y-78277551D01*
X120795349Y-78248897D01*
X120811853Y-78234093D01*
X120877195Y-78115962D01*
X120901407Y-77924497D01*
X120901786Y-77889462D01*
X120891791Y-77720129D01*
X120853410Y-77613196D01*
X120782810Y-77538484D01*
X120732720Y-77504546D01*
X120668423Y-77479601D01*
X120574814Y-77462287D01*
X120436788Y-77451247D01*
X120239240Y-77445123D01*
X119967064Y-77442554D01*
X119711878Y-77442143D01*
X118759921Y-77442143D01*
X118104762Y-77442143D01*
X118104762Y-76940095D01*
X118230608Y-76908509D01*
X118313764Y-76900726D01*
X118482805Y-76895150D01*
X118722847Y-76891903D01*
X119019004Y-76891106D01*
X119356389Y-76892880D01*
G37*
%TD*%
D11*
%TO.C,J13*%
X137250000Y-94860000D03*
D12*
X134750000Y-94860000D03*
%TD*%
D13*
%TO.C,J11*%
X129966600Y-94691895D03*
X127466600Y-94691895D03*
X124966600Y-94691895D03*
%TD*%
D14*
%TO.C,J10*%
X138000000Y-85500000D03*
%TD*%
D15*
%TO.C,SW2*%
X99500000Y-102808106D03*
X99500000Y-94608106D03*
D16*
X99500000Y-100708106D03*
D17*
X99500000Y-98708106D03*
X99500000Y-96708106D03*
%TD*%
D18*
%TO.C,J4*%
X105940000Y-62451000D03*
X108440000Y-62451000D03*
X110940000Y-62451000D03*
X113440000Y-62451000D03*
%TD*%
%TO.C,J2*%
X100951000Y-89118106D03*
X100951000Y-86618106D03*
X100951000Y-84118106D03*
X100951000Y-81618106D03*
%TD*%
D14*
%TO.C,J8*%
X110000000Y-85500000D03*
%TD*%
%TO.C,J6*%
X124000000Y-85500000D03*
%TD*%
%TO.C,J5*%
X124000000Y-71500000D03*
%TD*%
D19*
%TO.C,J14*%
X134750000Y-62140000D03*
D12*
X137250000Y-62140000D03*
%TD*%
D20*
%TO.C,MH2*%
X94000000Y-101500000D03*
D21*
X94000000Y-101500000D03*
%TD*%
D15*
%TO.C,SW1*%
X99500000Y-62500000D03*
X99500000Y-54300000D03*
D16*
X99500000Y-60400000D03*
D17*
X99500000Y-58400000D03*
X99500000Y-56400000D03*
%TD*%
D18*
%TO.C,J3*%
X112670000Y-94820000D03*
X110170000Y-94820000D03*
X107670000Y-94820000D03*
X105170000Y-94820000D03*
%TD*%
D20*
%TO.C,MH1*%
X94000000Y-55500000D03*
D21*
X94000000Y-55500000D03*
%TD*%
D13*
%TO.C,J12*%
X125033400Y-62308106D03*
X127533400Y-62308106D03*
X130033400Y-62308106D03*
%TD*%
D15*
%TO.C,SW4*%
X119250000Y-62100000D03*
X119250000Y-53900000D03*
D16*
X119250000Y-60000000D03*
D17*
X119250000Y-58000000D03*
X119250000Y-56000000D03*
%TD*%
D20*
%TO.C,MH4*%
X143000000Y-101500000D03*
D21*
X143000000Y-101500000D03*
%TD*%
D14*
%TO.C,J9*%
X138000000Y-71500000D03*
%TD*%
D15*
%TO.C,SW3*%
X118860000Y-103000000D03*
X118860000Y-94800000D03*
D16*
X118860000Y-100900000D03*
D17*
X118860000Y-98900000D03*
X118860000Y-96900000D03*
%TD*%
D18*
%TO.C,J1*%
X100951000Y-74810000D03*
X100951000Y-72310000D03*
X100951000Y-69810000D03*
X100951000Y-67310000D03*
%TD*%
D14*
%TO.C,J7*%
X110000000Y-71500000D03*
%TD*%
D20*
%TO.C,MH3*%
X143000000Y-55500000D03*
D21*
X143000000Y-55500000D03*
%TD*%
M02*
