%TF.GenerationSoftware,KiCad,Pcbnew,9.0.4*%
%TF.CreationDate,2025-09-20T10:38:11-05:00*%
%TF.ProjectId,Scrutineering,53637275-7469-46e6-9565-72696e672e6b,rev?*%
%TF.SameCoordinates,Original*%
%TF.FileFunction,Copper,L1,Top*%
%TF.FilePolarity,Positive*%
%FSLAX46Y46*%
G04 Gerber Fmt 4.6, Leading zero omitted, Abs format (unit mm)*
G04 Created by KiCad (PCBNEW 9.0.4) date 2025-09-20 10:38:11*
%MOMM*%
%LPD*%
G01*
G04 APERTURE LIST*
G04 Aperture macros list*
%AMRoundRect*
0 Rectangle with rounded corners*
0 $1 Rounding radius*
0 $2 $3 $4 $5 $6 $7 $8 $9 X,Y pos of 4 corners*
0 Add a 4 corners polygon primitive as box body*
4,1,4,$2,$3,$4,$5,$6,$7,$8,$9,$2,$3,0*
0 Add four circle primitives for the rounded corners*
1,1,$1+$1,$2,$3*
1,1,$1+$1,$4,$5*
1,1,$1+$1,$6,$7*
1,1,$1+$1,$8,$9*
0 Add four rect primitives between the rounded corners*
20,1,$1+$1,$2,$3,$4,$5,0*
20,1,$1+$1,$4,$5,$6,$7,0*
20,1,$1+$1,$6,$7,$8,$9,0*
20,1,$1+$1,$8,$9,$2,$3,0*%
G04 Aperture macros list end*
%TA.AperFunction,ComponentPad*%
%ADD10RoundRect,0.250000X-0.600000X0.850000X-0.600000X-0.850000X0.600000X-0.850000X0.600000X0.850000X0*%
%TD*%
%TA.AperFunction,ComponentPad*%
%ADD11O,1.700000X2.200000*%
%TD*%
%TA.AperFunction,ComponentPad*%
%ADD12C,1.752600*%
%TD*%
%TA.AperFunction,ComponentPad*%
%ADD13C,4.000000*%
%TD*%
%TA.AperFunction,ComponentPad*%
%ADD14O,3.500000X2.200000*%
%TD*%
%TA.AperFunction,ComponentPad*%
%ADD15R,2.500000X1.500000*%
%TD*%
%TA.AperFunction,ComponentPad*%
%ADD16O,2.500000X1.500000*%
%TD*%
%TA.AperFunction,ComponentPad*%
%ADD17C,1.875000*%
%TD*%
%TA.AperFunction,ComponentPad*%
%ADD18RoundRect,0.250000X0.600000X-0.850000X0.600000X0.850000X-0.600000X0.850000X-0.600000X-0.850000X0*%
%TD*%
%TA.AperFunction,ComponentPad*%
%ADD19C,3.600000*%
%TD*%
%TA.AperFunction,ConnectorPad*%
%ADD20C,6.400000*%
%TD*%
%TA.AperFunction,Conductor*%
%ADD21C,0.200000*%
%TD*%
%TA.AperFunction,Conductor*%
%ADD22C,0.400000*%
%TD*%
G04 APERTURE END LIST*
D10*
%TO.P,J13,1,Pin_1*%
%TO.N,/scrut+*%
X137250000Y-94860000D03*
D11*
%TO.P,J13,2,Pin_2*%
%TO.N,/scrut-*%
X134750000Y-94860000D03*
%TD*%
D12*
%TO.P,J11,1,Pin_1*%
%TO.N,/VDDA_7*%
X129966600Y-94691895D03*
%TO.P,J11,2,Pin_2*%
%TO.N,/scrutTemp7*%
X127466600Y-94691895D03*
%TO.P,J11,3,Pin_3*%
%TO.N,/GNDA_7*%
X124966600Y-94691895D03*
%TD*%
D13*
%TO.P,J10,1,Pin_1*%
%TO.N,/scrut-*%
X138000000Y-85500000D03*
%TD*%
D14*
%TO.P,VOLT2,*%
%TO.N,*%
X99500000Y-102808106D03*
X99500000Y-94608106D03*
D15*
%TO.P,VOLT2,1,A*%
%TO.N,/voltTap8*%
X99500000Y-100708106D03*
D16*
%TO.P,VOLT2,2,B*%
%TO.N,/inputVolt8*%
X99500000Y-98708106D03*
%TO.P,VOLT2,3,C*%
%TO.N,/scrutVolt8*%
X99500000Y-96708106D03*
%TD*%
D17*
%TO.P,J4,1,Pin_1*%
%TO.N,/GNDA_8*%
X105940000Y-62451000D03*
%TO.P,J4,2,Pin_2*%
%TO.N,/inputTemp8*%
X108440000Y-62451000D03*
%TO.P,J4,3,Pin_3*%
%TO.N,/rawTemp8*%
X110940000Y-62451000D03*
%TO.P,J4,4,Pin_4*%
%TO.N,/VDDA_8*%
X113440000Y-62451000D03*
%TD*%
%TO.P,J2,1,Pin_1*%
%TO.N,/GND_Seg8*%
X100951000Y-89118106D03*
%TO.P,J2,2,Pin_2*%
%TO.N,/inputVolt8*%
X100951000Y-86618106D03*
%TO.P,J2,3,Pin_3*%
%TO.N,unconnected-(J2-Pin_3-Pad3)*%
X100951000Y-84118106D03*
%TO.P,J2,4,Pin_4*%
%TO.N,/voltTap8*%
X100951000Y-81618106D03*
%TD*%
D13*
%TO.P,J8,1,Pin_1*%
%TO.N,/scrutVolt8*%
X110000000Y-85500000D03*
%TD*%
%TO.P,J6,1,Pin_1*%
%TO.N,/GND_Seg8*%
X124000000Y-85500000D03*
%TD*%
%TO.P,J5,1,Pin_1*%
%TO.N,/GND_Seg7*%
X124000000Y-71500000D03*
%TD*%
D18*
%TO.P,J14,1,Pin_1*%
%TO.N,/scrut-*%
X134750000Y-62140000D03*
D11*
%TO.P,J14,2,Pin_2*%
%TO.N,/scrut+*%
X137250000Y-62140000D03*
%TD*%
D19*
%TO.P,MH2,1,1*%
%TO.N,unconnected-(MH2-Pad1)*%
X94000000Y-101500000D03*
D20*
%TO.N,unconnected-(MH2-Pad1)_1*%
X94000000Y-101500000D03*
%TD*%
D14*
%TO.P,VOLT1,*%
%TO.N,*%
X99500000Y-62500000D03*
X99500000Y-54300000D03*
D15*
%TO.P,VOLT1,1,A*%
%TO.N,/voltTap7*%
X99500000Y-60400000D03*
D16*
%TO.P,VOLT1,2,B*%
%TO.N,/inputVolt7*%
X99500000Y-58400000D03*
%TO.P,VOLT1,3,C*%
%TO.N,/scrutVolt7*%
X99500000Y-56400000D03*
%TD*%
D17*
%TO.P,J3,1,Pin_1*%
%TO.N,/GNDA_7*%
X112670000Y-94820000D03*
%TO.P,J3,2,Pin_2*%
%TO.N,/inputTemp7*%
X110170000Y-94820000D03*
%TO.P,J3,3,Pin_3*%
%TO.N,/rawTemp7*%
X107670000Y-94820000D03*
%TO.P,J3,4,Pin_4*%
%TO.N,/VDDA_7*%
X105170000Y-94820000D03*
%TD*%
D19*
%TO.P,MH1,1,1*%
%TO.N,unconnected-(MH1-Pad1)_1*%
X94000000Y-55500000D03*
D20*
%TO.N,unconnected-(MH1-Pad1)*%
X94000000Y-55500000D03*
%TD*%
D12*
%TO.P,J12,1,Pin_1*%
%TO.N,/VDDA_8*%
X125033400Y-62308106D03*
%TO.P,J12,2,Pin_2*%
%TO.N,/scrutTemp8*%
X127533400Y-62308106D03*
%TO.P,J12,3,Pin_3*%
%TO.N,/GNDA_8*%
X130033400Y-62308106D03*
%TD*%
D14*
%TO.P,TEMP2,*%
%TO.N,*%
X119250000Y-62100000D03*
X119250000Y-53900000D03*
D15*
%TO.P,TEMP2,1,A*%
%TO.N,/rawTemp8*%
X119250000Y-60000000D03*
D16*
%TO.P,TEMP2,2,B*%
%TO.N,/inputTemp8*%
X119250000Y-58000000D03*
%TO.P,TEMP2,3,C*%
%TO.N,/scrutTemp8*%
X119250000Y-56000000D03*
%TD*%
D19*
%TO.P,MH4,1,1*%
%TO.N,unconnected-(MH4-Pad1)*%
X143000000Y-101500000D03*
D20*
%TO.N,unconnected-(MH4-Pad1)_2*%
X143000000Y-101500000D03*
%TD*%
D13*
%TO.P,J9,1,Pin_1*%
%TO.N,/scrut+*%
X138000000Y-71500000D03*
%TD*%
D14*
%TO.P,TEMP1,*%
%TO.N,*%
X118860000Y-103000000D03*
X118860000Y-94800000D03*
D15*
%TO.P,TEMP1,1,A*%
%TO.N,/rawTemp7*%
X118860000Y-100900000D03*
D16*
%TO.P,TEMP1,2,B*%
%TO.N,/inputTemp7*%
X118860000Y-98900000D03*
%TO.P,TEMP1,3,C*%
%TO.N,/scrutTemp7*%
X118860000Y-96900000D03*
%TD*%
D17*
%TO.P,J1,1,Pin_1*%
%TO.N,/GND_Seg7*%
X100951000Y-74810000D03*
%TO.P,J1,2,Pin_2*%
%TO.N,/inputVolt7*%
X100951000Y-72310000D03*
%TO.P,J1,3,Pin_3*%
%TO.N,unconnected-(J1-Pin_3-Pad3)*%
X100951000Y-69810000D03*
%TO.P,J1,4,Pin_4*%
%TO.N,/voltTap7*%
X100951000Y-67310000D03*
%TD*%
D13*
%TO.P,J7,1,Pin_1*%
%TO.N,/scrutVolt7*%
X110000000Y-71500000D03*
%TD*%
D19*
%TO.P,MH3,1,1*%
%TO.N,unconnected-(MH3-Pad1)_1*%
X143000000Y-55500000D03*
D20*
%TO.N,unconnected-(MH3-Pad1)_2*%
X143000000Y-55500000D03*
%TD*%
D21*
%TO.N,/voltTap7*%
X99500000Y-60400000D02*
X100950000Y-60400000D01*
X101551000Y-61001000D02*
X101551000Y-66710000D01*
X100950000Y-60400000D02*
X101551000Y-61001000D01*
X101551000Y-66710000D02*
X100951000Y-67310000D01*
D22*
%TO.N,/GND_Seg7*%
X100951000Y-74810000D02*
X120690000Y-74810000D01*
X120690000Y-74810000D02*
X124000000Y-71500000D01*
D21*
%TO.N,/inputVolt7*%
X100951000Y-72310000D02*
X97449000Y-68808000D01*
X97600000Y-58400000D02*
X99500000Y-58400000D01*
X97449000Y-58551000D02*
X97600000Y-58400000D01*
X97449000Y-68808000D02*
X97449000Y-58551000D01*
%TO.N,/rawTemp7*%
X107670000Y-94820000D02*
X113750000Y-100900000D01*
X113750000Y-100900000D02*
X118860000Y-100900000D01*
D22*
%TO.N,/GNDA_7*%
X123024705Y-92750000D02*
X124966600Y-94691895D01*
X112670000Y-94820000D02*
X114740000Y-92750000D01*
X114740000Y-92750000D02*
X123024705Y-92750000D01*
D21*
%TO.N,/inputTemp7*%
X110170000Y-94820000D02*
X114250000Y-98900000D01*
X114250000Y-98900000D02*
X118860000Y-98900000D01*
D22*
%TO.N,/VDDA_7*%
X129966600Y-94691895D02*
X127274705Y-92000000D01*
X107990000Y-92000000D02*
X105170000Y-94820000D01*
X127274705Y-92000000D02*
X107990000Y-92000000D01*
%TO.N,/scrutVolt7*%
X103500000Y-70000000D02*
X103500000Y-58500000D01*
X103500000Y-58500000D02*
X101400000Y-56400000D01*
X105000000Y-71500000D02*
X103500000Y-70000000D01*
X101400000Y-56400000D02*
X99500000Y-56400000D01*
X110000000Y-71500000D02*
X105000000Y-71500000D01*
D21*
%TO.N,/scrutTemp7*%
X125258495Y-96900000D02*
X127466600Y-94691895D01*
X118860000Y-96900000D02*
X125258495Y-96900000D01*
%TO.N,/voltTap8*%
X98159268Y-100708106D02*
X99500000Y-100708106D01*
X100951000Y-81618106D02*
X95975581Y-86593525D01*
X95975581Y-98524419D02*
X98159268Y-100708106D01*
X95975581Y-86593525D02*
X95975581Y-98524419D01*
D22*
%TO.N,/GND_Seg8*%
X120750000Y-82250000D02*
X124000000Y-85500000D01*
X100951000Y-89118106D02*
X107819106Y-82250000D01*
X107819106Y-82250000D02*
X120750000Y-82250000D01*
D21*
%TO.N,/inputVolt8*%
X97449000Y-90120106D02*
X100951000Y-86618106D01*
X99500000Y-98708106D02*
X97449000Y-96657106D01*
X97449000Y-96657106D02*
X97449000Y-90120106D01*
D22*
%TO.N,/VDDA_8*%
X114888000Y-63899000D02*
X123442506Y-63899000D01*
X123442506Y-63899000D02*
X125033400Y-62308106D01*
X113440000Y-62451000D02*
X114888000Y-63899000D01*
%TO.N,/GNDA_8*%
X105940000Y-63690000D02*
X105940000Y-62451000D01*
X106750000Y-64500000D02*
X105940000Y-63690000D01*
X128500000Y-64500000D02*
X106750000Y-64500000D01*
X130033400Y-62966600D02*
X128500000Y-64500000D01*
X130033400Y-62308106D02*
X130033400Y-62966600D01*
D21*
%TO.N,/rawTemp8*%
X113391000Y-60000000D02*
X119250000Y-60000000D01*
X110940000Y-62451000D02*
X113391000Y-60000000D01*
%TO.N,/inputTemp8*%
X112891000Y-58000000D02*
X119250000Y-58000000D01*
X108440000Y-62451000D02*
X112891000Y-58000000D01*
D22*
%TO.N,/scrutVolt8*%
X99500000Y-96708106D02*
X100950000Y-96708106D01*
X100950000Y-96708106D02*
X110000000Y-87658106D01*
X110000000Y-87658106D02*
X110000000Y-85500000D01*
D21*
%TO.N,/scrutTemp8*%
X127533400Y-62308106D02*
X121225294Y-56000000D01*
X121225294Y-56000000D02*
X119250000Y-56000000D01*
D22*
%TO.N,/scrut-*%
X138000000Y-85500000D02*
X134750000Y-88750000D01*
X134750000Y-82250000D02*
X134750000Y-62140000D01*
X138000000Y-85500000D02*
X134750000Y-82250000D01*
X134750000Y-88750000D02*
X134750000Y-94860000D01*
%TO.N,/scrut+*%
X138000000Y-62890000D02*
X137250000Y-62140000D01*
X142500000Y-76000000D02*
X138000000Y-71500000D01*
X142500000Y-89610000D02*
X142500000Y-76000000D01*
X137250000Y-94860000D02*
X142500000Y-89610000D01*
X138000000Y-71500000D02*
X138000000Y-62890000D01*
%TD*%
%TA.AperFunction,NonConductor*%
G36*
X124943039Y-76019685D02*
G01*
X124988794Y-76072489D01*
X125000000Y-76124000D01*
X125000000Y-80626000D01*
X124980315Y-80693039D01*
X124927511Y-80738794D01*
X124876000Y-80750000D01*
X109874000Y-80750000D01*
X109806961Y-80730315D01*
X109761206Y-80677511D01*
X109750000Y-80626000D01*
X109750000Y-76124000D01*
X109769685Y-76056961D01*
X109822489Y-76011206D01*
X109874000Y-76000000D01*
X124876000Y-76000000D01*
X124943039Y-76019685D01*
G37*
%TD.AperFunction*%
M02*
