%TF.GenerationSoftware,KiCad,Pcbnew,9.0.4*%
%TF.CreationDate,2025-09-21T22:31:07-05:00*%
%TF.ProjectId,Scrutineering,53637275-7469-46e6-9565-72696e672e6b,rev?*%
%TF.SameCoordinates,Original*%
%TF.FileFunction,Legend,Top*%
%TF.FilePolarity,Positive*%
%FSLAX46Y46*%
G04 Gerber Fmt 4.6, Leading zero omitted, Abs format (unit mm)*
G04 Created by KiCad (PCBNEW 9.0.4) date 2025-09-21 22:31:07*
%MOMM*%
%LPD*%
G01*
G04 APERTURE LIST*
G04 Aperture macros list*
%AMRoundRect*
0 Rectangle with rounded corners*
0 $1 Rounding radius*
0 $2 $3 $4 $5 $6 $7 $8 $9 X,Y pos of 4 corners*
0 Add a 4 corners polygon primitive as box body*
4,1,4,$2,$3,$4,$5,$6,$7,$8,$9,$2,$3,0*
0 Add four circle primitives for the rounded corners*
1,1,$1+$1,$2,$3*
1,1,$1+$1,$4,$5*
1,1,$1+$1,$6,$7*
1,1,$1+$1,$8,$9*
0 Add four rect primitives between the rounded corners*
20,1,$1+$1,$2,$3,$4,$5,0*
20,1,$1+$1,$4,$5,$6,$7,0*
20,1,$1+$1,$6,$7,$8,$9,0*
20,1,$1+$1,$8,$9,$2,$3,0*%
G04 Aperture macros list end*
%ADD10C,0.100000*%
%ADD11C,0.150000*%
%ADD12C,0.120000*%
%ADD13C,0.152400*%
%ADD14C,0.508000*%
%ADD15C,0.000000*%
%ADD16C,1.700000*%
%ADD17RoundRect,0.250000X-0.600000X0.850000X-0.600000X-0.850000X0.600000X-0.850000X0.600000X0.850000X0*%
%ADD18O,1.700000X2.200000*%
%ADD19C,4.000000*%
%ADD20O,3.500000X2.200000*%
%ADD21R,2.500000X1.500000*%
%ADD22O,2.500000X1.500000*%
%ADD23C,1.752600*%
%ADD24RoundRect,0.250000X0.600000X-0.850000X0.600000X0.850000X-0.600000X0.850000X-0.600000X-0.850000X0*%
%ADD25C,3.600000*%
%ADD26C,6.400000*%
%ADD27O,2.200000X3.500000*%
%ADD28R,1.500000X2.500000*%
%ADD29O,1.500000X2.500000*%
G04 APERTURE END LIST*
D10*
X125550000Y-82350000D02*
X129550000Y-82350000D01*
X129550000Y-84350000D01*
X125550000Y-84350000D01*
X125550000Y-82350000D01*
X113100000Y-76350000D02*
X115100000Y-76350000D01*
X115100000Y-80350000D01*
X113100000Y-80350000D01*
X113100000Y-76350000D01*
X132052693Y-73720038D02*
X131957455Y-73672419D01*
X131957455Y-73672419D02*
X131814598Y-73672419D01*
X131814598Y-73672419D02*
X131671741Y-73720038D01*
X131671741Y-73720038D02*
X131576503Y-73815276D01*
X131576503Y-73815276D02*
X131528884Y-73910514D01*
X131528884Y-73910514D02*
X131481265Y-74100990D01*
X131481265Y-74100990D02*
X131481265Y-74243847D01*
X131481265Y-74243847D02*
X131528884Y-74434323D01*
X131528884Y-74434323D02*
X131576503Y-74529561D01*
X131576503Y-74529561D02*
X131671741Y-74624800D01*
X131671741Y-74624800D02*
X131814598Y-74672419D01*
X131814598Y-74672419D02*
X131909836Y-74672419D01*
X131909836Y-74672419D02*
X132052693Y-74624800D01*
X132052693Y-74624800D02*
X132100312Y-74577180D01*
X132100312Y-74577180D02*
X132100312Y-74243847D01*
X132100312Y-74243847D02*
X131909836Y-74243847D01*
X132528884Y-74672419D02*
X132528884Y-73672419D01*
X132528884Y-73672419D02*
X133100312Y-74672419D01*
X133100312Y-74672419D02*
X133100312Y-73672419D01*
X133576503Y-74672419D02*
X133576503Y-73672419D01*
X133576503Y-73672419D02*
X133814598Y-73672419D01*
X133814598Y-73672419D02*
X133957455Y-73720038D01*
X133957455Y-73720038D02*
X134052693Y-73815276D01*
X134052693Y-73815276D02*
X134100312Y-73910514D01*
X134100312Y-73910514D02*
X134147931Y-74100990D01*
X134147931Y-74100990D02*
X134147931Y-74243847D01*
X134147931Y-74243847D02*
X134100312Y-74434323D01*
X134100312Y-74434323D02*
X134052693Y-74529561D01*
X134052693Y-74529561D02*
X133957455Y-74624800D01*
X133957455Y-74624800D02*
X133814598Y-74672419D01*
X133814598Y-74672419D02*
X133576503Y-74672419D01*
X135100312Y-74672419D02*
X134528884Y-74672419D01*
X134814598Y-74672419D02*
X134814598Y-73672419D01*
X134814598Y-73672419D02*
X134719360Y-73815276D01*
X134719360Y-73815276D02*
X134624122Y-73910514D01*
X134624122Y-73910514D02*
X134528884Y-73958133D01*
X114415789Y-79008133D02*
X114415789Y-78960514D01*
X114368169Y-79103371D02*
X114368169Y-78960514D01*
X114320550Y-79198609D02*
X114320550Y-78960514D01*
X114272931Y-79293847D02*
X114272931Y-78960514D01*
X114225312Y-79341466D02*
X114225312Y-78960514D01*
X114177693Y-79436704D02*
X114177693Y-78960514D01*
X114130074Y-79531942D02*
X114130074Y-78960514D01*
X114082455Y-79627180D02*
X114082455Y-78960514D01*
X114034836Y-79722419D02*
X114034836Y-78960514D01*
X113987217Y-79627180D02*
X113987217Y-78960514D01*
X113939598Y-79531942D02*
X113939598Y-78960514D01*
X113891979Y-79436704D02*
X113891979Y-78960514D01*
X113844360Y-79341466D02*
X113844360Y-78960514D01*
X113796741Y-79293847D02*
X113796741Y-78960514D01*
X113749122Y-79198609D02*
X113749122Y-78960514D01*
X113701503Y-79103371D02*
X113701503Y-78960514D01*
X113653884Y-78960514D02*
X114034836Y-79674800D01*
X114034836Y-79674800D02*
X114415789Y-78960514D01*
X113653884Y-79008133D02*
X113653884Y-78960514D01*
X114034836Y-79722419D02*
X113606265Y-78960514D01*
X113606265Y-78960514D02*
X114463408Y-78960514D01*
X114463408Y-78960514D02*
X114034836Y-79722419D01*
X115606265Y-79674800D02*
X115749122Y-79722419D01*
X115749122Y-79722419D02*
X115987217Y-79722419D01*
X115987217Y-79722419D02*
X116082455Y-79674800D01*
X116082455Y-79674800D02*
X116130074Y-79627180D01*
X116130074Y-79627180D02*
X116177693Y-79531942D01*
X116177693Y-79531942D02*
X116177693Y-79436704D01*
X116177693Y-79436704D02*
X116130074Y-79341466D01*
X116130074Y-79341466D02*
X116082455Y-79293847D01*
X116082455Y-79293847D02*
X115987217Y-79246228D01*
X115987217Y-79246228D02*
X115796741Y-79198609D01*
X115796741Y-79198609D02*
X115701503Y-79150990D01*
X115701503Y-79150990D02*
X115653884Y-79103371D01*
X115653884Y-79103371D02*
X115606265Y-79008133D01*
X115606265Y-79008133D02*
X115606265Y-78912895D01*
X115606265Y-78912895D02*
X115653884Y-78817657D01*
X115653884Y-78817657D02*
X115701503Y-78770038D01*
X115701503Y-78770038D02*
X115796741Y-78722419D01*
X115796741Y-78722419D02*
X116034836Y-78722419D01*
X116034836Y-78722419D02*
X116177693Y-78770038D01*
X117177693Y-79627180D02*
X117130074Y-79674800D01*
X117130074Y-79674800D02*
X116987217Y-79722419D01*
X116987217Y-79722419D02*
X116891979Y-79722419D01*
X116891979Y-79722419D02*
X116749122Y-79674800D01*
X116749122Y-79674800D02*
X116653884Y-79579561D01*
X116653884Y-79579561D02*
X116606265Y-79484323D01*
X116606265Y-79484323D02*
X116558646Y-79293847D01*
X116558646Y-79293847D02*
X116558646Y-79150990D01*
X116558646Y-79150990D02*
X116606265Y-78960514D01*
X116606265Y-78960514D02*
X116653884Y-78865276D01*
X116653884Y-78865276D02*
X116749122Y-78770038D01*
X116749122Y-78770038D02*
X116891979Y-78722419D01*
X116891979Y-78722419D02*
X116987217Y-78722419D01*
X116987217Y-78722419D02*
X117130074Y-78770038D01*
X117130074Y-78770038D02*
X117177693Y-78817657D01*
X118177693Y-79722419D02*
X117844360Y-79246228D01*
X117606265Y-79722419D02*
X117606265Y-78722419D01*
X117606265Y-78722419D02*
X117987217Y-78722419D01*
X117987217Y-78722419D02*
X118082455Y-78770038D01*
X118082455Y-78770038D02*
X118130074Y-78817657D01*
X118130074Y-78817657D02*
X118177693Y-78912895D01*
X118177693Y-78912895D02*
X118177693Y-79055752D01*
X118177693Y-79055752D02*
X118130074Y-79150990D01*
X118130074Y-79150990D02*
X118082455Y-79198609D01*
X118082455Y-79198609D02*
X117987217Y-79246228D01*
X117987217Y-79246228D02*
X117606265Y-79246228D01*
X118606265Y-78722419D02*
X118606265Y-79531942D01*
X118606265Y-79531942D02*
X118653884Y-79627180D01*
X118653884Y-79627180D02*
X118701503Y-79674800D01*
X118701503Y-79674800D02*
X118796741Y-79722419D01*
X118796741Y-79722419D02*
X118987217Y-79722419D01*
X118987217Y-79722419D02*
X119082455Y-79674800D01*
X119082455Y-79674800D02*
X119130074Y-79627180D01*
X119130074Y-79627180D02*
X119177693Y-79531942D01*
X119177693Y-79531942D02*
X119177693Y-78722419D01*
X119511027Y-78722419D02*
X120082455Y-78722419D01*
X119796741Y-79722419D02*
X119796741Y-78722419D01*
X121034837Y-78722419D02*
X121368170Y-79722419D01*
X121368170Y-79722419D02*
X121701503Y-78722419D01*
X122225313Y-78722419D02*
X122415789Y-78722419D01*
X122415789Y-78722419D02*
X122511027Y-78770038D01*
X122511027Y-78770038D02*
X122606265Y-78865276D01*
X122606265Y-78865276D02*
X122653884Y-79055752D01*
X122653884Y-79055752D02*
X122653884Y-79389085D01*
X122653884Y-79389085D02*
X122606265Y-79579561D01*
X122606265Y-79579561D02*
X122511027Y-79674800D01*
X122511027Y-79674800D02*
X122415789Y-79722419D01*
X122415789Y-79722419D02*
X122225313Y-79722419D01*
X122225313Y-79722419D02*
X122130075Y-79674800D01*
X122130075Y-79674800D02*
X122034837Y-79579561D01*
X122034837Y-79579561D02*
X121987218Y-79389085D01*
X121987218Y-79389085D02*
X121987218Y-79055752D01*
X121987218Y-79055752D02*
X122034837Y-78865276D01*
X122034837Y-78865276D02*
X122130075Y-78770038D01*
X122130075Y-78770038D02*
X122225313Y-78722419D01*
X123558646Y-79722419D02*
X123082456Y-79722419D01*
X123082456Y-79722419D02*
X123082456Y-78722419D01*
X123749123Y-78722419D02*
X124320551Y-78722419D01*
X124034837Y-79722419D02*
X124034837Y-78722419D01*
X132002693Y-82220038D02*
X131907455Y-82172419D01*
X131907455Y-82172419D02*
X131764598Y-82172419D01*
X131764598Y-82172419D02*
X131621741Y-82220038D01*
X131621741Y-82220038D02*
X131526503Y-82315276D01*
X131526503Y-82315276D02*
X131478884Y-82410514D01*
X131478884Y-82410514D02*
X131431265Y-82600990D01*
X131431265Y-82600990D02*
X131431265Y-82743847D01*
X131431265Y-82743847D02*
X131478884Y-82934323D01*
X131478884Y-82934323D02*
X131526503Y-83029561D01*
X131526503Y-83029561D02*
X131621741Y-83124800D01*
X131621741Y-83124800D02*
X131764598Y-83172419D01*
X131764598Y-83172419D02*
X131859836Y-83172419D01*
X131859836Y-83172419D02*
X132002693Y-83124800D01*
X132002693Y-83124800D02*
X132050312Y-83077180D01*
X132050312Y-83077180D02*
X132050312Y-82743847D01*
X132050312Y-82743847D02*
X131859836Y-82743847D01*
X132478884Y-83172419D02*
X132478884Y-82172419D01*
X132478884Y-82172419D02*
X133050312Y-83172419D01*
X133050312Y-83172419D02*
X133050312Y-82172419D01*
X133526503Y-83172419D02*
X133526503Y-82172419D01*
X133526503Y-82172419D02*
X133764598Y-82172419D01*
X133764598Y-82172419D02*
X133907455Y-82220038D01*
X133907455Y-82220038D02*
X134002693Y-82315276D01*
X134002693Y-82315276D02*
X134050312Y-82410514D01*
X134050312Y-82410514D02*
X134097931Y-82600990D01*
X134097931Y-82600990D02*
X134097931Y-82743847D01*
X134097931Y-82743847D02*
X134050312Y-82934323D01*
X134050312Y-82934323D02*
X134002693Y-83029561D01*
X134002693Y-83029561D02*
X133907455Y-83124800D01*
X133907455Y-83124800D02*
X133764598Y-83172419D01*
X133764598Y-83172419D02*
X133526503Y-83172419D01*
X134478884Y-82267657D02*
X134526503Y-82220038D01*
X134526503Y-82220038D02*
X134621741Y-82172419D01*
X134621741Y-82172419D02*
X134859836Y-82172419D01*
X134859836Y-82172419D02*
X134955074Y-82220038D01*
X134955074Y-82220038D02*
X135002693Y-82267657D01*
X135002693Y-82267657D02*
X135050312Y-82362895D01*
X135050312Y-82362895D02*
X135050312Y-82458133D01*
X135050312Y-82458133D02*
X135002693Y-82600990D01*
X135002693Y-82600990D02*
X134431265Y-83172419D01*
X134431265Y-83172419D02*
X135050312Y-83172419D01*
X102294360Y-69772419D02*
X102484836Y-69772419D01*
X102484836Y-69772419D02*
X102580074Y-69820038D01*
X102580074Y-69820038D02*
X102675312Y-69915276D01*
X102675312Y-69915276D02*
X102722931Y-70105752D01*
X102722931Y-70105752D02*
X102722931Y-70439085D01*
X102722931Y-70439085D02*
X102675312Y-70629561D01*
X102675312Y-70629561D02*
X102580074Y-70724800D01*
X102580074Y-70724800D02*
X102484836Y-70772419D01*
X102484836Y-70772419D02*
X102294360Y-70772419D01*
X102294360Y-70772419D02*
X102199122Y-70724800D01*
X102199122Y-70724800D02*
X102103884Y-70629561D01*
X102103884Y-70629561D02*
X102056265Y-70439085D01*
X102056265Y-70439085D02*
X102056265Y-70105752D01*
X102056265Y-70105752D02*
X102103884Y-69915276D01*
X102103884Y-69915276D02*
X102199122Y-69820038D01*
X102199122Y-69820038D02*
X102294360Y-69772419D01*
X103580074Y-70105752D02*
X103580074Y-70772419D01*
X103151503Y-70105752D02*
X103151503Y-70629561D01*
X103151503Y-70629561D02*
X103199122Y-70724800D01*
X103199122Y-70724800D02*
X103294360Y-70772419D01*
X103294360Y-70772419D02*
X103437217Y-70772419D01*
X103437217Y-70772419D02*
X103532455Y-70724800D01*
X103532455Y-70724800D02*
X103580074Y-70677180D01*
X103913408Y-70105752D02*
X104294360Y-70105752D01*
X104056265Y-69772419D02*
X104056265Y-70629561D01*
X104056265Y-70629561D02*
X104103884Y-70724800D01*
X104103884Y-70724800D02*
X104199122Y-70772419D01*
X104199122Y-70772419D02*
X104294360Y-70772419D01*
X105341979Y-69724800D02*
X104484837Y-71010514D01*
X105580075Y-69772419D02*
X106246741Y-70772419D01*
X106246741Y-69772419D02*
X105580075Y-70772419D01*
X117636027Y-73697419D02*
X117969360Y-74697419D01*
X117969360Y-74697419D02*
X118302693Y-73697419D01*
X118778884Y-74697419D02*
X118683646Y-74649800D01*
X118683646Y-74649800D02*
X118636027Y-74602180D01*
X118636027Y-74602180D02*
X118588408Y-74506942D01*
X118588408Y-74506942D02*
X118588408Y-74221228D01*
X118588408Y-74221228D02*
X118636027Y-74125990D01*
X118636027Y-74125990D02*
X118683646Y-74078371D01*
X118683646Y-74078371D02*
X118778884Y-74030752D01*
X118778884Y-74030752D02*
X118921741Y-74030752D01*
X118921741Y-74030752D02*
X119016979Y-74078371D01*
X119016979Y-74078371D02*
X119064598Y-74125990D01*
X119064598Y-74125990D02*
X119112217Y-74221228D01*
X119112217Y-74221228D02*
X119112217Y-74506942D01*
X119112217Y-74506942D02*
X119064598Y-74602180D01*
X119064598Y-74602180D02*
X119016979Y-74649800D01*
X119016979Y-74649800D02*
X118921741Y-74697419D01*
X118921741Y-74697419D02*
X118778884Y-74697419D01*
X119683646Y-74697419D02*
X119588408Y-74649800D01*
X119588408Y-74649800D02*
X119540789Y-74554561D01*
X119540789Y-74554561D02*
X119540789Y-73697419D01*
X119921742Y-74030752D02*
X120302694Y-74030752D01*
X120064599Y-73697419D02*
X120064599Y-74554561D01*
X120064599Y-74554561D02*
X120112218Y-74649800D01*
X120112218Y-74649800D02*
X120207456Y-74697419D01*
X120207456Y-74697419D02*
X120302694Y-74697419D01*
X121159837Y-74697419D02*
X120588409Y-74697419D01*
X120874123Y-74697419D02*
X120874123Y-73697419D01*
X120874123Y-73697419D02*
X120778885Y-73840276D01*
X120778885Y-73840276D02*
X120683647Y-73935514D01*
X120683647Y-73935514D02*
X120588409Y-73983133D01*
X118511704Y-59268734D02*
X118511704Y-58792544D01*
X118797419Y-59363972D02*
X117797419Y-59030639D01*
X117797419Y-59030639D02*
X118797419Y-58697306D01*
X118797419Y-58363972D02*
X117797419Y-58363972D01*
X117797419Y-58363972D02*
X118511704Y-58030639D01*
X118511704Y-58030639D02*
X117797419Y-57697306D01*
X117797419Y-57697306D02*
X118797419Y-57697306D01*
X118797419Y-57221115D02*
X117797419Y-57221115D01*
X117797419Y-57221115D02*
X117797419Y-56840163D01*
X117797419Y-56840163D02*
X117845038Y-56744925D01*
X117845038Y-56744925D02*
X117892657Y-56697306D01*
X117892657Y-56697306D02*
X117987895Y-56649687D01*
X117987895Y-56649687D02*
X118130752Y-56649687D01*
X118130752Y-56649687D02*
X118225990Y-56697306D01*
X118225990Y-56697306D02*
X118273609Y-56744925D01*
X118273609Y-56744925D02*
X118321228Y-56840163D01*
X118321228Y-56840163D02*
X118321228Y-57221115D01*
X118273609Y-56221115D02*
X118273609Y-55887782D01*
X118797419Y-55744925D02*
X118797419Y-56221115D01*
X118797419Y-56221115D02*
X117797419Y-56221115D01*
X117797419Y-56221115D02*
X117797419Y-55744925D01*
X118797419Y-54744925D02*
X118321228Y-55078258D01*
X118797419Y-55316353D02*
X117797419Y-55316353D01*
X117797419Y-55316353D02*
X117797419Y-54935401D01*
X117797419Y-54935401D02*
X117845038Y-54840163D01*
X117845038Y-54840163D02*
X117892657Y-54792544D01*
X117892657Y-54792544D02*
X117987895Y-54744925D01*
X117987895Y-54744925D02*
X118130752Y-54744925D01*
X118130752Y-54744925D02*
X118225990Y-54792544D01*
X118225990Y-54792544D02*
X118273609Y-54840163D01*
X118273609Y-54840163D02*
X118321228Y-54935401D01*
X118321228Y-54935401D02*
X118321228Y-55316353D01*
X118273609Y-54316353D02*
X118273609Y-53983020D01*
X118797419Y-53840163D02*
X118797419Y-54316353D01*
X118797419Y-54316353D02*
X117797419Y-54316353D01*
X117797419Y-54316353D02*
X117797419Y-53840163D01*
X118749800Y-53459210D02*
X118797419Y-53316353D01*
X118797419Y-53316353D02*
X118797419Y-53078258D01*
X118797419Y-53078258D02*
X118749800Y-52983020D01*
X118749800Y-52983020D02*
X118702180Y-52935401D01*
X118702180Y-52935401D02*
X118606942Y-52887782D01*
X118606942Y-52887782D02*
X118511704Y-52887782D01*
X118511704Y-52887782D02*
X118416466Y-52935401D01*
X118416466Y-52935401D02*
X118368847Y-52983020D01*
X118368847Y-52983020D02*
X118321228Y-53078258D01*
X118321228Y-53078258D02*
X118273609Y-53268734D01*
X118273609Y-53268734D02*
X118225990Y-53363972D01*
X118225990Y-53363972D02*
X118178371Y-53411591D01*
X118178371Y-53411591D02*
X118083133Y-53459210D01*
X118083133Y-53459210D02*
X117987895Y-53459210D01*
X117987895Y-53459210D02*
X117892657Y-53411591D01*
X117892657Y-53411591D02*
X117845038Y-53363972D01*
X117845038Y-53363972D02*
X117797419Y-53268734D01*
X117797419Y-53268734D02*
X117797419Y-53030639D01*
X117797419Y-53030639D02*
X117845038Y-52887782D01*
X102103884Y-81091466D02*
X102865789Y-81091466D01*
X102484836Y-81472419D02*
X102484836Y-80710514D01*
X104056264Y-80424800D02*
X103199122Y-81710514D01*
X104580074Y-80472419D02*
X104770550Y-80472419D01*
X104770550Y-80472419D02*
X104865788Y-80520038D01*
X104865788Y-80520038D02*
X104961026Y-80615276D01*
X104961026Y-80615276D02*
X105008645Y-80805752D01*
X105008645Y-80805752D02*
X105008645Y-81139085D01*
X105008645Y-81139085D02*
X104961026Y-81329561D01*
X104961026Y-81329561D02*
X104865788Y-81424800D01*
X104865788Y-81424800D02*
X104770550Y-81472419D01*
X104770550Y-81472419D02*
X104580074Y-81472419D01*
X104580074Y-81472419D02*
X104484836Y-81424800D01*
X104484836Y-81424800D02*
X104389598Y-81329561D01*
X104389598Y-81329561D02*
X104341979Y-81139085D01*
X104341979Y-81139085D02*
X104341979Y-80805752D01*
X104341979Y-80805752D02*
X104389598Y-80615276D01*
X104389598Y-80615276D02*
X104484836Y-80520038D01*
X104484836Y-80520038D02*
X104580074Y-80472419D01*
X105865788Y-80805752D02*
X105865788Y-81472419D01*
X105437217Y-80805752D02*
X105437217Y-81329561D01*
X105437217Y-81329561D02*
X105484836Y-81424800D01*
X105484836Y-81424800D02*
X105580074Y-81472419D01*
X105580074Y-81472419D02*
X105722931Y-81472419D01*
X105722931Y-81472419D02*
X105818169Y-81424800D01*
X105818169Y-81424800D02*
X105865788Y-81377180D01*
X106199122Y-80805752D02*
X106580074Y-80805752D01*
X106341979Y-80472419D02*
X106341979Y-81329561D01*
X106341979Y-81329561D02*
X106389598Y-81424800D01*
X106389598Y-81424800D02*
X106484836Y-81472419D01*
X106484836Y-81472419D02*
X106580074Y-81472419D01*
X102103884Y-75391466D02*
X102865789Y-75391466D01*
X104056264Y-74724800D02*
X103199122Y-76010514D01*
X104913407Y-74820038D02*
X104818169Y-74772419D01*
X104818169Y-74772419D02*
X104675312Y-74772419D01*
X104675312Y-74772419D02*
X104532455Y-74820038D01*
X104532455Y-74820038D02*
X104437217Y-74915276D01*
X104437217Y-74915276D02*
X104389598Y-75010514D01*
X104389598Y-75010514D02*
X104341979Y-75200990D01*
X104341979Y-75200990D02*
X104341979Y-75343847D01*
X104341979Y-75343847D02*
X104389598Y-75534323D01*
X104389598Y-75534323D02*
X104437217Y-75629561D01*
X104437217Y-75629561D02*
X104532455Y-75724800D01*
X104532455Y-75724800D02*
X104675312Y-75772419D01*
X104675312Y-75772419D02*
X104770550Y-75772419D01*
X104770550Y-75772419D02*
X104913407Y-75724800D01*
X104913407Y-75724800D02*
X104961026Y-75677180D01*
X104961026Y-75677180D02*
X104961026Y-75343847D01*
X104961026Y-75343847D02*
X104770550Y-75343847D01*
X105389598Y-75772419D02*
X105389598Y-74772419D01*
X105389598Y-74772419D02*
X105961026Y-75772419D01*
X105961026Y-75772419D02*
X105961026Y-74772419D01*
X106437217Y-75772419D02*
X106437217Y-74772419D01*
X106437217Y-74772419D02*
X106675312Y-74772419D01*
X106675312Y-74772419D02*
X106818169Y-74820038D01*
X106818169Y-74820038D02*
X106913407Y-74915276D01*
X106913407Y-74915276D02*
X106961026Y-75010514D01*
X106961026Y-75010514D02*
X107008645Y-75200990D01*
X107008645Y-75200990D02*
X107008645Y-75343847D01*
X107008645Y-75343847D02*
X106961026Y-75534323D01*
X106961026Y-75534323D02*
X106913407Y-75629561D01*
X106913407Y-75629561D02*
X106818169Y-75724800D01*
X106818169Y-75724800D02*
X106675312Y-75772419D01*
X106675312Y-75772419D02*
X106437217Y-75772419D01*
X103741466Y-92016115D02*
X103741466Y-91254211D01*
X104122419Y-91635163D02*
X103360514Y-91635163D01*
X108541466Y-65496115D02*
X108541466Y-64734211D01*
X108922419Y-65115163D02*
X108160514Y-65115163D01*
X126874800Y-83796115D02*
X126922419Y-83796115D01*
X126779561Y-83748496D02*
X126922419Y-83748496D01*
X126684323Y-83700877D02*
X126922419Y-83700877D01*
X126589085Y-83653258D02*
X126922419Y-83653258D01*
X126541466Y-83605639D02*
X126922419Y-83605639D01*
X126446228Y-83558020D02*
X126922419Y-83558020D01*
X126350990Y-83510401D02*
X126922419Y-83510401D01*
X126255752Y-83462782D02*
X126922419Y-83462782D01*
X126160514Y-83415163D02*
X126922419Y-83415163D01*
X126255752Y-83367544D02*
X126922419Y-83367544D01*
X126350990Y-83319925D02*
X126922419Y-83319925D01*
X126446228Y-83272306D02*
X126922419Y-83272306D01*
X126541466Y-83224687D02*
X126922419Y-83224687D01*
X126589085Y-83177068D02*
X126922419Y-83177068D01*
X126684323Y-83129449D02*
X126922419Y-83129449D01*
X126779561Y-83081830D02*
X126922419Y-83081830D01*
X126922419Y-83034211D02*
X126208133Y-83415163D01*
X126208133Y-83415163D02*
X126922419Y-83796115D01*
X126874800Y-83034211D02*
X126922419Y-83034211D01*
X126160514Y-83415163D02*
X126922419Y-82986591D01*
X126922419Y-82986591D02*
X126922419Y-83843734D01*
X126922419Y-83843734D02*
X126160514Y-83415163D01*
X126398609Y-81462782D02*
X126446228Y-81319925D01*
X126446228Y-81319925D02*
X126493847Y-81272306D01*
X126493847Y-81272306D02*
X126589085Y-81224687D01*
X126589085Y-81224687D02*
X126731942Y-81224687D01*
X126731942Y-81224687D02*
X126827180Y-81272306D01*
X126827180Y-81272306D02*
X126874800Y-81319925D01*
X126874800Y-81319925D02*
X126922419Y-81415163D01*
X126922419Y-81415163D02*
X126922419Y-81796115D01*
X126922419Y-81796115D02*
X125922419Y-81796115D01*
X125922419Y-81796115D02*
X125922419Y-81462782D01*
X125922419Y-81462782D02*
X125970038Y-81367544D01*
X125970038Y-81367544D02*
X126017657Y-81319925D01*
X126017657Y-81319925D02*
X126112895Y-81272306D01*
X126112895Y-81272306D02*
X126208133Y-81272306D01*
X126208133Y-81272306D02*
X126303371Y-81319925D01*
X126303371Y-81319925D02*
X126350990Y-81367544D01*
X126350990Y-81367544D02*
X126398609Y-81462782D01*
X126398609Y-81462782D02*
X126398609Y-81796115D01*
X126636704Y-80843734D02*
X126636704Y-80367544D01*
X126922419Y-80938972D02*
X125922419Y-80605639D01*
X125922419Y-80605639D02*
X126922419Y-80272306D01*
X125922419Y-80081829D02*
X125922419Y-79510401D01*
X126922419Y-79796115D02*
X125922419Y-79796115D01*
X125922419Y-79319924D02*
X125922419Y-78748496D01*
X126922419Y-79034210D02*
X125922419Y-79034210D01*
X125922419Y-77796114D02*
X125922419Y-77224686D01*
X126922419Y-77510400D02*
X125922419Y-77510400D01*
X126398609Y-76891352D02*
X126398609Y-76558019D01*
X126922419Y-76415162D02*
X126922419Y-76891352D01*
X126922419Y-76891352D02*
X125922419Y-76891352D01*
X125922419Y-76891352D02*
X125922419Y-76415162D01*
X126922419Y-75986590D02*
X125922419Y-75986590D01*
X125922419Y-75986590D02*
X126636704Y-75653257D01*
X126636704Y-75653257D02*
X125922419Y-75319924D01*
X125922419Y-75319924D02*
X126922419Y-75319924D01*
X126922419Y-74843733D02*
X125922419Y-74843733D01*
X125922419Y-74843733D02*
X125922419Y-74462781D01*
X125922419Y-74462781D02*
X125970038Y-74367543D01*
X125970038Y-74367543D02*
X126017657Y-74319924D01*
X126017657Y-74319924D02*
X126112895Y-74272305D01*
X126112895Y-74272305D02*
X126255752Y-74272305D01*
X126255752Y-74272305D02*
X126350990Y-74319924D01*
X126350990Y-74319924D02*
X126398609Y-74367543D01*
X126398609Y-74367543D02*
X126446228Y-74462781D01*
X126446228Y-74462781D02*
X126446228Y-74843733D01*
X102294360Y-82972419D02*
X102484836Y-82972419D01*
X102484836Y-82972419D02*
X102580074Y-83020038D01*
X102580074Y-83020038D02*
X102675312Y-83115276D01*
X102675312Y-83115276D02*
X102722931Y-83305752D01*
X102722931Y-83305752D02*
X102722931Y-83639085D01*
X102722931Y-83639085D02*
X102675312Y-83829561D01*
X102675312Y-83829561D02*
X102580074Y-83924800D01*
X102580074Y-83924800D02*
X102484836Y-83972419D01*
X102484836Y-83972419D02*
X102294360Y-83972419D01*
X102294360Y-83972419D02*
X102199122Y-83924800D01*
X102199122Y-83924800D02*
X102103884Y-83829561D01*
X102103884Y-83829561D02*
X102056265Y-83639085D01*
X102056265Y-83639085D02*
X102056265Y-83305752D01*
X102056265Y-83305752D02*
X102103884Y-83115276D01*
X102103884Y-83115276D02*
X102199122Y-83020038D01*
X102199122Y-83020038D02*
X102294360Y-82972419D01*
X103580074Y-83305752D02*
X103580074Y-83972419D01*
X103151503Y-83305752D02*
X103151503Y-83829561D01*
X103151503Y-83829561D02*
X103199122Y-83924800D01*
X103199122Y-83924800D02*
X103294360Y-83972419D01*
X103294360Y-83972419D02*
X103437217Y-83972419D01*
X103437217Y-83972419D02*
X103532455Y-83924800D01*
X103532455Y-83924800D02*
X103580074Y-83877180D01*
X103913408Y-83305752D02*
X104294360Y-83305752D01*
X104056265Y-82972419D02*
X104056265Y-83829561D01*
X104056265Y-83829561D02*
X104103884Y-83924800D01*
X104103884Y-83924800D02*
X104199122Y-83972419D01*
X104199122Y-83972419D02*
X104294360Y-83972419D01*
X105341979Y-82924800D02*
X104484837Y-84210514D01*
X105580075Y-82972419D02*
X106246741Y-83972419D01*
X106246741Y-82972419D02*
X105580075Y-83972419D01*
X102103884Y-86472419D02*
X102103884Y-85472419D01*
X102580074Y-85805752D02*
X102580074Y-86472419D01*
X102580074Y-85900990D02*
X102627693Y-85853371D01*
X102627693Y-85853371D02*
X102722931Y-85805752D01*
X102722931Y-85805752D02*
X102865788Y-85805752D01*
X102865788Y-85805752D02*
X102961026Y-85853371D01*
X102961026Y-85853371D02*
X103008645Y-85948609D01*
X103008645Y-85948609D02*
X103008645Y-86472419D01*
X104199121Y-85424800D02*
X103341979Y-86710514D01*
X104532455Y-86472419D02*
X104532455Y-85472419D01*
X105008645Y-85805752D02*
X105008645Y-86472419D01*
X105008645Y-85900990D02*
X105056264Y-85853371D01*
X105056264Y-85853371D02*
X105151502Y-85805752D01*
X105151502Y-85805752D02*
X105294359Y-85805752D01*
X105294359Y-85805752D02*
X105389597Y-85853371D01*
X105389597Y-85853371D02*
X105437216Y-85948609D01*
X105437216Y-85948609D02*
X105437216Y-86472419D01*
X115483533Y-90978884D02*
X115483533Y-91740789D01*
X115102580Y-91359836D02*
X115864485Y-91359836D01*
X100147419Y-58388972D02*
X100147419Y-57817544D01*
X101147419Y-58103258D02*
X100147419Y-58103258D01*
X101147419Y-57484210D02*
X100147419Y-57484210D01*
X100623609Y-57484210D02*
X100623609Y-56912782D01*
X101147419Y-56912782D02*
X100147419Y-56912782D01*
X100623609Y-56436591D02*
X100623609Y-56103258D01*
X101147419Y-55960401D02*
X101147419Y-56436591D01*
X101147419Y-56436591D02*
X100147419Y-56436591D01*
X100147419Y-56436591D02*
X100147419Y-55960401D01*
X101147419Y-54960401D02*
X100671228Y-55293734D01*
X101147419Y-55531829D02*
X100147419Y-55531829D01*
X100147419Y-55531829D02*
X100147419Y-55150877D01*
X100147419Y-55150877D02*
X100195038Y-55055639D01*
X100195038Y-55055639D02*
X100242657Y-55008020D01*
X100242657Y-55008020D02*
X100337895Y-54960401D01*
X100337895Y-54960401D02*
X100480752Y-54960401D01*
X100480752Y-54960401D02*
X100575990Y-55008020D01*
X100575990Y-55008020D02*
X100623609Y-55055639D01*
X100623609Y-55055639D02*
X100671228Y-55150877D01*
X100671228Y-55150877D02*
X100671228Y-55531829D01*
X101147419Y-54531829D02*
X100147419Y-54531829D01*
X100147419Y-54531829D02*
X100861704Y-54198496D01*
X100861704Y-54198496D02*
X100147419Y-53865163D01*
X100147419Y-53865163D02*
X101147419Y-53865163D01*
X101147419Y-52865163D02*
X101147419Y-53436591D01*
X101147419Y-53150877D02*
X100147419Y-53150877D01*
X100147419Y-53150877D02*
X100290276Y-53246115D01*
X100290276Y-53246115D02*
X100385514Y-53341353D01*
X100385514Y-53341353D02*
X100433133Y-53436591D01*
X123056265Y-99861704D02*
X123532455Y-99861704D01*
X122961027Y-100147419D02*
X123294360Y-99147419D01*
X123294360Y-99147419D02*
X123627693Y-100147419D01*
X123961027Y-100147419D02*
X123961027Y-99480752D01*
X123961027Y-99575990D02*
X124008646Y-99528371D01*
X124008646Y-99528371D02*
X124103884Y-99480752D01*
X124103884Y-99480752D02*
X124246741Y-99480752D01*
X124246741Y-99480752D02*
X124341979Y-99528371D01*
X124341979Y-99528371D02*
X124389598Y-99623609D01*
X124389598Y-99623609D02*
X124389598Y-100147419D01*
X124389598Y-99623609D02*
X124437217Y-99528371D01*
X124437217Y-99528371D02*
X124532455Y-99480752D01*
X124532455Y-99480752D02*
X124675312Y-99480752D01*
X124675312Y-99480752D02*
X124770551Y-99528371D01*
X124770551Y-99528371D02*
X124818170Y-99623609D01*
X124818170Y-99623609D02*
X124818170Y-100147419D01*
X125294360Y-99480752D02*
X125294360Y-100480752D01*
X125294360Y-99528371D02*
X125389598Y-99480752D01*
X125389598Y-99480752D02*
X125580074Y-99480752D01*
X125580074Y-99480752D02*
X125675312Y-99528371D01*
X125675312Y-99528371D02*
X125722931Y-99575990D01*
X125722931Y-99575990D02*
X125770550Y-99671228D01*
X125770550Y-99671228D02*
X125770550Y-99956942D01*
X125770550Y-99956942D02*
X125722931Y-100052180D01*
X125722931Y-100052180D02*
X125675312Y-100099800D01*
X125675312Y-100099800D02*
X125580074Y-100147419D01*
X125580074Y-100147419D02*
X125389598Y-100147419D01*
X125389598Y-100147419D02*
X125294360Y-100099800D01*
X126580074Y-100099800D02*
X126484836Y-100147419D01*
X126484836Y-100147419D02*
X126294360Y-100147419D01*
X126294360Y-100147419D02*
X126199122Y-100099800D01*
X126199122Y-100099800D02*
X126151503Y-100004561D01*
X126151503Y-100004561D02*
X126151503Y-99623609D01*
X126151503Y-99623609D02*
X126199122Y-99528371D01*
X126199122Y-99528371D02*
X126294360Y-99480752D01*
X126294360Y-99480752D02*
X126484836Y-99480752D01*
X126484836Y-99480752D02*
X126580074Y-99528371D01*
X126580074Y-99528371D02*
X126627693Y-99623609D01*
X126627693Y-99623609D02*
X126627693Y-99718847D01*
X126627693Y-99718847D02*
X126151503Y-99814085D01*
X127056265Y-100147419D02*
X127056265Y-99480752D01*
X127056265Y-99671228D02*
X127103884Y-99575990D01*
X127103884Y-99575990D02*
X127151503Y-99528371D01*
X127151503Y-99528371D02*
X127246741Y-99480752D01*
X127246741Y-99480752D02*
X127341979Y-99480752D01*
X128056265Y-100099800D02*
X127961027Y-100147419D01*
X127961027Y-100147419D02*
X127770551Y-100147419D01*
X127770551Y-100147419D02*
X127675313Y-100099800D01*
X127675313Y-100099800D02*
X127627694Y-100004561D01*
X127627694Y-100004561D02*
X127627694Y-99623609D01*
X127627694Y-99623609D02*
X127675313Y-99528371D01*
X127675313Y-99528371D02*
X127770551Y-99480752D01*
X127770551Y-99480752D02*
X127961027Y-99480752D01*
X127961027Y-99480752D02*
X128056265Y-99528371D01*
X128056265Y-99528371D02*
X128103884Y-99623609D01*
X128103884Y-99623609D02*
X128103884Y-99718847D01*
X128103884Y-99718847D02*
X127627694Y-99814085D01*
X128484837Y-100099800D02*
X128580075Y-100147419D01*
X128580075Y-100147419D02*
X128770551Y-100147419D01*
X128770551Y-100147419D02*
X128865789Y-100099800D01*
X128865789Y-100099800D02*
X128913408Y-100004561D01*
X128913408Y-100004561D02*
X128913408Y-99956942D01*
X128913408Y-99956942D02*
X128865789Y-99861704D01*
X128865789Y-99861704D02*
X128770551Y-99814085D01*
X128770551Y-99814085D02*
X128627694Y-99814085D01*
X128627694Y-99814085D02*
X128532456Y-99766466D01*
X128532456Y-99766466D02*
X128484837Y-99671228D01*
X128484837Y-99671228D02*
X128484837Y-99623609D01*
X128484837Y-99623609D02*
X128532456Y-99528371D01*
X128532456Y-99528371D02*
X128627694Y-99480752D01*
X128627694Y-99480752D02*
X128770551Y-99480752D01*
X128770551Y-99480752D02*
X128865789Y-99528371D01*
X129341980Y-99766466D02*
X130103885Y-99766466D01*
X123056265Y-56736704D02*
X123532455Y-56736704D01*
X122961027Y-57022419D02*
X123294360Y-56022419D01*
X123294360Y-56022419D02*
X123627693Y-57022419D01*
X123961027Y-57022419D02*
X123961027Y-56355752D01*
X123961027Y-56450990D02*
X124008646Y-56403371D01*
X124008646Y-56403371D02*
X124103884Y-56355752D01*
X124103884Y-56355752D02*
X124246741Y-56355752D01*
X124246741Y-56355752D02*
X124341979Y-56403371D01*
X124341979Y-56403371D02*
X124389598Y-56498609D01*
X124389598Y-56498609D02*
X124389598Y-57022419D01*
X124389598Y-56498609D02*
X124437217Y-56403371D01*
X124437217Y-56403371D02*
X124532455Y-56355752D01*
X124532455Y-56355752D02*
X124675312Y-56355752D01*
X124675312Y-56355752D02*
X124770551Y-56403371D01*
X124770551Y-56403371D02*
X124818170Y-56498609D01*
X124818170Y-56498609D02*
X124818170Y-57022419D01*
X125294360Y-56355752D02*
X125294360Y-57355752D01*
X125294360Y-56403371D02*
X125389598Y-56355752D01*
X125389598Y-56355752D02*
X125580074Y-56355752D01*
X125580074Y-56355752D02*
X125675312Y-56403371D01*
X125675312Y-56403371D02*
X125722931Y-56450990D01*
X125722931Y-56450990D02*
X125770550Y-56546228D01*
X125770550Y-56546228D02*
X125770550Y-56831942D01*
X125770550Y-56831942D02*
X125722931Y-56927180D01*
X125722931Y-56927180D02*
X125675312Y-56974800D01*
X125675312Y-56974800D02*
X125580074Y-57022419D01*
X125580074Y-57022419D02*
X125389598Y-57022419D01*
X125389598Y-57022419D02*
X125294360Y-56974800D01*
X126580074Y-56974800D02*
X126484836Y-57022419D01*
X126484836Y-57022419D02*
X126294360Y-57022419D01*
X126294360Y-57022419D02*
X126199122Y-56974800D01*
X126199122Y-56974800D02*
X126151503Y-56879561D01*
X126151503Y-56879561D02*
X126151503Y-56498609D01*
X126151503Y-56498609D02*
X126199122Y-56403371D01*
X126199122Y-56403371D02*
X126294360Y-56355752D01*
X126294360Y-56355752D02*
X126484836Y-56355752D01*
X126484836Y-56355752D02*
X126580074Y-56403371D01*
X126580074Y-56403371D02*
X126627693Y-56498609D01*
X126627693Y-56498609D02*
X126627693Y-56593847D01*
X126627693Y-56593847D02*
X126151503Y-56689085D01*
X127056265Y-57022419D02*
X127056265Y-56355752D01*
X127056265Y-56546228D02*
X127103884Y-56450990D01*
X127103884Y-56450990D02*
X127151503Y-56403371D01*
X127151503Y-56403371D02*
X127246741Y-56355752D01*
X127246741Y-56355752D02*
X127341979Y-56355752D01*
X128056265Y-56974800D02*
X127961027Y-57022419D01*
X127961027Y-57022419D02*
X127770551Y-57022419D01*
X127770551Y-57022419D02*
X127675313Y-56974800D01*
X127675313Y-56974800D02*
X127627694Y-56879561D01*
X127627694Y-56879561D02*
X127627694Y-56498609D01*
X127627694Y-56498609D02*
X127675313Y-56403371D01*
X127675313Y-56403371D02*
X127770551Y-56355752D01*
X127770551Y-56355752D02*
X127961027Y-56355752D01*
X127961027Y-56355752D02*
X128056265Y-56403371D01*
X128056265Y-56403371D02*
X128103884Y-56498609D01*
X128103884Y-56498609D02*
X128103884Y-56593847D01*
X128103884Y-56593847D02*
X127627694Y-56689085D01*
X128484837Y-56974800D02*
X128580075Y-57022419D01*
X128580075Y-57022419D02*
X128770551Y-57022419D01*
X128770551Y-57022419D02*
X128865789Y-56974800D01*
X128865789Y-56974800D02*
X128913408Y-56879561D01*
X128913408Y-56879561D02*
X128913408Y-56831942D01*
X128913408Y-56831942D02*
X128865789Y-56736704D01*
X128865789Y-56736704D02*
X128770551Y-56689085D01*
X128770551Y-56689085D02*
X128627694Y-56689085D01*
X128627694Y-56689085D02*
X128532456Y-56641466D01*
X128532456Y-56641466D02*
X128484837Y-56546228D01*
X128484837Y-56546228D02*
X128484837Y-56498609D01*
X128484837Y-56498609D02*
X128532456Y-56403371D01*
X128532456Y-56403371D02*
X128627694Y-56355752D01*
X128627694Y-56355752D02*
X128770551Y-56355752D01*
X128770551Y-56355752D02*
X128865789Y-56403371D01*
X129341980Y-56641466D02*
X130103885Y-56641466D01*
X129722932Y-57022419D02*
X129722932Y-56260514D01*
X103541466Y-65496115D02*
X103541466Y-64734211D01*
X112958533Y-64878884D02*
X112958533Y-65640789D01*
X112983533Y-90978884D02*
X112983533Y-91740789D01*
X106622419Y-92016115D02*
X105622419Y-92016115D01*
X105955752Y-91539925D02*
X106622419Y-91539925D01*
X106050990Y-91539925D02*
X106003371Y-91492306D01*
X106003371Y-91492306D02*
X105955752Y-91397068D01*
X105955752Y-91397068D02*
X105955752Y-91254211D01*
X105955752Y-91254211D02*
X106003371Y-91158973D01*
X106003371Y-91158973D02*
X106098609Y-91111354D01*
X106098609Y-91111354D02*
X106622419Y-91111354D01*
X121487217Y-91113665D02*
X121630074Y-91161284D01*
X121630074Y-91161284D02*
X121677693Y-91208903D01*
X121677693Y-91208903D02*
X121725312Y-91304141D01*
X121725312Y-91304141D02*
X121725312Y-91446998D01*
X121725312Y-91446998D02*
X121677693Y-91542236D01*
X121677693Y-91542236D02*
X121630074Y-91589856D01*
X121630074Y-91589856D02*
X121534836Y-91637475D01*
X121534836Y-91637475D02*
X121153884Y-91637475D01*
X121153884Y-91637475D02*
X121153884Y-90637475D01*
X121153884Y-90637475D02*
X121487217Y-90637475D01*
X121487217Y-90637475D02*
X121582455Y-90685094D01*
X121582455Y-90685094D02*
X121630074Y-90732713D01*
X121630074Y-90732713D02*
X121677693Y-90827951D01*
X121677693Y-90827951D02*
X121677693Y-90923189D01*
X121677693Y-90923189D02*
X121630074Y-91018427D01*
X121630074Y-91018427D02*
X121582455Y-91066046D01*
X121582455Y-91066046D02*
X121487217Y-91113665D01*
X121487217Y-91113665D02*
X121153884Y-91113665D01*
X122153884Y-91637475D02*
X122153884Y-90637475D01*
X122153884Y-90637475D02*
X122534836Y-90637475D01*
X122534836Y-90637475D02*
X122630074Y-90685094D01*
X122630074Y-90685094D02*
X122677693Y-90732713D01*
X122677693Y-90732713D02*
X122725312Y-90827951D01*
X122725312Y-90827951D02*
X122725312Y-90970808D01*
X122725312Y-90970808D02*
X122677693Y-91066046D01*
X122677693Y-91066046D02*
X122630074Y-91113665D01*
X122630074Y-91113665D02*
X122534836Y-91161284D01*
X122534836Y-91161284D02*
X122153884Y-91161284D01*
X123106265Y-91589856D02*
X123249122Y-91637475D01*
X123249122Y-91637475D02*
X123487217Y-91637475D01*
X123487217Y-91637475D02*
X123582455Y-91589856D01*
X123582455Y-91589856D02*
X123630074Y-91542236D01*
X123630074Y-91542236D02*
X123677693Y-91446998D01*
X123677693Y-91446998D02*
X123677693Y-91351760D01*
X123677693Y-91351760D02*
X123630074Y-91256522D01*
X123630074Y-91256522D02*
X123582455Y-91208903D01*
X123582455Y-91208903D02*
X123487217Y-91161284D01*
X123487217Y-91161284D02*
X123296741Y-91113665D01*
X123296741Y-91113665D02*
X123201503Y-91066046D01*
X123201503Y-91066046D02*
X123153884Y-91018427D01*
X123153884Y-91018427D02*
X123106265Y-90923189D01*
X123106265Y-90923189D02*
X123106265Y-90827951D01*
X123106265Y-90827951D02*
X123153884Y-90732713D01*
X123153884Y-90732713D02*
X123201503Y-90685094D01*
X123201503Y-90685094D02*
X123296741Y-90637475D01*
X123296741Y-90637475D02*
X123534836Y-90637475D01*
X123534836Y-90637475D02*
X123677693Y-90685094D01*
X124820551Y-91589856D02*
X124963408Y-91637475D01*
X124963408Y-91637475D02*
X125201503Y-91637475D01*
X125201503Y-91637475D02*
X125296741Y-91589856D01*
X125296741Y-91589856D02*
X125344360Y-91542236D01*
X125344360Y-91542236D02*
X125391979Y-91446998D01*
X125391979Y-91446998D02*
X125391979Y-91351760D01*
X125391979Y-91351760D02*
X125344360Y-91256522D01*
X125344360Y-91256522D02*
X125296741Y-91208903D01*
X125296741Y-91208903D02*
X125201503Y-91161284D01*
X125201503Y-91161284D02*
X125011027Y-91113665D01*
X125011027Y-91113665D02*
X124915789Y-91066046D01*
X124915789Y-91066046D02*
X124868170Y-91018427D01*
X124868170Y-91018427D02*
X124820551Y-90923189D01*
X124820551Y-90923189D02*
X124820551Y-90827951D01*
X124820551Y-90827951D02*
X124868170Y-90732713D01*
X124868170Y-90732713D02*
X124915789Y-90685094D01*
X124915789Y-90685094D02*
X125011027Y-90637475D01*
X125011027Y-90637475D02*
X125249122Y-90637475D01*
X125249122Y-90637475D02*
X125391979Y-90685094D01*
X126249122Y-91589856D02*
X126153884Y-91637475D01*
X126153884Y-91637475D02*
X125963408Y-91637475D01*
X125963408Y-91637475D02*
X125868170Y-91589856D01*
X125868170Y-91589856D02*
X125820551Y-91542236D01*
X125820551Y-91542236D02*
X125772932Y-91446998D01*
X125772932Y-91446998D02*
X125772932Y-91161284D01*
X125772932Y-91161284D02*
X125820551Y-91066046D01*
X125820551Y-91066046D02*
X125868170Y-91018427D01*
X125868170Y-91018427D02*
X125963408Y-90970808D01*
X125963408Y-90970808D02*
X126153884Y-90970808D01*
X126153884Y-90970808D02*
X126249122Y-91018427D01*
X126677694Y-91637475D02*
X126677694Y-90970808D01*
X126677694Y-91161284D02*
X126725313Y-91066046D01*
X126725313Y-91066046D02*
X126772932Y-91018427D01*
X126772932Y-91018427D02*
X126868170Y-90970808D01*
X126868170Y-90970808D02*
X126963408Y-90970808D01*
X127725313Y-90970808D02*
X127725313Y-91637475D01*
X127296742Y-90970808D02*
X127296742Y-91494617D01*
X127296742Y-91494617D02*
X127344361Y-91589856D01*
X127344361Y-91589856D02*
X127439599Y-91637475D01*
X127439599Y-91637475D02*
X127582456Y-91637475D01*
X127582456Y-91637475D02*
X127677694Y-91589856D01*
X127677694Y-91589856D02*
X127725313Y-91542236D01*
X128058647Y-90970808D02*
X128439599Y-90970808D01*
X128201504Y-90637475D02*
X128201504Y-91494617D01*
X128201504Y-91494617D02*
X128249123Y-91589856D01*
X128249123Y-91589856D02*
X128344361Y-91637475D01*
X128344361Y-91637475D02*
X128439599Y-91637475D01*
X128772933Y-91637475D02*
X128772933Y-90970808D01*
X128772933Y-90637475D02*
X128725314Y-90685094D01*
X128725314Y-90685094D02*
X128772933Y-90732713D01*
X128772933Y-90732713D02*
X128820552Y-90685094D01*
X128820552Y-90685094D02*
X128772933Y-90637475D01*
X128772933Y-90637475D02*
X128772933Y-90732713D01*
X129249123Y-90970808D02*
X129249123Y-91637475D01*
X129249123Y-91066046D02*
X129296742Y-91018427D01*
X129296742Y-91018427D02*
X129391980Y-90970808D01*
X129391980Y-90970808D02*
X129534837Y-90970808D01*
X129534837Y-90970808D02*
X129630075Y-91018427D01*
X129630075Y-91018427D02*
X129677694Y-91113665D01*
X129677694Y-91113665D02*
X129677694Y-91637475D01*
X130534837Y-91589856D02*
X130439599Y-91637475D01*
X130439599Y-91637475D02*
X130249123Y-91637475D01*
X130249123Y-91637475D02*
X130153885Y-91589856D01*
X130153885Y-91589856D02*
X130106266Y-91494617D01*
X130106266Y-91494617D02*
X130106266Y-91113665D01*
X130106266Y-91113665D02*
X130153885Y-91018427D01*
X130153885Y-91018427D02*
X130249123Y-90970808D01*
X130249123Y-90970808D02*
X130439599Y-90970808D01*
X130439599Y-90970808D02*
X130534837Y-91018427D01*
X130534837Y-91018427D02*
X130582456Y-91113665D01*
X130582456Y-91113665D02*
X130582456Y-91208903D01*
X130582456Y-91208903D02*
X130106266Y-91304141D01*
X131391980Y-91589856D02*
X131296742Y-91637475D01*
X131296742Y-91637475D02*
X131106266Y-91637475D01*
X131106266Y-91637475D02*
X131011028Y-91589856D01*
X131011028Y-91589856D02*
X130963409Y-91494617D01*
X130963409Y-91494617D02*
X130963409Y-91113665D01*
X130963409Y-91113665D02*
X131011028Y-91018427D01*
X131011028Y-91018427D02*
X131106266Y-90970808D01*
X131106266Y-90970808D02*
X131296742Y-90970808D01*
X131296742Y-90970808D02*
X131391980Y-91018427D01*
X131391980Y-91018427D02*
X131439599Y-91113665D01*
X131439599Y-91113665D02*
X131439599Y-91208903D01*
X131439599Y-91208903D02*
X130963409Y-91304141D01*
X131868171Y-91637475D02*
X131868171Y-90970808D01*
X131868171Y-91161284D02*
X131915790Y-91066046D01*
X131915790Y-91066046D02*
X131963409Y-91018427D01*
X131963409Y-91018427D02*
X132058647Y-90970808D01*
X132058647Y-90970808D02*
X132153885Y-90970808D01*
X132487219Y-91637475D02*
X132487219Y-90970808D01*
X132487219Y-90637475D02*
X132439600Y-90685094D01*
X132439600Y-90685094D02*
X132487219Y-90732713D01*
X132487219Y-90732713D02*
X132534838Y-90685094D01*
X132534838Y-90685094D02*
X132487219Y-90637475D01*
X132487219Y-90637475D02*
X132487219Y-90732713D01*
X132963409Y-90970808D02*
X132963409Y-91637475D01*
X132963409Y-91066046D02*
X133011028Y-91018427D01*
X133011028Y-91018427D02*
X133106266Y-90970808D01*
X133106266Y-90970808D02*
X133249123Y-90970808D01*
X133249123Y-90970808D02*
X133344361Y-91018427D01*
X133344361Y-91018427D02*
X133391980Y-91113665D01*
X133391980Y-91113665D02*
X133391980Y-91637475D01*
X134296742Y-90970808D02*
X134296742Y-91780332D01*
X134296742Y-91780332D02*
X134249123Y-91875570D01*
X134249123Y-91875570D02*
X134201504Y-91923189D01*
X134201504Y-91923189D02*
X134106266Y-91970808D01*
X134106266Y-91970808D02*
X133963409Y-91970808D01*
X133963409Y-91970808D02*
X133868171Y-91923189D01*
X134296742Y-91589856D02*
X134201504Y-91637475D01*
X134201504Y-91637475D02*
X134011028Y-91637475D01*
X134011028Y-91637475D02*
X133915790Y-91589856D01*
X133915790Y-91589856D02*
X133868171Y-91542236D01*
X133868171Y-91542236D02*
X133820552Y-91446998D01*
X133820552Y-91446998D02*
X133820552Y-91161284D01*
X133820552Y-91161284D02*
X133868171Y-91066046D01*
X133868171Y-91066046D02*
X133915790Y-91018427D01*
X133915790Y-91018427D02*
X134011028Y-90970808D01*
X134011028Y-90970808D02*
X134201504Y-90970808D01*
X134201504Y-90970808D02*
X134296742Y-91018427D01*
X121106265Y-93199800D02*
X121249122Y-93247419D01*
X121249122Y-93247419D02*
X121487217Y-93247419D01*
X121487217Y-93247419D02*
X121582455Y-93199800D01*
X121582455Y-93199800D02*
X121630074Y-93152180D01*
X121630074Y-93152180D02*
X121677693Y-93056942D01*
X121677693Y-93056942D02*
X121677693Y-92961704D01*
X121677693Y-92961704D02*
X121630074Y-92866466D01*
X121630074Y-92866466D02*
X121582455Y-92818847D01*
X121582455Y-92818847D02*
X121487217Y-92771228D01*
X121487217Y-92771228D02*
X121296741Y-92723609D01*
X121296741Y-92723609D02*
X121201503Y-92675990D01*
X121201503Y-92675990D02*
X121153884Y-92628371D01*
X121153884Y-92628371D02*
X121106265Y-92533133D01*
X121106265Y-92533133D02*
X121106265Y-92437895D01*
X121106265Y-92437895D02*
X121153884Y-92342657D01*
X121153884Y-92342657D02*
X121201503Y-92295038D01*
X121201503Y-92295038D02*
X121296741Y-92247419D01*
X121296741Y-92247419D02*
X121534836Y-92247419D01*
X121534836Y-92247419D02*
X121677693Y-92295038D01*
X122487217Y-93199800D02*
X122391979Y-93247419D01*
X122391979Y-93247419D02*
X122201503Y-93247419D01*
X122201503Y-93247419D02*
X122106265Y-93199800D01*
X122106265Y-93199800D02*
X122058646Y-93104561D01*
X122058646Y-93104561D02*
X122058646Y-92723609D01*
X122058646Y-92723609D02*
X122106265Y-92628371D01*
X122106265Y-92628371D02*
X122201503Y-92580752D01*
X122201503Y-92580752D02*
X122391979Y-92580752D01*
X122391979Y-92580752D02*
X122487217Y-92628371D01*
X122487217Y-92628371D02*
X122534836Y-92723609D01*
X122534836Y-92723609D02*
X122534836Y-92818847D01*
X122534836Y-92818847D02*
X122058646Y-92914085D01*
X122963408Y-92580752D02*
X122963408Y-93580752D01*
X122963408Y-92628371D02*
X123058646Y-92580752D01*
X123058646Y-92580752D02*
X123249122Y-92580752D01*
X123249122Y-92580752D02*
X123344360Y-92628371D01*
X123344360Y-92628371D02*
X123391979Y-92675990D01*
X123391979Y-92675990D02*
X123439598Y-92771228D01*
X123439598Y-92771228D02*
X123439598Y-93056942D01*
X123439598Y-93056942D02*
X123391979Y-93152180D01*
X123391979Y-93152180D02*
X123344360Y-93199800D01*
X123344360Y-93199800D02*
X123249122Y-93247419D01*
X123249122Y-93247419D02*
X123058646Y-93247419D01*
X123058646Y-93247419D02*
X122963408Y-93199800D01*
X123725313Y-92580752D02*
X124106265Y-92580752D01*
X123868170Y-92247419D02*
X123868170Y-93104561D01*
X123868170Y-93104561D02*
X123915789Y-93199800D01*
X123915789Y-93199800D02*
X124011027Y-93247419D01*
X124011027Y-93247419D02*
X124106265Y-93247419D01*
X124820551Y-93199800D02*
X124725313Y-93247419D01*
X124725313Y-93247419D02*
X124534837Y-93247419D01*
X124534837Y-93247419D02*
X124439599Y-93199800D01*
X124439599Y-93199800D02*
X124391980Y-93104561D01*
X124391980Y-93104561D02*
X124391980Y-92723609D01*
X124391980Y-92723609D02*
X124439599Y-92628371D01*
X124439599Y-92628371D02*
X124534837Y-92580752D01*
X124534837Y-92580752D02*
X124725313Y-92580752D01*
X124725313Y-92580752D02*
X124820551Y-92628371D01*
X124820551Y-92628371D02*
X124868170Y-92723609D01*
X124868170Y-92723609D02*
X124868170Y-92818847D01*
X124868170Y-92818847D02*
X124391980Y-92914085D01*
X125296742Y-93247419D02*
X125296742Y-92580752D01*
X125296742Y-92675990D02*
X125344361Y-92628371D01*
X125344361Y-92628371D02*
X125439599Y-92580752D01*
X125439599Y-92580752D02*
X125582456Y-92580752D01*
X125582456Y-92580752D02*
X125677694Y-92628371D01*
X125677694Y-92628371D02*
X125725313Y-92723609D01*
X125725313Y-92723609D02*
X125725313Y-93247419D01*
X125725313Y-92723609D02*
X125772932Y-92628371D01*
X125772932Y-92628371D02*
X125868170Y-92580752D01*
X125868170Y-92580752D02*
X126011027Y-92580752D01*
X126011027Y-92580752D02*
X126106266Y-92628371D01*
X126106266Y-92628371D02*
X126153885Y-92723609D01*
X126153885Y-92723609D02*
X126153885Y-93247419D01*
X126630075Y-93247419D02*
X126630075Y-92247419D01*
X126630075Y-92628371D02*
X126725313Y-92580752D01*
X126725313Y-92580752D02*
X126915789Y-92580752D01*
X126915789Y-92580752D02*
X127011027Y-92628371D01*
X127011027Y-92628371D02*
X127058646Y-92675990D01*
X127058646Y-92675990D02*
X127106265Y-92771228D01*
X127106265Y-92771228D02*
X127106265Y-93056942D01*
X127106265Y-93056942D02*
X127058646Y-93152180D01*
X127058646Y-93152180D02*
X127011027Y-93199800D01*
X127011027Y-93199800D02*
X126915789Y-93247419D01*
X126915789Y-93247419D02*
X126725313Y-93247419D01*
X126725313Y-93247419D02*
X126630075Y-93199800D01*
X127915789Y-93199800D02*
X127820551Y-93247419D01*
X127820551Y-93247419D02*
X127630075Y-93247419D01*
X127630075Y-93247419D02*
X127534837Y-93199800D01*
X127534837Y-93199800D02*
X127487218Y-93104561D01*
X127487218Y-93104561D02*
X127487218Y-92723609D01*
X127487218Y-92723609D02*
X127534837Y-92628371D01*
X127534837Y-92628371D02*
X127630075Y-92580752D01*
X127630075Y-92580752D02*
X127820551Y-92580752D01*
X127820551Y-92580752D02*
X127915789Y-92628371D01*
X127915789Y-92628371D02*
X127963408Y-92723609D01*
X127963408Y-92723609D02*
X127963408Y-92818847D01*
X127963408Y-92818847D02*
X127487218Y-92914085D01*
X128391980Y-93247419D02*
X128391980Y-92580752D01*
X128391980Y-92771228D02*
X128439599Y-92675990D01*
X128439599Y-92675990D02*
X128487218Y-92628371D01*
X128487218Y-92628371D02*
X128582456Y-92580752D01*
X128582456Y-92580752D02*
X128677694Y-92580752D01*
X129725314Y-92342657D02*
X129772933Y-92295038D01*
X129772933Y-92295038D02*
X129868171Y-92247419D01*
X129868171Y-92247419D02*
X130106266Y-92247419D01*
X130106266Y-92247419D02*
X130201504Y-92295038D01*
X130201504Y-92295038D02*
X130249123Y-92342657D01*
X130249123Y-92342657D02*
X130296742Y-92437895D01*
X130296742Y-92437895D02*
X130296742Y-92533133D01*
X130296742Y-92533133D02*
X130249123Y-92675990D01*
X130249123Y-92675990D02*
X129677695Y-93247419D01*
X129677695Y-93247419D02*
X130296742Y-93247419D01*
X130915790Y-92247419D02*
X131011028Y-92247419D01*
X131011028Y-92247419D02*
X131106266Y-92295038D01*
X131106266Y-92295038D02*
X131153885Y-92342657D01*
X131153885Y-92342657D02*
X131201504Y-92437895D01*
X131201504Y-92437895D02*
X131249123Y-92628371D01*
X131249123Y-92628371D02*
X131249123Y-92866466D01*
X131249123Y-92866466D02*
X131201504Y-93056942D01*
X131201504Y-93056942D02*
X131153885Y-93152180D01*
X131153885Y-93152180D02*
X131106266Y-93199800D01*
X131106266Y-93199800D02*
X131011028Y-93247419D01*
X131011028Y-93247419D02*
X130915790Y-93247419D01*
X130915790Y-93247419D02*
X130820552Y-93199800D01*
X130820552Y-93199800D02*
X130772933Y-93152180D01*
X130772933Y-93152180D02*
X130725314Y-93056942D01*
X130725314Y-93056942D02*
X130677695Y-92866466D01*
X130677695Y-92866466D02*
X130677695Y-92628371D01*
X130677695Y-92628371D02*
X130725314Y-92437895D01*
X130725314Y-92437895D02*
X130772933Y-92342657D01*
X130772933Y-92342657D02*
X130820552Y-92295038D01*
X130820552Y-92295038D02*
X130915790Y-92247419D01*
X131630076Y-92342657D02*
X131677695Y-92295038D01*
X131677695Y-92295038D02*
X131772933Y-92247419D01*
X131772933Y-92247419D02*
X132011028Y-92247419D01*
X132011028Y-92247419D02*
X132106266Y-92295038D01*
X132106266Y-92295038D02*
X132153885Y-92342657D01*
X132153885Y-92342657D02*
X132201504Y-92437895D01*
X132201504Y-92437895D02*
X132201504Y-92533133D01*
X132201504Y-92533133D02*
X132153885Y-92675990D01*
X132153885Y-92675990D02*
X131582457Y-93247419D01*
X131582457Y-93247419D02*
X132201504Y-93247419D01*
X133106266Y-92247419D02*
X132630076Y-92247419D01*
X132630076Y-92247419D02*
X132582457Y-92723609D01*
X132582457Y-92723609D02*
X132630076Y-92675990D01*
X132630076Y-92675990D02*
X132725314Y-92628371D01*
X132725314Y-92628371D02*
X132963409Y-92628371D01*
X132963409Y-92628371D02*
X133058647Y-92675990D01*
X133058647Y-92675990D02*
X133106266Y-92723609D01*
X133106266Y-92723609D02*
X133153885Y-92818847D01*
X133153885Y-92818847D02*
X133153885Y-93056942D01*
X133153885Y-93056942D02*
X133106266Y-93152180D01*
X133106266Y-93152180D02*
X133058647Y-93199800D01*
X133058647Y-93199800D02*
X132963409Y-93247419D01*
X132963409Y-93247419D02*
X132725314Y-93247419D01*
X132725314Y-93247419D02*
X132630076Y-93199800D01*
X132630076Y-93199800D02*
X132582457Y-93152180D01*
X102103884Y-88591466D02*
X102865789Y-88591466D01*
X104056264Y-87924800D02*
X103199122Y-89210514D01*
X104913407Y-88020038D02*
X104818169Y-87972419D01*
X104818169Y-87972419D02*
X104675312Y-87972419D01*
X104675312Y-87972419D02*
X104532455Y-88020038D01*
X104532455Y-88020038D02*
X104437217Y-88115276D01*
X104437217Y-88115276D02*
X104389598Y-88210514D01*
X104389598Y-88210514D02*
X104341979Y-88400990D01*
X104341979Y-88400990D02*
X104341979Y-88543847D01*
X104341979Y-88543847D02*
X104389598Y-88734323D01*
X104389598Y-88734323D02*
X104437217Y-88829561D01*
X104437217Y-88829561D02*
X104532455Y-88924800D01*
X104532455Y-88924800D02*
X104675312Y-88972419D01*
X104675312Y-88972419D02*
X104770550Y-88972419D01*
X104770550Y-88972419D02*
X104913407Y-88924800D01*
X104913407Y-88924800D02*
X104961026Y-88877180D01*
X104961026Y-88877180D02*
X104961026Y-88543847D01*
X104961026Y-88543847D02*
X104770550Y-88543847D01*
X105389598Y-88972419D02*
X105389598Y-87972419D01*
X105389598Y-87972419D02*
X105961026Y-88972419D01*
X105961026Y-88972419D02*
X105961026Y-87972419D01*
X106437217Y-88972419D02*
X106437217Y-87972419D01*
X106437217Y-87972419D02*
X106675312Y-87972419D01*
X106675312Y-87972419D02*
X106818169Y-88020038D01*
X106818169Y-88020038D02*
X106913407Y-88115276D01*
X106913407Y-88115276D02*
X106961026Y-88210514D01*
X106961026Y-88210514D02*
X107008645Y-88400990D01*
X107008645Y-88400990D02*
X107008645Y-88543847D01*
X107008645Y-88543847D02*
X106961026Y-88734323D01*
X106961026Y-88734323D02*
X106913407Y-88829561D01*
X106913407Y-88829561D02*
X106818169Y-88924800D01*
X106818169Y-88924800D02*
X106675312Y-88972419D01*
X106675312Y-88972419D02*
X106437217Y-88972419D01*
X115458533Y-64878884D02*
X115458533Y-65640789D01*
X115077580Y-65259836D02*
X115839485Y-65259836D01*
X87836027Y-77597419D02*
X88407455Y-77597419D01*
X88121741Y-78597419D02*
X88121741Y-77597419D01*
X88740789Y-78073609D02*
X89074122Y-78073609D01*
X89216979Y-78597419D02*
X88740789Y-78597419D01*
X88740789Y-78597419D02*
X88740789Y-77597419D01*
X88740789Y-77597419D02*
X89216979Y-77597419D01*
X89645551Y-78597419D02*
X89645551Y-77597419D01*
X89645551Y-77597419D02*
X89978884Y-78311704D01*
X89978884Y-78311704D02*
X90312217Y-77597419D01*
X90312217Y-77597419D02*
X90312217Y-78597419D01*
X90788408Y-78597419D02*
X90788408Y-77597419D01*
X90788408Y-77597419D02*
X91169360Y-77597419D01*
X91169360Y-77597419D02*
X91264598Y-77645038D01*
X91264598Y-77645038D02*
X91312217Y-77692657D01*
X91312217Y-77692657D02*
X91359836Y-77787895D01*
X91359836Y-77787895D02*
X91359836Y-77930752D01*
X91359836Y-77930752D02*
X91312217Y-78025990D01*
X91312217Y-78025990D02*
X91264598Y-78073609D01*
X91264598Y-78073609D02*
X91169360Y-78121228D01*
X91169360Y-78121228D02*
X90788408Y-78121228D01*
X92502693Y-77549800D02*
X91645551Y-78835514D01*
X92693170Y-77597419D02*
X93026503Y-78597419D01*
X93026503Y-78597419D02*
X93359836Y-77597419D01*
X93883646Y-77597419D02*
X94074122Y-77597419D01*
X94074122Y-77597419D02*
X94169360Y-77645038D01*
X94169360Y-77645038D02*
X94264598Y-77740276D01*
X94264598Y-77740276D02*
X94312217Y-77930752D01*
X94312217Y-77930752D02*
X94312217Y-78264085D01*
X94312217Y-78264085D02*
X94264598Y-78454561D01*
X94264598Y-78454561D02*
X94169360Y-78549800D01*
X94169360Y-78549800D02*
X94074122Y-78597419D01*
X94074122Y-78597419D02*
X93883646Y-78597419D01*
X93883646Y-78597419D02*
X93788408Y-78549800D01*
X93788408Y-78549800D02*
X93693170Y-78454561D01*
X93693170Y-78454561D02*
X93645551Y-78264085D01*
X93645551Y-78264085D02*
X93645551Y-77930752D01*
X93645551Y-77930752D02*
X93693170Y-77740276D01*
X93693170Y-77740276D02*
X93788408Y-77645038D01*
X93788408Y-77645038D02*
X93883646Y-77597419D01*
X95216979Y-78597419D02*
X94740789Y-78597419D01*
X94740789Y-78597419D02*
X94740789Y-77597419D01*
X95407456Y-77597419D02*
X95978884Y-77597419D01*
X95693170Y-78597419D02*
X95693170Y-77597419D01*
X97026504Y-78549800D02*
X97169361Y-78597419D01*
X97169361Y-78597419D02*
X97407456Y-78597419D01*
X97407456Y-78597419D02*
X97502694Y-78549800D01*
X97502694Y-78549800D02*
X97550313Y-78502180D01*
X97550313Y-78502180D02*
X97597932Y-78406942D01*
X97597932Y-78406942D02*
X97597932Y-78311704D01*
X97597932Y-78311704D02*
X97550313Y-78216466D01*
X97550313Y-78216466D02*
X97502694Y-78168847D01*
X97502694Y-78168847D02*
X97407456Y-78121228D01*
X97407456Y-78121228D02*
X97216980Y-78073609D01*
X97216980Y-78073609D02*
X97121742Y-78025990D01*
X97121742Y-78025990D02*
X97074123Y-77978371D01*
X97074123Y-77978371D02*
X97026504Y-77883133D01*
X97026504Y-77883133D02*
X97026504Y-77787895D01*
X97026504Y-77787895D02*
X97074123Y-77692657D01*
X97074123Y-77692657D02*
X97121742Y-77645038D01*
X97121742Y-77645038D02*
X97216980Y-77597419D01*
X97216980Y-77597419D02*
X97455075Y-77597419D01*
X97455075Y-77597419D02*
X97597932Y-77645038D01*
X98597932Y-78502180D02*
X98550313Y-78549800D01*
X98550313Y-78549800D02*
X98407456Y-78597419D01*
X98407456Y-78597419D02*
X98312218Y-78597419D01*
X98312218Y-78597419D02*
X98169361Y-78549800D01*
X98169361Y-78549800D02*
X98074123Y-78454561D01*
X98074123Y-78454561D02*
X98026504Y-78359323D01*
X98026504Y-78359323D02*
X97978885Y-78168847D01*
X97978885Y-78168847D02*
X97978885Y-78025990D01*
X97978885Y-78025990D02*
X98026504Y-77835514D01*
X98026504Y-77835514D02*
X98074123Y-77740276D01*
X98074123Y-77740276D02*
X98169361Y-77645038D01*
X98169361Y-77645038D02*
X98312218Y-77597419D01*
X98312218Y-77597419D02*
X98407456Y-77597419D01*
X98407456Y-77597419D02*
X98550313Y-77645038D01*
X98550313Y-77645038D02*
X98597932Y-77692657D01*
X99597932Y-78597419D02*
X99264599Y-78121228D01*
X99026504Y-78597419D02*
X99026504Y-77597419D01*
X99026504Y-77597419D02*
X99407456Y-77597419D01*
X99407456Y-77597419D02*
X99502694Y-77645038D01*
X99502694Y-77645038D02*
X99550313Y-77692657D01*
X99550313Y-77692657D02*
X99597932Y-77787895D01*
X99597932Y-77787895D02*
X99597932Y-77930752D01*
X99597932Y-77930752D02*
X99550313Y-78025990D01*
X99550313Y-78025990D02*
X99502694Y-78073609D01*
X99502694Y-78073609D02*
X99407456Y-78121228D01*
X99407456Y-78121228D02*
X99026504Y-78121228D01*
X100026504Y-77597419D02*
X100026504Y-78406942D01*
X100026504Y-78406942D02*
X100074123Y-78502180D01*
X100074123Y-78502180D02*
X100121742Y-78549800D01*
X100121742Y-78549800D02*
X100216980Y-78597419D01*
X100216980Y-78597419D02*
X100407456Y-78597419D01*
X100407456Y-78597419D02*
X100502694Y-78549800D01*
X100502694Y-78549800D02*
X100550313Y-78502180D01*
X100550313Y-78502180D02*
X100597932Y-78406942D01*
X100597932Y-78406942D02*
X100597932Y-77597419D01*
X100931266Y-77597419D02*
X101502694Y-77597419D01*
X101216980Y-78597419D02*
X101216980Y-77597419D01*
X113653884Y-77674800D02*
X113653884Y-77722419D01*
X113701503Y-77579561D02*
X113701503Y-77722419D01*
X113749122Y-77484323D02*
X113749122Y-77722419D01*
X113796741Y-77389085D02*
X113796741Y-77722419D01*
X113844360Y-77341466D02*
X113844360Y-77722419D01*
X113891979Y-77246228D02*
X113891979Y-77722419D01*
X113939598Y-77150990D02*
X113939598Y-77722419D01*
X113987217Y-77055752D02*
X113987217Y-77722419D01*
X114034836Y-76960514D02*
X114034836Y-77722419D01*
X114082455Y-77055752D02*
X114082455Y-77722419D01*
X114130074Y-77150990D02*
X114130074Y-77722419D01*
X114177693Y-77246228D02*
X114177693Y-77722419D01*
X114225312Y-77341466D02*
X114225312Y-77722419D01*
X114272931Y-77389085D02*
X114272931Y-77722419D01*
X114320550Y-77484323D02*
X114320550Y-77722419D01*
X114368169Y-77579561D02*
X114368169Y-77722419D01*
X114415789Y-77722419D02*
X114034836Y-77008133D01*
X114034836Y-77008133D02*
X113653884Y-77722419D01*
X114415789Y-77674800D02*
X114415789Y-77722419D01*
X114034836Y-76960514D02*
X114463408Y-77722419D01*
X114463408Y-77722419D02*
X113606265Y-77722419D01*
X113606265Y-77722419D02*
X114034836Y-76960514D01*
X115987217Y-77198609D02*
X116130074Y-77246228D01*
X116130074Y-77246228D02*
X116177693Y-77293847D01*
X116177693Y-77293847D02*
X116225312Y-77389085D01*
X116225312Y-77389085D02*
X116225312Y-77531942D01*
X116225312Y-77531942D02*
X116177693Y-77627180D01*
X116177693Y-77627180D02*
X116130074Y-77674800D01*
X116130074Y-77674800D02*
X116034836Y-77722419D01*
X116034836Y-77722419D02*
X115653884Y-77722419D01*
X115653884Y-77722419D02*
X115653884Y-76722419D01*
X115653884Y-76722419D02*
X115987217Y-76722419D01*
X115987217Y-76722419D02*
X116082455Y-76770038D01*
X116082455Y-76770038D02*
X116130074Y-76817657D01*
X116130074Y-76817657D02*
X116177693Y-76912895D01*
X116177693Y-76912895D02*
X116177693Y-77008133D01*
X116177693Y-77008133D02*
X116130074Y-77103371D01*
X116130074Y-77103371D02*
X116082455Y-77150990D01*
X116082455Y-77150990D02*
X115987217Y-77198609D01*
X115987217Y-77198609D02*
X115653884Y-77198609D01*
X116606265Y-77436704D02*
X117082455Y-77436704D01*
X116511027Y-77722419D02*
X116844360Y-76722419D01*
X116844360Y-76722419D02*
X117177693Y-77722419D01*
X117368170Y-76722419D02*
X117939598Y-76722419D01*
X117653884Y-77722419D02*
X117653884Y-76722419D01*
X118130075Y-76722419D02*
X118701503Y-76722419D01*
X118415789Y-77722419D02*
X118415789Y-76722419D01*
X119653885Y-76722419D02*
X119987218Y-77722419D01*
X119987218Y-77722419D02*
X120320551Y-76722419D01*
X120844361Y-76722419D02*
X121034837Y-76722419D01*
X121034837Y-76722419D02*
X121130075Y-76770038D01*
X121130075Y-76770038D02*
X121225313Y-76865276D01*
X121225313Y-76865276D02*
X121272932Y-77055752D01*
X121272932Y-77055752D02*
X121272932Y-77389085D01*
X121272932Y-77389085D02*
X121225313Y-77579561D01*
X121225313Y-77579561D02*
X121130075Y-77674800D01*
X121130075Y-77674800D02*
X121034837Y-77722419D01*
X121034837Y-77722419D02*
X120844361Y-77722419D01*
X120844361Y-77722419D02*
X120749123Y-77674800D01*
X120749123Y-77674800D02*
X120653885Y-77579561D01*
X120653885Y-77579561D02*
X120606266Y-77389085D01*
X120606266Y-77389085D02*
X120606266Y-77055752D01*
X120606266Y-77055752D02*
X120653885Y-76865276D01*
X120653885Y-76865276D02*
X120749123Y-76770038D01*
X120749123Y-76770038D02*
X120844361Y-76722419D01*
X122177694Y-77722419D02*
X121701504Y-77722419D01*
X121701504Y-77722419D02*
X121701504Y-76722419D01*
X122368171Y-76722419D02*
X122939599Y-76722419D01*
X122653885Y-77722419D02*
X122653885Y-76722419D01*
X128208133Y-83034211D02*
X128160514Y-83034211D01*
X128303371Y-83081830D02*
X128160514Y-83081830D01*
X128398609Y-83129449D02*
X128160514Y-83129449D01*
X128493847Y-83177068D02*
X128160514Y-83177068D01*
X128541466Y-83224687D02*
X128160514Y-83224687D01*
X128636704Y-83272306D02*
X128160514Y-83272306D01*
X128731942Y-83319925D02*
X128160514Y-83319925D01*
X128827180Y-83367544D02*
X128160514Y-83367544D01*
X128922419Y-83415163D02*
X128160514Y-83415163D01*
X128827180Y-83462782D02*
X128160514Y-83462782D01*
X128731942Y-83510401D02*
X128160514Y-83510401D01*
X128636704Y-83558020D02*
X128160514Y-83558020D01*
X128541466Y-83605639D02*
X128160514Y-83605639D01*
X128493847Y-83653258D02*
X128160514Y-83653258D01*
X128398609Y-83700877D02*
X128160514Y-83700877D01*
X128303371Y-83748496D02*
X128160514Y-83748496D01*
X128160514Y-83796115D02*
X128874800Y-83415163D01*
X128874800Y-83415163D02*
X128160514Y-83034211D01*
X128208133Y-83796115D02*
X128160514Y-83796115D01*
X128922419Y-83415163D02*
X128160514Y-83843734D01*
X128160514Y-83843734D02*
X128160514Y-82986591D01*
X128160514Y-82986591D02*
X128922419Y-83415163D01*
X128874800Y-81843734D02*
X128922419Y-81700877D01*
X128922419Y-81700877D02*
X128922419Y-81462782D01*
X128922419Y-81462782D02*
X128874800Y-81367544D01*
X128874800Y-81367544D02*
X128827180Y-81319925D01*
X128827180Y-81319925D02*
X128731942Y-81272306D01*
X128731942Y-81272306D02*
X128636704Y-81272306D01*
X128636704Y-81272306D02*
X128541466Y-81319925D01*
X128541466Y-81319925D02*
X128493847Y-81367544D01*
X128493847Y-81367544D02*
X128446228Y-81462782D01*
X128446228Y-81462782D02*
X128398609Y-81653258D01*
X128398609Y-81653258D02*
X128350990Y-81748496D01*
X128350990Y-81748496D02*
X128303371Y-81796115D01*
X128303371Y-81796115D02*
X128208133Y-81843734D01*
X128208133Y-81843734D02*
X128112895Y-81843734D01*
X128112895Y-81843734D02*
X128017657Y-81796115D01*
X128017657Y-81796115D02*
X127970038Y-81748496D01*
X127970038Y-81748496D02*
X127922419Y-81653258D01*
X127922419Y-81653258D02*
X127922419Y-81415163D01*
X127922419Y-81415163D02*
X127970038Y-81272306D01*
X128827180Y-80272306D02*
X128874800Y-80319925D01*
X128874800Y-80319925D02*
X128922419Y-80462782D01*
X128922419Y-80462782D02*
X128922419Y-80558020D01*
X128922419Y-80558020D02*
X128874800Y-80700877D01*
X128874800Y-80700877D02*
X128779561Y-80796115D01*
X128779561Y-80796115D02*
X128684323Y-80843734D01*
X128684323Y-80843734D02*
X128493847Y-80891353D01*
X128493847Y-80891353D02*
X128350990Y-80891353D01*
X128350990Y-80891353D02*
X128160514Y-80843734D01*
X128160514Y-80843734D02*
X128065276Y-80796115D01*
X128065276Y-80796115D02*
X127970038Y-80700877D01*
X127970038Y-80700877D02*
X127922419Y-80558020D01*
X127922419Y-80558020D02*
X127922419Y-80462782D01*
X127922419Y-80462782D02*
X127970038Y-80319925D01*
X127970038Y-80319925D02*
X128017657Y-80272306D01*
X128922419Y-79272306D02*
X128446228Y-79605639D01*
X128922419Y-79843734D02*
X127922419Y-79843734D01*
X127922419Y-79843734D02*
X127922419Y-79462782D01*
X127922419Y-79462782D02*
X127970038Y-79367544D01*
X127970038Y-79367544D02*
X128017657Y-79319925D01*
X128017657Y-79319925D02*
X128112895Y-79272306D01*
X128112895Y-79272306D02*
X128255752Y-79272306D01*
X128255752Y-79272306D02*
X128350990Y-79319925D01*
X128350990Y-79319925D02*
X128398609Y-79367544D01*
X128398609Y-79367544D02*
X128446228Y-79462782D01*
X128446228Y-79462782D02*
X128446228Y-79843734D01*
X127922419Y-78843734D02*
X128731942Y-78843734D01*
X128731942Y-78843734D02*
X128827180Y-78796115D01*
X128827180Y-78796115D02*
X128874800Y-78748496D01*
X128874800Y-78748496D02*
X128922419Y-78653258D01*
X128922419Y-78653258D02*
X128922419Y-78462782D01*
X128922419Y-78462782D02*
X128874800Y-78367544D01*
X128874800Y-78367544D02*
X128827180Y-78319925D01*
X128827180Y-78319925D02*
X128731942Y-78272306D01*
X128731942Y-78272306D02*
X127922419Y-78272306D01*
X127922419Y-77938972D02*
X127922419Y-77367544D01*
X128922419Y-77653258D02*
X127922419Y-77653258D01*
X127922419Y-76415162D02*
X127922419Y-75843734D01*
X128922419Y-76129448D02*
X127922419Y-76129448D01*
X128398609Y-75510400D02*
X128398609Y-75177067D01*
X128922419Y-75034210D02*
X128922419Y-75510400D01*
X128922419Y-75510400D02*
X127922419Y-75510400D01*
X127922419Y-75510400D02*
X127922419Y-75034210D01*
X128922419Y-74605638D02*
X127922419Y-74605638D01*
X127922419Y-74605638D02*
X128636704Y-74272305D01*
X128636704Y-74272305D02*
X127922419Y-73938972D01*
X127922419Y-73938972D02*
X128922419Y-73938972D01*
X128922419Y-73462781D02*
X127922419Y-73462781D01*
X127922419Y-73462781D02*
X127922419Y-73081829D01*
X127922419Y-73081829D02*
X127970038Y-72986591D01*
X127970038Y-72986591D02*
X128017657Y-72938972D01*
X128017657Y-72938972D02*
X128112895Y-72891353D01*
X128112895Y-72891353D02*
X128255752Y-72891353D01*
X128255752Y-72891353D02*
X128350990Y-72938972D01*
X128350990Y-72938972D02*
X128398609Y-72986591D01*
X128398609Y-72986591D02*
X128446228Y-73081829D01*
X128446228Y-73081829D02*
X128446228Y-73462781D01*
X99947419Y-103588972D02*
X99947419Y-103017544D01*
X100947419Y-103303258D02*
X99947419Y-103303258D01*
X100947419Y-102684210D02*
X99947419Y-102684210D01*
X100423609Y-102684210D02*
X100423609Y-102112782D01*
X100947419Y-102112782D02*
X99947419Y-102112782D01*
X100423609Y-101636591D02*
X100423609Y-101303258D01*
X100947419Y-101160401D02*
X100947419Y-101636591D01*
X100947419Y-101636591D02*
X99947419Y-101636591D01*
X99947419Y-101636591D02*
X99947419Y-101160401D01*
X100947419Y-100160401D02*
X100471228Y-100493734D01*
X100947419Y-100731829D02*
X99947419Y-100731829D01*
X99947419Y-100731829D02*
X99947419Y-100350877D01*
X99947419Y-100350877D02*
X99995038Y-100255639D01*
X99995038Y-100255639D02*
X100042657Y-100208020D01*
X100042657Y-100208020D02*
X100137895Y-100160401D01*
X100137895Y-100160401D02*
X100280752Y-100160401D01*
X100280752Y-100160401D02*
X100375990Y-100208020D01*
X100375990Y-100208020D02*
X100423609Y-100255639D01*
X100423609Y-100255639D02*
X100471228Y-100350877D01*
X100471228Y-100350877D02*
X100471228Y-100731829D01*
X100947419Y-99731829D02*
X99947419Y-99731829D01*
X99947419Y-99731829D02*
X100661704Y-99398496D01*
X100661704Y-99398496D02*
X99947419Y-99065163D01*
X99947419Y-99065163D02*
X100947419Y-99065163D01*
X100042657Y-98636591D02*
X99995038Y-98588972D01*
X99995038Y-98588972D02*
X99947419Y-98493734D01*
X99947419Y-98493734D02*
X99947419Y-98255639D01*
X99947419Y-98255639D02*
X99995038Y-98160401D01*
X99995038Y-98160401D02*
X100042657Y-98112782D01*
X100042657Y-98112782D02*
X100137895Y-98065163D01*
X100137895Y-98065163D02*
X100233133Y-98065163D01*
X100233133Y-98065163D02*
X100375990Y-98112782D01*
X100375990Y-98112782D02*
X100947419Y-98684210D01*
X100947419Y-98684210D02*
X100947419Y-98065163D01*
X102103884Y-67891466D02*
X102865789Y-67891466D01*
X102484836Y-68272419D02*
X102484836Y-67510514D01*
X104056264Y-67224800D02*
X103199122Y-68510514D01*
X104580074Y-67272419D02*
X104770550Y-67272419D01*
X104770550Y-67272419D02*
X104865788Y-67320038D01*
X104865788Y-67320038D02*
X104961026Y-67415276D01*
X104961026Y-67415276D02*
X105008645Y-67605752D01*
X105008645Y-67605752D02*
X105008645Y-67939085D01*
X105008645Y-67939085D02*
X104961026Y-68129561D01*
X104961026Y-68129561D02*
X104865788Y-68224800D01*
X104865788Y-68224800D02*
X104770550Y-68272419D01*
X104770550Y-68272419D02*
X104580074Y-68272419D01*
X104580074Y-68272419D02*
X104484836Y-68224800D01*
X104484836Y-68224800D02*
X104389598Y-68129561D01*
X104389598Y-68129561D02*
X104341979Y-67939085D01*
X104341979Y-67939085D02*
X104341979Y-67605752D01*
X104341979Y-67605752D02*
X104389598Y-67415276D01*
X104389598Y-67415276D02*
X104484836Y-67320038D01*
X104484836Y-67320038D02*
X104580074Y-67272419D01*
X105865788Y-67605752D02*
X105865788Y-68272419D01*
X105437217Y-67605752D02*
X105437217Y-68129561D01*
X105437217Y-68129561D02*
X105484836Y-68224800D01*
X105484836Y-68224800D02*
X105580074Y-68272419D01*
X105580074Y-68272419D02*
X105722931Y-68272419D01*
X105722931Y-68272419D02*
X105818169Y-68224800D01*
X105818169Y-68224800D02*
X105865788Y-68177180D01*
X106199122Y-67605752D02*
X106580074Y-67605752D01*
X106341979Y-67272419D02*
X106341979Y-68129561D01*
X106341979Y-68129561D02*
X106389598Y-68224800D01*
X106389598Y-68224800D02*
X106484836Y-68272419D01*
X106484836Y-68272419D02*
X106580074Y-68272419D01*
X102103884Y-73272419D02*
X102103884Y-72272419D01*
X102580074Y-72605752D02*
X102580074Y-73272419D01*
X102580074Y-72700990D02*
X102627693Y-72653371D01*
X102627693Y-72653371D02*
X102722931Y-72605752D01*
X102722931Y-72605752D02*
X102865788Y-72605752D01*
X102865788Y-72605752D02*
X102961026Y-72653371D01*
X102961026Y-72653371D02*
X103008645Y-72748609D01*
X103008645Y-72748609D02*
X103008645Y-73272419D01*
X104199121Y-72224800D02*
X103341979Y-73510514D01*
X104532455Y-73272419D02*
X104532455Y-72272419D01*
X105008645Y-72605752D02*
X105008645Y-73272419D01*
X105008645Y-72700990D02*
X105056264Y-72653371D01*
X105056264Y-72653371D02*
X105151502Y-72605752D01*
X105151502Y-72605752D02*
X105294359Y-72605752D01*
X105294359Y-72605752D02*
X105389597Y-72653371D01*
X105389597Y-72653371D02*
X105437216Y-72748609D01*
X105437216Y-72748609D02*
X105437216Y-73272419D01*
X106422419Y-65496115D02*
X105422419Y-65496115D01*
X105755752Y-65019925D02*
X106422419Y-65019925D01*
X105850990Y-65019925D02*
X105803371Y-64972306D01*
X105803371Y-64972306D02*
X105755752Y-64877068D01*
X105755752Y-64877068D02*
X105755752Y-64734211D01*
X105755752Y-64734211D02*
X105803371Y-64638973D01*
X105803371Y-64638973D02*
X105898609Y-64591354D01*
X105898609Y-64591354D02*
X106422419Y-64591354D01*
X108741466Y-92016115D02*
X108741466Y-91254211D01*
X139372419Y-71771115D02*
X138372419Y-71771115D01*
X138372419Y-71771115D02*
X138372419Y-71390163D01*
X138372419Y-71390163D02*
X138420038Y-71294925D01*
X138420038Y-71294925D02*
X138467657Y-71247306D01*
X138467657Y-71247306D02*
X138562895Y-71199687D01*
X138562895Y-71199687D02*
X138705752Y-71199687D01*
X138705752Y-71199687D02*
X138800990Y-71247306D01*
X138800990Y-71247306D02*
X138848609Y-71294925D01*
X138848609Y-71294925D02*
X138896228Y-71390163D01*
X138896228Y-71390163D02*
X138896228Y-71771115D01*
X139372419Y-70771115D02*
X138372419Y-70771115D01*
X139372419Y-70342544D02*
X138848609Y-70342544D01*
X138848609Y-70342544D02*
X138753371Y-70390163D01*
X138753371Y-70390163D02*
X138705752Y-70485401D01*
X138705752Y-70485401D02*
X138705752Y-70628258D01*
X138705752Y-70628258D02*
X138753371Y-70723496D01*
X138753371Y-70723496D02*
X138800990Y-70771115D01*
X139372419Y-69723496D02*
X139324800Y-69818734D01*
X139324800Y-69818734D02*
X139277180Y-69866353D01*
X139277180Y-69866353D02*
X139181942Y-69913972D01*
X139181942Y-69913972D02*
X138896228Y-69913972D01*
X138896228Y-69913972D02*
X138800990Y-69866353D01*
X138800990Y-69866353D02*
X138753371Y-69818734D01*
X138753371Y-69818734D02*
X138705752Y-69723496D01*
X138705752Y-69723496D02*
X138705752Y-69580639D01*
X138705752Y-69580639D02*
X138753371Y-69485401D01*
X138753371Y-69485401D02*
X138800990Y-69437782D01*
X138800990Y-69437782D02*
X138896228Y-69390163D01*
X138896228Y-69390163D02*
X139181942Y-69390163D01*
X139181942Y-69390163D02*
X139277180Y-69437782D01*
X139277180Y-69437782D02*
X139324800Y-69485401D01*
X139324800Y-69485401D02*
X139372419Y-69580639D01*
X139372419Y-69580639D02*
X139372419Y-69723496D01*
X139324800Y-68580639D02*
X139372419Y-68675877D01*
X139372419Y-68675877D02*
X139372419Y-68866353D01*
X139372419Y-68866353D02*
X139324800Y-68961591D01*
X139324800Y-68961591D02*
X139229561Y-69009210D01*
X139229561Y-69009210D02*
X138848609Y-69009210D01*
X138848609Y-69009210D02*
X138753371Y-68961591D01*
X138753371Y-68961591D02*
X138705752Y-68866353D01*
X138705752Y-68866353D02*
X138705752Y-68675877D01*
X138705752Y-68675877D02*
X138753371Y-68580639D01*
X138753371Y-68580639D02*
X138848609Y-68533020D01*
X138848609Y-68533020D02*
X138943847Y-68533020D01*
X138943847Y-68533020D02*
X139039085Y-69009210D01*
X138705752Y-68104448D02*
X139372419Y-68104448D01*
X138800990Y-68104448D02*
X138753371Y-68056829D01*
X138753371Y-68056829D02*
X138705752Y-67961591D01*
X138705752Y-67961591D02*
X138705752Y-67818734D01*
X138705752Y-67818734D02*
X138753371Y-67723496D01*
X138753371Y-67723496D02*
X138848609Y-67675877D01*
X138848609Y-67675877D02*
X139372419Y-67675877D01*
X139372419Y-67199686D02*
X138705752Y-67199686D01*
X138372419Y-67199686D02*
X138420038Y-67247305D01*
X138420038Y-67247305D02*
X138467657Y-67199686D01*
X138467657Y-67199686D02*
X138420038Y-67152067D01*
X138420038Y-67152067D02*
X138372419Y-67199686D01*
X138372419Y-67199686D02*
X138467657Y-67199686D01*
X139372419Y-66818734D02*
X138705752Y-66294925D01*
X138705752Y-66818734D02*
X139372419Y-66294925D01*
X139372419Y-65152067D02*
X138372419Y-65152067D01*
X138372419Y-65152067D02*
X139372419Y-64580639D01*
X139372419Y-64580639D02*
X138372419Y-64580639D01*
X138705752Y-63675877D02*
X139515276Y-63675877D01*
X139515276Y-63675877D02*
X139610514Y-63723496D01*
X139610514Y-63723496D02*
X139658133Y-63771115D01*
X139658133Y-63771115D02*
X139705752Y-63866353D01*
X139705752Y-63866353D02*
X139705752Y-64009210D01*
X139705752Y-64009210D02*
X139658133Y-64104448D01*
X139324800Y-63675877D02*
X139372419Y-63771115D01*
X139372419Y-63771115D02*
X139372419Y-63961591D01*
X139372419Y-63961591D02*
X139324800Y-64056829D01*
X139324800Y-64056829D02*
X139277180Y-64104448D01*
X139277180Y-64104448D02*
X139181942Y-64152067D01*
X139181942Y-64152067D02*
X138896228Y-64152067D01*
X138896228Y-64152067D02*
X138800990Y-64104448D01*
X138800990Y-64104448D02*
X138753371Y-64056829D01*
X138753371Y-64056829D02*
X138705752Y-63961591D01*
X138705752Y-63961591D02*
X138705752Y-63771115D01*
X138705752Y-63771115D02*
X138753371Y-63675877D01*
X138705752Y-62771115D02*
X139372419Y-62771115D01*
X138705752Y-63199686D02*
X139229561Y-63199686D01*
X139229561Y-63199686D02*
X139324800Y-63152067D01*
X139324800Y-63152067D02*
X139372419Y-63056829D01*
X139372419Y-63056829D02*
X139372419Y-62913972D01*
X139372419Y-62913972D02*
X139324800Y-62818734D01*
X139324800Y-62818734D02*
X139277180Y-62771115D01*
X138705752Y-62390162D02*
X139372419Y-62152067D01*
X138705752Y-61913972D02*
X139372419Y-62152067D01*
X139372419Y-62152067D02*
X139610514Y-62247305D01*
X139610514Y-62247305D02*
X139658133Y-62294924D01*
X139658133Y-62294924D02*
X139705752Y-62390162D01*
X139324800Y-61152067D02*
X139372419Y-61247305D01*
X139372419Y-61247305D02*
X139372419Y-61437781D01*
X139372419Y-61437781D02*
X139324800Y-61533019D01*
X139324800Y-61533019D02*
X139229561Y-61580638D01*
X139229561Y-61580638D02*
X138848609Y-61580638D01*
X138848609Y-61580638D02*
X138753371Y-61533019D01*
X138753371Y-61533019D02*
X138705752Y-61437781D01*
X138705752Y-61437781D02*
X138705752Y-61247305D01*
X138705752Y-61247305D02*
X138753371Y-61152067D01*
X138753371Y-61152067D02*
X138848609Y-61104448D01*
X138848609Y-61104448D02*
X138943847Y-61104448D01*
X138943847Y-61104448D02*
X139039085Y-61580638D01*
X138705752Y-60675876D02*
X139372419Y-60675876D01*
X138800990Y-60675876D02*
X138753371Y-60628257D01*
X138753371Y-60628257D02*
X138705752Y-60533019D01*
X138705752Y-60533019D02*
X138705752Y-60390162D01*
X138705752Y-60390162D02*
X138753371Y-60294924D01*
X138753371Y-60294924D02*
X138848609Y-60247305D01*
X138848609Y-60247305D02*
X139372419Y-60247305D01*
X117536027Y-82072419D02*
X117869360Y-83072419D01*
X117869360Y-83072419D02*
X118202693Y-82072419D01*
X118678884Y-83072419D02*
X118583646Y-83024800D01*
X118583646Y-83024800D02*
X118536027Y-82977180D01*
X118536027Y-82977180D02*
X118488408Y-82881942D01*
X118488408Y-82881942D02*
X118488408Y-82596228D01*
X118488408Y-82596228D02*
X118536027Y-82500990D01*
X118536027Y-82500990D02*
X118583646Y-82453371D01*
X118583646Y-82453371D02*
X118678884Y-82405752D01*
X118678884Y-82405752D02*
X118821741Y-82405752D01*
X118821741Y-82405752D02*
X118916979Y-82453371D01*
X118916979Y-82453371D02*
X118964598Y-82500990D01*
X118964598Y-82500990D02*
X119012217Y-82596228D01*
X119012217Y-82596228D02*
X119012217Y-82881942D01*
X119012217Y-82881942D02*
X118964598Y-82977180D01*
X118964598Y-82977180D02*
X118916979Y-83024800D01*
X118916979Y-83024800D02*
X118821741Y-83072419D01*
X118821741Y-83072419D02*
X118678884Y-83072419D01*
X119583646Y-83072419D02*
X119488408Y-83024800D01*
X119488408Y-83024800D02*
X119440789Y-82929561D01*
X119440789Y-82929561D02*
X119440789Y-82072419D01*
X119821742Y-82405752D02*
X120202694Y-82405752D01*
X119964599Y-82072419D02*
X119964599Y-82929561D01*
X119964599Y-82929561D02*
X120012218Y-83024800D01*
X120012218Y-83024800D02*
X120107456Y-83072419D01*
X120107456Y-83072419D02*
X120202694Y-83072419D01*
X120488409Y-82167657D02*
X120536028Y-82120038D01*
X120536028Y-82120038D02*
X120631266Y-82072419D01*
X120631266Y-82072419D02*
X120869361Y-82072419D01*
X120869361Y-82072419D02*
X120964599Y-82120038D01*
X120964599Y-82120038D02*
X121012218Y-82167657D01*
X121012218Y-82167657D02*
X121059837Y-82262895D01*
X121059837Y-82262895D02*
X121059837Y-82358133D01*
X121059837Y-82358133D02*
X121012218Y-82500990D01*
X121012218Y-82500990D02*
X120440790Y-83072419D01*
X120440790Y-83072419D02*
X121059837Y-83072419D01*
X118636704Y-103568734D02*
X118636704Y-103092544D01*
X118922419Y-103663972D02*
X117922419Y-103330639D01*
X117922419Y-103330639D02*
X118922419Y-102997306D01*
X118922419Y-102663972D02*
X117922419Y-102663972D01*
X117922419Y-102663972D02*
X118636704Y-102330639D01*
X118636704Y-102330639D02*
X117922419Y-101997306D01*
X117922419Y-101997306D02*
X118922419Y-101997306D01*
X118922419Y-101521115D02*
X117922419Y-101521115D01*
X117922419Y-101521115D02*
X117922419Y-101140163D01*
X117922419Y-101140163D02*
X117970038Y-101044925D01*
X117970038Y-101044925D02*
X118017657Y-100997306D01*
X118017657Y-100997306D02*
X118112895Y-100949687D01*
X118112895Y-100949687D02*
X118255752Y-100949687D01*
X118255752Y-100949687D02*
X118350990Y-100997306D01*
X118350990Y-100997306D02*
X118398609Y-101044925D01*
X118398609Y-101044925D02*
X118446228Y-101140163D01*
X118446228Y-101140163D02*
X118446228Y-101521115D01*
X118398609Y-100521115D02*
X118398609Y-100187782D01*
X118922419Y-100044925D02*
X118922419Y-100521115D01*
X118922419Y-100521115D02*
X117922419Y-100521115D01*
X117922419Y-100521115D02*
X117922419Y-100044925D01*
X118922419Y-99044925D02*
X118446228Y-99378258D01*
X118922419Y-99616353D02*
X117922419Y-99616353D01*
X117922419Y-99616353D02*
X117922419Y-99235401D01*
X117922419Y-99235401D02*
X117970038Y-99140163D01*
X117970038Y-99140163D02*
X118017657Y-99092544D01*
X118017657Y-99092544D02*
X118112895Y-99044925D01*
X118112895Y-99044925D02*
X118255752Y-99044925D01*
X118255752Y-99044925D02*
X118350990Y-99092544D01*
X118350990Y-99092544D02*
X118398609Y-99140163D01*
X118398609Y-99140163D02*
X118446228Y-99235401D01*
X118446228Y-99235401D02*
X118446228Y-99616353D01*
X118398609Y-98616353D02*
X118398609Y-98283020D01*
X118922419Y-98140163D02*
X118922419Y-98616353D01*
X118922419Y-98616353D02*
X117922419Y-98616353D01*
X117922419Y-98616353D02*
X117922419Y-98140163D01*
X118874800Y-97759210D02*
X118922419Y-97616353D01*
X118922419Y-97616353D02*
X118922419Y-97378258D01*
X118922419Y-97378258D02*
X118874800Y-97283020D01*
X118874800Y-97283020D02*
X118827180Y-97235401D01*
X118827180Y-97235401D02*
X118731942Y-97187782D01*
X118731942Y-97187782D02*
X118636704Y-97187782D01*
X118636704Y-97187782D02*
X118541466Y-97235401D01*
X118541466Y-97235401D02*
X118493847Y-97283020D01*
X118493847Y-97283020D02*
X118446228Y-97378258D01*
X118446228Y-97378258D02*
X118398609Y-97568734D01*
X118398609Y-97568734D02*
X118350990Y-97663972D01*
X118350990Y-97663972D02*
X118303371Y-97711591D01*
X118303371Y-97711591D02*
X118208133Y-97759210D01*
X118208133Y-97759210D02*
X118112895Y-97759210D01*
X118112895Y-97759210D02*
X118017657Y-97711591D01*
X118017657Y-97711591D02*
X117970038Y-97663972D01*
X117970038Y-97663972D02*
X117922419Y-97568734D01*
X117922419Y-97568734D02*
X117922419Y-97330639D01*
X117922419Y-97330639D02*
X117970038Y-97187782D01*
D11*
X113565476Y-97529819D02*
X113565476Y-98244104D01*
X113565476Y-98244104D02*
X113517857Y-98386961D01*
X113517857Y-98386961D02*
X113422619Y-98482200D01*
X113422619Y-98482200D02*
X113279762Y-98529819D01*
X113279762Y-98529819D02*
X113184524Y-98529819D01*
X114565476Y-98529819D02*
X113994048Y-98529819D01*
X114279762Y-98529819D02*
X114279762Y-97529819D01*
X114279762Y-97529819D02*
X114184524Y-97672676D01*
X114184524Y-97672676D02*
X114089286Y-97767914D01*
X114089286Y-97767914D02*
X113994048Y-97815533D01*
X115517857Y-98529819D02*
X114946429Y-98529819D01*
X115232143Y-98529819D02*
X115232143Y-97529819D01*
X115232143Y-97529819D02*
X115136905Y-97672676D01*
X115136905Y-97672676D02*
X115041667Y-97767914D01*
X115041667Y-97767914D02*
X114946429Y-97815533D01*
X112344819Y-88509047D02*
X113344819Y-88175714D01*
X113344819Y-88175714D02*
X112344819Y-87842381D01*
X112344819Y-87318571D02*
X112344819Y-87128095D01*
X112344819Y-87128095D02*
X112392438Y-87032857D01*
X112392438Y-87032857D02*
X112487676Y-86937619D01*
X112487676Y-86937619D02*
X112678152Y-86890000D01*
X112678152Y-86890000D02*
X113011485Y-86890000D01*
X113011485Y-86890000D02*
X113201961Y-86937619D01*
X113201961Y-86937619D02*
X113297200Y-87032857D01*
X113297200Y-87032857D02*
X113344819Y-87128095D01*
X113344819Y-87128095D02*
X113344819Y-87318571D01*
X113344819Y-87318571D02*
X113297200Y-87413809D01*
X113297200Y-87413809D02*
X113201961Y-87509047D01*
X113201961Y-87509047D02*
X113011485Y-87556666D01*
X113011485Y-87556666D02*
X112678152Y-87556666D01*
X112678152Y-87556666D02*
X112487676Y-87509047D01*
X112487676Y-87509047D02*
X112392438Y-87413809D01*
X112392438Y-87413809D02*
X112344819Y-87318571D01*
X113344819Y-85985238D02*
X113344819Y-86461428D01*
X113344819Y-86461428D02*
X112344819Y-86461428D01*
X112344819Y-85794761D02*
X112344819Y-85223333D01*
X113344819Y-85509047D02*
X112344819Y-85509047D01*
X112440057Y-84937618D02*
X112392438Y-84889999D01*
X112392438Y-84889999D02*
X112344819Y-84794761D01*
X112344819Y-84794761D02*
X112344819Y-84556666D01*
X112344819Y-84556666D02*
X112392438Y-84461428D01*
X112392438Y-84461428D02*
X112440057Y-84413809D01*
X112440057Y-84413809D02*
X112535295Y-84366190D01*
X112535295Y-84366190D02*
X112630533Y-84366190D01*
X112630533Y-84366190D02*
X112773390Y-84413809D01*
X112773390Y-84413809D02*
X113344819Y-84985237D01*
X113344819Y-84985237D02*
X113344819Y-84366190D01*
X105833266Y-97421714D02*
X105833266Y-98135999D01*
X105833266Y-98135999D02*
X105785647Y-98278856D01*
X105785647Y-98278856D02*
X105690409Y-98374095D01*
X105690409Y-98374095D02*
X105547552Y-98421714D01*
X105547552Y-98421714D02*
X105452314Y-98421714D01*
X106738028Y-97755047D02*
X106738028Y-98421714D01*
X106499933Y-97374095D02*
X106261838Y-98088380D01*
X106261838Y-98088380D02*
X106880885Y-98088380D01*
X113340476Y-58254819D02*
X113340476Y-58969104D01*
X113340476Y-58969104D02*
X113292857Y-59111961D01*
X113292857Y-59111961D02*
X113197619Y-59207200D01*
X113197619Y-59207200D02*
X113054762Y-59254819D01*
X113054762Y-59254819D02*
X112959524Y-59254819D01*
X114340476Y-59254819D02*
X113769048Y-59254819D01*
X114054762Y-59254819D02*
X114054762Y-58254819D01*
X114054762Y-58254819D02*
X113959524Y-58397676D01*
X113959524Y-58397676D02*
X113864286Y-58492914D01*
X113864286Y-58492914D02*
X113769048Y-58540533D01*
X114721429Y-58350057D02*
X114769048Y-58302438D01*
X114769048Y-58302438D02*
X114864286Y-58254819D01*
X114864286Y-58254819D02*
X115102381Y-58254819D01*
X115102381Y-58254819D02*
X115197619Y-58302438D01*
X115197619Y-58302438D02*
X115245238Y-58350057D01*
X115245238Y-58350057D02*
X115292857Y-58445295D01*
X115292857Y-58445295D02*
X115292857Y-58540533D01*
X115292857Y-58540533D02*
X115245238Y-58683390D01*
X115245238Y-58683390D02*
X114673810Y-59254819D01*
X114673810Y-59254819D02*
X115292857Y-59254819D01*
X112344819Y-75509047D02*
X113344819Y-75175714D01*
X113344819Y-75175714D02*
X112344819Y-74842381D01*
X112344819Y-74318571D02*
X112344819Y-74128095D01*
X112344819Y-74128095D02*
X112392438Y-74032857D01*
X112392438Y-74032857D02*
X112487676Y-73937619D01*
X112487676Y-73937619D02*
X112678152Y-73890000D01*
X112678152Y-73890000D02*
X113011485Y-73890000D01*
X113011485Y-73890000D02*
X113201961Y-73937619D01*
X113201961Y-73937619D02*
X113297200Y-74032857D01*
X113297200Y-74032857D02*
X113344819Y-74128095D01*
X113344819Y-74128095D02*
X113344819Y-74318571D01*
X113344819Y-74318571D02*
X113297200Y-74413809D01*
X113297200Y-74413809D02*
X113201961Y-74509047D01*
X113201961Y-74509047D02*
X113011485Y-74556666D01*
X113011485Y-74556666D02*
X112678152Y-74556666D01*
X112678152Y-74556666D02*
X112487676Y-74509047D01*
X112487676Y-74509047D02*
X112392438Y-74413809D01*
X112392438Y-74413809D02*
X112344819Y-74318571D01*
X113344819Y-72985238D02*
X113344819Y-73461428D01*
X113344819Y-73461428D02*
X112344819Y-73461428D01*
X112344819Y-72794761D02*
X112344819Y-72223333D01*
X113344819Y-72509047D02*
X112344819Y-72509047D01*
X113344819Y-71366190D02*
X113344819Y-71937618D01*
X113344819Y-71651904D02*
X112344819Y-71651904D01*
X112344819Y-71651904D02*
X112487676Y-71747142D01*
X112487676Y-71747142D02*
X112582914Y-71842380D01*
X112582914Y-71842380D02*
X112630533Y-71937618D01*
X106416733Y-59353286D02*
X106416733Y-58639001D01*
X106416733Y-58639001D02*
X106464352Y-58496144D01*
X106464352Y-58496144D02*
X106559590Y-58400906D01*
X106559590Y-58400906D02*
X106702447Y-58353286D01*
X106702447Y-58353286D02*
X106797685Y-58353286D01*
X106035780Y-59353286D02*
X105416733Y-59353286D01*
X105416733Y-59353286D02*
X105750066Y-58972334D01*
X105750066Y-58972334D02*
X105607209Y-58972334D01*
X105607209Y-58972334D02*
X105511971Y-58924715D01*
X105511971Y-58924715D02*
X105464352Y-58877096D01*
X105464352Y-58877096D02*
X105416733Y-58781858D01*
X105416733Y-58781858D02*
X105416733Y-58543763D01*
X105416733Y-58543763D02*
X105464352Y-58448525D01*
X105464352Y-58448525D02*
X105511971Y-58400906D01*
X105511971Y-58400906D02*
X105607209Y-58353286D01*
X105607209Y-58353286D02*
X105892923Y-58353286D01*
X105892923Y-58353286D02*
X105988161Y-58400906D01*
X105988161Y-58400906D02*
X106035780Y-58448525D01*
X99795180Y-71133266D02*
X99080895Y-71133266D01*
X99080895Y-71133266D02*
X98938038Y-71085647D01*
X98938038Y-71085647D02*
X98842800Y-70990409D01*
X98842800Y-70990409D02*
X98795180Y-70847552D01*
X98795180Y-70847552D02*
X98795180Y-70752314D01*
X98795180Y-72133266D02*
X98795180Y-71561838D01*
X98795180Y-71847552D02*
X99795180Y-71847552D01*
X99795180Y-71847552D02*
X99652323Y-71752314D01*
X99652323Y-71752314D02*
X99557085Y-71657076D01*
X99557085Y-71657076D02*
X99509466Y-71561838D01*
X94064286Y-96229819D02*
X94635714Y-96229819D01*
X94350000Y-97229819D02*
X94350000Y-96229819D01*
X94969048Y-96706009D02*
X95302381Y-96706009D01*
X95445238Y-97229819D02*
X94969048Y-97229819D01*
X94969048Y-97229819D02*
X94969048Y-96229819D01*
X94969048Y-96229819D02*
X95445238Y-96229819D01*
X95873810Y-97229819D02*
X95873810Y-96229819D01*
X95873810Y-96229819D02*
X96207143Y-96944104D01*
X96207143Y-96944104D02*
X96540476Y-96229819D01*
X96540476Y-96229819D02*
X96540476Y-97229819D01*
X97016667Y-97229819D02*
X97016667Y-96229819D01*
X97016667Y-96229819D02*
X97397619Y-96229819D01*
X97397619Y-96229819D02*
X97492857Y-96277438D01*
X97492857Y-96277438D02*
X97540476Y-96325057D01*
X97540476Y-96325057D02*
X97588095Y-96420295D01*
X97588095Y-96420295D02*
X97588095Y-96563152D01*
X97588095Y-96563152D02*
X97540476Y-96658390D01*
X97540476Y-96658390D02*
X97492857Y-96706009D01*
X97492857Y-96706009D02*
X97397619Y-96753628D01*
X97397619Y-96753628D02*
X97016667Y-96753628D01*
X97969048Y-96325057D02*
X98016667Y-96277438D01*
X98016667Y-96277438D02*
X98111905Y-96229819D01*
X98111905Y-96229819D02*
X98350000Y-96229819D01*
X98350000Y-96229819D02*
X98445238Y-96277438D01*
X98445238Y-96277438D02*
X98492857Y-96325057D01*
X98492857Y-96325057D02*
X98540476Y-96420295D01*
X98540476Y-96420295D02*
X98540476Y-96515533D01*
X98540476Y-96515533D02*
X98492857Y-96658390D01*
X98492857Y-96658390D02*
X97921429Y-97229819D01*
X97921429Y-97229819D02*
X98540476Y-97229819D01*
X94789286Y-59229819D02*
X95360714Y-59229819D01*
X95075000Y-60229819D02*
X95075000Y-59229819D01*
X95694048Y-59706009D02*
X96027381Y-59706009D01*
X96170238Y-60229819D02*
X95694048Y-60229819D01*
X95694048Y-60229819D02*
X95694048Y-59229819D01*
X95694048Y-59229819D02*
X96170238Y-59229819D01*
X96598810Y-60229819D02*
X96598810Y-59229819D01*
X96598810Y-59229819D02*
X96932143Y-59944104D01*
X96932143Y-59944104D02*
X97265476Y-59229819D01*
X97265476Y-59229819D02*
X97265476Y-60229819D01*
X97741667Y-60229819D02*
X97741667Y-59229819D01*
X97741667Y-59229819D02*
X98122619Y-59229819D01*
X98122619Y-59229819D02*
X98217857Y-59277438D01*
X98217857Y-59277438D02*
X98265476Y-59325057D01*
X98265476Y-59325057D02*
X98313095Y-59420295D01*
X98313095Y-59420295D02*
X98313095Y-59563152D01*
X98313095Y-59563152D02*
X98265476Y-59658390D01*
X98265476Y-59658390D02*
X98217857Y-59706009D01*
X98217857Y-59706009D02*
X98122619Y-59753628D01*
X98122619Y-59753628D02*
X97741667Y-59753628D01*
X99265476Y-60229819D02*
X98694048Y-60229819D01*
X98979762Y-60229819D02*
X98979762Y-59229819D01*
X98979762Y-59229819D02*
X98884524Y-59372676D01*
X98884524Y-59372676D02*
X98789286Y-59467914D01*
X98789286Y-59467914D02*
X98694048Y-59515533D01*
X99795180Y-84383266D02*
X99080895Y-84383266D01*
X99080895Y-84383266D02*
X98938038Y-84335647D01*
X98938038Y-84335647D02*
X98842800Y-84240409D01*
X98842800Y-84240409D02*
X98795180Y-84097552D01*
X98795180Y-84097552D02*
X98795180Y-84002314D01*
X99699942Y-84811838D02*
X99747561Y-84859457D01*
X99747561Y-84859457D02*
X99795180Y-84954695D01*
X99795180Y-84954695D02*
X99795180Y-85192790D01*
X99795180Y-85192790D02*
X99747561Y-85288028D01*
X99747561Y-85288028D02*
X99699942Y-85335647D01*
X99699942Y-85335647D02*
X99604704Y-85383266D01*
X99604704Y-85383266D02*
X99509466Y-85383266D01*
X99509466Y-85383266D02*
X99366609Y-85335647D01*
X99366609Y-85335647D02*
X98795180Y-84764219D01*
X98795180Y-84764219D02*
X98795180Y-85383266D01*
D12*
%TO.C,J11*%
X111170000Y-95220000D02*
X111170000Y-103900000D01*
X111170000Y-103900000D02*
X117330000Y-103900000D01*
X112850000Y-94770000D02*
X112850000Y-95220000D01*
X112850000Y-95220000D02*
X113150000Y-95220000D01*
X113150000Y-94770000D02*
X112850000Y-94770000D01*
X113150000Y-95220000D02*
X113150000Y-94770000D01*
X115350000Y-94770000D02*
X115350000Y-95220000D01*
X115350000Y-95220000D02*
X115650000Y-95220000D01*
X115650000Y-94770000D02*
X115350000Y-94770000D01*
X115650000Y-95220000D02*
X115650000Y-94770000D01*
X116610000Y-93410000D02*
X117034264Y-93710000D01*
X117034264Y-93110000D02*
X116610000Y-93410000D01*
X117034264Y-93710000D02*
X117034264Y-93110000D01*
X117330000Y-95220000D02*
X111170000Y-95220000D01*
X117330000Y-103900000D02*
X117330000Y-95220000D01*
%TO.C,VOLT2*%
X107640000Y-79990000D02*
X107950000Y-79990000D01*
X107640000Y-88810000D02*
X107640000Y-79990000D01*
X107640000Y-88810000D02*
X107950000Y-88810000D01*
X111850000Y-79990000D02*
X112160000Y-79990000D01*
X112160000Y-79990000D02*
X112160000Y-88810000D01*
X112160000Y-88810000D02*
X111850000Y-88810000D01*
X112360000Y-82400000D02*
X112860000Y-82900000D01*
X112860000Y-81900000D02*
X112360000Y-82400000D01*
X112860000Y-82900000D02*
X112860000Y-81900000D01*
D13*
%TO.C,J4*%
X101823200Y-95309895D02*
X101823200Y-104022094D01*
X101823200Y-104022094D02*
X103436100Y-104022106D01*
X103436100Y-104022106D02*
X103436100Y-105469906D01*
X103436100Y-105469906D02*
X108897100Y-105469906D01*
X108897100Y-104022106D02*
X110510000Y-104022094D01*
X108897100Y-105469906D02*
X108897100Y-104022106D01*
X110510000Y-95309895D02*
X101823200Y-95309895D01*
X110510000Y-104022094D02*
X110510000Y-95309895D01*
D14*
X111526000Y-93516895D02*
G75*
G02*
X110764000Y-93516895I-381000J0D01*
G01*
X110764000Y-93516895D02*
G75*
G02*
X111526000Y-93516895I381000J0D01*
G01*
D12*
%TO.C,J12*%
X111145000Y-52675000D02*
X111145000Y-61355000D01*
X111145000Y-61355000D02*
X117305000Y-61355000D01*
X111440736Y-62865000D02*
X111440736Y-63465000D01*
X111440736Y-63465000D02*
X111865000Y-63165000D01*
X111865000Y-63165000D02*
X111440736Y-62865000D01*
X112825000Y-61355000D02*
X112825000Y-61805000D01*
X112825000Y-61805000D02*
X113125000Y-61805000D01*
X113125000Y-61355000D02*
X112825000Y-61355000D01*
X113125000Y-61805000D02*
X113125000Y-61355000D01*
X115325000Y-61355000D02*
X115325000Y-61805000D01*
X115325000Y-61805000D02*
X115625000Y-61805000D01*
X115625000Y-61355000D02*
X115325000Y-61355000D01*
X115625000Y-61805000D02*
X115625000Y-61355000D01*
X117305000Y-52675000D02*
X111145000Y-52675000D01*
X117305000Y-61355000D02*
X117305000Y-52675000D01*
%TO.C,VOLT1*%
X107640000Y-66990000D02*
X107950000Y-66990000D01*
X107640000Y-75810000D02*
X107640000Y-66990000D01*
X107640000Y-75810000D02*
X107950000Y-75810000D01*
X111850000Y-66990000D02*
X112160000Y-66990000D01*
X112160000Y-66990000D02*
X112160000Y-75810000D01*
X112160000Y-75810000D02*
X111850000Y-75810000D01*
X112360000Y-69400000D02*
X112860000Y-69900000D01*
X112860000Y-68900000D02*
X112360000Y-69400000D01*
X112860000Y-69900000D02*
X112860000Y-68900000D01*
D13*
%TO.C,J3*%
X101740000Y-52752907D02*
X101740000Y-61465106D01*
X101740000Y-61465106D02*
X110426800Y-61465106D01*
X103352900Y-51305095D02*
X103352900Y-52752895D01*
X103352900Y-52752895D02*
X101740000Y-52752907D01*
X108813900Y-51305095D02*
X103352900Y-51305095D01*
X108813900Y-52752895D02*
X108813900Y-51305095D01*
X110426800Y-52752907D02*
X108813900Y-52752895D01*
X110426800Y-61465106D02*
X110426800Y-52752907D01*
D14*
X101486000Y-63258106D02*
G75*
G02*
X100724000Y-63258106I-381000J0D01*
G01*
X100724000Y-63258106D02*
G75*
G02*
X101486000Y-63258106I381000J0D01*
G01*
D13*
%TO.C,J1*%
X86047004Y-68736100D02*
X86047004Y-74197100D01*
X86047004Y-74197100D02*
X87494804Y-74197100D01*
X87494799Y-65865900D02*
X87494799Y-68736100D01*
X87494799Y-68736100D02*
X86047004Y-68736100D01*
X87494799Y-77067300D02*
X96206999Y-77067300D01*
X87494804Y-74197100D02*
X87494799Y-77067300D01*
X96206999Y-65865900D02*
X87494799Y-65865900D01*
X96206999Y-77067300D02*
X96206999Y-65865900D01*
D14*
X100881000Y-77702300D02*
G75*
G02*
X100119000Y-77702300I-381000J0D01*
G01*
X100119000Y-77702300D02*
G75*
G02*
X100881000Y-77702300I381000J0D01*
G01*
D12*
%TO.C,TEMP2*%
X91590000Y-91115000D02*
X100410000Y-91115000D01*
X91590000Y-91425000D02*
X91590000Y-91115000D01*
X91590000Y-95635000D02*
X91590000Y-95325000D01*
X93500000Y-90415000D02*
X94000000Y-90915000D01*
X94000000Y-90915000D02*
X94500000Y-90415000D01*
X94500000Y-90415000D02*
X93500000Y-90415000D01*
X100410000Y-91115000D02*
X100410000Y-91425000D01*
X100410000Y-95635000D02*
X91590000Y-95635000D01*
X100410000Y-95635000D02*
X100410000Y-95325000D01*
%TO.C,TEMP1*%
X91590000Y-60615000D02*
X100410000Y-60615000D01*
X91590000Y-60925000D02*
X91590000Y-60615000D01*
X91590000Y-65135000D02*
X91590000Y-64825000D01*
X93500000Y-59915000D02*
X94000000Y-60415000D01*
X94000000Y-60415000D02*
X94500000Y-59915000D01*
X94500000Y-59915000D02*
X93500000Y-59915000D01*
X100410000Y-60615000D02*
X100410000Y-60925000D01*
X100410000Y-65135000D02*
X91590000Y-65135000D01*
X100410000Y-65135000D02*
X100410000Y-64825000D01*
D13*
%TO.C,J2*%
X86047004Y-81986100D02*
X86047004Y-87447100D01*
X86047004Y-87447100D02*
X87494804Y-87447100D01*
X87494799Y-79115900D02*
X87494799Y-81986100D01*
X87494799Y-81986100D02*
X86047004Y-81986100D01*
X87494799Y-90317300D02*
X96206999Y-90317300D01*
X87494804Y-87447100D02*
X87494799Y-90317300D01*
X96206999Y-79115900D02*
X87494799Y-79115900D01*
X96206999Y-90317300D02*
X96206999Y-79115900D01*
D14*
X100881000Y-90952300D02*
G75*
G02*
X100119000Y-90952300I-381000J0D01*
G01*
X100119000Y-90952300D02*
G75*
G02*
X100881000Y-90952300I381000J0D01*
G01*
%TD*%
%LPC*%
D15*
%TO.C,LOGO2*%
G36*
X120595639Y-64921515D02*
G01*
X120620838Y-66055443D01*
X121641373Y-66069086D01*
X122661909Y-66082729D01*
X122661909Y-66333669D01*
X122661909Y-66584610D01*
X121325596Y-66584610D01*
X119989283Y-66584610D01*
X120002679Y-65186098D01*
X120016076Y-63787586D01*
X120293258Y-63787586D01*
X120570441Y-63787586D01*
X120595639Y-64921515D01*
G37*
G36*
X133460718Y-64434808D02*
G01*
X133460718Y-64661594D01*
X132679567Y-64661594D01*
X131898416Y-64661594D01*
X131898416Y-64913578D01*
X131898416Y-65165562D01*
X132679567Y-65165562D01*
X133460718Y-65165562D01*
X133460718Y-65871118D01*
X133460718Y-66576673D01*
X132452781Y-66576673D01*
X131444845Y-66576673D01*
X131444845Y-66349888D01*
X131444845Y-66123102D01*
X132225996Y-66123102D01*
X133007146Y-66123102D01*
X133007146Y-65871118D01*
X133007146Y-65619134D01*
X132225996Y-65619134D01*
X131444845Y-65619134D01*
X131444845Y-64913578D01*
X131444845Y-64208023D01*
X132452781Y-64208023D01*
X133460718Y-64208023D01*
X133460718Y-64434808D01*
G37*
G36*
X126471673Y-63771480D02*
G01*
X126668457Y-63787586D01*
X126681853Y-65186098D01*
X126695249Y-66584610D01*
X126368523Y-66584610D01*
X126041797Y-66584610D01*
X126027548Y-66017646D01*
X126013298Y-65450681D01*
X124918827Y-65437104D01*
X123824355Y-65423526D01*
X123810096Y-65991469D01*
X123795838Y-66559411D01*
X123480056Y-66574436D01*
X123164274Y-66589461D01*
X123177675Y-65188524D01*
X123191076Y-63787586D01*
X123447536Y-63772635D01*
X123646635Y-63777471D01*
X123755208Y-63820030D01*
X123760573Y-63825854D01*
X123786120Y-63903183D01*
X123808896Y-64055853D01*
X123825721Y-64258411D01*
X123831692Y-64395171D01*
X123846234Y-64896316D01*
X124929766Y-64896316D01*
X126013298Y-64896316D01*
X126027597Y-64355084D01*
X126036906Y-64097165D01*
X126056616Y-63924389D01*
X126098626Y-63821119D01*
X126174835Y-63771715D01*
X126297143Y-63760540D01*
X126471673Y-63771480D01*
G37*
G36*
X128701234Y-63767490D02*
G01*
X129024362Y-63771334D01*
X129492570Y-63779803D01*
X129870500Y-63792479D01*
X130168668Y-63813466D01*
X130397589Y-63846867D01*
X130567779Y-63896788D01*
X130689753Y-63967331D01*
X130774027Y-64062602D01*
X130831117Y-64186704D01*
X130871538Y-64343742D01*
X130900197Y-64503466D01*
X130910626Y-64705924D01*
X130887033Y-64928415D01*
X130836540Y-65136958D01*
X130766267Y-65297576D01*
X130722216Y-65352770D01*
X130657975Y-65418686D01*
X130658142Y-65470992D01*
X130725133Y-65551182D01*
X130734344Y-65560995D01*
X130790408Y-65635961D01*
X130827075Y-65733385D01*
X130850161Y-65878244D01*
X130865479Y-66095515D01*
X130867283Y-66132039D01*
X130888921Y-66584610D01*
X130555177Y-66584610D01*
X130221433Y-66584610D01*
X130221433Y-66289025D01*
X130209187Y-66082323D01*
X130166743Y-65938961D01*
X130116981Y-65860652D01*
X130012530Y-65727864D01*
X129058648Y-65727864D01*
X128104766Y-65727864D01*
X128104766Y-66156237D01*
X128104766Y-66584610D01*
X127777187Y-66584610D01*
X127449607Y-66584610D01*
X127449607Y-65199657D01*
X127449607Y-64736726D01*
X127449607Y-64316753D01*
X128104766Y-64316753D01*
X128104766Y-64736726D01*
X128109033Y-64934263D01*
X128120387Y-65091984D01*
X128136661Y-65183622D01*
X128142564Y-65194709D01*
X128202664Y-65205809D01*
X128347089Y-65213814D01*
X128559409Y-65218371D01*
X128823190Y-65219129D01*
X129122003Y-65215736D01*
X129123564Y-65215708D01*
X129460327Y-65208617D01*
X129710810Y-65200220D01*
X129889526Y-65189014D01*
X130010986Y-65173495D01*
X130089704Y-65152161D01*
X130140194Y-65123507D01*
X130156698Y-65108703D01*
X130222040Y-64990572D01*
X130246252Y-64799107D01*
X130246631Y-64764072D01*
X130236636Y-64594739D01*
X130198255Y-64487806D01*
X130127655Y-64413094D01*
X130077565Y-64379156D01*
X130013268Y-64354211D01*
X129919659Y-64336897D01*
X129781633Y-64325857D01*
X129584085Y-64319733D01*
X129311909Y-64317164D01*
X129056723Y-64316753D01*
X128104766Y-64316753D01*
X127449607Y-64316753D01*
X127449607Y-63814705D01*
X127575453Y-63783119D01*
X127658609Y-63775336D01*
X127827650Y-63769760D01*
X128067692Y-63766513D01*
X128363849Y-63765716D01*
X128701234Y-63767490D01*
G37*
%TD*%
D16*
%TO.C,J11*%
X115500000Y-100590000D03*
X113000000Y-100590000D03*
D17*
X115500000Y-93410000D03*
D18*
X113000000Y-93410000D03*
%TD*%
D19*
%TO.C,J10*%
X126250000Y-97225000D03*
%TD*%
D20*
%TO.C,VOLT2*%
X109900000Y-80300000D03*
X109900000Y-88500000D03*
D21*
X109900000Y-82400000D03*
D22*
X109900000Y-84400000D03*
X109900000Y-86400000D03*
%TD*%
D23*
%TO.C,J4*%
X108666600Y-93516895D03*
X106166600Y-93516895D03*
X103666600Y-93516895D03*
%TD*%
D19*
%TO.C,J5*%
X133175000Y-71425000D03*
%TD*%
%TO.C,J8*%
X119375000Y-85200000D03*
%TD*%
D16*
%TO.C,J12*%
X112975000Y-55985000D03*
X115475000Y-55985000D03*
D24*
X112975000Y-63165000D03*
D18*
X115475000Y-63165000D03*
%TD*%
D25*
%TO.C,MH2*%
X136675000Y-100600000D03*
D26*
X136675000Y-100600000D03*
%TD*%
D20*
%TO.C,VOLT1*%
X109900000Y-67300000D03*
X109900000Y-75500000D03*
D21*
X109900000Y-69400000D03*
D22*
X109900000Y-71400000D03*
X109900000Y-73400000D03*
%TD*%
D23*
%TO.C,J3*%
X103583400Y-63258106D03*
X106083400Y-63258106D03*
X108583400Y-63258106D03*
%TD*%
D25*
%TO.C,MH1*%
X136650000Y-56050000D03*
D26*
X136650000Y-56050000D03*
%TD*%
D23*
%TO.C,J1*%
X100500000Y-75216600D03*
X100500000Y-72716600D03*
X100500000Y-70216600D03*
X100500000Y-67716600D03*
X98000000Y-75216600D03*
X98000000Y-72716600D03*
X98000000Y-70216600D03*
X98000000Y-67716600D03*
%TD*%
D27*
%TO.C,TEMP2*%
X91900000Y-93375000D03*
X100100000Y-93375000D03*
D28*
X94000000Y-93375000D03*
D29*
X96000000Y-93375000D03*
X98000000Y-93375000D03*
%TD*%
D25*
%TO.C,MH4*%
X90950000Y-100600000D03*
D26*
X90950000Y-100600000D03*
%TD*%
D19*
%TO.C,J9*%
X126375000Y-59325000D03*
%TD*%
D27*
%TO.C,TEMP1*%
X91900000Y-62875000D03*
X100100000Y-62875000D03*
D28*
X94000000Y-62875000D03*
D29*
X96000000Y-62875000D03*
X98000000Y-62875000D03*
%TD*%
D23*
%TO.C,J2*%
X100500000Y-88466600D03*
X100500000Y-85966600D03*
X100500000Y-83466600D03*
X100500000Y-80966600D03*
X98000000Y-88466600D03*
X98000000Y-85966600D03*
X98000000Y-83466600D03*
X98000000Y-80966600D03*
%TD*%
D19*
%TO.C,J7*%
X119475000Y-71325000D03*
%TD*%
D25*
%TO.C,MH3*%
X90950000Y-56025000D03*
D26*
X90950000Y-56025000D03*
%TD*%
D19*
%TO.C,J6*%
X133175000Y-85200000D03*
%TD*%
%LPD*%
M02*
